<?xml version="1.0" encoding="UTF-8"?>
<svg version="1.1" xmlns="http://www.w3.org/2000/svg" width="302" height="167">
<path d="M0 0 C99.66 0 199.32 0 302 0 C302 55.11 302 110.22 302 167 C202.34 167 102.68 167 0 167 C0 111.89 0 56.78 0 0 Z " fill="#FEFEFE" transform="translate(0,0)"/>
<path d="M0 0 C1.40879377 0.71366091 2.81764986 1.4271988 4.2265625 2.140625 C4.9474707 2.50736328 5.66837891 2.87410156 6.41113281 3.25195312 C10.05728908 5.10156923 13.7166593 6.92463778 17.375 8.75 C18.68235483 9.40351949 19.9896505 10.05715735 21.296875 10.7109375 C22.39515625 11.26007812 23.4934375 11.80921875 24.625 12.375 C25.945 13.035 27.265 13.695 28.625 14.375 C28.625 33.185 28.625 51.995 28.625 71.375 C22.210625 74.7575 15.79625 78.14 9.1875 81.625 C7.18115479 82.70555664 5.17480957 83.78611328 3.10766602 84.89941406 C1.49113552 85.73251924 -0.12670235 86.56309459 -1.74609375 87.390625 C-2.97253601 88.06907471 -2.97253601 88.06907471 -4.22375488 88.76123047 C-10.08157938 91.69756211 -10.08157938 91.69756211 -13.97561646 90.72644043 C-16.21976667 89.7373156 -18.29468388 88.6703224 -20.375 87.375 C-20.375 85.395 -20.375 83.415 -20.375 81.375 C-20.91125 81.725625 -21.4475 82.07625 -22 82.4375 C-25.16760623 83.68787088 -27.11188689 83.20813526 -30.375 82.375 C-31.86 81.385 -31.86 81.385 -33.375 80.375 C-33.375 79.055 -33.375 77.735 -33.375 76.375 C-35.0146875 76.684375 -35.0146875 76.684375 -36.6875 77 C-40.375 77.375 -40.375 77.375 -43.375 75.375 C-43.375 74.385 -43.375 73.395 -43.375 72.375 C-44.7671875 72.684375 -44.7671875 72.684375 -46.1875 73 C-49.375 73.375 -49.375 73.375 -52.375 71.375 C-52.75595093 68.98400879 -52.75595093 68.98400879 -52.76318359 65.94726562 C-52.77264008 64.81268921 -52.78209656 63.67811279 -52.7918396 62.50915527 C-52.78576691 61.27894653 -52.77969421 60.04873779 -52.7734375 58.78125 C-52.77630768 57.52364868 -52.77917786 56.26604736 -52.78213501 54.97033691 C-52.78417987 52.30689748 -52.78012067 49.64427948 -52.76611328 46.98095703 C-52.7490206 43.56415036 -52.75886058 40.14805056 -52.77683067 36.73126984 C-52.79026686 33.47707102 -52.78086446 30.22295803 -52.7734375 26.96875 C-52.77951019 25.73854126 -52.78558289 24.50833252 -52.7918396 23.24084473 C-52.78238312 22.10626831 -52.77292664 20.97169189 -52.76318359 19.80273438 C-52.76079681 18.80060913 -52.75841003 17.79848389 -52.75595093 16.76599121 C-52.56738022 15.58245056 -52.56738022 15.58245056 -52.375 14.375 C-49.375 12.375 -49.375 12.375 -46.1875 12.75 C-44.7953125 13.059375 -44.7953125 13.059375 -43.375 13.375 C-43.25125 12.735625 -43.1275 12.09625 -43 11.4375 C-42.79375 10.756875 -42.5875 10.07625 -42.375 9.375 C-39.66620665 8.02060332 -37.36566732 8.30998549 -34.375 8.375 C-34.1275 7.75625 -33.88 7.1375 -33.625 6.5 C-32.0841547 3.88056299 -31.28519654 3.24019357 -28.375 2.375 C-24.625 2.75 -24.625 2.75 -21.375 3.375 C-21.354375 2.6325 -21.33375 1.89 -21.3125 1.125 C-20.10265856 -2.42386822 -18.55489564 -3.22601192 -15.45703125 -5.12109375 C-10.18351053 -6.39742428 -4.59638727 -2.35744305 0 0 Z " fill="#F58436" transform="translate(80.375,40.625)"/>
<path d="M0 0 C0 31.35 0 62.7 0 95 C-6 93 -6 93 -8 92 C-8 90.02 -8 88.04 -8 86 C-8.53625 86.350625 -9.0725 86.70125 -9.625 87.0625 C-12.79260623 88.31287088 -14.73688689 87.83313526 -18 87 C-19.485 86.01 -19.485 86.01 -21 85 C-21 83.68 -21 82.36 -21 81 C-22.6396875 81.309375 -22.6396875 81.309375 -24.3125 81.625 C-28 82 -28 82 -31 80 C-31 79.01 -31 78.02 -31 77 C-32.3921875 77.309375 -32.3921875 77.309375 -33.8125 77.625 C-37 78 -37 78 -40 76 C-40.38095093 73.60900879 -40.38095093 73.60900879 -40.38818359 70.57226562 C-40.39764008 69.43768921 -40.40709656 68.30311279 -40.4168396 67.13415527 C-40.41076691 65.90394653 -40.40469421 64.67373779 -40.3984375 63.40625 C-40.40130768 62.14864868 -40.40417786 60.89104736 -40.40713501 59.59533691 C-40.40917987 56.93189748 -40.40512067 54.26927948 -40.39111328 51.60595703 C-40.3740206 48.18915036 -40.38386058 44.77305056 -40.40183067 41.35626984 C-40.41526686 38.10207102 -40.40586446 34.84795803 -40.3984375 31.59375 C-40.40451019 30.36354126 -40.41058289 29.13333252 -40.4168396 27.86584473 C-40.40738312 26.73126831 -40.39792664 25.59669189 -40.38818359 24.42773438 C-40.38579681 23.42560913 -40.38341003 22.42348389 -40.38095093 21.39099121 C-40.19238022 20.20745056 -40.19238022 20.20745056 -40 19 C-37 17 -37 17 -33.8125 17.375 C-32.4203125 17.684375 -32.4203125 17.684375 -31 18 C-30.87625 17.360625 -30.7525 16.72125 -30.625 16.0625 C-30.41875 15.381875 -30.2125 14.70125 -30 14 C-27.29120665 12.64560332 -24.99066732 12.93498549 -22 13 C-21.7525 12.38125 -21.505 11.7625 -21.25 11.125 C-19.7091547 8.50556299 -18.91019654 7.86519357 -16 7 C-12.25 7.375 -12.25 7.375 -9 8 C-8.95875 7.236875 -8.9175 6.47375 -8.875 5.6875 C-8 3 -8 3 -5.0625 1.1875 C-2 0 -2 0 0 0 Z " fill="#EE833A" transform="translate(68,36)"/>
<path d="M0 0 C0 31.35 0 62.7 0 95 C-6 93 -6 93 -7 92 C-7.12179185 89.24694395 -7.17862981 86.51853644 -7.19287109 83.76416016 C-7.20104858 82.90076523 -7.20922607 82.0373703 -7.21765137 81.14781189 C-7.2425529 78.27823594 -7.25903234 75.40870956 -7.2734375 72.5390625 C-7.27876118 71.56182598 -7.28408485 70.58458946 -7.28956985 69.57773972 C-7.31632052 64.40665215 -7.33569037 59.23558891 -7.35009766 54.06445312 C-7.3667618 48.71170638 -7.41154887 43.3595734 -7.4624691 38.0070591 C-7.49605422 33.90132912 -7.50766543 29.79574644 -7.51332474 25.68989182 C-7.52006011 23.7162341 -7.53534104 21.74258684 -7.55921555 19.76906204 C-7.59068708 17.01040237 -7.59093145 14.25341949 -7.58349609 11.49462891 C-7.59990143 10.67477005 -7.61630676 9.85491119 -7.63320923 9.01020813 C-7.60800171 6.7328186 -7.60800171 6.7328186 -7 3 C-4.57183955 0.95502791 -3.18806718 0 0 0 Z " fill="#9B4D22" transform="translate(68,36)"/>
<path d="M0 0 C1.98 0 3.96 0 6 0 C6.33 0.66 6.66 1.32 7 2 C7.66 1.34 8.32 0.68 9 0 C13.05261287 -0.34490322 14.54754176 -0.30163882 18 2 C18.99 1.34 19.98 0.68 21 0 C24.5625 0.1875 24.5625 0.1875 28 1 C30.16926659 4.25389988 30.24080049 5.13395957 30.1953125 8.88671875 C30.18886719 9.82451172 30.18242187 10.76230469 30.17578125 11.72851562 C30.15902344 12.70498047 30.14226562 13.68144531 30.125 14.6875 C30.11597656 15.67556641 30.10695312 16.66363281 30.09765625 17.68164062 C30.0740843 20.12133765 30.04118022 22.56054697 30 25 C28.02 25 26.04 25 24 25 C23.67 19.06 23.34 13.12 23 7 C21.68 7 20.36 7 19 7 C18.67 12.94 18.34 18.88 18 25 C16.02 25 14.04 25 12 25 C11.67 19.06 11.34 13.12 11 7 C9.68 7 8.36 7 7 7 C6.67 12.94 6.34 18.88 6 25 C4.02 25 2.04 25 0 25 C0 16.75 0 8.5 0 0 Z " fill="#0B0B0B" transform="translate(156,55)"/>
<path d="M0 0 C0.33 0 0.66 0 1 0 C1 24.75 1 49.5 1 75 C0.67 73.68 0.34 72.36 0 71 C-2.475 71.495 -2.475 71.495 -5 72 C-5 49.23 -5 26.46 -5 3 C-3.68 3 -2.36 3 -1 3 C-0.67 2.01 -0.34 1.02 0 0 Z " fill="#EE8137" transform="translate(47,46)"/>
<path d="M0 0 C3.36298892 2.77812128 5.79634542 4.95677703 6.23828125 9.390625 C6.40017902 15.6279497 6.22288753 19.28030217 2 24 C-1.19491759 25.59745879 -4.53209389 25.50816842 -8 25 C-10.96858157 22.79259319 -11.82865791 21.51402627 -13 18 C-13.90852675 7.54449547 -13.90852675 7.54449547 -11.125 2.8125 C-7.42060701 -0.34712932 -4.84971253 -0.49319111 0 0 Z " fill="#050505" transform="translate(246,55)"/>
<path d="M0 0 C0 26.73 0 53.46 0 81 C-1.65 80.34 -3.3 79.68 -5 79 C-5 53.59 -5 28.18 -5 2 C-1 0 -1 0 0 0 Z " fill="#9B4D22" transform="translate(53,43)"/>
<path d="M0 0 C1.28197266 -0.02900391 1.28197266 -0.02900391 2.58984375 -0.05859375 C5.9766763 0.62091294 7.06806941 1.62368709 9.0625 4.4375 C9.671875 7.96875 9.671875 7.96875 9.8125 11.9375 C9.86921875 13.2471875 9.9259375 14.556875 9.984375 15.90625 C10.03990459 18.41618754 10.0625 20.92694827 10.0625 23.4375 C8.0825 24.4275 8.0825 24.4275 6.0625 25.4375 C5.0725 24.7775 4.0825 24.1175 3.0625 23.4375 C2.0725 24.0975 1.0825 24.7575 0.0625 25.4375 C-3.4375 25.8125 -3.4375 25.8125 -6.9375 25.4375 C-9.57519276 23.22524156 -9.88673246 21.84364032 -10.3125 18.4375 C-9.88671961 15.03125689 -9.43605962 13.76948898 -6.9375 11.4375 C-3.29777986 9.88868292 -0.92954489 9.4375 3.0625 9.4375 C2.4025 8.1175 1.7425 6.7975 1.0625 5.4375 C-0.91286745 5.78536708 -0.91286745 5.78536708 -2.9375 6.4375 C-3.2675 7.0975 -3.5975 7.7575 -3.9375 8.4375 C-5.5875 8.4375 -7.2375 8.4375 -8.9375 8.4375 C-8.12321026 2.41175593 -6.23061908 0.00936935 0 0 Z " fill="#090909" transform="translate(141.9375,54.5625)"/>
<path d="M0 0 C2.8855483 0.61943792 4.17830377 1.27269128 6.18359375 3.46875 C6.61854855 6.0696022 6.83362135 8.30066898 6.87109375 10.90625 C6.96804869 15.91501054 6.96804869 15.91501054 7.7734375 20.828125 C7.90878906 21.36953125 8.04414063 21.9109375 8.18359375 22.46875 C7.05859375 24.28125 7.05859375 24.28125 5.18359375 25.46875 C2.62109375 25.09375 2.62109375 25.09375 0.18359375 24.46875 C-0.47640625 24.79875 -1.13640625 25.12875 -1.81640625 25.46875 C-7.95186442 25.91496514 -7.95186442 25.91496514 -10.75390625 24.46875 C-12.48399173 21.2121185 -12.56433881 18.00184096 -11.81640625 14.46875 C-9.03721848 11.18425536 -7.23023391 10.55015872 -3.00390625 9.71875 C-1.95203125 9.63625 -0.90015625 9.55375 0.18359375 9.46875 C-0.14640625 8.14875 -0.47640625 6.82875 -0.81640625 5.46875 C-2.7917737 5.81661708 -2.7917737 5.81661708 -4.81640625 6.46875 C-5.14640625 7.12875 -5.47640625 7.78875 -5.81640625 8.46875 C-7.46640625 8.46875 -9.11640625 8.46875 -10.81640625 8.46875 C-11.14640625 7.47875 -11.47640625 6.48875 -11.81640625 5.46875 C-8.15264871 0.74132091 -5.69349652 -0.07893929 0 0 Z " fill="#090909" transform="translate(201.81640625,54.53125)"/>
<path d="M0 0 C0 22.77 0 45.54 0 69 C-1.65 68.34 -3.3 67.68 -5 67 C-5.06942772 58.55962582 -5.12277414 50.1193704 -5.15543652 41.67878151 C-5.17111071 37.75971028 -5.19238048 33.84083401 -5.22631836 29.921875 C-5.25885001 26.14175875 -5.2768398 22.36183033 -5.28463173 18.58158493 C-5.29018645 17.13742489 -5.30103321 15.69327544 -5.31719017 14.2491951 C-5.33887964 12.23084743 -5.34022467 10.21231183 -5.34057617 8.19384766 C-5.34723801 7.04357086 -5.35389984 5.89329407 -5.36076355 4.7081604 C-5.24171158 3.81446747 -5.12265961 2.92077454 -5 2 C-2 0 -2 0 0 0 Z " fill="#9E5227" transform="translate(42,49)"/>
<path d="M0 0 C1.65 0 3.3 0 5 0 C5.33 0.99 5.66 1.98 6 3 C6.66 2.01 7.32 1.02 8 0 C11.38128124 -0.5145428 13.2515448 -0.4654372 16.1796875 1.35546875 C19.06883539 5.55279304 18.42174639 9.78917155 18.25 14.75 C18.23195313 15.73355469 18.21390625 16.71710938 18.1953125 17.73046875 C18.14824126 20.15463783 18.08250742 22.57682059 18 25 C16.02 25 14.04 25 12 25 C11.67 18.73 11.34 12.46 11 6 C9.68 6.33 8.36 6.66 7 7 C6.67 12.94 6.34 18.88 6 25 C4.02 25 2.04 25 0 25 C0 16.75 0 8.5 0 0 Z " fill="#0F0F0F" transform="translate(256,55)"/>
<path d="M0 0 C5.28 0 10.56 0 16 0 C16 5.59472435 15.11963226 6.87677288 12 11.3125 C11.2575 12.38113281 10.515 13.44976562 9.75 14.55078125 C8.88375 15.76314453 8.88375 15.76314453 8 17 C9.134375 17.144375 10.26875 17.28875 11.4375 17.4375 C15 18 15 18 16 19 C16.04063832 20.66617115 16.042721 22.33388095 16 24 C15.319375 23.835 14.63875 23.67 13.9375 23.5 C8.82259554 22.62937796 4.03828719 22.77859704 -1 24 C-1.51993908 18.58938392 -0.10979868 15.99815439 3 11.625 C3.7425 10.56539062 4.485 9.50578125 5.25 8.4140625 C5.8275 7.61742187 6.405 6.82078125 7 6 C4.69 5.67 2.38 5.34 0 5 C0 3.35 0 1.7 0 0 Z " fill="#090909" transform="translate(214,55)"/>
<path d="M0 0 C0 19.47 0 38.94 0 59 C-1.32 58.67 -2.64 58.34 -4 58 C-4 39.19 -4 20.38 -4 1 C-2 0 -2 0 0 0 Z " fill="#A35C36" transform="translate(32,54)"/>
<path d="M0 0 C3.96 0 7.92 0 12 0 C12 0.66 12 1.32 12 2 C9.03 2 6.06 2 3 2 C3 4.31 3 6.62 3 9 C5.64 9 8.28 9 11 9 C11 9.66 11 10.32 11 11 C8.36 11 5.72 11 3 11 C3 13.64 3 16.28 3 19 C6.3 19 9.6 19 13 19 C13 19.99 13 20.98 13 22 C8.71 22 4.42 22 0 22 C0 14.74 0 7.48 0 0 Z " fill="#242424" transform="translate(132,91)"/>
<path d="M0 0 C1.051875 -0.02126953 1.051875 -0.02126953 2.125 -0.04296875 C4 0.1875 4 0.1875 6 2.1875 C6.5625 5.3125 6.5625 5.3125 6 9.1875 C3.9366921 12.13581778 1.56395227 14.6693326 -1 17.1875 C1.64 17.5175 4.28 17.8475 7 18.1875 C7 19.1775 7 20.1675 7 21.1875 C2.38 21.1875 -2.24 21.1875 -7 21.1875 C-5.2597726 17.7070452 -3.99995383 16.0022675 -1.375 13.3125 C1.20606264 10.45890279 1.94609122 9.61877021 2.4375 5.6875 C2.293125 4.8625 2.14875 4.0375 2 3.1875 C-0.31 3.1875 -2.62 3.1875 -5 3.1875 C-5.33 2.5275 -5.66 1.8675 -6 1.1875 C-3.77109005 0.07304502 -2.46944894 0.02269714 0 0 Z " fill="#343434" transform="translate(176,91.8125)"/>
<path d="M0 0 C0.91007813 0.00902344 1.82015625 0.01804687 2.7578125 0.02734375 C3.45648438 0.03894531 4.15515625 0.05054687 4.875 0.0625 C4.875 0.7225 4.875 1.3825 4.875 2.0625 C4.26011719 2.09988281 3.64523438 2.13726562 3.01171875 2.17578125 C1.79935547 2.27439453 1.79935547 2.27439453 0.5625 2.375 C-0.23800781 2.43300781 -1.03851563 2.49101563 -1.86328125 2.55078125 C-4.59299036 3.16838383 -5.53599575 3.76502251 -7.125 6.0625 C-7.56195626 8.50370026 -7.56195626 8.50370026 -7.4375 11.125 C-7.43363281 12.00285156 -7.42976562 12.88070312 -7.42578125 13.78515625 C-7.33399334 16.25912769 -7.33399334 16.25912769 -5.125 18.0625 C-2.69247339 18.52412427 -2.69247339 18.52412427 0 18.6875 C0.91007813 18.76226562 1.82015625 18.83703125 2.7578125 18.9140625 C3.45648438 18.96304688 4.15515625 19.01203125 4.875 19.0625 C4.545 20.0525 4.215 21.0425 3.875 22.0625 C-1.34674778 22.37580487 -4.70191041 21.94265136 -9.125 19.0625 C-11.71262907 14.92052719 -11.83628177 10.81284607 -11.125 6.0625 C-7.93946062 0.96563698 -5.82659865 -0.07469998 0 0 Z " fill="#1A1A1A" transform="translate(160.125,90.9375)"/>
<path d="M0 0 C1.2065625 0.0309375 1.2065625 0.0309375 2.4375 0.0625 C3.73126578 2.65003156 3.60582397 4.61208985 3.625 7.5 C3.63917969 8.46808594 3.65335938 9.43617187 3.66796875 10.43359375 C3.4375 13.0625 3.4375 13.0625 1.4375 16.0625 C-0.5 15.6875 -0.5 15.6875 -2.5625 15.0625 C-3.93502731 12.31744537 -3.69479255 10.05922588 -3.6875 7 C-3.69007813 5.91589844 -3.69265625 4.83179687 -3.6953125 3.71484375 C-3.51947058 0.2031772 -3.51127607 0.08564088 0 0 Z " fill="#EDEDED" transform="translate(242.5625,59.9375)"/>
<path d="M0 0 C1.051875 -0.02126953 1.051875 -0.02126953 2.125 -0.04296875 C4 0.1875 4 0.1875 6 2.1875 C6.56949153 8.45190678 6.56949153 8.45190678 4.5 11.125 C4.005 11.475625 3.51 11.82625 3 12.1875 C1.93453047 8.9910914 1.92572162 6.53002724 2 3.1875 C-0.31 3.1875 -2.62 3.1875 -5 3.1875 C-5.33 2.5275 -5.66 1.8675 -6 1.1875 C-3.77109005 0.07304502 -2.46944894 0.02269714 0 0 Z " fill="#1B1B1B" transform="translate(176,91.8125)"/>
<path d="M0 0 C-0.33 2.31 -0.66 4.62 -1 7 C-2.875 7.625 -2.875 7.625 -5 8 C-5.66 7.34 -6.32 6.68 -7 6 C-6.75 3.4375 -6.75 3.4375 -6 1 C-4 0 -4 0 0 0 Z " fill="#E5E5E5" transform="translate(145,68)"/>
<path d="M0 0 C1.32 0 2.64 0 4 0 C4.125 2.875 4.125 2.875 4 6 C3.34 6.66 2.68 7.32 2 8 C-0.125 7.625 -0.125 7.625 -2 7 C-2.125 4.625 -2.125 4.625 -2 2 C-1.34 1.34 -0.68 0.68 0 0 Z " fill="#EAEAEA" transform="translate(198,68)"/>
</svg>
