<?xml version="1.0" encoding="UTF-8"?>
<svg version="1.1" xmlns="http://www.w3.org/2000/svg" width="1200" height="418">
<path d="M0 0 C396 0 792 0 1200 0 C1200 137.94 1200 275.88 1200 418 C804 418 408 418 0 418 C0 280.06 0 142.12 0 0 Z " fill="#FEFEFE" transform="translate(0,0)"/>
<path d="M0 0 C68.31 0 136.62 0 207 0 C207 99.99 207 199.98 207 303 C195.09043475 305.5072769 183.63876897 307.78490727 171.625 309.1875 C170.27986374 309.3528322 168.93481144 309.51884894 167.58984375 309.68554688 C153.24203607 311.44012277 139.06683675 312.23946255 124.625 312.25 C123.78850922 312.25067474 122.95201843 312.25134949 122.09017944 312.25204468 C86.46924064 312.20657674 51.63859255 305.91089262 25.0625 280.5625 C17.56865797 272.74953694 12.55372744 263.74834985 8 254 C7.46375 252.88625 6.9275 251.7725 6.375 250.625 C0.12908612 234.15849978 -0.29005463 217.4917159 -0.22705078 200.14526367 C-0.22648578 197.9561819 -0.22680497 195.76709974 -0.22793579 193.57801819 C-0.22850682 187.66985185 -0.21679316 181.76176764 -0.20278788 175.85362029 C-0.19023864 169.66635927 -0.18910672 163.47909612 -0.18673706 157.29182434 C-0.18053458 145.59080364 -0.16414049 133.88982055 -0.14403808 122.18881637 C-0.12832289 112.83738636 -0.11731097 103.48596162 -0.10986328 94.13452148 C-0.10932729 93.46811978 -0.10879129 92.80171807 -0.10823905 92.11512238 C-0.10361254 86.31718593 -0.09930733 80.51924924 -0.09503365 74.72131252 C-0.07625898 49.8141802 -0.03640506 24.90712724 0 0 Z " fill="#092E20" transform="translate(0,0)"/>
<path d="M0 0 C1.07572266 0.16580566 2.15144531 0.33161133 3.25976562 0.50244141 C21.37252604 3.35173037 21.37252604 3.35173037 30 6 C28.07703849 12.25369092 25.69913711 18.07508749 22.8046875 23.9375 C22.41177521 24.74364746 22.01886292 25.54979492 21.61404419 26.38037109 C20.79138582 28.06557604 19.96606874 29.74948554 19.13818359 31.43212891 C17.86602476 34.01824538 16.60228828 36.60834828 15.33984375 39.19921875 C14.53693983 40.84138134 13.73357139 42.48331691 12.9296875 44.125 C12.55053192 44.90093506 12.17137634 45.67687012 11.7807312 46.47631836 C9.11689624 51.88310376 9.11689624 51.88310376 8 53 C5.64305046 52.90968426 3.28846418 52.75311872 0.9375 52.5625 C-0.35285156 52.46066406 -1.64320313 52.35882813 -2.97265625 52.25390625 C-3.97167969 52.17011719 -4.97070312 52.08632812 -6 52 C-5.9560334 53.22222008 -5.9560334 53.22222008 -5.91117859 54.46913147 C-4.92959449 82.88260916 -4.81222506 111.28766241 -4.81469727 139.71606445 C-4.8147998 146.1866692 -4.80100644 152.65716648 -4.78392506 159.12774563 C-4.772723 164.20266701 -4.77078035 169.27756273 -4.77130699 174.35249519 C-4.77014467 176.73744142 -4.76582424 179.12238872 -4.75797462 181.50732231 C-4.64801714 218.26471171 -7.5086249 255.29077873 -33 284 C-33.60199219 284.68449219 -34.20398438 285.36898438 -34.82421875 286.07421875 C-54.96580353 307.56702096 -86.20184812 316.89033678 -114.86279297 318.17285156 C-144.32143668 319.10104467 -172.22252456 316.41655329 -200 306 C-200 285.87 -200 265.74 -200 245 C-191.75 248.3 -183.5 251.6 -175 255 C-169.22368062 256.58255325 -163.84093508 257.96748116 -158 259 C-156.85917969 259.22171875 -155.71835937 259.4434375 -154.54296875 259.671875 C-146.31083734 261.0392773 -138.14340629 261.20057588 -129.8125 261.25 C-128.19130249 261.26401855 -128.19130249 261.26401855 -126.53735352 261.27832031 C-111.13942731 261.21733378 -95.08458455 258.65376406 -83.12109375 248.2421875 C-79.6344959 244.55653895 -77.24438784 240.52605788 -75 236 C-74.4225 234.845 -73.845 233.69 -73.25 232.5 C-69.82417427 222.90768794 -69.47522399 213.07975101 -69 203 C-69.51046875 203.25394531 -70.0209375 203.50789062 -70.546875 203.76953125 C-82.80762091 209.57382054 -95.31817059 211.17511877 -108.75 211.125 C-109.7709375 211.12886719 -110.791875 211.13273438 -111.84375 211.13671875 C-137.36546857 211.10433078 -159.74182925 204.07664782 -178.69140625 186.33984375 C-197.15200085 167.62935954 -205.42476807 142.59359038 -205.26074219 116.63964844 C-205.25005042 114.63445551 -205.26068449 112.63016544 -205.2734375 110.625 C-205.21952443 83.29107334 -196.9065552 58.68445426 -179 38 C-178.34257813 37.23945313 -177.68515625 36.47890625 -177.0078125 35.6953125 C-157.71032651 15.07267726 -129.04759674 4.96294472 -102 0 C-101.0925 -0.16661133 -100.185 -0.33322266 -99.25 -0.50488281 C-67.30207274 -5.98458767 -31.93589656 -5.00219371 0 0 Z " fill="#0A2E20" transform="translate(962,100)"/>
<path d="M0 0 C1.11843292 0.00081573 1.11843292 0.00081573 2.25946045 0.00164795 C29.65697091 0.09328332 54.42856644 7.01004787 75.4375 25.375 C76.45070313 26.24511719 76.45070313 26.24511719 77.484375 27.1328125 C89.6825302 38.4039079 97.40618045 54.15328018 102.1875 69.8125 C102.38641846 70.45558105 102.58533691 71.09866211 102.7902832 71.76123047 C106.15237405 83.4874418 106.8015244 95.49100305 106.75 107.625 C106.74850952 108.29932068 106.74701904 108.97364136 106.7454834 109.668396 C106.70257347 120.50507516 105.99255711 130.83261219 103.4375 141.375 C103.18226563 142.46425781 102.92703125 143.55351562 102.6640625 144.67578125 C96.24556596 168.31822492 81.77980895 190.73964951 60.4375 203.375 C30.64925357 220.15162097 -4.4698921 224.46650265 -37.57421875 215.30859375 C-50.88317174 211.1640791 -62.63844138 205.00303316 -73.5625 196.375 C-74.17222656 195.93027344 -74.78195312 195.48554688 -75.41015625 195.02734375 C-86.76078924 186.25274094 -93.84732795 173.22085599 -99.5625 160.375 C-100.09746094 159.18003906 -100.63242187 157.98507813 -101.18359375 156.75390625 C-106.93091479 142.67052749 -107.95572204 127.28955148 -107.875 112.25 C-107.87284485 111.5257785 -107.8706897 110.80155701 -107.86846924 110.0553894 C-107.71786053 78.45063024 -99.62168674 50.82071069 -77.125 27.5625 C-56.03047709 7.22551521 -28.68222967 -0.0790276 0 0 Z " fill="#092E20" transform="translate(1093.5625,95.625)"/>
<path d="M0 0 C12.41743544 11.62171445 15.16295385 25.50492114 16 42 C16.12455115 47.17395445 16.12730868 52.34568053 16.11352539 57.52075195 C16.11324256 59.03003945 16.11340312 60.53932708 16.1139679 62.0486145 C16.11425214 66.10351284 16.10841625 70.15838095 16.10139394 74.21327233 C16.09509779 78.4666581 16.09455168 82.72004474 16.09336853 86.97343445 C16.09027354 95.00889109 16.0820851 103.04433396 16.07201904 111.07978457 C16.06080069 120.23589543 16.0553331 129.39200697 16.05032361 138.548123 C16.03990075 157.36542311 16.02233716 176.18271045 16 195 C11.65187698 195.55300022 7.30343077 196.1033696 2.95468903 196.65147781 C1.48049037 196.83763843 0.00637666 197.02447313 -1.46764374 197.21203995 C-13.45877376 198.73718452 -25.43645305 199.96584404 -37.5 200.75 C-38.83987473 200.84006317 -38.83987473 200.84006317 -40.20681763 200.9319458 C-63.81008334 202.49792095 -87.70046295 203.92724967 -111 199 C-112.01964844 198.80664062 -113.03929687 198.61328125 -114.08984375 198.4140625 C-128.5440864 195.14540851 -141.43675421 187.41277076 -149.8125 175.125 C-156.37297477 163.77469764 -157.19881971 152.51455928 -157.25 139.6875 C-157.2809375 137.76647461 -157.2809375 137.76647461 -157.3125 135.80664062 C-157.34218617 128.59661209 -156.88423951 122.63338555 -154 116 C-153.68417969 115.15308594 -153.36835938 114.30617187 -153.04296875 113.43359375 C-146.17176813 97.4007923 -132.3917535 86.45338997 -116.4609375 79.92578125 C-115.24277344 79.46751953 -115.24277344 79.46751953 -114 79 C-112.96101563 78.60167969 -111.92203125 78.20335937 -110.8515625 77.79296875 C-100.92866201 74.23062595 -90.88474701 72.2571339 -80.51391602 70.45507812 C-77.99107139 69.99838371 -75.48583301 69.48277851 -72.9765625 68.95703125 C-68.06833791 67.96423237 -63.16829028 67.36465062 -58.1875 66.875 C-57.36830078 66.78863281 -56.54910156 66.70226562 -55.70507812 66.61328125 C-51.78746598 66.21358965 -47.9439354 65.88800183 -44 66 C-44.05221827 62.79037703 -44.14736769 59.5833754 -44.25 56.375 C-44.26417969 55.47136719 -44.27835937 54.56773437 -44.29296875 53.63671875 C-44.49777825 48.02493841 -44.98782209 44.26130007 -49 40 C-55.02695443 36.27723881 -61.00444715 36.57128029 -67.9375 36.6875 C-69.05632568 36.70095459 -70.17515137 36.71440918 -71.32788086 36.72827148 C-95.96916252 37.17105702 -117.94655176 43.94675277 -140.22607422 54.28491211 C-142 55 -142 55 -144 55 C-144 38.5 -144 22 -144 5 C-135.99677346 0.99838673 -128.65108366 -2.45628634 -120.25 -5.1875 C-118.67822998 -5.70219849 -118.67822998 -5.70219849 -117.07470703 -6.22729492 C-109.46907106 -8.65747392 -102.02226455 -10.57222313 -94.10253906 -11.69238281 C-91.76647757 -12.03416608 -89.44382046 -12.43510449 -87.1171875 -12.8359375 C-58.78134833 -17.47595411 -23.84017307 -18.79343817 0 0 Z " fill="#0A2E20" transform="translate(495,111)"/>
<path d="M0 0 C15.09021829 14.45535474 20.48722841 30.53844481 21.04575211 51.32059437 C21.1937024 58.98760404 21.13725577 66.65492536 21.06946969 74.32249475 C21.0377685 78.52641119 21.03524158 82.7303544 21.02934265 86.93437195 C21.01393062 94.85993528 20.97307748 102.78514516 20.9225952 110.7105543 C20.86630299 119.74830394 20.839116 128.78607233 20.81411803 137.82395422 C20.76214693 156.38287599 20.67061789 174.94131454 20.5625 193.5 C-0.8875 193.5 -22.3375 193.5 -44.4375 193.5 C-44.46328125 183.90550781 -44.4890625 174.31101562 -44.515625 164.42578125 C-44.54080349 158.33266212 -44.56698249 152.23957423 -44.59765625 146.14648438 C-44.64611428 136.4839706 -44.69059001 126.82156072 -44.70849609 117.15893555 C-44.72155891 110.12004603 -44.74864059 103.08136911 -44.79211307 96.04259938 C-44.81462462 92.32031733 -44.83041694 88.59829648 -44.82938385 84.87594032 C-44.82849065 80.7064662 -44.85891511 76.53775451 -44.89160156 72.3684082 C-44.8865712 71.15279709 -44.88154083 69.93718597 -44.87635803 68.68473816 C-44.98563319 59.62261256 -46.16471727 49.55354408 -51.5625 41.9375 C-61.83947658 33.22441116 -75.73591607 33.71011263 -88.4375 34.5 C-92.25760728 35.0097919 -95.95714275 35.87529187 -99.6875 36.84375 C-102.4375 37.5 -102.4375 37.5 -106.4375 37.5 C-106.4375 88.98 -106.4375 140.46 -106.4375 193.5 C-128.2175 193.5 -149.9975 193.5 -172.4375 193.5 C-172.4375 128.16 -172.4375 62.82 -172.4375 -4.5 C-161.33268908 -7.5846697 -150.58023608 -10.50333041 -139.3125 -12.625 C-138.65750519 -12.75006927 -138.00251038 -12.87513855 -137.32766724 -13.0039978 C-95.58896954 -20.94910313 -35.1066896 -30.76413336 0 0 Z " fill="#092E20" transform="translate(715.4375,115.5)"/>
<path d="M0 0 C21.78 0 43.56 0 66 0 C66.04541639 22.02100779 66.08214433 44.04197676 66.10362434 66.06301975 C66.11386978 76.29129799 66.12779864 86.51954474 66.15087891 96.74780273 C66.17102183 105.67872055 66.18376511 114.60961552 66.18817699 123.54055542 C66.19074961 128.25489031 66.19664944 132.96915995 66.21146011 137.68347359 C66.51691043 238.94690165 66.51691043 238.94690165 37 271 C35.80310547 272.33417969 35.80310547 272.33417969 34.58203125 273.6953125 C27.52635675 281.17828782 19.76169445 286.69848237 11 292 C10.39236816 292.37237793 9.78473633 292.74475586 9.15869141 293.12841797 C-1.48646178 299.5699371 -1.48646178 299.5699371 -8 298 C-10.74471428 296.90477246 -13.37102832 295.60516857 -16.01171875 294.28125 C-16.77420929 293.90692841 -17.53669983 293.53260681 -18.32229614 293.14694214 C-20.78087997 291.93828552 -23.23411394 290.71916712 -25.6875 289.5 C-27.36569305 288.67310441 -29.04432337 287.84709565 -30.72338867 287.02197266 C-33.20713485 285.80136289 -35.69064918 284.58031701 -38.17274475 283.35635376 C-44.35963453 280.30621122 -50.5708484 277.31165723 -56.8125 274.375 C-57.57457764 274.01599609 -58.33665527 273.65699219 -59.12182617 273.28710938 C-60.74700726 272.52287214 -62.37332166 271.76104513 -64 271 C-61.28938516 267.77307757 -57.75073674 266.17878103 -54.0625 264.3125 C-31.13031113 252.33753886 -16.22902196 237.48512668 -8 213 C-7.43152344 211.31003906 -7.43152344 211.31003906 -6.8515625 209.5859375 C0.55653625 184.01964182 -0.53105804 155.71322596 -0.49388909 129.33655858 C-0.48431437 124.76692002 -0.45810101 120.19737254 -0.43388367 115.62779236 C-0.39072751 107.02984659 -0.36187195 98.43191897 -0.33856028 89.83389896 C-0.31123052 80.02194634 -0.26734009 70.21008768 -0.22227156 60.39820302 C-0.13015684 40.26550665 -0.06033079 20.13281843 0 0 Z " fill="#0A2E20" transform="translate(246,101)"/>
<path d="M0 0 C46.53 0 93.06 0 141 0 C141 32.67 141 65.34 141 99 C135.39 98.34 129.78 97.68 124 97 C120.37726474 96.80997915 116.86343816 96.66315639 113.25 96.6875 C111.87884033 96.69487183 111.87884033 96.69487183 110.47998047 96.70239258 C83.41896606 97.1548791 57.00283375 104.46122947 36 122 C35.22527344 122.60070312 34.45054688 123.20140625 33.65234375 123.8203125 C16.74650686 137.59543885 7.09026782 159.02890309 3 180 C2.77699219 181.134375 2.55398437 182.26875 2.32421875 183.4375 C1.85224801 185.95467727 1.40710499 188.47166377 1 191 C0.67 191 0.34 191 0 191 C0 127.97 0 64.94 0 0 Z " fill="#FEFEFE" transform="translate(0,0)"/>
<path d="M0 0 C9.84632299 9.01188884 14.88390068 23.87038868 15.8125 36.875 C16.64049644 57.78570819 16.39748366 79.24313065 1.87890625 95.85546875 C-1.20917499 98.873499 -4.28688182 101.03677764 -8.1875 102.875 C-8.83976562 103.19210937 -9.49203125 103.50921875 -10.1640625 103.8359375 C-19.10010149 107.48398338 -29.61190312 107.25862283 -38.5625 103.875 C-51.68774817 97.51498042 -57.28717475 87.24693592 -62.0625 74 C-67.88156378 56.39549058 -66.38047432 31.4316753 -58.76171875 14.75390625 C-53.66624278 4.839453 -47.32278844 -2.49620952 -36.625 -6.4375 C-22.54473733 -9.25355253 -12.05870339 -8.03913559 0 0 Z " fill="#FDFDFD" transform="translate(1117.1875,156.125)"/>
<path d="M0 0 C0.79148438 -0.020625 1.58296875 -0.04125 2.3984375 -0.0625 C9.3818897 -0.10755453 13.66511204 1.28366692 20.875 3.25 C20.875 38.23 20.875 73.21 20.875 109.25 C-20.2870738 112.68017282 -20.2870738 112.68017282 -37.57421875 99.36328125 C-48.37564459 89.22022803 -52.80089188 76.04852985 -53.47265625 61.52734375 C-53.89687882 44.37982092 -51.73639273 28.96078478 -40.3125 15.375 C-32.69651683 7.4285119 -24.73127607 3.92904642 -14.125 1.25 C-13.35929687 1.05535156 -12.59359375 0.86070312 -11.8046875 0.66015625 C-7.86863963 0.05769994 -3.97670435 0.02516901 0 0 Z " fill="#FDFDFD" transform="translate(120.125,148.75)"/>
<path d="M0 0 C0.87914062 0.00451172 1.75828125 0.00902344 2.6640625 0.01367188 C4.81773803 0.02537663 6.97137817 0.04330931 9.125 0.0625 C10.1394084 12.05402794 10.25654932 23.96823349 10.22265625 35.99609375 C10.22078641 37.9700568 10.21936519 39.94402032 10.21836853 41.91798401 C10.21458784 47.06183195 10.20479666 52.20565072 10.19366455 57.3494873 C10.18335368 62.61905523 10.17885038 67.88862797 10.17382812 73.15820312 C10.16316947 83.45964809 10.14614791 93.7610716 10.125 104.0625 C-5.0425057 109.15284016 -21.67301647 110.69823628 -36.58984375 103.80859375 C-47.30142151 97.89709144 -53.11026047 89.31677627 -56.57348633 77.81079102 C-61.08938789 61.44839425 -60.79748121 42.27395259 -53.296875 26.80859375 C-45.20235154 13.40887586 -33.83278603 6.09795211 -18.8828125 1.7890625 C-12.4850082 0.24361886 -6.54989506 -0.06411795 0 0 Z " fill="#FDFEFD" transform="translate(882.875,149.9375)"/>
<path d="M0 0 C21.78 0 43.56 0 66 0 C66 22.44 66 44.88 66 68 C44.22 68 22.44 68 0 68 C0 45.56 0 23.12 0 0 Z " fill="#0C3123" transform="translate(246,0)"/>
<path d="M0 0 C0 14.52 0 29.04 0 44 C-9.03645136 45.50607523 -17.11811416 46.37270402 -26.13769531 46.37060547 C-28.26185744 46.37502467 -30.38400907 46.41162499 -32.5078125 46.44921875 C-39.99531895 46.51119481 -45.67847111 46.26371924 -52 42 C-57.10317832 36.63512023 -57.30150668 32.07859543 -57.20703125 24.94140625 C-56.8249714 19.51327293 -54.72863265 16.48722179 -50.875 12.875 C-37.85733539 2.5682305 -16.21012042 0 0 0 Z " fill="#FCFCFC" transform="translate(454,220)"/>
</svg>
