<?xml version="1.0" encoding="UTF-8"?>
<svg version="1.1" xmlns="http://www.w3.org/2000/svg" width="1200" height="546">
<path d="M0 0 C396 0 792 0 1200 0 C1200 180.18 1200 360.36 1200 546 C804 546 408 546 0 546 C0 365.82 0 185.64 0 0 Z " fill="#092E20" transform="translate(0,0)"/>
<path d="M0 0 C1.27532593 -0.00151062 1.27532593 -0.00151062 2.57641602 -0.00305176 C25.10851225 0.01484255 47.20764042 2.25856884 69.390625 6.28515625 C70.1527832 6.4231665 70.91494141 6.56117676 71.70019531 6.70336914 C73.5625 7.25 73.5625 7.25 75.5625 9.25 C73.67968901 13.16086962 71.79567566 17.07115721 69.91064453 20.98095703 C69.27230957 22.30534994 68.63427826 23.62988926 67.99658203 24.95458984 C63.92014036 33.42203325 59.7861451 41.85469312 55.5625 50.25 C49.1275 49.755 49.1275 49.755 42.5625 49.25 C42.62816162 50.21542725 42.69382324 51.18085449 42.76147461 52.17553711 C43.55548649 64.38258289 43.89634898 76.58311683 44.125 88.8125 C44.14518188 89.88372101 44.16536377 90.95494202 44.18615723 92.05862427 C44.51712715 110.21736549 44.72314613 128.37793609 44.79367065 146.53952026 C44.8045369 149.25797534 44.82214637 151.97624123 44.84622192 154.6946106 C45.11317335 188.50223346 44.86985052 225.89525615 20.5625 252.25 C19.74007812 253.16394531 18.91765625 254.07789063 18.0703125 255.01953125 C11.61555646 261.85783076 4.81790295 266.78429816 -3.4375 271.25 C-4.24960937 271.70890625 -5.06171875 272.1678125 -5.8984375 272.640625 C-21.83313827 280.78846552 -40.77270542 283.40483095 -58.4375 284.25 C-59.6646875 284.30929687 -60.891875 284.36859375 -62.15625 284.4296875 C-84.01593029 284.88935367 -107.10507397 281.38297041 -127.4375 273.25 C-127.4375 255.43 -127.4375 237.61 -127.4375 219.25 C-119.8475 222.22 -112.2575 225.19 -104.4375 228.25 C-100.34347523 229.42513674 -96.57003153 230.46799603 -92.4375 231.25 C-91.63884521 231.42426514 -90.84019043 231.59853027 -90.01733398 231.77807617 C-71.15454408 235.63027177 -48.17112883 235.89225987 -30.875 226.5 C-22.24877033 220.68163704 -17.25362736 213.24570482 -14.4375 203.25 C-13.09700267 196.3016465 -12.23068925 189.27905945 -11.4375 182.25 C-12.83548828 182.75660156 -12.83548828 182.75660156 -14.26171875 183.2734375 C-39.3353503 192.1520237 -65.89049674 192.08825521 -90.23046875 180.93359375 C-109.22264586 170.96327909 -120.11207059 155.75505904 -127.4375 136.25 C-127.79070313 135.45335937 -128.14390625 134.65671875 -128.5078125 133.8359375 C-137.13620391 109.83595804 -133.45613442 79.43389229 -122.83984375 56.8515625 C-119.13659164 49.61377135 -114.85178201 43.306487 -109.4375 37.25 C-108.71046875 36.42886719 -107.9834375 35.60773438 -107.234375 34.76171875 C-79.89454132 5.65656469 -37.90315639 0.03141656 0 0 Z " fill="#FDFEFE" transform="translate(864.4375,178.75)"/>
<path d="M0 0 C19.14 0 38.28 0 58 0 C58 88.44 58 176.88 58 268 C42.24168364 271.37678208 42.24168364 271.37678208 35.8359375 272.1328125 C35.15173737 272.21498016 34.46753723 272.29714783 33.76260376 272.38180542 C32.34339883 272.55104832 30.92382933 272.71726299 29.50390625 272.88037109 C27.36893377 273.12569706 25.23523871 273.38038465 23.1015625 273.63671875 C-6.12685734 277.11416144 -35.49546299 278.20906432 -64 270 C-65.05832031 269.70222656 -66.11664063 269.40445312 -67.20703125 269.09765625 C-87.11561537 263.01810173 -103.83596582 250.18289532 -114 232 C-114.45117188 231.2059375 -114.90234375 230.411875 -115.3671875 229.59375 C-122.73696584 215.12884344 -124.46970981 199.4915917 -124.4375 183.5 C-124.43763092 182.82635406 -124.43776184 182.15270813 -124.43789673 181.45864868 C-124.35137828 156.66941344 -117.85723715 133.64212109 -101 115 C-100.36320312 114.29359375 -99.72640625 113.5871875 -99.0703125 112.859375 C-83.41971154 96.39167439 -59.92148258 86.54915905 -37.32397461 85.89331055 C-33.76968224 85.82992165 -30.21618374 85.81430417 -26.66137695 85.81469727 C-24.4387726 85.81250126 -22.21665825 85.79426083 -19.99414062 85.77539062 C-18.55729333 85.77245724 -17.12044373 85.77047208 -15.68359375 85.76953125 C-13.75858032 85.76336792 -13.75858032 85.76336792 -11.79467773 85.75708008 C-8 86 -8 86 0 88 C0 58.96 0 29.92 0 0 Z " fill="#FEFEFE" transform="translate(191,93)"/>
<path d="M0 0 C0.825 0.66515625 1.65 1.3303125 2.5 2.015625 C20.65514952 17.40322124 29.57788099 38.7267847 32 62 C32.2965737 66.79285465 32.33067942 71.58555303 32.31567383 76.38623047 C32.31250166 78.49889285 32.33613865 80.61016397 32.36132812 82.72265625 C32.40368176 91.82829164 31.3244768 100.14636141 29 109 C28.81187744 109.73895508 28.62375488 110.47791016 28.42993164 111.23925781 C24.08462913 127.2801891 15.8167873 140.48393932 4 152 C3.34515625 152.66386719 2.6903125 153.32773437 2.015625 154.01171875 C-6.20157345 161.82508053 -16.43725757 166.76196495 -27.0625 170.375 C-27.75714355 170.61355713 -28.45178711 170.85211426 -29.16748047 171.09790039 C-50.06539761 177.7643215 -76.14847214 177.89280694 -97 171 C-97.65983887 170.78569336 -98.31967773 170.57138672 -98.99951172 170.35058594 C-119.56073504 163.44153217 -136.00397052 149.46449673 -146.0078125 130.28125 C-159.33648854 102.92016635 -160.1451184 68.58744365 -150.47265625 39.953125 C-142.4862637 17.85689895 -127.63555492 1.10579531 -106.890625 -9.60546875 C-74.38594209 -23.88117408 -28.19263418 -23.56098714 0 0 Z " fill="#FDFDFD" transform="translate(1090,196)"/>
<path d="M0 0 C1.24082336 -0.00939606 1.24082336 -0.00939606 2.50671387 -0.01898193 C20.86080827 -0.10683324 40.59802402 1.35569957 54.671875 14.71875 C65.18500673 27.15363699 66.28158017 40.66775379 66.23852539 56.26733398 C66.238243 57.66736346 66.23840226 59.06739309 66.2389679 60.46742249 C66.23925385 64.25202433 66.23338974 68.03659424 66.22639394 71.82118869 C66.22012681 75.78232583 66.21955395 79.74346377 66.21836853 83.7046051 C66.21526511 91.19839769 66.20706507 98.69217563 66.19701904 106.18596178 C66.18582717 114.72042162 66.18033971 123.25488217 66.17532361 131.78934753 C66.16488161 149.33874015 66.14730135 166.88811852 66.125 184.4375 C63.46703999 184.92105729 60.80846458 185.40068072 58.14941406 185.87817383 C57.40889801 186.01330635 56.66838196 186.14843887 55.90542603 186.28766632 C47.93679922 187.71233966 39.94161645 188.49822094 31.875 189.125 C31.0869397 189.18820435 30.29887939 189.25140869 29.48693848 189.31652832 C15.28556841 190.42705699 1.11608298 190.7068675 -13.125 190.6875 C-14.09280396 190.68672455 -15.06060791 190.6859491 -16.05773926 190.68515015 C-18.8354934 190.67867057 -21.61295187 190.66242864 -24.390625 190.640625 C-25.20273437 190.63623917 -26.01484375 190.63185333 -26.8515625 190.62733459 C-43.46078018 190.42536716 -60.62950221 186.72265989 -73.5625 175.5625 C-86.59868881 161.54780791 -86.67548836 143.72603809 -86.09716797 125.72851562 C-85.39763038 115.36613466 -80.99530609 106.89419851 -73.875 99.4375 C-73.17890625 98.68984375 -72.4828125 97.9421875 -71.765625 97.171875 C-62.03084943 87.56776756 -48.92212576 82.01938173 -35.875 78.4375 C-34.66199219 78.10105469 -33.44898438 77.76460938 -32.19921875 77.41796875 C-17.58918066 73.58770198 -1.99848949 71.07784508 13.125 71.4375 C13.06485179 68.37294891 12.97777597 65.31317069 12.875 62.25 C12.86082031 61.38568359 12.84664063 60.52136719 12.83203125 59.63085938 C12.6795557 55.65124749 12.42621189 52.99678907 10.515625 49.44921875 C2.81842158 42.97199692 -10.4443912 44.7004505 -19.875 45.4375 C-37.35382065 47.61000878 -54.5805888 52.30734328 -70.12866211 60.68334961 C-71.875 61.4375 -71.875 61.4375 -74.875 61.4375 C-74.875 46.9175 -74.875 32.3975 -74.875 17.4375 C-63.56833432 11.78416716 -53.82089289 7.60525331 -41.875 4.4375 C-40.70227539 4.11773193 -40.70227539 4.11773193 -39.50585938 3.79150391 C-26.45202742 0.39330364 -13.40717029 0.04773147 0 0 Z " fill="#FDFDFD" transform="translate(449.875,178.5625)"/>
<path d="M0 0 C1.02461334 -0.00458221 2.04922668 -0.00916443 3.10488892 -0.0138855 C26.6639618 -0.05578829 48.53198588 3.17255649 66.5 19.8125 C76.03026892 29.90337298 80.88289339 43.64620912 80.87025452 57.4225769 C80.87231651 59.16405754 80.87231651 59.16405754 80.87442017 60.9407196 C80.87082489 62.20019913 80.86722961 63.45967865 80.86352539 64.75732422 C80.86324307 66.10794574 80.86340213 67.45856741 80.8639679 68.80918884 C80.86425412 72.46368921 80.8583857 76.11815657 80.85139394 79.77264929 C80.84513124 83.59632543 80.84455429 87.42000238 80.84336853 91.24368286 C80.84026381 98.47897244 80.832062 105.71424686 80.82201904 112.94952977 C80.81083122 121.18892964 80.80534073 129.42833024 80.80032361 137.66773582 C80.78987867 154.61183264 80.77229587 171.55591471 80.75 188.5 C73.33540058 188.52312883 65.92080889 188.54091785 58.50618076 188.55181217 C55.06359652 188.55703982 51.62103688 188.56413531 48.1784668 188.57543945 C44.22444957 188.58834235 40.27044244 188.59322918 36.31640625 188.59765625 C34.45394005 188.60539818 34.45394005 188.60539818 32.55384827 188.61329651 C30.84218727 188.61340981 30.84218727 188.61340981 29.09594727 188.61352539 C28.085569 188.615746 27.07519073 188.61796661 26.03419495 188.62025452 C23.75 188.5 23.75 188.5 22.75 187.5 C22.65275423 185.91561073 22.62535402 184.32688802 22.62542725 182.73951721 C22.62286423 181.70923904 22.62030121 180.67896088 22.61766052 179.61746216 C22.61976028 178.47727631 22.62186005 177.33709045 22.62402344 176.16235352 C22.6221553 174.96882767 22.62028717 173.77530182 22.61836243 172.54560852 C22.6143464 169.94226481 22.61200913 167.33897002 22.61190033 164.73562813 C22.61076103 160.61195502 22.59792759 156.48837169 22.58233643 152.36473083 C22.57976357 151.66881649 22.57719072 150.97290215 22.5745399 150.25589949 C22.56927271 148.83227596 22.56398722 147.4086525 22.55868387 145.9850291 C22.52359735 136.38266568 22.49701347 126.78041133 22.49951172 117.17797852 C22.5011052 110.70528547 22.48494502 104.2328967 22.44880509 97.76030105 C22.43041182 94.3370543 22.42094251 90.91431495 22.43328094 87.49102974 C22.44292596 83.66094945 22.42167034 79.8321611 22.39355469 76.00219727 C22.40375137 74.88022949 22.41394806 73.75826172 22.42445374 72.60229492 C22.32879036 65.30671885 21.00119595 59.54609203 16.75 53.5 C10.78886417 48.26458367 2.53058479 47.15097526 -5.125 47.1875 C-7.10113281 47.16236328 -7.10113281 47.16236328 -9.1171875 47.13671875 C-16.56086526 47.66355439 -23.90125142 49.20316202 -31.25 50.5 C-31.25 96.04 -31.25 141.58 -31.25 188.5 C-50.39 188.5 -69.53 188.5 -89.25 188.5 C-89.25 130.42 -89.25 72.34 -89.25 12.5 C-54.27064799 4.05670814 -54.27064799 4.05670814 -43.9375 2.5625 C-43.25361206 2.46259766 -42.56972412 2.36269531 -41.8651123 2.25976562 C-27.95047981 0.29420544 -14.03564943 0.02350805 0 0 Z " fill="#FCFDFD" transform="translate(633.25,178.5)"/>
<path d="M0 0 C19.14 0 38.28 0 58 0 C58.0681488 20.34329076 58.12323016 40.68648677 58.15543652 61.02986336 C58.17079876 70.4790981 58.19168012 79.92825603 58.22631836 89.37744141 C58.25655152 97.62898566 58.27565191 105.88047421 58.28226548 114.13207233 C58.28612141 118.48703543 58.29495018 122.84183941 58.31719017 127.19675064 C58.73936909 213.43764788 58.73936909 213.43764788 28.76171875 244.3046875 C22.13620096 250.57236227 14.75791955 255.29080673 7 260 C6.11441406 260.57621094 5.22882813 261.15242188 4.31640625 261.74609375 C3.55199219 262.22175781 2.78757812 262.69742187 2 263.1875 C1.0409375 263.79658203 1.0409375 263.79658203 0.0625 264.41796875 C-4.66009892 265.75067185 -10.07251851 262.10380266 -14.26171875 260.05859375 C-14.84627838 259.77465256 -15.43083801 259.49071136 -16.03311157 259.19816589 C-17.91950243 258.28117944 -19.80346373 257.35931291 -21.6875 256.4375 C-23.63815574 255.48814471 -25.58947719 254.54016828 -27.5408783 253.59234619 C-28.83994606 252.96134633 -30.13882569 252.32995901 -31.43751526 251.69818115 C-37.04572353 248.97152956 -42.67344641 246.28728767 -48.3125 243.625 C-49.10551514 243.25044678 -49.89853027 242.87589355 -50.71557617 242.48999023 C-52.4765948 241.65902646 -54.23821335 240.82933419 -56 240 C-56 239.34 -56 238.68 -56 238 C-55.49251221 237.74943848 -54.98502441 237.49887695 -54.4621582 237.24072266 C-33.36936598 226.73363876 -16.37413241 215.07412971 -8 192 C0.1642856 166.88382199 -0.83409938 140.07531516 -0.69667697 113.99658465 C-0.67454479 109.97809472 -0.64729163 105.95963928 -0.62062073 101.94117737 C-0.57105661 94.35920396 -0.52598597 86.77721102 -0.48259836 79.19520003 C-0.43291228 70.55165841 -0.37811232 61.90815147 -0.32291877 53.26464355 C-0.20965699 35.50979336 -0.10337503 17.7549107 0 0 Z " fill="#FDFDFD" transform="translate(283,182)"/>
<path d="M0 0 C0.79575439 0.00757324 1.59150879 0.01514648 2.41137695 0.02294922 C8.36851373 0.19027423 13.13705869 0.98348473 18.125 4.4375 C18.75535156 4.87320313 19.38570312 5.30890625 20.03515625 5.7578125 C28.84277025 12.60194568 32.64849367 22.79095729 34.71484375 33.4921875 C36.88795279 54.39542686 36.0669015 73.0769756 23.875 90.6875 C17.10232896 97.46017104 9.86896073 99.66252138 0.5 99.75 C-8.53197341 99.75 -15.25963018 98.13181864 -22.125 91.9375 C-32.89011547 80.19373767 -35.44489336 64.94324625 -35.3125 49.5625 C-35.30492676 48.33031738 -35.29735352 47.09813477 -35.28955078 45.82861328 C-35.03940368 32.03765686 -32.46538262 19.54037196 -22.734375 9.15234375 C-15.79846717 2.6528791 -9.47036669 -0.12580561 0 0 Z " fill="#0A2E21" transform="translate(1027.875,224.5625)"/>
<path d="M0 0 C0.84240234 -0.01611328 1.68480469 -0.03222656 2.55273438 -0.04882812 C3.38998047 -0.04947266 4.22722656 -0.05011719 5.08984375 -0.05078125 C5.82968506 -0.05376221 6.56952637 -0.05674316 7.33178711 -0.05981445 C11.36309749 0.48982778 15.20267967 2.02589322 19.0625 3.3125 C19.0625 34.0025 19.0625 64.6925 19.0625 96.3125 C-8.8713843 99.10588843 -8.8713843 99.10588843 -20.9375 94.3125 C-21.6490625 94.0340625 -22.360625 93.755625 -23.09375 93.46875 C-34.11240299 88.55273559 -39.64319359 80.29199692 -43.9375 69.3125 C-48.61441759 53.92511204 -47.67505699 35.63897261 -40.4296875 21.3359375 C-34.49400644 11.09343669 -25.57126979 4.59934052 -14.3125 1.2265625 C-9.53762656 0.08211659 -4.8915944 -0.01862755 0 0 Z " fill="#0A2F21" transform="translate(171.9375,224.6875)"/>
<path d="M0 0 C0.9640979 0.00986938 1.9281958 0.01973877 2.92150879 0.02990723 C5.27481646 0.05543117 7.62747669 0.09123475 9.98046875 0.13671875 C11.19041601 63.02187936 11.19041601 63.02187936 10.98046875 92.13671875 C3.55330771 94.23241882 -3.35329958 95.6733839 -11.08203125 95.57421875 C-11.94618652 95.56447021 -12.8103418 95.55472168 -13.70068359 95.54467773 C-24.40281602 95.24778766 -31.91435475 92.41191242 -39.71875 84.90625 C-48.37507396 74.48632863 -50.19896712 63.50907292 -50.20703125 50.32421875 C-50.21927734 49.28201172 -50.23152344 48.23980469 -50.24414062 47.16601562 C-50.26864248 34.15553037 -47.37035111 23.40524305 -38.14453125 13.76171875 C-27.22155601 3.69946576 -14.69002119 -0.28891116 0 0 Z " fill="#0A2F21" transform="translate(842.01953125,225.86328125)"/>
<path d="M0 0 C19.14 0 38.28 0 58 0 C58 19.47 58 38.94 58 59 C38.86 59 19.72 59 0 59 C0 39.53 0 20.06 0 0 Z " fill="#FDFEFE" transform="translate(283,94)"/>
<path d="M0 0 C0 12.54 0 25.08 0 38 C-17.54117321 41.50823464 -17.54117321 41.50823464 -25.875 41.4375 C-27.16277344 41.4674707 -27.16277344 41.4674707 -28.4765625 41.49804688 C-36.13946485 41.49224165 -42.01288701 39.3165366 -48.0625 34.625 C-51.09375051 30.45570105 -50.79870465 25.37289213 -50.60546875 20.421875 C-49.83638034 16.07528501 -48.42092759 13.79444443 -45.41015625 10.6484375 C-38.78002685 6.11372987 -31.62945787 4.2149368 -23.8125 2.8125 C-22.51795898 2.5659668 -22.51795898 2.5659668 -21.19726562 2.31445312 C-19.53091162 1.99954154 -17.86313 1.69206717 -16.19384766 1.39306641 C-14.42150363 1.07551979 -12.65333495 0.73472219 -10.88671875 0.38671875 C-7.28767535 -0.09542644 -3.63119504 0 0 0 Z " fill="#0D3123" transform="translate(466,288)"/>
</svg>
