<?xml version="1.0" encoding="UTF-8"?>
<svg version="1.1" xmlns="http://www.w3.org/2000/svg" width="910" height="380">
<path d="M0 0 C1.50046875 -0.01933594 1.50046875 -0.01933594 3.03125 -0.0390625 C11.62422626 1.60598926 18.07884949 6.46175592 24.08479309 12.57487488 C24.77992986 13.26221169 25.47506663 13.94954851 26.19126815 14.65771371 C28.4960064 16.94265594 30.78262946 19.24487277 33.06958008 21.54760742 C34.72691412 23.19815994 36.38530858 24.84764826 38.04467773 26.49615479 C42.53328217 30.96202383 47.00599679 35.44349368 51.47529817 39.92867064 C55.68636578 44.15113918 59.90747947 48.36353558 64.127907 52.5766435 C72.9955036 61.43000824 81.84775605 70.29858746 90.69477262 79.17251096 C98.2737901 86.77386488 105.86582062 94.36201455 113.4675293 101.94067383 C122.31134458 110.75768573 131.14693319 119.58281088 139.96969146 128.42089731 C144.63422068 133.0933113 149.30214588 137.76222295 153.97889137 142.42241478 C158.37582916 146.80487369 162.76028761 151.19945202 167.13555145 155.60354614 C168.74005306 157.21464007 170.34878965 158.82152948 171.96211052 160.42379189 C174.16992026 162.61786301 176.36163823 164.82688489 178.55012512 167.04020691 C179.18630998 167.66523816 179.82249484 168.29026941 180.47795802 168.934241 C185.78185305 174.35485869 189.72397006 180.5713848 191.1640625 188.09375 C191.14472656 189.59421875 191.14472656 189.59421875 191.125 191.125 C191.13789063 192.1253125 191.15078125 193.125625 191.1640625 194.15625 C189.51762243 202.75647811 184.65773746 209.20908574 178.53666687 215.21652222 C177.84791892 215.91236455 177.15917098 216.60820688 176.44955188 217.32513535 C174.15994077 219.63221836 171.85305077 221.92116482 169.5456543 224.21044922 C167.89184914 225.86939718 166.23911594 227.52941436 164.58737183 229.19041443 C160.1132699 233.68298976 155.62364432 238.15974309 151.13046622 242.63322973 C146.90203498 246.84690992 142.68397916 251.07094426 138.46533523 255.29441763 C130.10666877 263.66163633 121.73547808 272.01621332 113.35766602 280.36425781 C105.23856214 288.45451399 97.1304343 296.55557709 89.03344727 304.66796875 C80.20210157 313.51609332 71.3644072 322.35778907 62.51592571 331.18877995 C57.83707341 335.85849402 53.160782 340.53070886 48.49112511 345.20962143 C44.10159126 349.60682389 39.70226879 353.99399456 35.29523849 358.37365913 C33.68095344 359.98106613 32.07004103 361.59186851 30.46279716 363.20631599 C28.26575393 365.41206845 26.05673088 367.60509317 23.84428406 369.79537964 C23.21342713 370.43447734 22.58257019 371.07357504 21.93259639 371.73203933 C15.72450165 377.82611798 9.88196864 381.19963839 1 381.125 C-0.2271875 381.1353125 -1.454375 381.145625 -2.71875 381.15625 C-10.95853484 379.99859428 -16.28094739 375.43084698 -21.97163391 369.66130066 C-23.03226847 368.61002604 -23.03226847 368.61002604 -24.11432999 367.53751355 C-26.46901463 365.19871796 -28.80921946 362.8459648 -31.1496582 360.49291992 C-32.83970331 358.80829765 -34.53059759 357.12452692 -36.22227478 355.44154358 C-40.3301303 351.35001363 -44.42856024 347.24922263 -48.52244792 343.14371987 C-51.85059991 339.80651831 -55.18265508 336.47326097 -58.51750755 333.14275551 C-58.9929196 332.6679564 -59.46833164 332.19315728 -59.95815011 331.70397032 C-60.92407574 330.73932365 -61.8900103 329.77468594 -62.85595372 328.81005708 C-71.90278158 319.77462225 -80.93733153 310.72699077 -89.96769973 301.6751096 C-97.71120538 293.91372835 -105.46514645 286.16290229 -113.22680664 278.41967773 C-122.24880859 269.4190951 -131.26426918 260.41204221 -140.26942891 251.39460641 C-141.23013466 250.43262651 -142.19084875 249.47065494 -143.15157127 248.50869179 C-143.86053867 247.79879874 -143.86053867 247.79879874 -144.58382863 247.07456442 C-147.91008285 243.74486093 -151.24094684 240.41981244 -154.57363319 237.09654808 C-159.06016251 232.62157313 -163.53679404 228.13692667 -168.00597572 223.64462852 C-169.64765528 221.99766012 -171.29274801 220.35408585 -172.94147873 218.71417618 C-175.19146124 216.47512445 -177.42875993 214.22411395 -179.6632843 211.96965027 C-180.31833193 211.32352553 -180.97337955 210.67740079 -181.6482771 210.01169652 C-187.50474347 204.05344674 -189.92827238 198.80351875 -190 190.25 C-190.0309375 189.02539062 -190.061875 187.80078125 -190.09375 186.5390625 C-188.49902518 176.02646861 -180.6239131 169.19378438 -173.37573242 162.04663086 C-172.24114443 160.91317299 -171.10744013 159.77882997 -169.97454834 158.64367676 C-166.91564876 155.58363556 -163.84462718 152.53603382 -160.77118468 149.49060893 C-157.55423608 146.29876625 -154.34870781 143.09549494 -151.141922 139.89344788 C-145.07624683 133.84017554 -139.0004532 127.79716703 -132.92090636 121.7578302 C-125.99642917 114.87815465 -119.08338713 107.9870368 -112.17125547 101.09496105 C-97.9601406 86.92558947 -83.7348129 72.77056131 -69.5 58.625 C-66.29143269 60.16065749 -63.97288994 61.82437336 -61.3581543 64.25415039 C-60.15252083 65.37286278 -60.15252083 65.37286278 -58.92253113 66.51417542 C-55.27689507 69.96361685 -51.65607455 73.43753256 -48.0534668 76.93188477 C-46.15149882 78.76061912 -44.2318797 80.57118062 -42.29467773 82.36254883 C-25.25537028 98.13893093 -25.25537028 98.13893093 -24.54956055 105.51074219 C-24.60646258 108.4678439 -25.05287843 111.17396336 -25.74169922 114.04418945 C-26.92327842 119.62378449 -25.23586795 123.77130657 -22.5 128.625 C-19.82720864 132.71867183 -17.13422887 135.32954145 -12.8840332 137.72094727 C-11.76730225 138.34928467 -10.65057129 138.97762207 -9.5 139.625 C-9.26820815 153.32442368 -9.09057069 167.02338034 -8.98187828 180.72436619 C-8.92970784 187.08656172 -8.85895977 193.44741496 -8.74560547 199.80883789 C-8.63687588 205.94921467 -8.57714272 212.08830139 -8.55122757 218.22956657 C-8.53276263 220.57129162 -8.49670238 222.91294669 -8.44269943 225.25412178 C-8.03439219 243.69012532 -8.03439219 243.69012532 -11.68731689 248.51266479 C-14.37353516 250.36694336 -14.37353516 250.36694336 -17.05386353 251.54234314 C-21.11268135 253.33877069 -22.72254989 256.71305739 -24.5 260.625 C-27.6549056 269.03808161 -27.06945439 275.7503877 -23.8203125 283.94140625 C-20.37046664 290.95337106 -15.84406844 295.06953417 -8.61328125 297.93359375 C0.65382753 300.96553137 7.72590063 299.58303221 16.5 295.625 C22.52547116 292.14361666 26.33649039 285.11552882 28.5 278.625 C29.21919282 268.51480867 28.6759576 261.19077581 22.125 253.3125 C20.07175555 251.00142805 18.83204191 249.7517447 15.91584778 248.63859558 C13.5 246.625 13.5 246.625 13.04627037 244.67768288 C12.88092371 241.9884693 12.88250044 239.33975265 12.93237305 236.64575195 C12.93127785 235.10890747 12.93127785 235.10890747 12.93016052 233.54101562 C12.93364937 230.14790256 12.97257364 226.75615507 13.01171875 223.36328125 C13.02104221 221.01345062 13.02816052 218.66361029 13.03315735 216.31376648 C13.05226363 210.12390386 13.10139667 203.9346263 13.15667725 197.74499512 C13.20779092 191.43098872 13.23065459 185.11688795 13.25585938 178.80273438 C13.30951111 166.40989896 13.39486852 154.01749809 13.5 141.625 C20.93834288 147.96977316 28.12908137 154.52632375 35.18212891 161.29785156 C36.72605296 162.76469325 38.28577813 164.21508248 39.86083984 165.6484375 C53.7340317 178.30203993 53.7340317 178.30203993 54.21850586 185.04956055 C54.13370402 187.8902225 53.69930539 190.31852772 53.12866211 193.13500977 C51.99212826 199.44442777 54.51533401 204.37905095 57.75390625 209.67578125 C62.21883114 215.61629385 69.28394087 219.16389712 76.5 220.625 C84.4395584 221.26016467 92.54775632 219.20618172 98.8984375 214.28515625 C105.946009 206.97974677 107.93755925 199.13074686 107.8359375 189.2734375 C107.06759887 180.92892265 103.00270628 175.4149612 96.7578125 170.09765625 C91.32312353 166.55288507 88.04016107 165.29070664 81.58480835 166.35365295 C74.64985519 167.30789026 69.83541464 166.3131383 64.19824219 162.06689453 C59.39756652 157.99641259 54.97602362 153.58539511 50.625 149.04174805 C47.87663054 146.18919235 45.04681645 143.44239201 42.1953125 140.69335938 C27.60730356 126.1582421 27.60730356 126.1582421 27.23403931 117.29100037 C27.40682869 114.00878721 27.94416327 110.86396994 28.5 107.625 C27.37945693 99.85759914 21.64454873 93.81904272 15.609375 89.16796875 C11.03089295 86.61735769 7.90927409 86.71339927 2.80062866 87.59570312 C-2.8375672 88.31923846 -7.35710888 88.00835895 -12.222229 84.86764526 C-18.92802442 79.38506188 -24.80892232 73.04844404 -30.66912842 66.6918335 C-33.1098184 64.06512187 -35.6039851 61.49024165 -38.09375 58.91015625 C-42.94854573 53.86380839 -47.74282583 48.7634359 -52.5 43.625 C-51.14503493 40.61013041 -49.6216793 38.48346837 -47.31054688 36.12915039 C-46.66226929 35.46488541 -46.0139917 34.80062042 -45.34606934 34.1162262 C-44.64405396 33.40884811 -43.94203857 32.70147003 -43.21875 31.97265625 C-42.12657166 30.8669352 -42.12657166 30.8669352 -41.0123291 29.73887634 C-39.46832355 28.18036868 -37.92149515 26.62465327 -36.37207031 25.0715332 C-34.02416567 22.71178754 -31.69558082 20.33405651 -29.3671875 17.95507812 C-27.86053305 16.43895247 -26.35275484 14.92394257 -24.84375 13.41015625 C-24.15792847 12.7048024 -23.47210693 11.99944855 -22.76550293 11.27272034 C-16.51208594 5.07573521 -9.12374831 -0.11757408 0 0 Z " fill="#F05033" transform="translate(189.5,-0.625)"/>
<path d="M0 0 C1.14017578 -0.020625 2.28035156 -0.04125 3.45507812 -0.0625 C9.3159296 -0.08841864 14.85493853 0.20454161 20.61984253 1.30686951 C36.20323613 4.26189945 52.10199133 3.81639651 67.9050293 3.91955566 C72.79810861 3.95510388 77.69098573 4.01188744 82.58390045 4.06494904 C89.95173793 4.14255389 97.31932781 4.1938431 104.6875 4.25 C104.6875 14.48 104.6875 24.71 104.6875 35.25 C102.06706474 36.56021763 99.8718269 36.54943729 96.9453125 36.75 C95.79675781 36.8325 94.64820313 36.915 93.46484375 37 C92.25957031 37.0825 91.05429687 37.165 89.8125 37.25 C87.43988057 37.41345279 85.06747115 37.57999087 82.6953125 37.75 C81.63973145 37.8221875 80.58415039 37.894375 79.49658203 37.96875 C77.11717643 38.20698008 74.97877795 38.58885578 72.6875 39.25 C73.07421875 39.78367188 73.4609375 40.31734375 73.859375 40.8671875 C82.92229272 53.83344107 86.43948922 68.2162638 84.15234375 83.92578125 C81.05313169 100.77668835 74.5647534 113.56772409 60.69140625 124.21875 C46.98392998 133.48778467 31.23882244 138.3669751 14.6796875 138.3828125 C13.36226562 138.38410156 12.04484375 138.38539063 10.6875 138.38671875 C10.00816406 138.38462402 9.32882812 138.3825293 8.62890625 138.38037109 C6.58846411 138.37506749 4.54824744 138.38030849 2.5078125 138.38671875 C-5.80750749 138.39049672 -14.03256755 138.02652005 -22.3125 137.25 C-23.81515526 139.7275923 -25.31472919 142.20695765 -26.8125 144.6875 C-27.24175781 145.39455078 -27.67101562 146.10160156 -28.11328125 146.83007812 C-30.3122246 149.84971727 -30.3122246 149.84971727 -31.3125 153.25 C-30.23066185 153.3151757 -30.23066185 153.3151757 -29.12696838 153.38166809 C-22.2029875 153.8001428 -15.27948697 154.22592421 -8.35641575 154.6591692 C-4.80041053 154.88146496 -1.24429496 155.10129379 2.31225586 155.31469727 C16.43010197 156.16363336 30.52367818 157.07761792 44.57421875 158.7421875 C45.55410263 158.85734207 46.53398651 158.97249664 47.54356384 159.09114075 C60.95815028 160.78151939 74.33227162 163.57699242 85.6875 171.25 C86.2753125 171.63800781 86.863125 172.02601563 87.46875 172.42578125 C95.43004837 178.33582672 99.29909095 187.54097445 101.24609375 196.94921875 C103.56833947 214.31468457 101.46075854 231.70102124 90.61328125 245.98046875 C72.04874492 267.39610315 45.11165481 273.93329357 17.9140625 276.05810547 C-9.53876965 277.69081779 -42.13530586 278.02481892 -67.3125 265.25 C-68.20453125 264.79753906 -69.0965625 264.34507812 -70.015625 263.87890625 C-78.68763154 259.08853138 -84.69174468 252.51601899 -88.3125 243.25 C-91.24097241 232.92824657 -90.54058027 219.64516777 -85.3125 210.25 C-81.39142386 204.24221255 -76.51072082 199.16381968 -71.3125 194.25 C-71.83199219 193.9096875 -72.35148437 193.569375 -72.88671875 193.21875 C-79.01625915 188.95866277 -82.93488337 184.38284989 -85.3125 177.25 C-86.26773298 165.99189705 -85.25736477 158.21933105 -77.91796875 149.359375 C-75.15315024 146.22024882 -72.24816496 143.22859798 -69.3125 140.25 C-68.81282715 139.73663086 -68.3131543 139.22326172 -67.79833984 138.69433594 C-58.71187491 129.36324675 -58.71187491 129.36324675 -54.3125 126.25 C-55.21871094 125.60675781 -56.12492187 124.96351563 -57.05859375 124.30078125 C-68.60717234 115.84018525 -77.0951356 106.30059747 -81.3125 92.25 C-81.66699219 91.10273438 -82.02148438 89.95546875 -82.38671875 88.7734375 C-86.90601628 70.18254306 -83.85004636 48.71910746 -74.33984375 32.3125 C-62.56238375 14.5215007 -45.17927308 5.99684612 -24.69921875 1.828125 C-16.40463379 0.41220969 -8.41170791 0.0366723 0 0 Z M-23.625 46.1875 C-30.90985985 55.0912176 -32.24186978 65.07210042 -31.3125 76.25 C-29.66149882 83.07641939 -27.34797705 89.57276717 -21.3046875 93.58203125 C-13.92873579 97.92009098 -7.00116542 99.64301858 1.5 99.625 C2.29245117 99.62338867 3.08490234 99.62177734 3.90136719 99.62011719 C10.16980646 99.48915021 15.19424212 98.3890045 20.6875 95.25 C21.76 94.6725 22.8325 94.095 23.9375 93.5 C31.20265307 87.55578386 34.94426713 80.25762416 35.93359375 70.9296875 C36.22461465 61.10345233 33.73479351 52.95620912 27.19140625 45.55859375 C19.79313305 38.47967047 10.649019 36.63727665 0.67993164 36.77954102 C-8.6214857 37.19473343 -16.84339704 39.63195047 -23.625 46.1875 Z M-40.53515625 207.421875 C-44.61385984 213.72929644 -46.6130938 219.75108079 -45.3125 227.25 C-42.69394162 232.50702975 -38.26084091 235.38877039 -32.87402344 237.4050293 C-23.25858612 240.57687723 -13.45634953 240.59279775 -3.44360352 240.56567383 C-1.01467728 240.56251906 1.41302069 240.58603093 3.84179688 240.61132812 C16.66202385 240.66362361 30.93527843 240.11599196 41.6875 232.25 C45.05871597 228.61887169 46.52253724 225.46660032 47.1875 220.5625 C46.64361723 216.95927662 45.80538882 215.18404798 43.6875 212.25 C35.37046465 207.0151601 24.46384828 207.21848866 14.9375 206.625 C13.26028244 206.51348729 11.58311807 206.40117193 9.90600586 206.28808594 C7.34666045 206.1157883 4.78730488 205.94495004 2.22740173 205.78112793 C-2.61093926 205.46452979 -7.42721923 205.06097743 -12.24795532 204.54104614 C-15.08088064 204.23686338 -17.91657635 203.96713737 -20.7532959 203.70098877 C-22.70645515 203.50438324 -24.65475199 203.26124211 -26.60253906 203.01708984 C-32.90368192 202.4646444 -36.38879316 202.29081722 -40.53515625 207.421875 Z " fill="#3D2D00" transform="translate(542.3125,92.75)"/>
<path d="M0 0 C11.88 0 23.76 0 36 0 C36 18.15 36 36.3 36 55 C53.82 55 71.64 55 90 55 C90 67.21 90 79.42 90 92 C72.18 92 54.36 92 36 92 C36.09082025 109.40051495 36.09082025 109.40051495 36.20898438 126.80078125 C36.26326238 133.90020738 36.31437449 140.99955533 36.34643555 148.09912109 C36.3724921 153.82454402 36.4129117 159.54970369 36.46318626 165.27496338 C36.47983897 167.45652994 36.49136316 169.63814202 36.49761391 171.81976318 C36.50727213 174.8814233 36.53535286 177.94241229 36.56762695 181.00390625 C36.56619186 181.90086716 36.56475677 182.79782806 36.5632782 183.7219696 C36.66594486 190.63292051 37.8597838 196.16736091 42.125 201.8125 C49.01034071 207.05134619 56.56668002 207.79225256 65 207 C73.41026729 205.69970099 81.70041358 203.8659099 90 202 C91.31511046 206.03379343 92.61462841 210.07218487 93.90014648 214.11547852 C94.33928727 215.48923003 94.78260403 216.8616541 95.23022461 218.23266602 C95.87424995 220.20772481 96.50292788 222.18712707 97.12890625 224.16796875 C97.70233765 225.95110474 97.70233765 225.95110474 98.28735352 227.77026367 C99.00808009 231.03661924 99.13754966 232.87182624 98 236 C95.21875 237.625 95.21875 237.625 91.5 239 C90.83508545 239.24782227 90.1701709 239.49564453 89.48510742 239.75097656 C84.48034892 241.57470008 79.40984773 243.20591291 74.3125 244.75 C73.66152344 244.94851563 73.01054688 245.14703125 72.33984375 245.3515625 C61.3417824 248.52491617 50.53669643 249.34152263 39.125 249.3125 C37.86558594 249.32861328 36.60617187 249.34472656 35.30859375 249.36132812 C20.06086482 249.36916355 4.04180913 246.58772539 -7.48046875 235.73828125 C-17.65717403 224.09654899 -20.12784164 209.08704979 -20.18945312 194.14526367 C-20.19774643 193.06334747 -20.20603973 191.98143127 -20.21458435 190.86672974 C-20.23194419 188.52431361 -20.24712199 186.18188052 -20.26036072 183.83943748 C-20.28142112 180.13789249 -20.3084378 176.43643352 -20.33703613 172.73493958 C-20.40171737 164.21698331 -20.45773763 155.69897536 -20.51302338 147.18095398 C-20.56788092 138.73841324 -20.62648579 130.29591555 -20.69187927 121.85344887 C-20.71854066 118.19668099 -20.7392968 114.53990881 -20.7598877 110.88310242 C-20.77648038 108.65798729 -20.79335129 106.43287422 -20.81054688 104.20776367 C-20.81473129 103.18285324 -20.81891571 102.15794281 -20.82322693 101.10197449 C-20.83157059 100.17529968 -20.83991425 99.24862488 -20.84851074 98.29386902 C-20.85366447 97.48403155 -20.85881821 96.67419409 -20.86412811 95.83981609 C-20.79994465 93.98235275 -20.79994465 93.98235275 -22 93 C-23.92478813 92.84193469 -25.8549921 92.748865 -27.78515625 92.68359375 C-28.83840088 92.64548584 -29.89164551 92.60737793 -30.97680664 92.56811523 C-32.32508545 92.52501221 -33.67336426 92.48190918 -35.0625 92.4375 C-41.4665625 92.2209375 -41.4665625 92.2209375 -48 92 C-48 81.11 -48 70.22 -48 59 C-45.07125 58.29875 -42.1425 57.5975 -39.125 56.875 C-26.40713469 53.61735449 -17.43077287 48.76775379 -10.37890625 37.3828125 C-4.00942333 25.66042249 -2.17775457 13.06652742 0 0 Z " fill="#3D2D00" transform="translate(811,34)"/>
<path d="M0 0 C25.08 0 50.16 0 76 0 C76.33 51.48 76.66 102.96 77 156 C88.49373428 158.03652108 88.49373428 158.03652108 100 160 C100 169.9 100 179.8 100 190 C65.68 190 31.36 190 -4 190 C-4 180.1 -4 170.2 -4 160 C5.8125 158.625 5.8125 158.625 8.89379883 158.20556641 C10.10072388 158.03033447 10.10072388 158.03033447 11.33203125 157.8515625 C12.15421143 157.73635254 12.9763916 157.62114258 13.82348633 157.50244141 C16.27576026 157.07134376 16.27576026 157.07134376 19 155 C19.454599 152.9095931 19.454599 152.9095931 19.38095093 150.45179749 C19.3894104 149.49417007 19.39786987 148.53654266 19.40658569 147.54989624 C19.400513 146.49581573 19.39444031 145.44173523 19.38818359 144.35571289 C19.39344055 143.24833267 19.39869751 142.14095245 19.40411377 141.00001526 C19.41736282 137.3240872 19.40855749 133.64858904 19.3984375 129.97265625 C19.40045696 127.42679257 19.40336733 124.88092945 19.40713501 122.33506775 C19.41156515 116.99260431 19.40539011 111.65029612 19.39111328 106.30786133 C19.37479411 100.12980491 19.3800679 93.9520456 19.3965925 87.77399641 C19.41184388 81.83447357 19.41023304 75.8950431 19.4014473 69.95550346 C19.39944171 67.42646684 19.40191705 64.89742267 19.40888596 62.36839485 C19.41648065 58.83661776 19.40492296 55.30541576 19.38818359 51.77368164 C19.39425629 50.72162537 19.40032898 49.66956909 19.40658569 48.58563232 C19.39812622 47.62518509 19.38966675 46.66473785 19.38095093 45.67518616 C19.37925431 44.42221788 19.37925431 44.42221788 19.37752342 43.14393711 C18.91105377 40.49487872 18.08757953 39.64348027 16 38 C13.80121379 36.96374223 13.80121379 36.96374223 11.33203125 36.17578125 C10.43935547 35.86962891 9.54667969 35.56347656 8.62695312 35.24804688 C7.69818359 34.93931641 6.76941406 34.63058594 5.8125 34.3125 C4.87212891 33.99216797 3.93175781 33.67183594 2.96289062 33.34179688 C0.64447175 32.55329908 -1.67639543 31.77305452 -4 31 C-4.1806402 24.39485193 -3.48870512 18.09763103 -2.5625 11.5625 C-2.42779297 10.55767578 -2.29308594 9.55285156 -2.15429688 8.51757812 C-1.13037799 1.13037799 -1.13037799 1.13037799 0 0 Z " fill="#3D2D00" transform="translate(667,93)"/>
<path d="M0 0 C0.92039062 -0.01546875 1.84078125 -0.0309375 2.7890625 -0.046875 C10.67428402 -0.00245122 17.12621852 2.08964708 23.8125 6.25 C32.00385185 14.67539048 33.40455376 23.64285696 33.36572266 34.9519043 C33.1825441 44.13856101 31.06750154 51.21772505 24.69921875 58.03515625 C15.53575665 65.93469254 3.48278825 66.21554467 -8 65.5 C-15.88641735 64.2700083 -22.50789079 60.87180084 -27.53515625 54.578125 C-34.25922362 44.4626184 -34.54295851 31.83978841 -32.3828125 20.1640625 C-30.30815793 13.60962283 -26.72207127 8.38098187 -21 4.5 C-14.00537893 0.88971681 -7.80709776 -0.13121173 0 0 Z " fill="#3D2D00" transform="translate(710,-0.5)"/>
</svg>
