<?xml version="1.0" encoding="UTF-8"?>
<svg version="1.1" xmlns="http://www.w3.org/2000/svg" width="3840" height="2160">
<path d="M0 0 C1.53435801 -0.0070198 3.06871571 -0.01410664 4.60307312 -0.02125549 C9.48408421 -0.04067527 14.36504793 -0.04568988 19.24609375 -0.046875 C20.0772319 -0.04731686 20.90837006 -0.04775871 21.76469421 -0.04821396 C45.78488326 -0.05491452 69.66928799 0.06388912 93.54949951 2.94665527 C95.81741126 3.21920683 98.08650852 3.47982903 100.35595703 3.73925781 C182.60731503 13.23802465 261.88951813 36.43288806 379.68359375 96.203125 C380.59560547 96.73695801 381.50761719 97.27079102 382.44726562 97.82080078 C423.0465727 121.68891973 461.51953842 150.06426779 496.19921875 181.9375 C498.35101958 183.89983409 500.53402058 185.80959036 502.74609375 187.703125 C506.78864372 191.2083217 510.50569517 195.00916416 514.26171875 198.81640625 C516.25961422 200.78530001 518.2793386 202.60001548 520.43359375 204.390625 C525.16537796 208.42854269 529.29615409 213.03490433 533.49707031 217.61010742 C536.96785542 221.38849898 540.51567598 225.05908395 544.15893555 228.67138672 C545.87064906 230.39104894 547.48378236 232.17001271 549.05859375 234.015625 C551.68054036 237.05895588 554.35269042 240.04664774 557.05859375 243.015625 C561.78926251 248.2648325 566.2553 253.69806417 570.68359375 259.203125 C571.58570037 260.31269283 572.48805458 261.42205941 573.390625 262.53125 C592.40215705 285.98775001 609.76196759 310.55589758 625.68359375 336.203125 C626.09915527 336.87085938 626.5147168 337.53859375 626.94287109 338.2265625 C672.71915925 412.13474884 703.93758919 494.30424717 729.68359375 770.203125 C729.62042969 770.9167218 729.55726562 771.6303186 729.4921875 772.36553955 C722.24121272 853.34142243 702.01746752 932.87878486 665.02197266 1012.37060547 C663.66219377 1015.2484155 662.31885508 1018.13352975 660.9765625 1021.01953125 C637.14344579 1071.93185225 605.79783298 1119.19178128 570.07958984 1162.50292969 C568.79794963 1164.06385002 567.53103994 1165.63683491 566.265625 1167.2109375 C561.5398116 1173.08265609 556.59164447 1178.67120869 551.45703125 1184.18359375 C549.35495254 1186.44958546 547.31341346 1188.76148045 545.28515625 1191.09375 C533.05448349 1205.12598126 520.13867465 1219.26428228 505.890625 1231.27734375 C503.31349331 1233.5260622 500.83434976 1235.86603356 498.34716797 1238.21337891 C492.52796583 1243.70473867 486.65889736 1249.01567668 480.40234375 1254.01171875 C477.94747575 1255.99042701 475.54738635 1258.0214276 473.15820312 1260.07861328 C464.93553687 1267.14418273 456.35387649 1273.69947905 447.68359375 1280.203125 C446.55775879 1281.05245605 446.55775879 1281.05245605 445.40917969 1281.91894531 C433.14176739 1291.15994369 420.56094559 1299.83519754 407.68359375 1308.203125 C406.90580566 1308.71053223 406.12801758 1309.21793945 405.32666016 1309.74072266 C382.27266129 1324.72656257 358.23944839 1337.87890619 333.68359375 1350.203125 C332.70390625 1350.6976416 331.72421875 1351.1921582 330.71484375 1351.70166016 C249.85810876 1392.28617654 249.85810876 1392.28617654 220.68359375 1385.203125 C211.63357602 1382.06117532 204.89331289 1375.71961557 200.68359375 1367.203125 C196.46402404 1357.01255325 197.30425523 1346.04887715 197.390625 1335.24755859 C197.39639016 1333.12889421 197.40077796 1331.01022571 197.40390015 1328.89155579 C197.41335331 1324.34306559 197.43211549 1319.7947443 197.45809937 1315.24631882 C197.49888233 1308.03032481 197.51639716 1300.81438576 197.53051758 1293.59829712 C197.56657618 1276.96032992 197.63249905 1260.3225067 197.69920349 1243.68463898 C197.75998038 1228.46516798 197.81417453 1213.24574843 197.84384823 1198.02618086 C197.85624424 1192.04006019 197.87499227 1186.05410511 197.90908813 1180.06806564 C198.19273972 1129.74053791 196.28475307 1076.41837971 161.68359375 1036.203125 C160.925625 1035.31882812 160.16765625 1034.43453125 159.38671875 1033.5234375 C156.5777548 1030.31465751 153.70624722 1027.21042968 150.68359375 1024.203125 C159.35875421 1022.32454071 168.09333167 1021.09158891 176.87384033 1019.83209229 C225.63128267 1012.7856812 273.42315936 1001.2549774 317.68359375 979.203125 C318.493125 978.80383789 319.30265625 978.40455078 320.13671875 977.99316406 C344.01465799 966.12623995 365.57009293 950.7729529 384.68359375 932.203125 C385.59020752 931.33518311 385.59020752 931.33518311 386.51513672 930.44970703 C394.85577975 922.44941159 402.49420558 914.24248958 409.37744141 904.95361328 C410.69023227 903.19422814 412.03310794 901.46164321 413.3828125 899.73046875 C460.10233331 839.01846816 473.80177853 756.70150059 473.92382812 681.92578125 C473.93348131 678.36954883 473.96458029 674.81390894 473.99609375 671.2578125 C474.0910123 650.81202156 472.57129959 630.45170004 468.12109375 610.453125 C467.8698877 609.31375488 467.61868164 608.17438477 467.35986328 607.00048828 C460.51694552 577.38279177 449.04316334 548.85208497 432.68359375 523.203125 C432.008125 522.13320313 431.33265625 521.06328125 430.63671875 519.9609375 C418.93443173 501.37582244 418.93443173 501.37582244 403.8671875 485.8359375 C402.68359375 484.203125 402.68359375 484.203125 402.8203125 481.1171875 C403.70995245 476.5160997 405.13448515 472.05652772 406.49609375 467.578125 C422.42165564 413.24385503 417.16182182 355.14036798 397.51196289 302.44165039 C396.43919508 299.54117738 395.68359375 297.32507337 395.68359375 294.203125 C368.85773048 293.49032741 345.22172291 296.54871648 319.68359375 305.203125 C318.84844238 305.48559082 318.01329102 305.76805664 317.15283203 306.05908203 C304.65694734 310.34804065 292.61124313 315.53580923 280.68359375 321.203125 C279.70003906 321.66960449 278.71648438 322.13608398 277.703125 322.61669922 C255.07396095 333.43795411 233.71540625 346.18326255 212.57421875 359.65234375 C211.91486328 360.0704834 211.25550781 360.48862305 210.57617188 360.91943359 C208.65806992 362.1766956 208.65806992 362.1766956 206.90039062 363.67822266 C206.32869141 364.14663574 205.75699219 364.61504883 205.16796875 365.09765625 C204.44432129 365.73924683 204.44432129 365.73924683 203.70605469 366.39379883 C198.46954142 368.48928911 191.29383776 365.73495553 186.03125 364.3828125 C184.53921833 364.01100967 183.0469373 363.64020647 181.55444336 363.27026367 C180.77310028 363.07580658 179.9917572 362.88134949 179.18673706 362.68099976 C102.58582106 343.75944808 22.965856 339.68329914 -147.46875 366.00390625 C-151.46443967 367.1025335 -154.29407411 367.60774892 -158.31640625 366.203125 C-160.53674729 364.89704204 -162.55048337 363.57830903 -164.62890625 362.078125 C-182.34996746 349.81615847 -201.25560235 339.22324513 -220.31640625 329.203125 C-221.19296875 328.7395459 -222.06953125 328.2759668 -222.97265625 327.79833984 C-251.95082494 312.56882068 -282.8686773 300.37155174 -315.31640625 295.203125 C-317.13785156 294.90921875 -317.13785156 294.90921875 -318.99609375 294.609375 C-325.07184805 293.88807661 -331.20901458 294.0987052 -337.31640625 294.140625 C-339.19392578 294.14739258 -339.19392578 294.14739258 -341.109375 294.15429688 C-344.17843566 294.16601085 -347.24739532 294.18241427 -350.31640625 294.203125 C-350.49453857 294.81478516 -350.6726709 295.42644531 -350.85620117 296.05664062 C-352.12543298 300.35845192 -353.43511453 304.63003222 -354.9296875 308.859375 C-361.92777969 328.70367268 -366.78212186 349.30109136 -369.31640625 370.203125 C-369.41066895 370.96222168 -369.50493164 371.72131836 -369.60205078 372.50341797 C-373.40455191 407.77348657 -370.58417283 445.35069442 -357.88842773 478.6027832 C-357.31640625 481.203125 -357.31640625 481.203125 -358.07714844 483.38500977 C-359.89061923 486.04555291 -361.99989877 488.42104614 -364.12890625 490.828125 C-400.90368332 533.53055677 -423.83449437 589.02828134 -428.31640625 645.203125 C-428.44450684 646.80172363 -428.44450684 646.80172363 -428.57519531 648.43261719 C-429.28189057 658.02999473 -429.55767318 667.5823615 -429.56640625 677.203125 C-429.56741333 677.98848633 -429.56842041 678.77384766 -429.56945801 679.58300781 C-429.49231112 770.30775222 -407.33177669 864.90428571 -341.75390625 931.015625 C-336.24056691 936.47627105 -330.44807183 941.44280879 -324.31640625 946.203125 C-323.07384245 947.1974466 -321.831682 948.19227238 -320.58984375 949.1875 C-260.36724061 996.9168083 -183.03766031 1014.36679413 -108.31640625 1023.203125 C-108.31640625 1026.203125 -108.31640625 1026.203125 -110.00390625 1028.078125 C-110.76703125 1028.779375 -111.53015625 1029.480625 -112.31640625 1030.203125 C-134.08693496 1051.36135759 -146.29283844 1083.345484 -150.29223633 1112.96337891 C-150.8475976 1116.7830883 -151.33720276 1118.74493095 -154.31640625 1121.203125 C-157.28925592 1122.7334028 -160.437521 1123.84239953 -163.56640625 1125.015625 C-164.49590088 1125.36455811 -165.42539551 1125.71349121 -166.38305664 1126.07299805 C-183.93808805 1132.48798529 -201.74423994 1136.3051641 -220.31640625 1138.203125 C-221.27635498 1138.30753906 -222.23630371 1138.41195313 -223.2253418 1138.51953125 C-230.16557719 1139.20160724 -236.8108239 1139.19018576 -243.75390625 1138.578125 C-244.78523682 1138.48748779 -245.81656738 1138.39685059 -246.87915039 1138.3034668 C-286.41818277 1134.39347899 -318.55029607 1114.86345593 -344.125 1084.99609375 C-350.07845468 1077.53716777 -355.00647359 1069.44657347 -360.06835938 1061.37084961 C-367.95511454 1048.87669327 -377.14138732 1037.88080205 -387.31640625 1027.203125 C-388.05375 1026.41292969 -388.79109375 1025.62273437 -389.55078125 1024.80859375 C-410.16561435 1003.32853956 -437.6052969 990.22550937 -467.31640625 989.203125 C-468.21230469 989.15027344 -469.10820313 989.09742188 -470.03125 989.04296875 C-479.85562346 988.66699439 -490.36782586 990.25358878 -498.31640625 996.203125 C-499.7440058 997.43132701 -499.7440058 997.43132701 -499.87890625 1001.078125 C-499.77062002 1007.90015773 -495.74475659 1012.34599789 -491.31640625 1017.203125 C-485.01008454 1023.24586979 -477.94987115 1027.77582026 -470.49609375 1032.265625 C-453.45217715 1042.65110735 -440.61621848 1056.94325393 -429.31640625 1073.203125 C-428.82575684 1073.90276367 -428.33510742 1074.60240234 -427.82958984 1075.32324219 C-414.19520435 1094.87694627 -402.68800951 1115.69067625 -393.25219727 1137.56616211 C-378.4317471 1171.88176658 -355.71057518 1197.14562868 -320.69140625 1211.453125 C-269.78748041 1231.25073368 -213.26214028 1227.84567295 -160.47583008 1218.52270508 C-158.31640625 1218.203125 -158.31640625 1218.203125 -155.31640625 1218.203125 C-155.13870364 1235.61485624 -154.97307452 1253.02665549 -154.82163048 1270.43863392 C-154.75102655 1278.5241774 -154.67654309 1286.60964967 -154.59277344 1294.69506836 C-154.51972939 1301.74622176 -154.45412047 1308.79739945 -154.39726222 1315.84870261 C-154.36692988 1319.57876194 -154.33299533 1323.30870655 -154.29014206 1327.03864479 C-154.24232302 1331.21297287 -154.21111207 1335.38727307 -154.18115234 1339.56176758 C-154.16461105 1340.78456924 -154.14806976 1342.00737091 -154.13102722 1343.26722717 C-154.06708397 1356.25981419 -155.51490936 1367.21495711 -164.62890625 1377.015625 C-172.64498861 1384.43221403 -183.10788907 1387.0930713 -193.8984375 1387.2578125 C-207.02799594 1386.18545066 -219.16184662 1380.97806724 -231.31640625 1376.203125 C-232.94811768 1375.56576416 -232.94811768 1375.56576416 -234.61279297 1374.91552734 C-269.69668074 1361.12644113 -303.74014502 1345.19145905 -336.31640625 1326.203125 C-337.1264209 1325.73648437 -337.93643555 1325.26984375 -338.77099609 1324.7890625 C-361.45273021 1311.70254786 -383.35964089 1296.89529072 -404.31640625 1281.203125 C-405.36344727 1280.42195313 -405.36344727 1280.42195313 -406.43164062 1279.625 C-426.22419605 1264.81204299 -445.27337118 1248.96684781 -463.21923828 1231.95898438 C-465.99135652 1229.33706426 -468.77058174 1226.80750226 -471.75 1224.421875 C-472.59691406 1223.6896875 -473.44382812 1222.9575 -474.31640625 1222.203125 C-474.31640625 1221.543125 -474.31640625 1220.883125 -474.31640625 1220.203125 C-474.8475 1219.996875 -475.37859375 1219.790625 -475.92578125 1219.578125 C-479.32414061 1217.62351308 -481.82696553 1214.98188783 -484.56640625 1212.203125 C-485.12070313 1211.6565625 -485.675 1211.11 -486.24609375 1210.546875 C-490.31640625 1206.4565117 -490.31640625 1206.4565117 -490.31640625 1204.203125 C-490.97640625 1204.203125 -491.63640625 1204.203125 -492.31640625 1204.203125 C-493.78369141 1202.7277832 -493.78369141 1202.7277832 -495.48046875 1200.69140625 C-499.08380095 1196.45334327 -502.85774157 1192.4195502 -506.69140625 1188.390625 C-511.7321076 1183.05293965 -516.57387073 1177.64296357 -521.15234375 1171.8984375 C-523.15707864 1169.40156552 -525.21024611 1166.96004039 -527.29150391 1164.52734375 C-537.74212359 1152.30883061 -547.37128457 1139.56769738 -556.69775391 1126.47460938 C-558.26778718 1124.27135303 -559.84450135 1122.07300431 -561.421875 1119.875 C-577.98543772 1096.70893569 -592.90284536 1072.32262528 -606.31640625 1047.203125 C-606.84057129 1046.22182617 -607.36473633 1045.24052734 -607.90478516 1044.22949219 C-650.73153963 963.65608871 -677.85373784 875.19506244 -688.06640625 773.203125 C-688.12566284 772.53576324 -688.18491943 771.86840149 -688.24597168 771.18081665 C-689.99475225 751.11009578 -690.5229094 731.09487645 -690.50390625 710.953125 C-690.503302 709.76381378 -690.50269775 708.57450256 -690.5020752 707.34915161 C-690.47622823 688.55131758 -690.0598111 669.93051462 -688.31640625 651.203125 C-688.25324219 650.50537964 -688.19007812 649.80763428 -688.125 649.08874512 C-680.62362981 566.28409812 -659.5016056 485.60884315 -624.31640625 410.203125 C-623.49970459 408.45008057 -623.49970459 408.45008057 -622.66650391 406.66162109 C-604.66601095 368.21599172 -583.11232556 331.66068835 -558.31640625 297.203125 C-557.73358887 296.39214355 -557.15077148 295.58116211 -556.55029297 294.74560547 C-548.94027353 284.1949216 -541.0371081 273.94552423 -532.74023438 263.92675781 C-530.72800152 261.49082435 -528.74332875 259.03270025 -526.75390625 256.578125 C-515.19974926 242.50306104 -503.18796766 228.8478571 -490.17480469 216.09570312 C-488.37982728 214.26771247 -486.72010646 212.37830383 -485.0625 210.42578125 C-481.53876598 206.37504672 -477.76643462 202.70846657 -473.81640625 199.078125 C-472.40617184 197.77091765 -470.99601753 196.46362387 -469.5859375 195.15625 C-468.87646973 194.50076172 -468.16700195 193.84527344 -467.43603516 193.16992188 C-465.38900462 191.27048879 -463.35612194 189.35722295 -461.328125 187.4375 C-455.09053582 181.54192375 -448.81430115 175.81926497 -442.1015625 170.4609375 C-439.49490019 168.34782275 -436.96077709 166.17416124 -434.43237305 163.96923828 C-426.85009271 157.36624279 -418.98321538 151.19939392 -410.93725586 145.17285156 C-408.8924351 143.63604542 -406.8558425 142.08997098 -404.82250977 140.53808594 C-395.11086949 133.15300713 -385.16948785 126.19724427 -375.00390625 119.453125 C-374.22704468 118.93632172 -373.45018311 118.41951843 -372.64978027 117.88705444 C-350.89299594 103.43571283 -328.46766069 90.30782408 -305.31640625 78.203125 C-304.3732959 77.70893066 -303.43018555 77.21473633 -302.45849609 76.70556641 C-228.49808957 38.21066416 -146.06732042 13.46999119 -40.16015625 1.96484375 C-39.14971001 1.86996925 -39.14971001 1.86996925 -38.11885071 1.7731781 C-35.85231754 1.56878877 -33.5850591 1.38258723 -31.31640625 1.203125 C-30.22219864 1.11650604 -29.12799103 1.02988708 -28.00062561 0.94064331 C-18.6620227 0.25622108 -9.36119705 0.02657602 0 0 Z " fill="#000000" transform="translate(1899.31640625,33.796875)"/>
<path d="M0 0 C3.30183622 0.0160094 6.60338889 0.00589705 9.90523338 -0.0037241 C36.46085486 -0.06546703 62.81842332 1.29330344 89.0423584 5.76202393 C90.93885132 6.0784082 90.93885132 6.0784082 92.87365723 6.40118408 C114.93319194 10.21140419 136.83095495 15.76221354 157.0423584 25.57452393 C157.69526855 25.88696045 158.34817871 26.19939697 159.02087402 26.52130127 C163.04610836 28.575714 165.93826434 30.40571815 168.0423584 34.44952393 C168.03408488 40.94091367 166.55472331 47.37213412 165.0645752 53.65948486 C164.86602936 54.51937515 164.66748352 55.37926544 164.46292114 56.26521301 C163.81250581 59.07305006 163.15264756 61.87855283 162.49157715 64.68389893 C162.03155892 66.65058687 161.57174893 68.61732354 161.11213684 70.58410645 C160.15077917 74.69022691 159.18423177 78.79508587 158.21447754 82.89923096 C156.97448304 88.15065456 155.75169679 93.40592104 154.53325176 98.66238022 C153.59024541 102.71875067 152.63607653 106.77243459 151.67875099 110.82544708 C151.22312796 112.76215195 150.77144114 114.69978735 150.32382774 116.63835907 C149.6969602 119.34751811 149.05460724 122.05255759 148.4083252 124.75714111 C148.22791183 125.55207474 148.04749847 126.34700836 147.86161804 127.16603088 C146.67984712 132.02160943 145.14013482 135.50238303 142.0423584 139.44952393 C135.9155514 142.51292743 127.44561002 138.72284958 121.3548584 136.69952393 C86.23801148 125.13482755 47.83603643 122.47582167 11.0423584 123.44952393 C10.32193359 123.46354248 9.60150879 123.47756104 8.85925293 123.49200439 C-28.81351243 124.34401144 -66.62034091 135.77511229 -93.26623535 163.35186768 C-130.2542597 204.66755849 -135.1696512 267.31981851 -135.2076416 320.07452393 C-135.20864868 321.0555307 -135.20965576 322.03653748 -135.21069336 323.04727173 C-135.17644786 372.72591544 -129.42803381 431.97008465 -95.9576416 471.44952393 C-95.22932129 472.32737549 -94.50100098 473.20522705 -93.75061035 474.10968018 C-74.43740105 496.53465 -45.89846094 507.17565717 -16.9576416 509.44952393 C-10.23216982 509.77784094 -3.5016369 509.73997214 3.2298584 509.69952393 C4.58323807 509.69536972 4.58323807 509.69536972 5.96395874 509.69113159 C24.9171757 509.6228722 42.32222842 507.9595483 61.0423584 504.44952393 C61.0423584 465.50952393 61.0423584 426.56952393 61.0423584 386.44952393 C35.97162903 386.60775397 35.97162903 386.60775397 10.90124512 386.80987549 C6.04064941 386.82794189 6.04064941 386.82794189 3.7616272 386.83129883 C2.17767843 386.83742139 0.59374774 386.85144894 -0.99008179 386.87182617 C-3.39642472 386.90122484 -5.80163353 386.90514424 -8.20812988 386.90362549 C-8.90790514 386.91801792 -9.6076804 386.93241035 -10.32866096 386.94723892 C-15.31301423 386.90529663 -18.20117431 385.69879932 -21.9576416 382.44952393 C-24.71906807 378.06035561 -24.24630455 373.00633151 -24.2322998 367.98101807 C-24.23741074 367.03407578 -24.24252167 366.08713348 -24.24778748 365.11149597 C-24.26167091 361.98582616 -24.26072768 358.86037713 -24.25842285 355.73468018 C-24.26231034 353.55901508 -24.26664513 351.38335074 -24.27140808 349.20768738 C-24.27886752 344.64903299 -24.2785809 340.09045605 -24.27331543 335.53179932 C-24.26751995 329.6931068 -24.28445522 323.85473142 -24.3076601 318.01609135 C-24.32239898 313.52335256 -24.32326894 309.03069013 -24.32015038 304.53793144 C-24.32066347 302.38537404 -24.32589891 300.23281234 -24.3359623 298.0802784 C-24.34831268 295.06911793 -24.34154324 292.05857506 -24.32995605 289.04742432 C-24.33759979 288.16047882 -24.34524353 287.27353333 -24.3531189 286.35971069 C-24.31050724 281.34416837 -23.90184802 277.70751143 -20.9576416 273.44952393 C-16.75118985 270.16776465 -12.90132698 270.02353808 -7.75927734 270.068573 C-6.93773902 270.06389303 -6.1162007 270.05921305 -5.26976728 270.05439126 C-2.51907642 270.04243269 0.23111703 270.05190183 2.98181152 270.06134033 C4.95470979 270.05727502 6.92760577 270.05193336 8.90049744 270.04541016 C14.25786095 270.03172605 19.61505127 270.03703978 24.97241783 270.04654741 C30.57683151 270.0541383 36.18123028 270.04709999 41.78564453 270.04238892 C51.19757756 270.03692971 60.60943999 270.04412734 70.0213623 270.05841064 C80.9055861 270.07473744 91.78964132 270.06944905 102.67386103 270.05293143 C112.01580324 270.0393213 121.35769468 270.0373946 130.69964361 270.04524744 C136.2805085 270.04992654 141.86129412 270.05054224 147.44215393 270.04063797 C152.68871523 270.03197751 157.93505898 270.03797349 163.18159676 270.05532074 C165.10811565 270.05929049 167.03465283 270.05814321 168.96116447 270.05153275 C171.58902226 270.04334649 174.21618101 270.05360341 176.84399414 270.068573 C177.60809994 270.06188083 178.37220574 270.05518867 179.15946627 270.04829371 C183.61824358 270.0976295 186.55447767 270.59960418 190.0423584 273.44952393 C192.01587719 276.59486546 192.29275013 279.02955359 192.29404068 282.7094574 C192.29925617 283.78087384 192.30447167 284.85229029 192.30984521 285.9561739 C192.30538377 287.13242423 192.30092232 288.30867456 192.29632568 289.52056885 C192.29944566 290.77073131 192.30256565 292.02089376 192.30578017 293.30893993 C192.31414311 296.78109807 192.30999613 300.25314651 192.30380774 303.72530508 C192.29929037 307.4690485 192.30626345 311.2127728 192.31176758 314.95651245 C192.32067088 322.29132984 192.3187354 329.62610634 192.3129423 336.96092534 C192.30842949 342.92094461 192.30781125 348.88095241 192.30998993 354.8409729 C192.3102964 355.68853659 192.31060286 356.53610028 192.31091861 357.40934771 C192.31155805 359.13104066 192.31220648 360.8527336 192.3128638 362.57442653 C192.31856983 378.72694025 192.31200491 394.87943129 192.30126306 411.03194129 C192.2923273 424.89803489 192.29387927 438.764095 192.30310059 452.63018799 C192.31379838 468.72405327 192.31802049 484.81789866 192.31187606 500.91176701 C192.31123895 502.62720298 192.3106102 504.34263897 192.30998993 506.05807495 C192.30968138 506.90214989 192.30937283 507.74622484 192.30905493 508.61587781 C192.30732651 514.5702275 192.31024624 520.52456461 192.31494904 526.47891235 C192.32055242 533.73313343 192.31905286 540.98731121 192.30838755 548.24152732 C192.30312351 551.94426211 192.3010865 555.64692467 192.30768585 559.34965897 C192.31472428 563.35932882 192.30633244 567.36881552 192.29632568 571.378479 C192.30078713 572.55472934 192.30524857 573.73097967 192.30984521 574.94287395 C192.30462971 576.0142904 192.29941422 577.08570684 192.29404068 578.18959045 C192.29371598 579.11545865 192.29339127 580.04132685 192.29305673 580.99525166 C192.02530407 583.61648146 191.42510406 585.22186345 190.0423584 587.44952393 C188.37268066 588.77056885 188.37268066 588.77056885 186.35876465 589.92999268 C185.60659668 590.36706543 184.85442871 590.80413818 184.07946777 591.25445557 C183.26284668 591.71070312 182.44622559 592.16695068 181.6048584 592.63702393 C180.75085449 593.11969727 179.89685059 593.60237061 179.01696777 594.09967041 C127.54497693 622.80920388 69.95015371 633.6632607 11.5423584 633.69952393 C10.41429779 633.70053101 9.28623718 633.70153809 8.12399292 633.70257568 C-10.09508643 633.69160451 -27.90057278 632.99342311 -45.9576416 630.44952393 C-47.54004639 630.23271973 -47.54004639 630.23271973 -49.15441895 630.01153564 C-78.31295783 625.90065967 -107.58075848 618.78515792 -133.9576416 605.44952393 C-135.26872096 604.82543691 -136.58127439 604.20443897 -137.8951416 603.58624268 C-157.3612904 594.32111582 -174.44842288 581.33379092 -189.9576416 566.44952393 C-190.44007324 565.98900635 -190.92250488 565.52848877 -191.41955566 565.05401611 C-197.82441506 558.90759085 -203.66589751 552.57561125 -208.9576416 545.44952393 C-209.62448975 544.55668701 -209.62448975 544.55668701 -210.30480957 543.64581299 C-266.59777022 467.77350986 -273.06112858 364.71945861 -262.63903809 236.050354 C-262.10545469 232.51178923 -261.54116635 228.98018738 -260.9576416 225.44952393 C-260.65068359 223.59109863 -260.65068359 223.59109863 -260.33752441 221.69512939 C-255.67526425 194.2686348 -248.84280529 167.10812835 -237.9576416 141.44952393 C-237.59090332 140.57215576 -237.22416504 139.6947876 -236.84631348 138.79083252 C-223.02031944 106.02135511 -202.51703778 75.28984541 -174.9576416 52.44952393 C-174.0810791 51.72249268 -173.2045166 50.99546143 -172.3013916 50.24639893 C-123.01750449 10.87009737 -61.5160937 -0.42258803 0 0 Z " fill="#000000" transform="translate(1019.9576416015625,1495.5504760742188)"/>
<path d="M0 0 C0.97012024 -0.00860046 1.94024048 -0.01720093 2.9397583 -0.02606201 C4.54186157 -0.03245193 4.54186157 -0.03245193 6.17633057 -0.03897095 C7.29839905 -0.04714844 8.42046753 -0.05532593 9.57653809 -0.06375122 C13.30283061 -0.08863512 17.02908497 -0.10512885 20.75543213 -0.11953735 C22.02588631 -0.12486103 23.29634048 -0.13018471 24.60529327 -0.13566971 C29.94452755 -0.15690567 35.28374842 -0.17603525 40.62301254 -0.1872921 C48.27130705 -0.20352364 55.9190929 -0.23667967 63.56719565 -0.29369295 C69.59533821 -0.33709516 75.62324957 -0.35304048 81.65155792 -0.35942459 C84.21443553 -0.36614971 86.77730538 -0.38140419 89.34008026 -0.4053154 C92.92651668 -0.43686852 96.51166727 -0.43701765 100.09820557 -0.42959595 C101.15817749 -0.44600128 102.21814941 -0.46240662 103.3102417 -0.47930908 C111.34652516 -0.41119241 111.34652516 -0.41119241 115.03967285 2.56536865 C118.89893634 6.80484061 118.54782713 10.09219488 118.55427551 15.59460449 C118.55921349 16.47836065 118.56415147 17.36211681 118.56923908 18.27265346 C118.58466938 21.25145898 118.59298963 24.23024286 118.60137939 27.20907593 C118.61095357 29.33742465 118.62096338 31.46577144 118.63137817 33.59411621 C118.65848317 39.38718921 118.67946238 45.18027041 118.69938016 50.97337198 C118.72120528 57.02191579 118.74861092 63.07043419 118.7754364 69.11895752 C118.82541037 80.57948405 118.87033171 92.04002465 118.91345876 103.50057876 C118.97200846 118.98243778 119.03832053 134.4642634 119.10420895 149.94609261 C119.2078572 174.34867264 119.30109744 198.75128118 119.39605713 223.15390015 C175.49605713 223.15390015 231.59605713 223.15390015 289.39605713 223.15390015 C289.36125244 207.61940796 289.32644775 192.08491577 289.29058838 176.0796814 C289.27526611 166.25871637 289.26070075 156.43775996 289.24957275 146.61679077 C289.23175472 131.01658173 289.21078014 115.4164212 289.16973877 99.81625366 C289.13986607 88.45598906 289.12048916 77.09576372 289.11379164 65.73546094 C289.10987579 59.71854777 289.10065281 53.70174697 289.07886696 47.68486977 C289.05853552 42.02392135 289.0522166 36.3631318 289.05673409 30.70215034 C289.05590739 28.62243029 289.04992195 26.54270504 289.0384407 24.46301651 C289.02354904 21.62693737 289.02709148 18.79146068 289.03529358 15.95536804 C289.02655505 15.12948742 289.01781653 14.30360679 289.0088132 13.45269948 C289.04456293 8.88986575 289.3561504 5.80524707 292.39605713 2.15390015 C295.32530587 0.14063359 297.73265613 -0.10092468 301.24050903 -0.12025452 C302.69981339 -0.13521721 302.69981339 -0.13521721 304.18859863 -0.15048218 C305.24947693 -0.15114685 306.31035522 -0.15181152 307.40338135 -0.15249634 C308.52574188 -0.16081985 309.64810242 -0.16914337 310.80447388 -0.17771912 C314.5199326 -0.20184259 318.23521587 -0.21059392 321.95074463 -0.2171936 C324.53140313 -0.22615763 327.11206109 -0.23527943 329.69271851 -0.24455261 C335.10475275 -0.26105122 340.51671625 -0.26877748 345.92877197 -0.27163696 C352.1773594 -0.27527192 358.42545556 -0.3051665 364.67389286 -0.34704155 C370.69245082 -0.38595708 376.71073693 -0.39723028 382.72943497 -0.39836311 C385.28672069 -0.40257205 387.84400658 -0.41503309 390.40121078 -0.43588066 C393.97789106 -0.4627197 397.55321447 -0.4579906 401.12994385 -0.44546509 C402.7151886 -0.46771652 402.7151886 -0.46771652 404.3324585 -0.49041748 C412.34593666 -0.41045837 412.34593666 -0.41045837 416.03768921 2.50386047 C418.95898825 5.78645191 419.52069517 8.01492808 419.52370763 12.25780469 C419.5267236 13.09869145 419.52973957 13.93957821 419.53284693 14.80594638 C419.53019272 16.19455228 419.53019272 16.19455228 419.52748489 17.61121082 C419.52953753 18.59719664 419.53159016 19.58318245 419.533705 20.59904662 C419.53940317 23.93511787 419.53791429 27.27114821 419.53649902 30.60722351 C419.53908104 33.01029562 419.54209374 35.4133673 419.54550242 37.81643838 C419.55274472 43.74886783 419.55527598 49.68128893 419.55583148 55.61372176 C419.55674415 62.71683693 419.56340879 69.81994374 419.5701783 76.92305532 C419.58625013 94.09204594 419.59214276 111.26103568 419.59692705 128.43003247 C419.59926165 136.54892922 419.60286413 144.66782526 419.60662243 152.78672146 C419.61945849 180.56804811 419.63017802 208.34937437 419.63362503 236.13070393 C419.63384666 237.87515102 419.63406845 239.61959812 419.63429038 241.36404521 C419.63451102 243.11274988 419.63473151 244.86145455 419.63495183 246.61015922 C419.63539439 250.11847325 419.6358415 253.62678729 419.6362915 257.13510132 C419.63645559 258.43989143 419.63645559 258.43989143 419.63662299 259.77104095 C419.64025481 287.98561986 419.6561793 316.2001731 419.67948187 344.41474217 C419.70406281 374.23155197 419.71779705 404.04834709 419.71899295 433.86516732 C419.71916441 437.13655897 419.71937984 440.40795062 419.71962738 443.67934227 C419.71968315 444.48487496 419.71973892 445.29040765 419.71979638 446.12035042 C419.72094829 459.09855299 419.73198212 472.07672926 419.74651444 485.05492293 C419.76086141 498.09276457 419.76412661 511.1305724 419.75607446 524.16841976 C419.7516098 531.91902231 419.75551209 539.66951595 419.77131296 547.42010425 C419.78217603 553.20021725 419.77744833 558.98023216 419.76654109 564.76034119 C419.76457125 567.10422042 419.76772129 569.44811042 419.77638546 571.79197446 C419.78738605 574.96786363 419.78005523 578.14319312 419.76799393 581.31906605 C419.77558912 582.23777982 419.78318431 583.15649358 419.79100966 584.10304716 C419.74895985 589.20084804 419.24404957 592.74141371 416.39605713 597.15390015 C413.49958945 599.24443193 411.02316704 599.40750308 407.50691223 599.42132568 C406.52418335 599.42985565 405.54145447 599.43838562 404.52894592 599.44717407 C403.45714584 599.4462677 402.38534576 599.44536133 401.28106689 599.44442749 C399.5804863 599.45450333 399.5804863 599.45450333 397.84555054 599.46478271 C394.09281041 599.48380183 390.34024872 599.48768876 386.58746338 599.48983765 C383.98198879 599.49626225 381.37651493 599.50299035 378.77104187 599.51000977 C373.30773759 599.52279514 367.84448177 599.52577514 362.38116455 599.52450562 C356.07014417 599.52330381 349.75946557 599.54441488 343.44853169 599.57599294 C337.37231687 599.60531099 331.29626592 599.61248139 325.21998405 599.61128616 C322.63676494 599.61364913 320.0535434 599.62251151 317.47036934 599.6379509 C313.86010348 599.65751038 310.25072149 599.65181172 306.64044189 599.63973999 C305.57066605 599.650979 304.5008902 599.66221802 303.3986969 599.67379761 C296.15123851 599.61210734 296.15123851 599.61210734 292.25578308 597.24853516 C289.66443003 594.32985845 289.27111281 592.7922138 289.2730093 588.98784447 C289.27101825 588.10953008 289.2690272 587.23121569 289.26697582 586.32628572 C289.26988866 585.35548338 289.2728015 584.38468104 289.27580261 583.38446045 C289.27452098 581.84443971 289.27452098 581.84443971 289.27321345 580.27330744 C289.27155784 576.81079882 289.27708135 573.34833795 289.28253174 569.88583374 C289.28281362 567.41266379 289.28265586 564.93949375 289.28208923 562.46632385 C289.28186104 557.13029738 289.28470931 551.79428595 289.29032707 546.4582634 C289.29844419 538.74321313 289.30105751 531.02816879 289.30231506 523.31311472 C289.30450525 510.7968237 289.31116443 498.28053919 289.32061768 485.76425171 C289.32979266 473.60377026 289.33686161 461.44329059 289.34112549 449.2828064 C289.34139349 448.52594913 289.34166148 447.76909187 289.3419376 446.98929954 C289.34401695 441.07043174 289.3459739 435.15156391 289.34789217 429.23269606 C289.35733075 400.20642478 289.37744789 371.18016979 289.39605713 342.15390015 C232.96605713 342.15390015 176.53605713 342.15390015 118.39605713 342.15390015 C118.43086182 360.14276733 118.4656665 378.13163452 118.50152588 396.6656189 C118.51684756 408.03606246 118.53143115 419.40649971 118.5425415 430.77694702 C118.54841524 436.74822006 118.55447671 442.71949286 118.56085205 448.69076538 C118.5616433 449.43918038 118.56243454 450.18759539 118.56324977 450.95868963 C118.57630225 463.04564518 118.59995622 475.13255798 118.62751552 487.21948817 C118.65555742 499.62139574 118.67223081 512.0232809 118.67832261 524.42521888 C118.68244158 532.07959126 118.69545698 539.73384283 118.71980653 547.38817803 C118.73751988 553.25479719 118.73942582 559.12135415 118.73538017 564.98800087 C118.73620734 567.39668141 118.74219901 569.80536642 118.75367355 572.21401978 C118.7685485 575.49673674 118.7650287 578.77893231 118.75682068 582.06166077 C118.7655592 583.01983363 118.77429773 583.9780065 118.78330106 584.96521491 C118.75033485 589.82643448 118.64819628 593.25857538 115.39605713 597.15390015 C112.17192841 599.30331929 111.30461937 599.40798476 107.58920288 599.42805481 C106.59943451 599.43802994 105.60966614 599.44800507 104.58990479 599.45828247 C103.50515869 599.45894714 102.4204126 599.45961182 101.30279541 599.46029663 C100.15946747 599.46862015 99.01613953 599.47694366 97.83816528 599.48551941 C94.04753239 599.50967307 90.25707138 599.51839799 86.46636963 599.5249939 C83.83704576 599.53395579 81.20772244 599.54307755 78.57839966 599.55235291 C73.06204587 599.56972256 67.54573603 599.57657935 62.02935791 599.57943726 C55.65637548 599.58307241 49.28387469 599.6129654 42.91103947 599.65484184 C36.77768894 599.69372989 30.6445726 599.70503005 24.51110458 599.70616341 C21.90275332 599.71037597 19.29440202 599.72285142 16.68613052 599.74368095 C13.03969431 599.77048361 9.39459175 599.7658017 5.74810791 599.75326538 C4.12706146 599.77551682 4.12706146 599.77551682 2.4732666 599.79821777 C-4.85723966 599.72631516 -4.85723966 599.72631516 -8.75094604 596.74143982 C-12.06435593 592.11456761 -11.74807696 588.32576348 -11.74095726 582.78840256 C-11.74360909 581.80019384 -11.74626091 580.81198513 -11.7489931 579.79383069 C-11.75672295 576.44417895 -11.75724667 573.09456365 -11.75784302 569.74490356 C-11.76185521 567.33444467 -11.76629302 564.92398646 -11.77112257 562.51352906 C-11.78186006 556.55894797 -11.78785041 550.60437819 -11.79183145 544.64979009 C-11.7968348 537.52096534 -11.80756138 530.39215207 -11.81831319 523.26333408 C-11.84396054 506.03084659 -11.85898166 488.79835463 -11.87182365 471.56585352 C-11.87607663 465.85968433 -11.88064231 460.15351547 -11.88540697 454.44734669 C-11.91066452 424.12387567 -11.93271827 393.80040412 -11.94513512 363.4769249 C-11.94805657 356.44916532 -11.95102406 349.42140577 -11.95404053 342.39364624 C-11.95441144 341.52051359 -11.95478235 340.64738094 -11.95516449 339.74778973 C-11.96732394 311.42950556 -11.99827381 283.11128349 -12.03996205 254.7930285 C-12.08272241 225.69354794 -12.10937263 196.59410018 -12.11460983 167.49458734 C-12.11535031 163.38697838 -12.116261 159.27936947 -12.11726761 155.17176056 C-12.11745822 154.36331507 -12.11764884 153.55486957 -12.11784523 152.72192573 C-12.12136273 139.69622306 -12.14167864 126.67059801 -12.16806425 113.64492388 C-12.19417321 100.5587781 -12.20195145 87.47272226 -12.19096296 74.38655415 C-12.1849742 66.60699778 -12.19296008 58.82774587 -12.22079379 51.04823541 C-12.24001942 45.2465478 -12.23326795 39.4450831 -12.21622463 33.64338198 C-12.21340605 31.29072027 -12.21912506 28.9380304 -12.23403756 26.58541426 C-12.2530173 23.39733692 -12.24143931 20.21080242 -12.22197533 17.0227623 C-12.23482455 16.10055399 -12.24767377 15.17834569 -12.26091236 14.22819167 C-12.20244481 9.89619412 -11.96426181 7.04025097 -9.19031584 3.59959626 C-5.85031295 0.44126133 -4.45139073 0.02932709 0 0 Z " fill="#000000" transform="translate(1794.6039428710938,1517.8460998535156)"/>
<path d="M0 0 C0.97431473 -0.00845947 1.94862946 -0.01691895 2.95246887 -0.02563477 C4.54614288 -0.01652573 4.54614288 -0.01652573 6.17201233 -0.00723267 C7.29597916 -0.01248962 8.41994598 -0.01774658 9.57797241 -0.02316284 C13.29834333 -0.03638094 17.01828734 -0.02761739 20.73866272 -0.01748657 C23.32171715 -0.01950692 25.90477102 -0.02241803 28.48782349 -0.02618408 C33.90409799 -0.03061003 39.32021178 -0.02445391 44.73646545 -0.01016235 C50.99291169 0.00615584 57.2490645 0.00088147 63.50550359 -0.01564157 C69.52940155 -0.03091215 75.5531563 -0.02927489 81.57707405 -0.02049637 C84.13795068 -0.01849389 86.69883478 -0.02095529 89.25970268 -0.02793503 C92.83874759 -0.03554801 96.41722823 -0.02394613 99.99623108 -0.00723267 C101.05665619 -0.01330536 102.1170813 -0.01937805 103.2096405 -0.02563477 C112.29117 0.05298793 112.29117 0.05298793 116.14881897 3.38095093 C118.63659559 7.11261586 118.42218252 9.97907159 118.389328 14.29652405 C118.39103685 15.11171424 118.3927457 15.92690444 118.39450634 16.76679736 C118.39780952 19.50765512 118.38678395 22.2482699 118.37586975 24.98910522 C118.37530582 26.95011387 118.37562185 28.91112295 118.37675476 30.87213135 C118.37732997 36.20446505 118.36554854 41.53670927 118.35160685 46.86902213 C118.3391274 52.43840824 118.33793119 58.00779628 118.33555603 63.57719421 C118.32933305 74.12753081 118.31291119 84.67782609 118.29285705 95.22814447 C118.27052346 107.23765329 118.25951102 119.24716406 118.24946618 131.25668848 C118.22854567 155.96479889 118.19335382 180.6728726 118.14881897 205.38095093 C118.68989603 205.09252477 119.23097309 204.80409861 119.78844643 204.50693226 C122.26980926 203.18635921 124.75347577 201.87017663 127.23719788 200.55404663 C128.08822586 200.10029915 128.93925385 199.64655167 129.81607056 199.17905426 C136.24838061 195.77635159 142.63076509 192.92661629 149.52381897 190.56845093 C150.5756134 190.20155151 151.62740784 189.8346521 152.71107483 189.45663452 C197.6722845 174.14304649 251.72508302 171.74644485 295.43788147 192.47079468 C330.39027198 209.9652992 351.66059319 241.71198278 364.02772522 277.75204468 C375.0114254 311.18107985 377.74547415 346.31306997 377.53554153 381.29410553 C377.52359253 383.4212611 377.51664535 385.54838729 377.51072693 387.67556763 C377.43988923 409.67379214 376.92818516 431.53648844 374.14881897 453.38095093 C374.02153412 454.38472778 374.02153412 454.38472778 373.89167786 455.40878296 C368.53832589 497.08214836 357.64287314 539.28867149 329.14881897 571.38095093 C328.41405334 572.21110718 327.67928772 573.04126343 326.92225647 573.89657593 C300.4406618 602.06094751 262.10913031 609.54006338 225.14881897 611.38095093 C224.36974182 611.42236206 223.59066467 611.46377319 222.78797913 611.50643921 C178.00485673 613.59010565 127.69182208 600.1578555 92.14881897 572.38095093 C91.12089985 571.40967225 90.10148569 570.42614283 89.14881897 569.38095093 C88.18026488 573.6276881 87.24177146 577.85128674 86.48866272 582.14266968 C86.3704718 582.80001099 86.25228088 583.45735229 86.13050842 584.13461304 C85.78578492 586.06397929 85.45532337 587.99587697 85.12538147 589.92782593 C84.07558321 593.63991256 82.80063144 595.61651321 80.14881897 598.38095093 C77.04815426 599.93128328 73.76926307 599.52823688 70.36610413 599.5262146 C69.16098427 599.53125252 69.16098427 599.53125252 67.93151855 599.53639221 C65.26695727 599.54591638 62.60245873 599.54784612 59.93788147 599.54891968 C58.08944167 599.55213145 56.24100213 599.55549547 54.39256287 599.55900574 C50.51378286 599.56500083 46.63502516 599.56684527 42.75624084 599.56625366 C37.78386455 599.56615207 32.81163114 599.57979986 27.83928871 599.59702587 C24.02003827 599.60814041 20.20082242 599.61017303 16.38155746 599.60964394 C14.54832339 599.61082505 12.71508846 599.61525415 10.88187027 599.6229763 C8.3179192 599.6327643 5.75427886 599.62990278 3.19032288 599.62387085 C2.43173477 599.62949036 1.67314667 599.63510986 0.89157104 599.64089966 C-6.10280946 599.59904723 -6.10280946 599.59904723 -8.85118103 597.38095093 C-12.23684594 592.09248368 -12.27511006 587.61804556 -12.22870445 581.55170345 C-12.23306477 580.56195651 -12.2374251 579.57220957 -12.24191755 578.5524703 C-12.25290365 575.22155381 -12.2424359 571.89104866 -12.23213196 568.56013489 C-12.23558718 566.15375924 -12.24035082 563.74738518 -12.24631369 561.34101444 C-12.25624673 556.10169635 -12.25681765 550.86246251 -12.24917221 545.62314415 C-12.23783417 537.83221273 -12.24362104 530.04135967 -12.25279713 522.25042879 C-12.26860407 508.33690461 -12.26722137 494.42342171 -12.25856039 480.50989358 C-12.25101854 468.33468132 -12.24904138 456.15948421 -12.25262833 443.9842701 C-12.25285748 443.17716798 -12.25308664 442.37006587 -12.25332274 441.53850612 C-12.25425673 438.26235993 -12.25521192 434.98621374 -12.25620203 431.71006756 C-12.26538206 400.9682801 -12.25705368 370.22651898 -12.24091134 339.48473558 C-12.22667283 312.16081996 -12.22794919 284.83694627 -12.24229431 257.51303101 C-12.25835088 226.82654221 -12.26473241 196.14007667 -12.25545752 165.45358425 C-12.25449534 162.18366151 -12.25355682 158.91373875 -12.25262833 155.64381599 C-12.25239109 154.83865538 -12.25215386 154.03349477 -12.25190944 153.20393535 C-12.24849413 141.03442808 -12.25249321 128.86493761 -12.26006699 116.69543266 C-12.26863347 102.86173396 -12.26652437 89.02808307 -12.25022475 75.19439035 C-12.24139914 67.44801142 -12.24086492 59.70173597 -12.25216328 51.95535967 C-12.25965899 46.18028133 -12.2515617 40.40531071 -12.23723955 34.63024915 C-12.23387359 32.28715346 -12.23562622 29.94404401 -12.24286692 27.60095709 C-12.25192243 24.42855612 -12.24270086 21.25672777 -12.22870445 18.08435726 C-12.23572795 17.16387402 -12.24275145 16.24339078 -12.24998778 15.29501411 C-12.20726222 10.48586383 -11.96241224 7.29460629 -8.85118103 3.38095093 C-5.93118827 0.60912042 -3.98895034 0.00533789 0 0 Z M121.14881897 300.38095093 C120.27297559 300.75771123 119.39713221 301.13447153 118.49474812 301.52264881 C115.81059293 303.2324708 115.81059293 303.2324708 115.53357983 306.62369061 C115.51253362 307.99132841 115.51938348 309.35955627 115.54754639 310.72706604 C115.54327426 311.48100295 115.53900214 312.23493986 115.53460056 313.01172334 C115.52634442 315.5457982 115.55389665 318.07822901 115.58119202 320.6121521 C115.58260193 322.42537904 115.58181162 324.23860883 115.57897949 326.05183411 C115.57754171 330.98150004 115.60698995 335.91056078 115.64184928 340.84008574 C115.6730526 345.98903719 115.67603876 351.13800168 115.68197632 356.28703308 C115.6975325 366.04062475 115.73858499 375.79393704 115.78872377 385.54740554 C115.84456204 396.65000555 115.87208985 407.75261873 115.89720094 418.85532415 C115.94949926 441.69735478 116.03747604 464.53913722 116.14881897 487.38095093 C119.18751813 488.84180459 122.22950385 490.29568596 125.27210999 491.74838257 C126.12781837 492.15986794 126.98352676 492.5713533 127.86516571 492.99530792 C133.81816761 495.83195765 139.68419091 498.18875942 146.08631897 499.81845093 C146.97126038 500.0552356 147.85620178 500.29202026 148.76795959 500.53598022 C171.489191 506.48966072 198.37115839 508.94635062 220.14881897 498.38095093 C233.42362546 490.35771624 239.49817051 476.72716561 243.27381897 462.18563843 C245.83116806 451.69658341 247.31142559 441.13631577 248.14881897 430.38095093 C248.23639465 429.28073608 248.32397034 428.18052124 248.41419983 427.04696655 C249.17649663 416.37889138 249.33501924 405.73969593 249.3341217 395.04647827 C249.33630559 392.14870436 249.35453559 389.25131416 249.37342834 386.35360718 C249.46345242 356.78744169 247.21929766 322.23139666 225.83631897 299.56845093 C212.50855623 286.98236807 196.50008631 284.23861074 178.75209045 284.30477905 C158.73803127 284.89039159 138.76602951 291.11227838 121.14881897 300.38095093 Z " fill="#000000" transform="translate(2709.8511810302734,1517.6190490722656)"/>
<path d="M0 0 C1.48259056 -0.01073296 1.48259056 -0.01073296 2.99513245 -0.02168274 C4.08347382 -0.02437164 5.17181519 -0.02706055 6.2931366 -0.02983093 C7.43631851 -0.03640213 8.57950043 -0.04297333 9.75732422 -0.04974365 C13.55336059 -0.06951004 17.34935736 -0.0811461 21.14543152 -0.09111023 C22.43919897 -0.09518576 23.73296642 -0.09926128 25.06593895 -0.10346031 C31.20567129 -0.12218019 37.34538369 -0.13674339 43.48513871 -0.14507228 C50.57192306 -0.1548446 57.65839505 -0.18116337 64.74506932 -0.22157317 C70.88319879 -0.2553727 77.02119692 -0.26721734 83.15941429 -0.27127647 C85.77055162 -0.27615716 88.38168527 -0.28781293 90.99276161 -0.30631447 C94.64392284 -0.33057958 98.29426371 -0.32976359 101.94548035 -0.32279968 C103.02774902 -0.33560974 104.1100177 -0.3484198 105.2250824 -0.36161804 C112.55677583 -0.31054739 112.55677583 -0.31054739 116.46139526 2.05154419 C119.08829471 5.02399887 119.43864594 6.60068378 119.44368553 10.47155952 C119.44730988 11.38529087 119.45093423 12.29902222 119.4546684 13.2404424 C119.45360015 14.25091315 119.4525319 15.2613839 119.45143127 16.30247498 C119.45425255 17.3709526 119.45707383 18.43943022 119.45998061 19.54028594 C119.4683587 23.14509469 119.46966764 26.74987285 119.47111511 30.35469055 C119.47578125 32.9299783 119.48092448 35.50526523 119.48651123 38.08055115 C119.49805058 43.64080257 119.50628827 49.20105095 119.51263046 54.76131058 C119.52295786 63.56197862 119.543525 72.3626089 119.56575012 81.16325378 C119.57323073 84.17542445 119.58064446 87.18759528 119.58803749 90.19976616 C119.58988806 90.95268546 119.59173862 91.70560476 119.59364527 92.48133979 C119.61458549 101.05826031 119.63340381 109.63518504 119.65129089 118.21211243 C119.65292908 118.99630676 119.65456726 119.78050109 119.65625508 120.58845888 C119.68247673 133.26484144 119.70115338 145.9412269 119.7178828 158.61762501 C119.73535164 171.6445825 119.76425313 184.67148339 119.80277216 197.69839561 C119.8260824 205.72442014 119.84015862 213.75035228 119.8420998 221.77641092 C119.84447406 227.94568482 119.86243916 234.11482638 119.88596916 240.2840538 C119.89312838 242.80259018 119.89527966 245.32114692 119.89186668 247.83969116 C119.30599531 276.76945342 119.30599531 276.76945342 131.50090027 302.08467102 C142.62551592 311.83353463 158.25551628 313.81020806 172.59855652 313.43232727 C193.97742548 311.79125741 212.25506876 305.72876251 231.31486511 296.09931946 C233.31340027 295.14717102 233.31340027 295.14717102 236.31340027 294.14717102 C236.31112195 293.23592003 236.31112195 293.23592003 236.3087976 292.30625993 C236.21932102 256.31553087 236.15067214 220.32482093 236.10913895 184.33400382 C236.10413601 180.01432044 236.09895874 175.69463727 236.09367371 171.37495422 C236.09262446 170.51496872 236.09157522 169.65498322 236.09049419 168.76893755 C236.07308022 154.83691586 236.04153708 140.90496007 236.00478908 126.9729775 C235.96740724 112.68169064 235.94517026 98.39043833 235.93704629 84.09910458 C235.93155278 75.277744 235.91419068 66.45656965 235.8817344 57.63526639 C235.86062051 51.58941616 235.85419311 45.54366247 235.85939476 39.49777804 C235.86196145 36.00749653 235.85797638 32.51754088 235.83657837 29.02731705 C235.81676311 25.24529441 235.82143118 21.4640775 235.8323822 17.68203735 C235.82073084 16.57600845 235.80907947 15.46997955 235.79707503 14.33043462 C235.8554324 6.90644176 235.8554324 6.90644176 238.2184639 2.98874187 C241.27685308 0.30023999 242.93542554 0.01950494 246.91734314 -0.00672913 C247.88746338 -0.01532959 248.85758362 -0.02393005 249.85710144 -0.03279114 C251.45920471 -0.03918106 251.45920471 -0.03918106 253.09367371 -0.04570007 C254.21574219 -0.05387756 255.33781067 -0.06205505 256.49388123 -0.07048035 C260.22017375 -0.09536425 263.94642811 -0.11185798 267.67277527 -0.12626648 C268.94322945 -0.13159016 270.21368362 -0.13691383 271.52263641 -0.14239883 C276.86187069 -0.1636348 282.20109156 -0.18276437 287.54035568 -0.19402122 C295.18865019 -0.21025277 302.83643604 -0.2434088 310.48453879 -0.30042207 C316.51268135 -0.34382429 322.54059271 -0.3597696 328.56890106 -0.36615372 C331.13177867 -0.37287884 333.69464852 -0.38813332 336.2574234 -0.41204453 C339.84385982 -0.44359764 343.42901041 -0.44374678 347.01554871 -0.43632507 C348.07552063 -0.45273041 349.13549255 -0.46913574 350.22758484 -0.48603821 C354.52211137 -0.44963719 358.28556934 -0.415207 361.95701599 1.99613953 C367.70777931 9.68624191 365.45998255 22.64128191 365.45384216 31.96302795 C365.4564305 33.54733198 365.45944495 35.13163536 365.46284556 36.71593785 C365.4708627 41.04437679 365.47270215 45.37279911 365.47344303 49.70124459 C365.47530266 54.3788066 365.4828541 59.05636016 365.48957825 63.73391724 C365.5031205 73.9462189 365.50917875 84.15851662 365.51358891 94.37082577 C365.51635609 100.7485379 365.52059409 107.12624854 365.52509308 113.50395966 C365.5372762 131.16894816 365.54758011 148.83393546 365.55096817 166.49892807 C365.55118774 167.62787592 365.5514073 168.75682376 365.55163352 169.91998215 C365.5518518 171.05156991 365.55207008 172.18315768 365.55229497 173.34903598 C365.55273843 175.64193646 365.55318499 177.93483694 365.55363464 180.22773743 C365.55385607 181.36508619 365.5540775 182.50243496 365.55430564 183.67424884 C365.55825871 202.12753853 365.57573249 220.58078885 365.59899417 239.03406331 C365.62269425 257.98814492 365.63516926 276.94220675 365.63633609 295.89630342 C365.63725316 306.53530415 365.64301429 317.17425347 365.6611557 327.81324005 C365.67653794 336.86562448 365.68168793 345.91794157 365.6734176 354.97033659 C365.66950558 359.58893873 365.67046788 364.20740515 365.68447495 368.82599068 C365.69717939 373.05359715 365.69604692 377.28096543 365.68388423 381.50857142 C365.68192134 383.037969 365.68503294 384.56738326 365.6937286 386.09675738 C365.7048052 388.17649696 365.69734465 390.2553934 365.68533707 392.33510971 C365.68593415 393.48995196 365.68653124 394.64479421 365.68714643 395.83463168 C365.22837907 399.9007201 364.20235918 402.51596765 362.31340027 406.14717102 C359.21713472 408.21134805 358.40633256 408.42193165 354.87199402 408.56123352 C353.91961853 408.60030823 352.96724304 408.63938293 351.98600769 408.67964172 C350.91842224 408.71017639 349.85083679 408.74071106 348.75090027 408.77217102 C347.62079529 408.80721741 346.49069031 408.84226379 345.32633972 408.87837219 C340.98889914 408.99316636 336.65172968 409.07516598 332.31340027 409.14717102 C331.34555603 409.16390869 330.37771179 409.18064636 329.38053894 409.19789124 C322.72513988 409.30864224 316.0701757 409.38578161 309.41401672 409.43226624 C307.14220594 409.45050719 304.87043798 409.47526696 302.59877014 409.50660706 C299.36150722 409.54861529 296.12512144 409.5640382 292.88761902 409.57295227 C291.42186432 409.59913887 291.42186432 409.59913887 289.92649841 409.62585449 C284.08703272 409.60749079 280.74351304 409.06885874 276.31340027 405.14717102 C275.14152527 402.55342102 275.14152527 402.55342102 274.56340027 399.64717102 C274.34554871 398.60045227 274.12769714 397.55373352 273.90324402 396.47529602 C273.70859558 395.37701477 273.51394714 394.27873352 273.31340027 393.14717102 C273.10843933 392.00763977 272.90347839 390.86810852 272.69230652 389.69404602 C272.20346463 386.8486491 271.74363919 384.00193283 271.31340027 381.14717102 C270.66500183 381.58545227 270.01660339 382.02373352 269.34855652 382.47529602 C230.30559254 407.71726485 183.86905713 420.36021908 137.62590027 420.39717102 C136.47730026 420.39818314 136.47730026 420.39818314 135.30549622 420.3992157 C94.65744312 420.34274028 53.48711931 412.37949649 22.93840027 383.82685852 C-6.80431237 353.46450604 -11.00688107 309.91265636 -10.97736716 269.61381805 C-10.97695346 266.07820298 -10.98804885 262.54261901 -10.9974823 259.00701904 C-11.01396471 252.10960894 -11.01958568 245.21223305 -11.02070706 238.31480487 C-11.02166203 232.71029544 -11.0257945 227.10579717 -11.03210831 221.50129128 C-11.04967262 205.58507736 -11.05895276 189.66889023 -11.05744736 173.75266656 C-11.05736745 172.89792871 -11.05728753 172.04319087 -11.0572052 171.16255188 C-11.05712344 170.30676418 -11.05704168 169.45097647 -11.05695744 168.56925581 C-11.05614211 154.65776678 -11.07535411 140.74638537 -11.10348193 126.83492752 C-11.13218637 112.52497881 -11.14602412 98.2150827 -11.14429438 83.90510446 C-11.14363046 75.88084458 -11.14912606 67.8566981 -11.17065048 59.83246422 C-11.18882835 53.01299266 -11.19323636 46.19368616 -11.17963164 39.3742009 C-11.17308955 35.89595804 -11.17302987 32.41803228 -11.19033813 28.93981934 C-11.20568745 25.1718733 -11.19655032 21.4047677 -11.18107605 17.63684082 C-11.19136318 16.53530818 -11.2016503 15.43377553 -11.21224916 14.29886311 C-11.14486098 6.90591365 -11.14486098 6.90591365 -8.78069496 2.99156666 C-5.69614563 0.27481851 -4.02099437 0.01993844 0 0 Z " fill="#000000" transform="translate(2277.6865997314453,1708.8528289794922)"/>
<path d="M0 0 C1.01086166 -0.00838898 2.02172333 -0.01677795 3.06321716 -0.02542114 C4.16621155 -0.01418213 5.26920593 -0.00294312 6.40562439 0.00863647 C8.15491493 0.00294144 8.15491493 0.00294144 9.93954468 -0.00286865 C13.79952267 -0.01028626 17.65875025 0.01112534 21.5186615 0.03353882 C24.19619869 0.03592246 26.87370424 0.03693041 29.55123901 0.03631592 C35.16425434 0.03818818 40.77705323 0.05554298 46.38999939 0.08285522 C52.88047194 0.11432064 59.37070762 0.12485085 65.86125094 0.12338412 C72.10512966 0.12216366 78.34893124 0.13237257 84.59278679 0.14896774 C87.25020824 0.15534487 89.90763669 0.15927677 92.56506538 0.16075516 C96.27375892 0.16507743 99.98215146 0.18255529 103.69078064 0.20394897 C105.34830856 0.20258942 105.34830856 0.20258942 107.0393219 0.20120239 C108.55138466 0.21399734 108.55138466 0.21399734 110.09399414 0.22705078 C111.40943506 0.23207831 111.40943506 0.23207831 112.75145054 0.23720741 C114.98350525 0.49447632 114.98350525 0.49447632 117.98350525 2.49447632 C118.93605226 5.35211736 119.1071073 7.10665761 119.10375977 10.06922913 C119.10582176 11.47637177 119.10582176 11.47637177 119.10792542 12.91194153 C119.10433014 13.93908768 119.10073486 14.96623383 119.09703064 16.02450562 C119.09717667 17.10759003 119.09732269 18.19067444 119.09747314 19.30657959 C119.09677532 22.89397164 119.08898897 26.48131206 119.0811615 30.06869507 C119.07929686 32.55305452 119.07787317 35.03741434 119.07687378 37.52177429 C119.07344305 43.39719235 119.06555795 49.27259128 119.05552429 55.14800149 C119.04325259 62.49330781 119.03787986 69.83861521 119.03233337 77.18392944 C119.02160246 90.28745452 119.00472209 103.39096424 118.98350525 116.49447632 C120.04981674 116.48337326 121.11612823 116.4722702 122.2147522 116.46083069 C132.2642267 116.35946783 142.31359748 116.2845172 152.36346722 116.23541546 C157.53024286 116.20932291 162.6966058 116.17393081 167.86314392 116.11727905 C172.84929268 116.06294751 177.83504452 116.03305321 182.82146645 116.0200901 C184.72370973 116.0108523 186.62593132 115.99281278 188.5280056 115.96582603 C191.19293002 115.92952006 193.85621506 115.92453154 196.52134705 115.92684937 C197.30753418 115.90887299 198.09372131 115.89089661 198.9037323 115.87237549 C202.96930124 115.91062918 204.75183521 116.30622185 207.94989014 118.904953 C211.42068839 123.32452726 211.13759766 126.8299962 211.14463806 132.27108765 C211.14960297 133.18018387 211.15456787 134.08928009 211.15968323 135.02592468 C211.17432545 138.04279326 211.18111054 141.05960925 211.18663025 144.07650757 C211.19238034 146.16917422 211.19813809 148.26184084 211.2039032 150.35450745 C211.21441928 154.74695075 211.22025786 159.13937571 211.22373962 163.53182983 C211.22922334 169.16106235 211.25324628 174.79005286 211.28171158 180.41920948 C211.30033351 184.74376636 211.30554334 189.06826492 211.3070755 193.39285851 C211.31010394 195.46809906 211.31813887 197.54333853 211.33126068 199.61853981 C211.3483105 202.52244092 211.34644337 205.42575057 211.33995056 208.3296814 C211.34916534 209.18753235 211.35838013 210.0453833 211.36787415 210.92922974 C211.32656759 216.82512423 210.25910118 220.21888039 205.98350525 224.49447632 C196.79681765 226.39296389 186.854155 225.62323104 177.5030365 225.59213257 C175.83724002 225.59026354 174.17144298 225.58884193 172.50564575 225.58784485 C168.15742937 225.58405779 163.8092473 225.57426082 159.46104431 225.56314087 C155.00955163 225.55284404 150.55805332 225.54832964 146.10655212 225.54330444 C137.39885423 225.53263449 128.69118403 225.51560483 119.98350525 225.49447632 C119.91335241 247.61737704 119.86048632 269.74025935 119.82806873 291.86324883 C119.81261506 302.13587035 119.79155423 312.40842266 119.75718689 322.68099976 C119.7272386 331.63698567 119.70791935 340.59292144 119.70123976 349.54895604 C119.69733671 354.28892483 119.68819527 359.02875021 119.66631508 363.76867294 C119.64586411 368.23541929 119.63968878 372.70196395 119.64418221 377.16875267 C119.64336084 378.80292166 119.63744667 380.4370978 119.62588882 382.07122612 C119.54009682 394.83338854 120.74614142 406.15432552 128.98350525 416.49447632 C141.2530026 427.75227827 157.54833939 429.86993064 173.54600525 429.68197632 C174.67482117 429.6777063 175.80363708 429.67343628 176.96665955 429.66903687 C184.48700397 429.61190681 191.97919131 429.34638059 199.46421814 428.58700562 C203.93164794 428.21594219 206.45501099 428.6858206 209.98350525 431.49447632 C212.5009075 435.2705797 212.27908059 438.27530845 212.27403259 442.65023804 C212.28074982 443.48145172 212.28746704 444.31266541 212.29438782 445.16906738 C212.31340788 447.92082677 212.31729407 450.67234276 212.31944275 453.42416382 C212.32586808 455.33604025 212.33259623 457.24791569 212.33961487 459.15979004 C212.35159779 463.16965006 212.35529467 467.17942387 212.35411072 471.18930054 C212.35390751 476.32650612 212.38120665 481.46315858 212.41565514 486.60023308 C212.43789787 490.54993222 212.44194906 494.49949772 212.44089127 498.44925308 C212.4432513 500.34307893 212.45209744 502.23690823 212.467556 504.13067245 C212.48716224 506.7808168 212.48139929 509.42976169 212.46934509 512.07992554 C212.48058411 512.86139954 212.49182312 513.64287354 212.50340271 514.44802856 C212.46117731 518.10308572 212.10885136 520.29071449 210.17750549 523.43029785 C207.16550849 526.26407117 203.96371577 527.10509641 200.04600525 528.05697632 C199.25097595 528.26113159 198.45594666 528.46528687 197.63682556 528.67562866 C195.0918923 529.31210963 192.5408074 529.90979711 189.98350525 530.49447632 C189.18734802 530.67897339 188.3911908 530.86347046 187.57090759 531.05355835 C176.32960634 533.5886545 164.99922654 535.08924064 153.54600525 536.30697632 C152.3146283 536.44313354 151.08325134 536.57929077 149.81455994 536.71957397 C141.38538338 537.54620774 133.40276851 537.28952786 124.98350525 536.49447632 C123.1440212 536.36928243 121.30418487 536.24911457 119.463974 536.13510132 C89.48498389 534.02449543 57.32131674 527.85023412 33.98350525 507.49447632 C32.75373962 506.44453491 32.75373962 506.44453491 31.49913025 505.37338257 C4.34404929 481.63325876 -5.95655354 448.18078157 -8.80096245 413.12288666 C-9.23383522 405.83562619 -9.197142 398.53953631 -9.22181702 391.24154663 C-9.23141458 389.42698961 -9.24142571 387.61243474 -9.2518158 385.79788208 C-9.27866761 380.90620057 -9.29978295 376.0145096 -9.31981778 371.12279606 C-9.34180015 365.99787266 -9.36912847 360.87297774 -9.39587402 355.74807739 C-9.44563627 346.05868401 -9.49063566 336.36927469 -9.53389639 326.67985034 C-9.5834102 315.64227834 -9.63827553 304.60473493 -9.69357598 293.56719065 C-9.80714296 270.87631259 -9.9140363 248.18540706 -10.01649475 225.49447632 C-10.7297995 225.50335876 -11.44310425 225.51224121 -12.17802429 225.52139282 C-18.91607209 225.60170105 -25.6539854 225.66252269 -32.39240456 225.70172501 C-35.85633974 225.72255742 -39.31987788 225.7507937 -42.78358459 225.79623413 C-46.77002634 225.84820217 -50.75631 225.86745765 -54.74305725 225.88510132 C-55.98076874 225.90574646 -57.21848022 225.9263916 -58.49369812 225.94766235 C-69.42066375 225.95050646 -69.42066375 225.95050646 -74.01649475 221.49447632 C-76.60403145 218.08235439 -76.30597804 214.26272461 -76.29115295 210.14315796 C-76.29626389 209.40933395 -76.30137482 208.67550995 -76.30664062 207.91944885 C-76.32052149 205.49776007 -76.31958104 203.07635636 -76.317276 200.65463257 C-76.32116373 198.9683878 -76.32549856 197.28214401 -76.33026123 195.59590149 C-76.33772017 192.06279322 -76.33743452 188.52978488 -76.33216858 184.99667358 C-76.32637403 180.47275439 -76.34330601 175.94924461 -76.36651325 171.4253931 C-76.38125674 167.94321813 -76.38212147 164.46114162 -76.37900352 160.97894096 C-76.37951642 159.31120429 -76.38474817 157.64346206 -76.39481544 155.97575569 C-76.40717485 153.64196414 -76.40039175 151.30896836 -76.3888092 148.97518921 C-76.39645294 148.28879364 -76.40409668 147.60239807 -76.41197205 146.89520264 C-76.3649592 142.6018461 -75.66269211 139.89588209 -73.01649475 136.49447632 C-67.08602532 133.22152157 -60.42367129 131.94198161 -53.879776 130.35775757 C-52.72277695 130.07345383 -51.56577789 129.78915009 -50.37371826 129.49623108 C-47.93789511 128.89921328 -45.50133875 128.30517996 -43.06410217 127.71395874 C-39.32941052 126.80707728 -35.59765838 125.8887814 -31.86610413 124.96908569 C-29.49582767 124.38962918 -27.12539032 123.8108303 -24.754776 123.23275757 C-23.07971733 122.82033562 -23.07971733 122.82033562 -21.37081909 122.39958191 C-20.3326152 122.14899521 -19.29441132 121.89840851 -18.2247467 121.64022827 C-17.31320328 121.41833328 -16.40165985 121.19643829 -15.4624939 120.96781921 C-13.01649475 120.49447632 -13.01649475 120.49447632 -9.01649475 120.49447632 C-9.02018192 119.90033054 -9.02386909 119.30618477 -9.027668 118.69403458 C-9.11599587 104.23880469 -9.18219301 89.78359888 -9.22374344 75.32815933 C-9.24437093 68.33760132 -9.27249476 61.34722342 -9.31825256 54.35678101 C-9.36237129 47.6135281 -9.3856172 40.87050118 -9.39600372 34.12709808 C-9.40340777 31.55140991 -9.41786567 28.97573226 -9.43941498 26.4001236 C-9.46835359 22.79886027 -9.4724546 19.19837583 -9.47059631 15.59701538 C-9.48497742 14.52671082 -9.49935852 13.45640625 -9.51417542 12.35366821 C-9.50867676 11.37212769 -9.5031781 10.39058716 -9.49751282 9.37930298 C-9.50119999 8.52756626 -9.50488716 7.67582954 -9.50868607 6.79828262 C-8.3950718 1.58577382 -4.98521149 -0.00619096 0 0 Z " fill="#000000" transform="translate(1519.0164947509766,1591.5055236816406)"/>
<path d="M0 0 C1.12411285 -0.00686325 2.24822571 -0.0137265 3.40640259 -0.02079773 C7.12132403 -0.03909581 10.83582442 -0.0352241 14.55078125 -0.02954102 C17.132407 -0.03410101 19.71403154 -0.03940604 22.2956543 -0.04542542 C27.70594801 -0.05436221 33.11608001 -0.05216017 38.52636719 -0.04199219 C44.77551144 -0.03050703 51.02422673 -0.04459521 57.27331448 -0.07138866 C63.2924219 -0.09622722 69.31130875 -0.09872229 75.33047485 -0.0922718 C77.88856724 -0.09211827 80.44666776 -0.09818884 83.00473022 -0.11056328 C86.57900039 -0.12541834 90.15232229 -0.11483563 93.7265625 -0.09765625 C95.3148436 -0.1121582 95.3148436 -0.1121582 96.93521118 -0.12695312 C104.10930511 -0.05464423 104.10930511 -0.05464423 107.99682617 2.31040955 C111.16557979 5.86486928 110.99047229 8.10170797 110.99750233 12.80224991 C110.99985456 13.46966762 111.00220679 14.13708534 111.0046303 14.82472783 C111.01133925 17.08313945 111.01086151 19.34149378 111.01045227 21.59991455 C111.01374972 23.22666155 111.01747503 24.85340772 111.02159375 26.48015285 C111.03163543 30.96767335 111.03533402 35.45518048 111.03798306 39.94271064 C111.04187969 44.7758337 111.05145845 49.6089461 111.06019592 54.44206238 C111.07997833 66.12248389 111.09002872 77.8029063 111.09892371 89.48334038 C111.10330364 94.97958376 111.10867121 100.47582617 111.11391258 105.97206879 C111.13092651 124.2354627 111.14542168 142.498856 111.15266132 160.76225662 C111.15457132 165.5040207 111.15649163 170.24578477 111.15844727 174.98754883 C111.15893101 176.1661368 111.15941475 177.34472477 111.15991315 178.55902752 C111.16821711 197.66022935 111.19355949 216.76136863 111.22602794 235.86254314 C111.2590681 255.45931174 111.27710732 275.05604853 111.28030556 294.65284514 C111.28247347 305.66140733 111.29126304 316.6698783 111.31676674 327.67841339 C111.33843218 337.05201878 111.34654468 346.42551081 111.33679996 355.7991384 C111.33224319 360.5836638 111.33422113 365.36795509 111.3535614 370.15244865 C111.37110792 374.53091759 111.37026502 378.90898017 111.35466411 383.28745291 C111.35227503 384.87295862 111.35667851 386.45849186 111.36849276 388.04395536 C111.38354701 390.19729668 111.37398623 392.34918606 111.35826588 394.502491 C111.35924269 395.69904477 111.36021949 396.89559855 111.3612259 398.12841153 C110.75786079 402.09754266 109.32973747 404.27476834 106.86328125 407.40405273 C103.98457884 409.40055144 101.66939142 409.65594639 98.20864868 409.66474915 C97.27784988 409.67183395 96.34705109 409.67891876 95.38804626 409.68621826 C93.86685936 409.68250214 93.86685936 409.68250214 92.31494141 409.67871094 C90.70455238 409.68637733 90.70455238 409.68637733 89.06163025 409.69419861 C85.50847822 409.70811197 81.9555198 409.70713639 78.40234375 409.70483398 C75.93378629 409.70872015 73.4652295 409.71305466 70.99667358 409.71781921 C65.82002598 409.72528533 60.64344656 409.72498742 55.46679688 409.71972656 C48.8332992 409.71393365 42.20008089 409.73085703 35.56662941 409.75407124 C30.4674008 409.76880454 25.3682395 409.76968077 20.26899338 409.76656151 C17.82337262 409.76707499 15.37774812 409.77231779 12.93214798 409.78237343 C9.51138424 409.79471133 6.0911652 409.78796134 2.67041016 409.77636719 C1.66033401 409.78401093 0.65025787 409.79165466 -0.39042664 409.79953003 C-5.7233443 409.75958426 -9.55104743 409.44413512 -14.13671875 406.40405273 C-21.47253447 398.27517585 -19.28397997 385.11295347 -19.27716064 374.82234192 C-19.27974834 373.25127534 -19.28276262 371.68020942 -19.28616405 370.10914439 C-19.29418883 365.8126508 -19.29602107 361.51617395 -19.29676151 357.21967375 C-19.29861981 352.57822262 -19.30617066 347.93678002 -19.31289673 343.29533386 C-19.32644492 333.15941683 -19.3324983 323.02350378 -19.33690739 312.8875792 C-19.33967383 306.55794774 -19.34391172 300.2283178 -19.34841156 293.89868736 C-19.36059597 276.36841967 -19.37089929 258.83815319 -19.37428665 241.30788136 C-19.37450622 240.18730122 -19.37472578 239.06672109 -19.374952 237.91218398 C-19.37517028 236.78897296 -19.37538856 235.66576194 -19.37561345 234.50851423 C-19.37605691 232.23256417 -19.37650348 229.95661412 -19.37695312 227.68066406 C-19.37717455 226.55172164 -19.37739598 225.42277921 -19.37762412 224.25962641 C-19.38157665 205.94530333 -19.3990482 187.63101992 -19.42231265 169.31671218 C-19.44601316 150.5073038 -19.45848778 131.69791536 -19.45965457 112.88849181 C-19.46057167 102.32995958 -19.46633346 91.77147916 -19.48447418 81.2129612 C-19.49985708 72.22825831 -19.50500606 63.24362328 -19.49673608 54.25890974 C-19.49282416 49.6747437 -19.49378586 45.09071439 -19.50779343 40.50656509 C-19.52049861 36.31037531 -19.51936475 32.11442551 -19.50720271 27.91823622 C-19.50523994 26.40024876 -19.5083509 24.8822445 -19.51704708 23.36428068 C-19.59324106 9.16558191 -19.59324106 9.16558191 -16.13671875 3.40405273 C-11.71217358 -0.84451005 -5.7630666 -0.0245013 0 0 Z " fill="#000000" transform="translate(1292.13671875,1707.595947265625)"/>
<path d="M0 0 C11.27308475 9.42359428 18.66573093 22.06842085 23 36 C23.24492188 36.76957031 23.48984375 37.53914063 23.7421875 38.33203125 C28.53076158 57.0599477 24.72875385 77.15576849 15.13671875 93.58984375 C4.78513694 110.48569089 -10.79383409 121.95848706 -29.86328125 127.08984375 C-49.0256275 131.63368042 -67.85082786 127.88488442 -84.625 117.75 C-101.45349668 106.51485977 -113.10442265 90.32476655 -117.3046875 70.40625 C-120.88579411 50.22016568 -116.74883025 29.98995523 -105.015625 13.15234375 C-103.09177786 10.68042388 -101.09358723 8.32901069 -99 6 C-98.48179688 5.38898438 -97.96359375 4.77796875 -97.4296875 4.1484375 C-71.9212178 -23.9236975 -28.2138888 -22.29925847 0 0 Z " fill="#000000" transform="translate(1386,1548)"/>
</svg>
