<?xml version="1.0" encoding="UTF-8"?>
<svg version="1.1" xmlns="http://www.w3.org/2000/svg" width="1047" height="377">
<path d="M0 0 C13.42275119 12.48729203 20.05270134 27.87229486 21.65234375 45.984375 C22.18393452 64.4719206 14.86757893 81.56407254 2.34765625 94.9296875 C-6.09798593 103.0282485 -19.51180498 112.2421875 -31.58984375 112.2421875 C-31.5609758 112.82577026 -31.53210785 113.40935303 -31.50236511 114.01062012 C-31.21374956 120.10953713 -31.01832966 126.20650738 -30.87573242 132.31054688 C-30.81052764 134.58478604 -30.72193107 136.85848362 -30.60913086 139.13085938 C-29.69840629 157.95524785 -29.69840629 157.95524785 -34.1328125 163.31689453 C-37.53787162 165.42022792 -40.84816144 166.83540636 -44.58984375 168.2421875 C-46.60550364 169.38669805 -48.59949362 170.57048033 -50.56640625 171.796875 C-52.44848468 172.90489366 -54.33128928 174.01167987 -56.21484375 175.1171875 C-58.12415209 176.23881056 -60.03302663 177.36117249 -61.94140625 178.484375 C-62.76463379 178.9676123 -63.58786133 179.45084961 -64.43603516 179.94873047 C-66.18383124 180.99835908 -67.89349921 182.11129114 -69.58984375 183.2421875 C-73.49546475 182.92623312 -76.59369511 180.57589095 -79.859375 178.56640625 C-80.45860275 178.19997513 -81.05783051 177.83354401 -81.67521667 177.45600891 C-83.58731722 176.28546989 -85.49494287 175.10786601 -87.40234375 173.9296875 C-89.29989981 172.76369019 -91.19836184 171.59918757 -93.09733582 170.4355011 C-94.82924373 169.37322234 -96.55885347 168.30719935 -98.28833008 167.2409668 C-100.61145261 165.83451821 -102.93719282 164.46023872 -105.29618835 163.11726379 C-106.38309464 162.49848862 -107.47000092 161.87971344 -108.58984375 161.2421875 C-108.68371096 145.74214366 -108.75402897 130.24212137 -108.79709244 114.74185944 C-108.81762817 107.54314107 -108.84557425 100.34460035 -108.89160156 93.14599609 C-108.93174742 86.86419305 -108.95734169 80.58251878 -108.96619773 74.30059099 C-108.97136627 70.98101161 -108.98549147 67.66208941 -109.01276398 64.34257507 C-109.19552028 41.15956665 -107.66337068 21.09361288 -90.91088867 3.42236328 C-65.65367612 -22.03526949 -27.3144918 -22.94244161 0 0 Z " fill="#4582EC" transform="translate(239.58984375,104.7578125)"/>
<path d="M0 0 C0.83287537 -0.00570007 1.66575073 -0.01140015 2.52386475 -0.01727295 C4.28542836 -0.02668209 6.04700925 -0.03324059 7.80859375 -0.03710938 C10.43523312 -0.04669565 13.06104776 -0.07770715 15.6875 -0.109375 C30.66417655 -0.20344661 45.32571961 1.46731599 59.796875 5.453125 C60.95473511 5.76672974 60.95473511 5.76672974 62.13598633 6.08666992 C93.59808219 14.92469644 120.72893367 31.80579733 144.234375 54.203125 C145.01296875 54.92886719 145.7915625 55.65460937 146.59375 56.40234375 C175.44110864 84.07330302 191.89744033 122.28235732 198.234375 161.203125 C198.40710938 162.25056885 198.57984375 163.2980127 198.7578125 164.37719727 C199.28420813 168.60319413 199.41430409 172.71576306 199.4375 176.96875 C199.44320007 177.80162537 199.44890015 178.63450073 199.45477295 179.49261475 C199.46418209 181.25417836 199.47074059 183.01575925 199.47460938 184.77734375 C199.48419565 187.40398312 199.51520715 190.02979776 199.546875 192.65625 C199.64094661 207.63292655 197.97018401 222.29446961 193.984375 236.765625 C193.77530518 237.53753174 193.56623535 238.30943848 193.35083008 239.10473633 C184.51280356 270.56683219 167.63170267 297.69768367 145.234375 321.203125 C144.50863281 321.98171875 143.78289062 322.7603125 143.03515625 323.5625 C115.36419698 352.40985864 77.15514268 368.86619033 38.234375 375.203125 C37.18693115 375.37585938 36.1394873 375.54859375 35.06030273 375.7265625 C30.83430587 376.25295813 26.72173694 376.38305409 22.46875 376.40625 C21.63587463 376.41195007 20.80299927 376.41765015 19.94488525 376.42352295 C18.18332164 376.43293209 16.42174075 376.43949059 14.66015625 376.44335938 C12.03351688 376.45294565 9.40770224 376.48395715 6.78125 376.515625 C-8.19542655 376.60969661 -22.85696961 374.93893401 -37.328125 370.953125 C-38.10003174 370.74405518 -38.87193848 370.53498535 -39.66723633 370.31958008 C-71.12933219 361.48155356 -98.26018367 344.60045267 -121.765625 322.203125 C-122.54421875 321.47738281 -123.3228125 320.75164062 -124.125 320.00390625 C-152.97235864 292.33294698 -169.42869033 254.12389268 -175.765625 215.203125 C-175.93835938 214.15568115 -176.11109375 213.1082373 -176.2890625 212.02905273 C-176.81545813 207.80305587 -176.94555409 203.69048694 -176.96875 199.4375 C-176.97445007 198.60462463 -176.98015015 197.77174927 -176.98602295 196.91363525 C-176.99543209 195.15207164 -177.00199059 193.39049075 -177.00585938 191.62890625 C-177.01544565 189.00226688 -177.04645715 186.37645224 -177.078125 183.75 C-177.17219661 168.77332345 -175.50143401 154.11178039 -171.515625 139.640625 C-171.20202026 138.48276489 -171.20202026 138.48276489 -170.88208008 137.30151367 C-162.04405356 105.83941781 -145.16295267 78.70856633 -122.765625 55.203125 C-122.03988281 54.42453125 -121.31414062 53.6459375 -120.56640625 52.84375 C-92.89544698 23.99639136 -54.68639268 7.54005967 -15.765625 1.203125 C-14.71818115 1.03039062 -13.6707373 0.85765625 -12.59155273 0.6796875 C-8.36555587 0.15329187 -4.25298694 0.02319591 0 0 Z M-26.765625 10.203125 C-27.60786621 10.41243652 -28.45010742 10.62174805 -29.31787109 10.83740234 C-58.49035368 18.26589719 -85.26939016 31.09944552 -107.765625 51.203125 C-109.181937 52.41187403 -110.59855333 53.62026666 -112.015625 54.828125 C-130.02529788 70.80747985 -143.67944746 90.42792774 -153.765625 112.203125 C-154.29929688 113.33105469 -154.83296875 114.45898438 -155.3828125 115.62109375 C-164.07608532 134.8318754 -169.84125223 156.49111861 -169.96875 177.62890625 C-169.97933945 178.80033173 -169.97933945 178.80033173 -169.99014282 179.99542236 C-170.35110081 203.28411039 -170.35110081 203.28411039 -166.765625 226.203125 C-166.55631348 227.04536621 -166.34700195 227.88760742 -166.13134766 228.75537109 C-158.70285281 257.92785368 -145.86930448 284.70689016 -125.765625 307.203125 C-124.55687597 308.619437 -123.34848334 310.03605333 -122.140625 311.453125 C-106.16127015 329.46279788 -86.54082226 343.11694746 -64.765625 353.203125 C-63.63769531 353.73679687 -62.50976562 354.27046875 -61.34765625 354.8203125 C-42.1368746 363.51358532 -20.47763139 369.27875223 0.66015625 369.40625 C1.44110657 369.41330963 2.22205688 369.42036926 3.02667236 369.42764282 C26.31536039 369.78860081 26.31536039 369.78860081 49.234375 366.203125 C50.07661621 365.99381348 50.91885742 365.78450195 51.78662109 365.56884766 C80.95910368 358.14035281 107.73814016 345.30680448 130.234375 325.203125 C131.650687 323.99437597 133.06730333 322.78598334 134.484375 321.578125 C152.49404788 305.59877015 166.14819746 285.97832226 176.234375 264.203125 C176.76804687 263.07519531 177.30171875 261.94726562 177.8515625 260.78515625 C186.54483532 241.5743746 192.31000223 219.91513139 192.4375 198.77734375 C192.44808945 197.60591827 192.44808945 197.60591827 192.45889282 196.41082764 C192.81985081 173.12213961 192.81985081 173.12213961 189.234375 150.203125 C189.02506348 149.36088379 188.81575195 148.51864258 188.60009766 147.65087891 C181.17160281 118.47839632 168.33805448 91.69935984 148.234375 69.203125 C147.02562597 67.786813 145.81723334 66.37019667 144.609375 64.953125 C128.63002015 46.94345212 109.00957226 33.28930254 87.234375 23.203125 C86.10644531 22.66945313 84.97851562 22.13578125 83.81640625 21.5859375 C64.6056246 12.89266468 42.94638139 7.12749777 21.80859375 7 C21.02764343 6.99294037 20.24669312 6.98588074 19.44207764 6.97860718 C-3.84661039 6.61764919 -3.84661039 6.61764919 -26.765625 10.203125 Z " fill="#4683ED" transform="translate(177.765625,0.796875)"/>
<path d="M0 0 C2.49201599 2.01659994 4.7217699 4.121557 6.86328125 6.5078125 C7.85328125 7.590625 7.85328125 7.590625 8.86328125 8.6953125 C16.36095162 19.23891145 19.51052334 30.67583629 17.36328125 43.4921875 C14.78289917 55.0452618 9.39919935 64.80382088 -0.38671875 71.6953125 C-11.5453766 78.74486999 -23.4299703 81.28398908 -36.48828125 78.89453125 C-47.12809497 76.01238601 -57.01499318 69.868358 -63.13671875 60.5078125 C-69.78642212 48.7453655 -71.99241939 37.57823892 -69.5234375 24.1796875 C-65.86489864 11.86636727 -57.95024344 2.80592375 -47.0703125 -3.734375 C-31.94023219 -11.84717736 -13.80421791 -10.04401961 0 0 Z M-46.6640625 18.46875 C-51.10474483 24.61738707 -52.9088329 31.22049586 -52.578125 38.7734375 C-51.33043212 46.50250842 -47.29752251 52.29637643 -41.234375 57.1015625 C-34.98044471 61.29414146 -28.60755248 62.55025442 -21.13671875 61.5078125 C-13.56789799 59.24082271 -7.54870044 55.13476186 -3.32421875 48.3828125 C-0.20301162 42.26200371 0.72786904 36.3049203 -0.8046875 29.57421875 C-3.76945297 20.65572017 -7.71430978 15.88413395 -16.05078125 11.48828125 C-26.68171306 6.49134514 -38.96185849 9.91074555 -46.6640625 18.46875 Z " fill="#2E2E2E" transform="translate(1029.13671875,157.4921875)"/>
<path d="M0 0 C2.49201599 2.01659994 4.7217699 4.121557 6.86328125 6.5078125 C7.85328125 7.590625 7.85328125 7.590625 8.86328125 8.6953125 C16.36095162 19.23891145 19.51052334 30.67583629 17.36328125 43.4921875 C14.78289917 55.0452618 9.39919935 64.80382088 -0.38671875 71.6953125 C-11.5453766 78.74486999 -23.4299703 81.28398908 -36.48828125 78.89453125 C-47.12809497 76.01238601 -57.01499318 69.868358 -63.13671875 60.5078125 C-69.78642212 48.7453655 -71.99241939 37.57823892 -69.5234375 24.1796875 C-65.86489864 11.86636727 -57.95024344 2.80592375 -47.0703125 -3.734375 C-31.94023219 -11.84717736 -13.80421791 -10.04401961 0 0 Z M-46.6640625 18.46875 C-51.10474483 24.61738707 -52.9088329 31.22049586 -52.578125 38.7734375 C-51.33043212 46.50250842 -47.29752251 52.29637643 -41.234375 57.1015625 C-34.98044471 61.29414146 -28.60755248 62.55025442 -21.13671875 61.5078125 C-13.56789799 59.24082271 -7.54870044 55.13476186 -3.32421875 48.3828125 C-0.20301162 42.26200371 0.72786904 36.3049203 -0.8046875 29.57421875 C-3.76945297 20.65572017 -7.71430978 15.88413395 -16.05078125 11.48828125 C-26.68171306 6.49134514 -38.96185849 9.91074555 -46.6640625 18.46875 Z " fill="#2E2E2E" transform="translate(861.13671875,157.4921875)"/>
<path d="M0 0 C2.49201599 2.01659994 4.7217699 4.121557 6.86328125 6.5078125 C7.85328125 7.590625 7.85328125 7.590625 8.86328125 8.6953125 C16.36095162 19.23891145 19.51052334 30.67583629 17.36328125 43.4921875 C14.78289917 55.0452618 9.39919935 64.80382088 -0.38671875 71.6953125 C-11.5453766 78.74486999 -23.4299703 81.28398908 -36.48828125 78.89453125 C-47.12809497 76.01238601 -57.01499318 69.868358 -63.13671875 60.5078125 C-69.78642212 48.7453655 -71.99241939 37.57823892 -69.5234375 24.1796875 C-65.86489864 11.86636727 -57.95024344 2.80592375 -47.0703125 -3.734375 C-31.94023219 -11.84717736 -13.80421791 -10.04401961 0 0 Z M-46.6640625 18.46875 C-51.10474483 24.61738707 -52.9088329 31.22049586 -52.578125 38.7734375 C-51.33043212 46.50250842 -47.29752251 52.29637643 -41.234375 57.1015625 C-34.98044471 61.29414146 -28.60755248 62.55025442 -21.13671875 61.5078125 C-13.56789799 59.24082271 -7.54870044 55.13476186 -3.32421875 48.3828125 C-0.20301162 42.26200371 0.72786904 36.3049203 -0.8046875 29.57421875 C-3.76945297 20.65572017 -7.71430978 15.88413395 -16.05078125 11.48828125 C-26.68171306 6.49134514 -38.96185849 9.91074555 -46.6640625 18.46875 Z " fill="#2E2E2E" transform="translate(616.13671875,157.4921875)"/>
<path d="M0 0 C0.69930634 -0.0038269 1.39861267 -0.00765381 2.11911011 -0.01159668 C3.59667401 -0.01431033 5.07428639 -0.00698721 6.55175781 0.00976562 C8.77782765 0.03099386 11.00059876 0.0100516 13.2265625 -0.015625 C24.73275804 -0.03784286 35.55829715 2.01362059 44.6796875 9.53125 C52.33305883 17.46873721 55.81704344 27.60382159 55.6796875 38.53125 C54.77597664 48.70842457 51.33428553 57.56213836 43.6796875 64.53125 C33.56147449 71.80632877 23.58894216 73.60490012 11.37890625 73.5546875 C10.30858154 73.55130371 9.23825684 73.54791992 8.13549805 73.54443359 C6.91987183 73.53790771 6.91987183 73.53790771 5.6796875 73.53125 C5.69016113 74.34803223 5.70063477 75.16481445 5.71142578 76.00634766 C5.75311421 79.72295022 5.77905477 83.43950346 5.8046875 87.15625 C5.82144531 88.44144531 5.83820313 89.72664063 5.85546875 91.05078125 C5.86191406 92.29472656 5.86835938 93.53867188 5.875 94.8203125 C5.88547363 95.96193848 5.89594727 97.10356445 5.90673828 98.27978516 C5.6662073 101.72429224 5.05443817 104.36652484 3.6796875 107.53125 C0.51149994 109.64337504 -1.45250502 109.86281464 -5.1875 110.08984375 C-8.71903455 109.16491803 -10.08609624 107.38101795 -12.3203125 104.53125 C-13.05726011 101.30487988 -13.00393685 98.145736 -12.96728516 94.84741211 C-12.97604675 93.87775009 -12.98480835 92.90808807 -12.99383545 91.90904236 C-13.01581677 88.70843577 -13.0012817 85.50921402 -12.984375 82.30859375 C-12.9877432 80.08329503 -12.99259586 77.85799811 -12.99887085 75.63270569 C-13.00624026 70.97134874 -12.99553291 66.31047113 -12.97216797 61.64916992 C-12.94366419 55.6710116 -12.96009477 49.69397478 -12.99003029 43.71585751 C-13.00808691 39.12190784 -13.00235291 34.52822468 -12.98939133 29.93426704 C-12.98605368 27.72982208 -12.99015695 25.525353 -13.00178909 23.3209362 C-13.01447219 20.24186856 -12.99515589 17.16462492 -12.96728516 14.08569336 C-12.97740631 13.17285583 -12.98752747 12.26001831 -12.99795532 11.31951904 C-12.89460461 5.16435666 -12.89460461 5.16435666 -9.99377441 1.96644592 C-6.50384823 0.09294707 -3.95441878 0.01386994 0 0 Z M5.6796875 18.53125 C5.6796875 30.74125 5.6796875 42.95125 5.6796875 55.53125 C21.10165609 55.94056063 21.10165609 55.94056063 33.6796875 48.53125 C36.76986294 43.79298099 38.24443656 38.96780814 37.3125 33.296875 C35.70166268 27.37058463 32.88866947 23.77357551 27.6796875 20.53125 C20.94653101 17.47897642 20.94653101 17.47897642 5.6796875 18.53125 Z " fill="#2E2E2E" transform="translate(485.3203125,125.46875)"/>
<path d="M0 0 C3.88194444 2.52777778 3.88194444 2.52777778 4.6875 5.75 C4.36605869 11.85738494 4.36605869 11.85738494 2.44921875 14.37890625 C0.25600821 16.08581733 -1.61280811 16.50632061 -4.3125 17.125 C-8.27417709 18.24034873 -8.27417709 18.24034873 -11.375 20.875 C-12.6533462 24.79526169 -13.05327892 28.64715595 -13.3125 32.75 C-12.42498047 32.66298828 -12.42498047 32.66298828 -11.51953125 32.57421875 C-7.19726529 32.32743358 -4.96308126 32.3251306 -1.25 34.75 C1.43669973 38.91005119 1.3870733 40.85298688 0.6875 45.75 C-0.6875 48.1875 -0.6875 48.1875 -3.3125 49.75 C-5.02567971 50.01031432 -6.74968495 50.20398227 -8.4765625 50.34765625 C-9.38100098 50.42636963 -10.28543945 50.50508301 -11.21728516 50.58618164 C-12.2544165 50.66727173 -12.2544165 50.66727173 -13.3125 50.75 C-13.30139694 51.5053302 -13.29029388 52.2606604 -13.27885437 53.03887939 C-13.17863294 60.16018938 -13.10252633 67.28115706 -13.05343914 74.40298843 C-13.02735409 78.06437534 -12.99197852 81.72517916 -12.93530273 85.38623047 C-12.88094014 88.92000804 -12.85107124 92.45322514 -12.83811378 95.98738861 C-12.82439033 97.99058028 -12.78536298 99.99354668 -12.74601746 101.99639893 C-12.7456398 103.21736267 -12.74526215 104.43832642 -12.74487305 105.69628906 C-12.73376999 106.77106506 -12.72266693 107.84584106 -12.71122742 108.95318604 C-13.3125 111.75 -13.3125 111.75 -15.71687317 114.09515381 C-19.68548554 116.62534921 -21.66760713 116.33982767 -26.3125 115.75 C-29.55413386 113.42267313 -30.60522585 111.5857755 -31.3125 107.75 C-31.39876242 105.8254538 -31.43021338 103.89815361 -31.42602539 101.97167969 C-31.42594986 100.8107782 -31.42587433 99.64987671 -31.42579651 98.45379639 C-31.42063522 97.20576233 -31.41547394 95.95772827 -31.41015625 94.671875 C-31.4087413 93.39016418 -31.40732635 92.10845337 -31.40586853 90.78790283 C-31.40205901 87.3881636 -31.39224214 83.9884674 -31.38116455 80.58874512 C-31.37091674 77.116461 -31.3663637 73.6441699 -31.36132812 70.171875 C-31.35061841 63.36456571 -31.33356084 56.55728492 -31.3125 49.75 C-32.24642578 49.56824219 -32.24642578 49.56824219 -33.19921875 49.3828125 C-35.3125 48.75 -35.3125 48.75 -37.125 46.625 C-38.69046304 42.83493159 -38.38449544 40.68064995 -37.3125 36.75 C-35.375 34.3125 -35.375 34.3125 -33.3125 32.75 C-32.6525 32.75 -31.9925 32.75 -31.3125 32.75 C-31.374375 30.8628125 -31.374375 30.8628125 -31.4375 28.9375 C-31.39599424 20.13827971 -30.38390124 11.52626049 -24.3125 4.75 C-17.52793515 -0.67441342 -8.20972132 -3.09800804 0 0 Z " fill="#2E2E2E" transform="translate(787.3125,119.25)"/>
<path d="M0 0 C2.19433594 1.63378906 2.19433594 1.63378906 4 4 C4.45410156 7.11621094 4.45410156 7.11621094 4.390625 10.734375 C4.37128906 12.67763672 4.37128906 12.67763672 4.3515625 14.66015625 C4.31814366 16.02344824 4.28428391 17.38672949 4.25 18.75 C4.22992707 20.12888064 4.21167767 21.50778912 4.1953125 22.88671875 C4.14815448 26.25851744 4.08234538 29.62890687 4 33 C4.61415771 32.97607178 5.22831543 32.95214355 5.86108398 32.92749023 C6.66876221 32.90887939 7.47644043 32.89026855 8.30859375 32.87109375 C9.10837646 32.84716553 9.90815918 32.8232373 10.73217773 32.79858398 C13 33 13 33 16.0625 35.0625 C18.50495172 38.76557196 18.7007844 40.63956374 18 45 C16.625 47.875 16.625 47.875 14 50 C11.55615234 50.42626953 11.55615234 50.42626953 8.8359375 50.6328125 C7.47927979 50.74326904 7.47927979 50.74326904 6.09521484 50.85595703 C5.40379395 50.90349121 4.71237305 50.95102539 4 51 C4.09370824 56.60535255 4.19984122 62.21028202 4.31738281 67.81518555 C4.35561339 69.72104486 4.39047655 71.62697487 4.421875 73.53295898 C4.46765422 76.27613553 4.5256273 79.01882788 4.5859375 81.76171875 C4.59748871 82.61086349 4.60903992 83.46000824 4.62094116 84.33488464 C4.72632293 88.58019976 4.83301565 92.22107532 7 96 C9.74614309 97.25198656 9.74614309 97.25198656 12.9375 97.9375 C18.73274287 99.66773438 18.73274287 99.66773438 21.3125 102.875 C22.08772758 106.39876174 22.07118945 108.55689106 21 112 C19.41933106 113.99301736 18.26913298 114.86543351 16 116 C7.54897705 116.93603102 1.04734648 115.85424435 -6 111 C-11.87944633 105.27130871 -13.78299199 97.77401637 -14.08425903 89.75808716 C-14.11517209 87.21435226 -14.11253289 84.67278181 -14.09765625 82.12890625 C-14.0962413 81.206577 -14.09482635 80.28424774 -14.09336853 79.33396912 C-14.08780506 76.41011202 -14.07525942 73.48633365 -14.0625 70.5625 C-14.05748028 68.57096465 -14.0529182 66.5794281 -14.04882812 64.58789062 C-14.03784762 59.72523044 -14.02060839 54.86262853 -14 50 C-14.93392578 49.81824219 -14.93392578 49.81824219 -15.88671875 49.6328125 C-18 49 -18 49 -19.8125 46.875 C-21.37796304 43.08493159 -21.07199544 40.93064995 -20 37 C-18.0625 34.5625 -18.0625 34.5625 -16 33 C-15.34 33 -14.68 33 -14 33 C-14.02356567 31.86570557 -14.02356567 31.86570557 -14.04760742 30.70849609 C-14.11018047 27.26407424 -14.14906205 23.81977226 -14.1875 20.375 C-14.21263672 19.18519531 -14.23777344 17.99539062 -14.26367188 16.76953125 C-14.35614249 5.73470468 -14.35614249 5.73470468 -11 1 C-7.51811815 -1.86011723 -4.17847912 -1.04461978 0 0 Z " fill="#2E2E2E" transform="translate(722,119)"/>
<path d="M0 0 C2.81297222 1.96908056 3.33561661 3.72131569 4 7 C4.08916394 8.42290392 4.1304547 9.84930278 4.13371277 11.2749939 C4.13797775 12.12165115 4.14224274 12.96830841 4.14663696 13.84062195 C4.14618378 14.76123917 4.14573059 15.68185638 4.14526367 16.63037109 C4.14862228 17.60642807 4.1519809 18.58248505 4.15544128 19.58811951 C4.1649446 22.81657176 4.16689409 26.04497212 4.16796875 29.2734375 C4.17118174 31.51779197 4.17454584 33.76214622 4.17805481 36.00650024 C4.18404451 40.71234625 4.18589487 45.41817389 4.18530273 50.12402344 C4.18520112 56.15211957 4.19885377 62.18009791 4.21607494 68.20816612 C4.22719679 72.84415222 4.22922188 77.48010986 4.22869301 82.11610794 C4.22987283 84.33844026 4.2342947 86.56077332 4.24202538 88.7830925 C4.25182891 91.8924254 4.24894568 95.00150277 4.24291992 98.11083984 C4.24853943 99.0274086 4.25415894 99.94397736 4.25994873 100.88832092 C4.23669845 105.61264905 4.04073284 109.63602077 2 114 C-1.16818756 116.11212504 -3.13219252 116.33156464 -6.8671875 116.55859375 C-10.42706195 115.62624568 -11.76202414 113.89309426 -14 111 C-14.74028592 107.56077621 -14.67310475 104.1805784 -14.63110352 100.67358398 C-14.63825882 99.63564697 -14.64541412 98.59770996 -14.65278625 97.52832031 C-14.66968309 94.1004626 -14.65026495 90.67391071 -14.62890625 87.24609375 C-14.62973479 84.8638549 -14.63219359 82.4816161 -14.63621521 80.09938049 C-14.63907382 75.10847756 -14.62436387 70.11802325 -14.59692383 65.12719727 C-14.56282316 58.72543306 -14.56886519 52.32447019 -14.5875864 45.9226675 C-14.5981469 41.00447391 -14.58922739 36.08646729 -14.57420158 31.16829109 C-14.56901362 28.80755226 -14.56950899 26.44679396 -14.57574654 24.08605766 C-14.58118775 20.78928394 -14.56085787 17.49366382 -14.53344727 14.19702148 C-14.53997314 13.21872879 -14.54649902 12.2404361 -14.55322266 11.23249817 C-14.45989095 4.6415146 -14.45989095 4.6415146 -12.15415955 1.42518616 C-7.88290751 -1.40066269 -4.88799412 -1.04742731 0 0 Z " fill="#2E2E2E" transform="translate(906,119)"/>
<path d="M0 0 C3.93166151 0.64336279 5.09340239 1.40698398 7.4375 4.5625 C7.7675 5.5525 8.0975 6.5425 8.4375 7.5625 C9.4584375 6.6653125 9.4584375 6.6653125 10.5 5.75 C17.16897546 0.78374168 22.24873949 0.21095054 30.44921875 0.06640625 C34.10842744 0.67388272 35.27487738 1.58437768 37.4375 4.5625 C37.96875 6.78125 37.96875 6.78125 37.9375 9.0625 C37.9478125 9.8153125 37.958125 10.568125 37.96875 11.34375 C37.20910167 14.51639889 36.04686623 15.6148992 33.4375 17.5625 C29.94140625 18.50390625 29.94140625 18.50390625 26 19.125 C19.23633312 20.17451746 19.23633312 20.17451746 13.4375 23.5625 C9.81170444 29.03141746 9.99682446 34.1425546 9.99609375 40.47265625 C9.98288589 41.51771835 9.96967804 42.56278046 9.95606995 43.63951111 C9.91528245 46.96803481 9.89353164 50.29628341 9.875 53.625 C9.85118652 56.95720326 9.82303478 60.28914848 9.78321838 63.62120056 C9.75892948 65.69122833 9.7440156 67.76139266 9.73960876 69.83155823 C9.72942215 70.77281052 9.71923553 71.71406281 9.70874023 72.68383789 C9.70446518 73.50735245 9.70019012 74.330867 9.69578552 75.17933655 C9.3929247 77.97378989 8.70310045 80.05401666 7.4375 82.5625 C4.24531862 84.69062092 2.33330568 84.8611123 -1.4296875 85.0234375 C-4.67674916 84.32169157 -6.23198832 82.91022231 -8.5625 80.5625 C-9.19741821 77.26783752 -9.19741821 77.26783752 -9.20947266 73.30297852 C-9.21823425 72.57890808 -9.22699585 71.85483765 -9.23602295 71.10882568 C-9.2580011 68.71907332 -9.24347047 66.3311769 -9.2265625 63.94140625 C-9.22993151 62.2775792 -9.23478484 60.61375455 -9.24105835 58.94993591 C-9.24842776 55.46369992 -9.237724 51.9781048 -9.21435547 48.49194336 C-9.185889 44.0281974 -9.20225649 39.56595593 -9.23221779 35.10226536 C-9.25030831 31.66632303 -9.24452449 28.23073582 -9.23157883 24.79478264 C-9.22824847 23.14938109 -9.23231891 21.50394707 -9.24397659 19.85858345 C-9.25671282 17.55532948 -9.23727367 15.25449058 -9.20947266 12.95141602 C-9.20549469 11.64221695 -9.20151672 10.33301788 -9.19741821 8.98414612 C-8.17519845 3.47528811 -5.49795048 0.86809744 0 0 Z " fill="#2E2E2E" transform="translate(656.5625,150.4375)"/>
<path d="M0 0 C5.53070853 1.64060773 10.19051344 4.40838867 15.14453125 7.32421875 C16.12615234 7.88947266 17.10777344 8.45472656 18.11914062 9.03710938 C21.03324854 10.72077331 23.9333078 12.42673377 26.83203125 14.13671875 C27.7967334 14.69568848 28.76143555 15.2546582 29.75537109 15.83056641 C31.1139624 16.62599854 31.1139624 16.62599854 32.5 17.4375 C33.31106201 17.90969971 34.12212402 18.38189941 34.95776367 18.8684082 C36.83203125 20.13671875 36.83203125 20.13671875 37.83203125 22.13671875 C36.99542969 22.62551514 36.15882813 23.11431152 35.296875 23.61791992 C32.15765658 25.45248331 29.01937098 27.28863741 25.88134766 29.12524414 C24.5297089 29.91603493 23.17782618 30.70640889 21.82568359 31.49633789 C20.51219388 32.26375372 19.19903853 33.03174215 17.88623047 33.80032349 C16.60606938 34.54973695 15.3251507 35.29785789 14.04345703 36.04464722 C10.67224617 38.01799685 7.38840319 40.07513131 4.14453125 42.25 C0.83203125 44.13671875 0.83203125 44.13671875 -0.9831543 43.984375 C-4.02860962 42.80281048 -6.65546043 41.17282175 -9.4375 39.4609375 C-10.03672775 39.09450638 -10.63595551 38.72807526 -11.25334167 38.35054016 C-13.16544222 37.18000114 -15.07306787 36.00239726 -16.98046875 34.82421875 C-18.87802481 33.65822144 -20.77648684 32.49371882 -22.67546082 31.33003235 C-24.40736873 30.26775359 -26.13697847 29.2017306 -27.86645508 28.13549805 C-31.26955392 26.07521777 -34.70621142 24.09634368 -38.16796875 22.13671875 C-35.23253932 18.94107781 -32.31984452 16.90128545 -28.51953125 14.82421875 C-27.4315625 14.22351563 -26.34359375 13.6228125 -25.22265625 13.00390625 C-24.09085938 12.38773437 -22.9590625 11.7715625 -21.79296875 11.13671875 C-19.5547523 9.90980652 -17.31773417 8.68070523 -15.08203125 7.44921875 C-14.09154785 6.90910156 -13.10106445 6.36898437 -12.08056641 5.8125 C-9.0707556 4.13501481 -9.0707556 4.13501481 -5.99633789 1.93823242 C-3.16796875 0.13671875 -3.16796875 0.13671875 0 0 Z " fill="#79EDF4" transform="translate(169.16796875,243.86328125)"/>
<path d="M0 0 C0.71285156 0.20496094 1.42570313 0.40992188 2.16015625 0.62109375 C11.89196542 3.35857439 21.08944651 4.22255297 31.14453125 4.60546875 C32.01207031 4.64285156 32.87960938 4.68023437 33.7734375 4.71875 C34.56153809 4.74904297 35.34963867 4.77933594 36.16162109 4.81054688 C38 5 38 5 39 6 C39.09304018 7.47354348 39.11746265 8.95150591 39.11352539 10.42797852 C39.11344986 11.36887833 39.11337433 12.30977814 39.11329651 13.27919006 C39.10813522 14.30209641 39.10297394 15.32500275 39.09765625 16.37890625 C39.0962413 17.42070541 39.09482635 18.46250458 39.09336853 19.53587341 C39.0877508 22.87811094 39.0751953 26.22028257 39.0625 29.5625 C39.05748728 31.82226466 39.05292398 34.08203037 39.04882812 36.34179688 C39.03777561 41.89455391 39.02102024 47.44727225 39 53 C33.18575827 50.81882069 27.88161334 47.7291732 22.47167969 44.71508789 C20.64026952 43.69599675 18.80473268 42.68465282 16.96875 41.67382812 C14.63481288 40.3862831 12.33049759 39.06766636 10.02661133 37.72485352 C7.1544921 36.01556079 7.1544921 36.01556079 4.60424805 34.96069336 C2.33303905 33.83845906 1.31963237 33.17936648 0 31 C-0.84490588 25.70124434 -0.65801426 20.52085423 -0.4375 15.1875 C-0.40236551 13.71687057 -0.37043018 12.246161 -0.34179688 10.77539062 C-0.26487912 7.18192228 -0.14421661 3.59146893 0 0 Z " fill="#226ACD" transform="translate(169,212)"/>
<path d="M0 0 C4.04444865 0.65000068 5.70449524 1.60255379 8.5 4.5625 C9.71542401 7.96337989 9.63314935 11.30410444 9.64526367 14.88818359 C9.65164352 16.1698642 9.65802338 17.4515448 9.66459656 18.77206421 C9.66612542 20.16835492 9.66723928 21.56464614 9.66796875 22.9609375 C9.67118382 24.39816318 9.67454808 25.83538853 9.67805481 27.27261353 C9.68403756 30.28363809 9.6858956 33.29463398 9.68530273 36.30566406 C9.68520118 40.15455806 9.69884987 44.00326729 9.71607494 47.85211754 C9.7272208 50.82047359 9.72922115 53.78878535 9.72869301 56.75716019 C9.72986936 58.17566184 9.73427171 59.59416477 9.74202538 61.01264572 C9.75187662 63.00108188 9.74766978 64.98957245 9.74291992 66.97802734 C9.74434494 68.10735687 9.74576996 69.2366864 9.74723816 70.40023804 C9.48196594 73.79316189 8.84917193 76.43967862 7.5 79.5625 C4.33181244 81.67462504 2.36780748 81.89406464 -1.3671875 82.12109375 C-4.79216654 81.22407543 -6.27275442 79.24851124 -8.5 76.5625 C-9.13491821 73.29943848 -9.13491821 73.29943848 -9.14697266 69.55664062 C-9.15573425 68.87143845 -9.16449585 68.18623627 -9.17352295 67.48027039 C-9.19544661 65.22577717 -9.18099222 62.9732615 -9.1640625 60.71875 C-9.16743273 59.14603297 -9.17228708 57.57331849 -9.17855835 56.00061035 C-9.18592004 52.70865009 -9.17524787 49.41736938 -9.15185547 46.12548828 C-9.1233669 41.91172446 -9.13977483 37.69955291 -9.16971779 33.48584747 C-9.18781052 30.23948226 -9.18202395 26.9934928 -9.16907883 23.74711609 C-9.16575021 22.19382029 -9.16981279 20.64049007 -9.18147659 19.0872345 C-9.19421943 16.91336096 -9.17476729 14.74204312 -9.14697266 12.56835938 C-9.14299469 11.33323608 -9.13901672 10.09811279 -9.13491821 8.82556152 C-8.09145374 3.46284123 -5.34635058 0.85923491 0 0 Z " fill="#2E2E2E" transform="translate(935.5,153.4375)"/>
<path d="M0 0 C2.81837833 1.97286483 3.37443834 3.70057743 4 7 C4.11840694 9.31031216 4.17515576 11.62418849 4.1875 13.9375 C4.20167969 15.14277344 4.21585938 16.34804687 4.23046875 17.58984375 C4.00674066 20.90026107 3.51447255 23.07096801 2 26 C-1.03418604 28.60073089 -2.53837419 29.0080987 -6.5625 28.9375 C-10.51529869 27.85946399 -11.64800906 27.32313559 -14 24 C-14.59606279 20.6576953 -14.55805655 17.38663212 -14.5 14 C-14.51546875 13.09765625 -14.5309375 12.1953125 -14.546875 11.265625 C-14.50806136 4.70611917 -14.50806136 4.70611917 -12.15625 1.4375 C-7.88999287 -1.40667142 -4.89142764 -1.04816307 0 0 Z " fill="#2E2F2F" transform="translate(941,119)"/>
</svg>
