<?xml version="1.0" encoding="UTF-8"?>
<svg version="1.1" xmlns="http://www.w3.org/2000/svg" width="360" height="180">
<path d="M0 0 C3.40615757 3.22507071 5.900576 6.28483323 6.17700195 11.0534668 C6.23145428 14.51520305 6.27658728 17.97614221 6.29516602 21.43823242 C6.31230297 23.66193377 6.35617649 25.88411801 6.40039062 28.10742188 C6.41052486 29.53384328 6.41903868 30.96027729 6.42578125 32.38671875 C6.44036377 33.67795654 6.45494629 34.96919434 6.4699707 36.29956055 C5.85361308 41.15261641 4.27964847 45.0994563 0.3923645 48.34028625 C-6.15107656 52.66939011 -15.14652095 51.60544479 -22.6875 51.625 C-24.93637944 51.64140637 -27.18485046 51.66353492 -29.43354797 51.69662476 C-31.4655727 51.72504306 -33.49782705 51.73534773 -35.5300293 51.74462891 C-38.85066772 51.98900995 -41.08189337 52.42754526 -44 54 C-45.31068333 56.44288628 -45.31068333 56.44288628 -46 59 C-46.33 59.66 -46.66 60.32 -47 61 C-47.23274209 63.87910588 -47.41972757 66.74146495 -47.5625 69.625 C-47.60568359 70.42679687 -47.64886719 71.22859375 -47.69335938 72.0546875 C-47.79951457 74.0362511 -47.90026855 76.01810271 -48 78 C-50.39706123 78.10854617 -52.78915838 78.18753157 -55.1875 78.25 C-55.86103516 78.28351563 -56.53457031 78.31703125 -57.22851562 78.3515625 C-60.78922969 78.42103985 -62.80194706 78.12334161 -65.84765625 76.2265625 C-67.79418831 74.21290864 -69.06039489 72.6352684 -70.25 70.125 C-70.72179687 69.16980469 -70.72179687 69.16980469 -71.203125 68.1953125 C-73.21817014 62.64406069 -73.18263523 56.95299314 -73.1875 51.125 C-73.19974609 50.36058594 -73.21199219 49.59617188 -73.22460938 48.80859375 C-73.24451263 40.99324839 -72.08044419 34.24168858 -67 28 C-61.3042507 23.76469923 -55.5097962 23.85576864 -48.63671875 23.90234375 C-47.44874443 23.90446617 -47.44874443 23.90446617 -46.23677063 23.90663147 C-43.72030781 23.91220543 -41.20393569 23.92475307 -38.6875 23.9375 C-36.97591275 23.94251837 -35.26432409 23.94708069 -33.55273438 23.95117188 C-29.36845492 23.96216632 -25.18424281 23.97941293 -21 24 C-21 23.34 -21 22.68 -21 22 C-29.25 22 -37.5 22 -46 22 C-46.0928125 18.1946875 -46.0928125 18.1946875 -46.1875 14.3125 C-46.21481201 13.52270752 -46.24212402 12.73291504 -46.27026367 11.91918945 C-46.32357411 7.38550926 -45.81320042 4.57678339 -43 1 C-32.4320866 -6.31624774 -11.09360635 -6.18681893 0 0 Z " fill="#3770A1" transform="translate(202,6)"/>
<path d="M0 0 C2.39706123 -0.10854617 4.78915838 -0.18753157 7.1875 -0.25 C7.86103516 -0.28351562 8.53457031 -0.31703125 9.22851562 -0.3515625 C12.82535931 -0.42174482 14.8129889 -0.1175788 17.8828125 1.8125 C24.71308486 8.86960797 25.37584027 19.52703519 25.37475586 28.84863281 C25.15719691 37.21148175 23.20936603 45.99761284 17 52 C14.69179492 53.15410254 13.39215724 53.1210297 10.82568359 53.11352539 C9.53457169 53.11341209 9.53457169 53.11341209 8.21737671 53.11329651 C7.28712677 53.10813522 6.35687683 53.10297394 5.3984375 53.09765625 C4.44683746 53.0962413 3.49523743 53.09482635 2.51480103 53.09336853 C-0.53183097 53.08776012 -3.57839013 53.07520619 -6.625 53.0625 C-8.68749894 53.05748608 -10.74999903 53.05292299 -12.8125 53.04882812 C-17.87502817 53.03778796 -22.93750173 53.02051767 -28 53 C-28 53.99 -28 54.98 -28 56 C-19.42 56 -10.84 56 -2 56 C-2 71.3 -2 71.3 -6 76 C-13.93188377 81.65795772 -24.51405075 83.05399436 -34 82 C-39.10975305 80.74666435 -44.27839114 79.36080443 -49 77 C-49 76.34 -49 75.68 -49 75 C-49.99 74.67 -50.98 74.34 -52 74 C-55.09094977 68.38954198 -54.33495084 61.92567194 -54.31567383 55.70776367 C-54.3125144 53.57223425 -54.33599795 51.43809281 -54.36132812 49.30273438 C-54.36360163 47.9322934 -54.36430438 46.56184873 -54.36328125 45.19140625 C-54.36626221 43.95592041 -54.36924316 42.72043457 -54.37231445 41.44750977 C-53.9609545 37.63845151 -53.05303789 35.22241744 -51 32 C-50.01 31.67 -49.02 31.34 -48 31 C-48 30.34 -48 29.68 -48 29 C-44.50096908 27.83365636 -41.64425702 27.82288852 -37.953125 27.75390625 C-36.53645255 27.72095099 -35.11978603 27.68773965 -33.703125 27.65429688 C-31.48051255 27.60705412 -29.2579212 27.56264058 -27.03515625 27.52319336 C-24.88255497 27.48314385 -22.73044721 27.43166844 -20.578125 27.37890625 C-19.29325195 27.3538501 -18.00837891 27.32879395 -16.68457031 27.30297852 C-12.80931904 26.9843205 -9.6839115 26.18844483 -6 25 C-6 24.34 -6 23.68 -6 23 C-5 22 -4 21 -3 20 C-0.47768432 16.23507292 -0.56089595 12.13404615 -0.375 7.75 C-0.33632812 7.00492188 -0.29765625 6.25984375 -0.2578125 5.4921875 C-0.16394892 3.6618476 -0.08090282 1.83095857 0 0 Z " fill="#FECF45" transform="translate(210,31)"/>
<path d="M0 0 C0.02505615 0.58491211 0.0501123 1.16982422 0.07592773 1.77246094 C0.19222962 4.43184471 0.31480067 7.09090403 0.4375 9.75 C0.47681641 10.67039063 0.51613281 11.59078125 0.55664062 12.5390625 C0.59853516 13.42851562 0.64042969 14.31796875 0.68359375 15.234375 C0.72025146 16.05131836 0.75690918 16.86826172 0.79467773 17.70996094 C0.96842533 20.31267611 0.96842533 20.31267611 2 24 C5.3 24 8.6 24 12 24 C12 16.41 12 8.82 12 1 C13.98 1 15.96 1 18 1 C18.05856225 5.47911082 18.09378482 9.9581217 18.125 14.4375 C18.14175781 15.69755859 18.15851563 16.95761719 18.17578125 18.25585938 C18.26666562 35.66021613 18.26666562 35.66021613 14.0625 40 C9.90864222 42.01399165 6.56830303 42.0861944 2 42 C2 40.68 2 39.36 2 38 C3.11375 37.690625 4.2275 37.38125 5.375 37.0625 C8.7945155 36.17673517 8.7945155 36.17673517 11 35 C11.65772428 31.97065509 11.65772428 31.97065509 12 29 C10.77023438 29.05220703 10.77023438 29.05220703 9.515625 29.10546875 C8.43796875 29.13253906 7.3603125 29.15960938 6.25 29.1875 C4.64898437 29.23970703 4.64898437 29.23970703 3.015625 29.29296875 C-0.34736544 28.96625336 -1.63641253 28.36910987 -4 26 C-4.98043964 23.05868109 -5.11621202 21.17498335 -5.09765625 18.11328125 C-5.09443359 17.17548828 -5.09121094 16.23769531 -5.08789062 15.27148438 C-5.07532227 13.80678711 -5.07532227 13.80678711 -5.0625 12.3125 C-5.05798828 11.32443359 -5.05347656 10.33636719 -5.04882812 9.31835938 C-5.03704303 6.87884526 -5.02059011 4.43945311 -5 2 C-1.125 0 -1.125 0 0 0 Z " fill="#426583" transform="translate(138,130)"/>
<path d="M0 0 C2.97468165 2.27015178 4.5875661 4.56808615 6 8 C6.68232188 14.36242996 6.93230427 20.66330134 3 26 C0.05117889 27.84143121 -2.17386125 28.25098249 -5.625 28.1875 C-6.40101562 28.18105469 -7.17703125 28.17460937 -7.9765625 28.16796875 C-10 28 -10 28 -12 27 C-12 31.95 -12 36.9 -12 42 C-13.65 41.34 -15.3 40.68 -17 40 C-17 27.79 -17 15.58 -17 3 C-6.36578947 -1.72631579 -6.36578947 -1.72631579 0 0 Z M-12 5 C-12 10.61 -12 16.22 -12 22 C-7.68087005 24.15956497 -6.48099916 24.36378235 -2 23 C0.25377838 19.75546669 0.26919567 16.8102273 0.25 12.9375 C0.25515625 11.89464844 0.2603125 10.85179687 0.265625 9.77734375 C0.20072577 6.78871015 0.20072577 6.78871015 -2 4 C-3.90706576 3.59912669 -3.90706576 3.59912669 -6 3.75 C-7.051875 3.77320313 -7.051875 3.77320313 -8.125 3.796875 C-10.08936628 3.89956666 -10.08936628 3.89956666 -12 5 Z " fill="#416582" transform="translate(123,131)"/>
<path d="M0 0 C0.95619733 3.99795892 1.1039592 7.70803922 1.0625 11.8125 C1.05347656 12.97394531 1.04445312 14.13539063 1.03515625 15.33203125 C1.02355469 16.21246094 1.01195312 17.09289062 1 18 C1.58910156 17.67773438 2.17820313 17.35546875 2.78515625 17.0234375 C6.02912411 15.52446117 8.46901637 15.62831751 12 16 C14.703125 17.2890625 14.703125 17.2890625 17 20 C17.63046791 23.92951772 17.46876311 27.78332106 17.3125 31.75 C17.28994141 32.82894531 17.26738281 33.90789062 17.24414062 35.01953125 C17.1852565 37.6810935 17.10307001 40.33984228 17 43 C14.525 43.495 14.525 43.495 12 44 C11.97494385 43.37432129 11.9498877 42.74864258 11.92407227 42.10400391 C11.80824727 39.27745381 11.68546015 36.45124831 11.5625 33.625 C11.52318359 32.64015625 11.48386719 31.6553125 11.44335938 30.640625 C11.40146484 29.69960937 11.35957031 28.75859375 11.31640625 27.7890625 C11.27974854 26.91975098 11.24309082 26.05043945 11.20532227 25.15478516 C11.12598456 22.9516738 11.12598456 22.9516738 10 21 C6.53058454 21.45822468 3.32604951 21.89131683 0 23 C0 29.93 0 36.86 0 44 C-1.65 43.67 -3.3 43.34 -5 43 C-5 29.47 -5 15.94 -5 2 C-1 0 -1 0 0 0 Z " fill="#426684" transform="translate(182,115)"/>
<path d="M0 0 C3.68618286 2.82345921 5.82142446 5.49998431 7 10 C7.5056961 15.46151791 6.63310227 19.18777861 4 24 C0.59600084 27.49599914 -2.11828882 28.80074648 -7 29 C-11.02259403 28.27593308 -12.59567623 27.45896212 -15.3125 24.375 C-18.42939418 18.14121165 -18.47540969 12.62149055 -16.8046875 5.984375 C-13.79792688 -1.43035507 -6.6623905 -1.68288757 0 0 Z M-10.66796875 5.6796875 C-13.06656421 9.85788605 -12.49763522 14.32775817 -12 19 C-11.13539818 22.20580708 -11.13539818 22.20580708 -9 24 C-5.500327 24.67015015 -3.73926379 24.40854052 -0.625 22.6875 C1.95668554 18.41778929 1.61553973 13.86705836 1 9 C-0.22884032 5.80864128 -0.22884032 5.80864128 -3 4 C-7.27983338 3.42705536 -7.27983338 3.42705536 -10.66796875 5.6796875 Z " fill="#40627E" transform="translate(221,131)"/>
<path d="M0 0 C1.60107422 1.18066406 1.60107422 1.18066406 3 3 C3.34057617 5.63549805 3.34057617 5.63549805 3.29296875 8.76171875 C3.28330078 9.87998047 3.27363281 10.99824219 3.26367188 12.15039062 C3.23853516 13.31763672 3.21339844 14.48488281 3.1875 15.6875 C3.16719727 17.45577148 3.16719727 17.45577148 3.14648438 19.25976562 C3.11109326 22.17363411 3.06171809 25.08658945 3 28 C1.35 28 -0.3 28 -2 28 C-2.02505615 27.37432129 -2.0501123 26.74864258 -2.07592773 26.10400391 C-2.19175273 23.27745381 -2.31453985 20.45124831 -2.4375 17.625 C-2.47681641 16.64015625 -2.51613281 15.6553125 -2.55664062 14.640625 C-2.59853516 13.69960937 -2.64042969 12.75859375 -2.68359375 11.7890625 C-2.72025146 10.91975098 -2.75690918 10.05043945 -2.79467773 9.15478516 C-2.87401544 6.9516738 -2.87401544 6.9516738 -4 5 C-6.64 5 -9.28 5 -12 5 C-12.33 12.26 -12.66 19.52 -13 27 C-14.65 27.33 -16.3 27.66 -18 28 C-19 27 -19 27 -19.11352539 24.68334961 C-19.10828857 23.68311768 -19.10305176 22.68288574 -19.09765625 21.65234375 C-19.09443359 20.57275391 -19.09121094 19.49316406 -19.08789062 18.38085938 C-19.07951172 17.24455078 -19.07113281 16.10824219 -19.0625 14.9375 C-19.05798828 13.79732422 -19.05347656 12.65714844 -19.04882812 11.48242188 C-19.03699747 8.65489649 -19.0205141 5.8274736 -19 3 C-17.44098147 2.3209415 -15.87596075 1.65565413 -14.30859375 0.99609375 C-13.43775146 0.62411865 -12.56690918 0.25214355 -11.66967773 -0.13110352 C-7.71264311 -1.41899435 -3.94265891 -1.34647042 0 0 Z " fill="#375774" transform="translate(250,131)"/>
<path d="M0 0 C0 2.64 0 5.28 0 8 C1.65 8.33 3.3 8.66 5 9 C4.67 9.99 4.34 10.98 4 12 C2.68 12 1.36 12 0 12 C0.05197921 15.08469706 0.14707135 18.16661559 0.25 21.25 C0.26417969 22.12269531 0.27835938 22.99539062 0.29296875 23.89453125 C0.44166706 29.15509374 0.44166706 29.15509374 3.046875 33.609375 C3.69140625 34.06828125 4.3359375 34.5271875 5 35 C4.505 35.495 4.505 35.495 4 36 C-2.22150572 35.65436079 -2.22150572 35.65436079 -4.71484375 33.55859375 C-6.72368054 29.55923783 -6.31434312 25.65373297 -6.1875 21.25 C-6.16719727 19.91775391 -6.16719727 19.91775391 -6.14648438 18.55859375 C-6.11121309 16.37177422 -6.06192752 14.18620034 -6 12 C-6.99 12 -7.98 12 -9 12 C-9 10.68 -9 9.36 -9 8 C-8.01 8 -7.02 8 -6 8 C-6 5.36 -6 2.72 -6 0 C-3 -1 -3 -1 0 0 Z " fill="#3C5A76" transform="translate(168,123)"/>
<path d="M0 0 C1.43861294 0.08746284 2.87597508 0.19565348 4.3125 0.3125 C5.11300781 0.37050781 5.91351563 0.42851562 6.73828125 0.48828125 C9.50862154 1.11507672 10.29797639 1.74029205 12 4 C12.34057617 6.63549805 12.34057617 6.63549805 12.29296875 9.76171875 C12.28330078 10.87998047 12.27363281 11.99824219 12.26367188 13.15039062 C12.23853516 14.31763672 12.21339844 15.48488281 12.1875 16.6875 C12.17396484 17.86634766 12.16042969 19.04519531 12.14648438 20.25976562 C12.11109326 23.17363411 12.06171809 26.08658945 12 29 C10.35 29 8.7 29 7 29 C6.98541748 28.37955811 6.97083496 27.75911621 6.95581055 27.11987305 C6.88133412 24.30845367 6.78467436 21.49822251 6.6875 18.6875 C6.66494141 17.71103516 6.64238281 16.73457031 6.61914062 15.72851562 C6.58369141 14.79072266 6.54824219 13.85292969 6.51171875 12.88671875 C6.48553467 12.02264404 6.45935059 11.15856934 6.43237305 10.26831055 C5.91238315 7.54034547 5.19022677 6.66309949 3 5 C2.01 4.67 1.02 4.34 0 4 C0 2.68 0 1.36 0 0 Z " fill="#426683" transform="translate(241,130)"/>
<path d="M0 0 C3.125 0.375 3.125 0.375 6 1 C7.32841008 6.43440487 7.32841008 6.43440487 5.875 8.9375 C4 10 4 10 1.4375 9.8125 C-1 9 -1 9 -3 7 C-2.67028521 3.70285207 -2.3773161 2.3773161 0 0 Z " fill="#FFFBF3" transform="translate(194,94)"/>
<path d="M0 0 C5.56818182 0.56818182 5.56818182 0.56818182 7 2 C7.25 4.9375 7.25 4.9375 7 8 C4 10 4 10 1.375 9.6875 C-1 9 -1 9 -2 8 C-2.1875 5.0625 -2.1875 5.0625 -2 2 C-1.34 1.34 -0.68 0.68 0 0 Z " fill="#F3F6F9" transform="translate(165,11)"/>
</svg>
