<?xml version="1.0" encoding="UTF-8"?>
<svg version="1.1" xmlns="http://www.w3.org/2000/svg" width="1200" height="457">
<path d="M0 0 C396 0 792 0 1200 0 C1200 150.81 1200 301.62 1200 457 C804 457 408 457 0 457 C0 306.19 0 155.38 0 0 Z " fill="#FEFEFE" transform="translate(0,0)"/>
<path d="M0 0 C0.91146001 0.00291284 1.82292002 0.00582568 2.76200002 0.00882679 C4.20273387 0.00754515 4.20273387 0.00754515 5.67257345 0.00623763 C8.9170767 0.0045799 12.16152918 0.01010896 15.40602773 0.01555592 C17.72141672 0.01583775 20.03680579 0.01568013 22.35219473 0.01511341 C28.65979335 0.01482529 34.96737314 0.02072435 41.27496737 0.02768737 C47.85868718 0.03391852 54.44240736 0.03452452 61.02612966 0.03571278 C72.08359252 0.03830589 83.14104874 0.04472809 94.1985082 0.05364186 C105.58978389 0.06281519 116.98105769 0.06989641 128.37233633 0.07414967 C129.42485818 0.07454375 129.42485818 0.07454375 130.49864311 0.0749458 C134.01862921 0.0762508 137.53861532 0.07751452 141.05860144 0.0787577 C170.27915105 0.08913126 199.49969379 0.10682451 228.72023672 0.12908131 C227.9750494 4.57276071 226.6199409 6.98385888 223.84523672 10.56658131 C220.97273287 14.2923566 218.80490392 17.91864079 216.72023672 22.12908131 C215.07593843 23.81782009 213.40639454 25.48213646 211.72023672 27.12908131 C208.28335067 31.27704723 205.65006835 35.08182934 203.72023672 40.12908131 C202.73023672 40.78908131 201.74023672 41.44908131 200.72023672 42.12908131 C199.71463276 43.84405599 199.71463276 43.84405599 198.90773672 45.81658131 C197.164861 49.5003868 195.08070197 52.15043316 192.35695547 55.14861256 C190.40037604 57.51612036 188.83457888 60.01691176 187.22023672 62.62908131 C184.37441493 67.20385025 181.44467489 71.23141345 177.72023672 75.12908131 C177.06023672 75.12908131 176.40023672 75.12908131 175.72023672 75.12908131 C175.39023672 76.44908131 175.06023672 77.76908131 174.72023672 79.12908131 C174.06023672 79.12908131 173.40023672 79.12908131 172.72023672 79.12908131 C172.45211172 79.85095631 172.18398672 80.57283131 171.90773672 81.31658131 C170.7212231 84.12674514 169.44538033 86.61324687 167.72023672 89.12908131 C167.06023672 89.12908131 166.40023672 89.12908131 165.72023672 89.12908131 C165.06023672 91.10908131 164.40023672 93.08908131 163.72023672 95.12908131 C159.73780491 94.62874183 158.02490385 93.89331497 155.53273672 90.75408131 C151.77361745 86.15498185 147.74215387 81.85864802 143.66164297 77.54705006 C141.72023672 75.12908131 141.72023672 75.12908131 141.72023672 72.12908131 C141.10148672 71.84033131 140.48273672 71.55158131 139.84523672 71.25408131 C137.72023672 70.12908131 137.72023672 70.12908131 135.72023672 68.12908131 C133.13669453 67.96220683 133.13669453 67.96220683 130.72023672 68.12908131 C130.16336172 69.13970631 129.60648672 70.15033131 129.03273672 71.19158131 C123.40897027 81.00325894 123.40897027 81.00325894 118.72023672 84.12908131 C118.17393845 87.71570172 118.23535409 89.4536272 120.37258047 92.43083912 C121.12668203 93.14079029 121.88078359 93.85074147 122.65773672 94.58220631 C123.46984609 95.36595631 124.28195547 96.14970631 125.11867422 96.95720631 C125.97718984 97.75642506 126.83570547 98.55564381 127.72023672 99.37908131 C129.41174831 100.98423946 131.09946822 102.59340604 132.78273672 104.20720631 C133.53683828 104.91264576 134.29093984 105.61808522 135.06789297 106.34490162 C136.72023672 108.12908131 136.72023672 108.12908131 136.72023672 110.12908131 C137.71023672 110.45908131 138.70023672 110.78908131 139.72023672 111.12908131 C141.43194281 112.74945713 143.0901094 114.42665936 144.72023672 116.12908131 C145.80446388 117.20763888 146.89185228 118.28302551 147.98195547 119.35564381 C149.12391394 120.48842466 150.2658406 121.6212376 151.40773672 122.75408131 C151.98845937 123.32642506 152.56918203 123.89876881 153.16750234 124.48845631 C153.72502187 125.04275318 154.28254141 125.59705006 154.85695547 126.16814381 C155.35928701 126.66523854 155.86161855 127.16233326 156.37917227 127.67449147 C157.72023672 129.12908131 157.72023672 129.12908131 159.72023672 132.12908131 C163.89707129 131.81356503 165.83663659 130.41574552 168.61379141 127.33293873 C169.06141836 126.81191578 169.50904531 126.29089283 169.97023672 125.75408131 C170.44622305 125.21823414 170.92220937 124.68238697 171.41261953 124.13030201 C175.29349386 119.72580738 178.98134086 115.16642162 182.66164297 110.59392506 C184.98968562 107.80645843 187.47372067 105.27834328 190.08742422 102.76189381 C192.37249127 100.47682676 194.41310512 98.0112202 196.45851797 95.51189381 C197.72023672 94.12908131 197.72023672 94.12908131 199.72023672 93.12908131 C200.13144766 92.42396412 200.54265859 91.71884693 200.96633047 90.99236256 C203.18991363 87.3623259 205.8906696 84.42338874 208.78273672 81.31658131 C209.3247875 80.71910084 209.86683828 80.12162037 210.42531484 79.50603443 C211.81297886 78.00516173 213.2623281 76.56181741 214.72023672 75.12908131 C215.38023672 75.12908131 216.04023672 75.12908131 216.72023672 75.12908131 C216.72023672 74.46908131 216.72023672 73.80908131 216.72023672 73.12908131 C217.38023672 73.12908131 218.04023672 73.12908131 218.72023672 73.12908131 C218.83504385 72.53127857 218.94985098 71.93347584 219.06813711 71.31755787 C220.11391968 67.807863 222.69974497 65.49011194 225.15773672 62.87908131 C225.66111562 62.32478443 226.16449453 61.77048756 226.68312734 61.19939381 C227.98251097 59.79819925 229.34722345 58.4582083 230.72023672 57.12908131 C231.38023672 57.12908131 232.04023672 57.12908131 232.72023672 57.12908131 C232.72023672 56.46908131 232.72023672 55.80908131 232.72023672 55.12908131 C233.38023672 55.12908131 234.04023672 55.12908131 234.72023672 55.12908131 C234.77566641 54.5966985 234.83109609 54.06431568 234.88820547 53.51580006 C236.11526627 49.99592142 238.53504935 47.62021369 241.03273672 44.94158131 C241.51935781 44.39566334 242.00597891 43.84974537 242.50734609 43.28728443 C245.30790506 40.24549294 246.59726007 39.15982547 250.72023672 38.12908131 C250.72023672 115.01908131 250.72023672 191.90908131 250.72023672 271.12908131 C165.58023672 271.12908131 80.44023672 271.12908131 -7.27976328 271.12908131 C-7.32009463 203.41274623 -7.32009463 203.41274623 -7.32859141 175.20134693 C-7.33054942 168.74342048 -7.33256994 162.28549404 -7.33469492 155.82756764 C-7.33495867 155.01811894 -7.33522242 154.20867024 -7.33549416 153.3746928 C-7.33984907 140.28938419 -7.34773596 127.20407996 -7.35691608 114.11877394 C-7.36625205 100.69987214 -7.37181877 87.28097262 -7.37385178 73.8620677 C-7.37522712 65.575116 -7.37957833 57.28817665 -7.38767975 49.00122874 C-7.39294651 43.32639746 -7.39456774 37.65157261 -7.39326466 31.97673906 C-7.39262117 28.69769899 -7.39417846 25.41868529 -7.39896876 22.13964802 C-7.40389866 18.592941 -7.40276418 15.04628808 -7.4000178 11.49957997 C-7.40293064 10.45193677 -7.40584348 9.40429357 -7.40884459 8.32490361 C-7.40585802 6.91114183 -7.40585802 6.91114183 -7.40281111 5.4688192 C-7.40319083 4.64900301 -7.40357055 3.82918682 -7.40396178 2.98452771 C-7.11638693 -1.31165723 -3.47820051 0.00843938 0 0 Z " fill="#02B402" transform="translate(53.27976328134537,93.8709186911583)"/>
<path d="M0 0 C1.52173828 0.35191406 1.52173828 0.35191406 3.07421875 0.7109375 C8.4176077 2.06874934 12.62994888 3.48264178 17 7 C17.804375 7.639375 18.60875 8.27875 19.4375 8.9375 C21 11 21 11 20.875 13.4375 C20.58625 14.283125 20.2975 15.12875 20 16 C19.62875 17.2375 19.62875 17.2375 19.25 18.5 C17.68258923 21.63482154 15.49820201 23.56425304 13 26 C11.70480005 28.16620544 11.70480005 28.16620544 11 30 C6.97252906 29.27323833 3.53468911 27.36022864 -0.0625 25.5 C-4.91682807 22.99270027 -4.91682807 22.99270027 -10 21 C-10 20.34 -10 19.68 -10 19 C-23.21199975 18.39235431 -23.21199975 18.39235431 -36 21 C-38.35807191 24.39562355 -38.59075724 27.94909323 -38 32 C-34.84690378 36.08047746 -31.95967428 37.73124612 -27 39 C-27 39.66 -27 40.32 -27 41 C-25.88882813 41.10957031 -24.77765625 41.21914063 -23.6328125 41.33203125 C-11.60148827 42.57987467 -1.93960187 44.82115667 8.875 50.375 C9.61363281 50.75019775 10.35226563 51.12539551 11.11328125 51.51196289 C18.03547345 55.20723866 22.10840328 60.15444071 24.5625 67.73828125 C26.75361687 79.06557294 24.9059245 89.19659192 18.6875 98.8125 C15.95162772 102.38692137 12.83232343 104.65802457 9 107 C8.01 107 7.02 107 6 107 C6 107.66 6 108.32 6 109 C-4.81704674 116.21136449 -21.76561553 115.5470041 -34.15136719 113.67480469 C-37.94900681 112.86060026 -41.45420097 111.56342147 -45 110 C-46.31097656 109.43925781 -46.31097656 109.43925781 -47.6484375 108.8671875 C-53.91537098 105.95547379 -59.45356961 102.09491776 -65 98 C-64.72460753 91.39058076 -62.14025175 87.99507985 -58 83 C-56.99370445 81.67141164 -55.99190387 80.3393672 -55 79 C-51.22893138 79.23569179 -49.16619215 80.51449638 -46.3125 82.8125 C-37.37485025 89.74947614 -28.96198979 90.55863141 -17.875 90.25 C-16.63234375 90.23195313 -15.3896875 90.21390625 -14.109375 90.1953125 C-11.07209034 90.14858504 -8.03647061 90.08308591 -5 90 C-5 89.34 -5 88.68 -5 88 C-4.175 87.46375 -3.35 86.9275 -2.5 86.375 C0.16396279 83.84423535 0.43256097 83.45107326 0.625 80 C0.40463125 76.87424329 0.13274849 76.15349044 -2 73.6875 C-8.10560822 70.25309538 -14.59034776 68.4596827 -21.375 66.9375 C-22.49080444 66.67718994 -22.49080444 66.67718994 -23.62915039 66.41162109 C-27.55311555 65.50658372 -31.45795591 64.74936587 -35.4375 64.125 C-44.69805981 62.30118856 -52.06565831 56.06594565 -58 49 C-58.52980469 48.37996094 -59.05960937 47.75992188 -59.60546875 47.12109375 C-64.76546521 39.73521646 -63.41680565 30.58619644 -63 22 C-62.34 22 -61.68 22 -61 22 C-60.9175 21.29875 -60.835 20.5975 -60.75 19.875 C-59.82165854 16.31635772 -58.25246867 13.83546056 -56 11 C-55.24976562 10.01773438 -55.24976562 10.01773438 -54.484375 9.015625 C-41.78379995 -5.67286615 -17.24947496 -4.54966767 0 0 Z " fill="#F7FCF7" transform="translate(137,222)"/>
<path d="M0 0 C2.83203125 2.046875 2.83203125 2.046875 5 4 C5 4.66 5 5.32 5 6 C6.32 6.33 7.64 6.66 9 7 C9.495 8.98 9.495 8.98 10 11 C10.66 11 11.32 11 12 11 C12.6392371 12.28468039 13.26033982 13.57838107 13.875 14.875 C14.22304688 15.59429687 14.57109375 16.31359375 14.9296875 17.0546875 C17.78101964 24.90105406 18.32052156 32.71371662 18.25 41 C18.26160156 42.40958984 18.26160156 42.40958984 18.2734375 43.84765625 C18.27085937 44.74355469 18.26828125 45.63945312 18.265625 46.5625 C18.26336914 47.36816406 18.26111328 48.17382812 18.25878906 49.00390625 C18 51 18 51 16 53 C13.21591187 53.24050903 13.21591187 53.24050903 9.62255859 53.22705078 C8.96877731 53.22734283 8.31499603 53.22763489 7.6414032 53.22793579 C5.47694704 53.22654065 3.31283364 53.2109712 1.1484375 53.1953125 C-0.35085868 53.19158302 -1.8501573 53.18873574 -3.34945679 53.18673706 C-7.29836743 53.17909548 -11.24713129 53.1594426 -15.19598389 53.1373291 C-19.22438572 53.1168819 -23.25281124 53.10773776 -27.28125 53.09765625 C-35.18756741 53.07619711 -43.09376545 53.04205495 -51 53 C-50.77957031 54.88525391 -50.77957031 54.88525391 -50.5546875 56.80859375 C-50.47202637 57.51556396 -50.38936523 58.22253418 -50.30419922 58.95092773 C-49.51560623 64.26285468 -47.17295864 69.13257266 -45 74 C-44.608125 75.03125 -44.21625 76.0625 -43.8125 77.125 C-41.29865946 81.11247121 -38.10485963 82.8361423 -34 85 C-33.17242188 85.53367187 -32.34484375 86.06734375 -31.4921875 86.6171875 C-26.33126053 88.66077603 -21.43951161 88.48629833 -15.9375 88.4375 C-14.82165527 88.43427734 -13.70581055 88.43105469 -12.55615234 88.42773438 C-5.23737231 88.30395854 0.89774186 87.56055905 7.7421875 84.875 C10 84 10 84 13 84 C13 87.3 13 90.6 13 94 C3.88218382 99.88858961 -5.39184718 99.1819518 -16 99.1875 C-17.23234375 99.19974609 -18.4646875 99.21199219 -19.734375 99.22460938 C-31.78518461 99.24400445 -41.99717874 97.20758563 -51.3046875 88.95703125 C-62.64895856 76.86361022 -64.12544564 63.80367318 -64.25 47.8125 C-64.25942627 46.89823242 -64.26885254 45.98396484 -64.27856445 45.04199219 C-64.23735394 36.41111066 -62.71836431 28.5259777 -59.875 20.375 C-59.52179688 19.35148437 -59.16859375 18.32796875 -58.8046875 17.2734375 C-58.53914063 16.52320313 -58.27359375 15.77296875 -58 15 C-57.34 15 -56.68 15 -56 15 C-55.71125 14.236875 -55.4225 13.47375 -55.125 12.6875 C-54 10 -54 10 -52 7 C-51.34 7 -50.68 7 -50 7 C-50 6.34 -50 5.68 -50 5 C-46.40555881 1.62340373 -42.57945267 -0.32327127 -38 -2 C-37.30390625 -2.28101563 -36.6078125 -2.56203125 -35.890625 -2.8515625 C-23.86024152 -7.17119684 -11.06427843 -6.43863063 0 0 Z " fill="#15B915" transform="translate(546,204)"/>
<path d="M0 0 C0.78503906 0.30164063 1.57007813 0.60328125 2.37890625 0.9140625 C7.26288981 2.89340345 10.43199529 5.01223003 14 9 C14.99 9.66 15.98 10.32 17 11 C17 11.66 17 12.32 17 13 C17.66 13 18.32 13 19 13 C19.27714844 13.69867188 19.55429688 14.39734375 19.83984375 15.1171875 C20.38318359 16.48230469 20.38318359 16.48230469 20.9375 17.875 C21.47697266 19.23238281 21.47697266 19.23238281 22.02734375 20.6171875 C22.94901262 22.96137667 22.94901262 22.96137667 24 25 C24.13415472 27.6723621 24.04318541 30.32250488 24 33 C24.66 33 25.32 33 26 33 C26.02685412 35.31243792 26.04632841 37.6249627 26.0625 39.9375 C26.07410156 41.22527344 26.08570313 42.51304687 26.09765625 43.83984375 C26 47 26 47 25 48 C23.1281906 48.09386381 21.2528194 48.11743804 19.37866211 48.11352539 C18.17749252 48.11344986 16.97632294 48.11337433 15.73875427 48.11329651 C14.4314888 48.10813522 13.12422333 48.10297394 11.77734375 48.09765625 C10.43355868 48.09579198 9.08977293 48.09436812 7.74598694 48.09336853 C4.20317723 48.08954402 0.6604083 48.07971432 -2.88238525 48.06866455 C-6.49515227 48.05844899 -10.10792584 48.0538706 -13.72070312 48.04882812 C-20.8138188 48.03809198 -27.90690674 48.02101636 -35 48 C-34.57811541 49.8161982 -34.13700835 51.62794073 -33.6875 53.4375 C-33.44386719 54.44683594 -33.20023438 55.45617187 -32.94921875 56.49609375 C-32.63597656 57.32238281 -32.32273438 58.14867187 -32 59 C-30.515 59.495 -30.515 59.495 -29 60 C-28.01 61.485 -28.01 61.485 -27 63 C-26.01 63.33 -25.02 63.66 -24 64 C-24 64.66 -24 65.32 -24 66 C-10.35453226 66.41013555 -10.35453226 66.41013555 3 64 C3 63.34 3 62.68 3 62 C5.48770135 60.43366952 6.65552204 59.95899072 9.625 60.3125 C13.65569158 61.47927914 13.65569158 61.47927914 15.10546875 63.671875 C16.7548601 66.83965911 17.9822534 69.20140279 18.0625 72.8125 C16.61466387 75.7933391 14.98226833 76.65087861 12 78 C11.01 78 10.02 78 9 78 C9 78.66 9 79.32 9 80 C1.26332312 83.11133864 -5.58966463 84.38790928 -13.875 84.375 C-14.67075439 84.37628906 -15.46650879 84.37757813 -16.28637695 84.37890625 C-21.1681699 84.28890986 -25.3286907 83.54577871 -30 82 C-30.82886719 81.75378906 -31.65773437 81.50757813 -32.51171875 81.25390625 C-40.18421053 78.81578947 -40.18421053 78.81578947 -43 76 C-43 75.34 -43 74.68 -43 74 C-43.99 73.67 -44.98 73.34 -46 73 C-46 72.34 -46 71.68 -46 71 C-46.99 70.67 -47.98 70.34 -49 70 C-49 69.34 -49 68.68 -49 68 C-49.598125 67.79375 -50.19625 67.5875 -50.8125 67.375 C-56.00593301 64.1105564 -57.09788326 57.06061303 -58.4296875 51.41796875 C-59.90838548 42.55590896 -60.36005325 31.53489463 -57 23 C-56.01 22.34 -55.02 21.68 -54 21 C-52.99831469 19.05167065 -52.99831469 19.05167065 -52.3125 16.875 C-52.06113281 16.15054687 -51.80976563 15.42609375 -51.55078125 14.6796875 C-51.36902344 14.12539063 -51.18726563 13.57109375 -51 13 C-50.34 13 -49.68 13 -49 13 C-48.74089844 12.4121875 -48.48179687 11.824375 -48.21484375 11.21875 C-44.46681401 4.37347382 -37.75592074 1.00926089 -30.5859375 -1.2890625 C-20.31245796 -4.11349343 -9.83851807 -4.16313423 0 0 Z " fill="#F5FCF5" transform="translate(232,251)"/>
<path d="M0 0 C4.04069714 3.27761584 6.86189631 6.40927736 8.671875 11.38671875 C8.671875 12.37671875 8.671875 13.36671875 8.671875 14.38671875 C9.331875 14.38671875 9.991875 14.38671875 10.671875 14.38671875 C11.166875 17.85171875 11.166875 17.85171875 11.671875 21.38671875 C12.331875 21.38671875 12.991875 21.38671875 13.671875 21.38671875 C14.71596633 27.36952781 14.82186759 33.19685064 14.796875 39.26171875 C14.80074219 40.22335938 14.80460938 41.185 14.80859375 42.17578125 C14.80730469 43.0884375 14.80601562 44.00109375 14.8046875 44.94140625 C14.80355957 45.77140137 14.80243164 46.60139648 14.80126953 47.45654297 C14.671875 49.38671875 14.671875 49.38671875 13.671875 50.38671875 C11.5864568 50.51058215 9.49687359 50.56470942 7.40795898 50.59204102 C6.75432373 50.60194061 6.10068848 50.61184021 5.42724609 50.62203979 C3.25752436 50.65373509 1.0877807 50.67844367 -1.08203125 50.703125 C-2.58276452 50.72368762 -4.0834919 50.7446839 -5.58421326 50.76609802 C-9.54124193 50.8213903 -13.49832349 50.87076786 -17.45544434 50.91894531 C-21.4905266 50.96910825 -25.52553172 51.02482143 -29.56054688 51.08007812 C-37.48300777 51.18774715 -45.40553304 51.28917254 -53.328125 51.38671875 C-53.658125 55.01671875 -53.988125 58.64671875 -54.328125 62.38671875 C-53.668125 62.38671875 -53.008125 62.38671875 -52.328125 62.38671875 C-51.998125 64.69671875 -51.668125 67.00671875 -51.328125 69.38671875 C-50.668125 69.38671875 -50.008125 69.38671875 -49.328125 69.38671875 C-49.03679688 69.97839844 -48.74546875 70.57007813 -48.4453125 71.1796875 C-45.4653674 76.92404707 -42.72528517 81.70232272 -36.390625 84.12890625 C-34.72258221 84.61990272 -33.02631969 85.01311592 -31.328125 85.38671875 C-31.328125 86.04671875 -31.328125 86.70671875 -31.328125 87.38671875 C-27.68207198 87.24608592 -24.03634361 87.09825057 -20.390625 86.94921875 C-19.36904297 86.90990234 -18.34746094 86.87058594 -17.29492188 86.83007812 C-8.66803754 86.47177302 -0.59868938 85.91852417 7.671875 83.38671875 C8.331875 83.38671875 8.991875 83.38671875 9.671875 83.38671875 C9.671875 86.68671875 9.671875 89.98671875 9.671875 93.38671875 C4.68877467 95.75498909 0.18242735 97.01861886 -5.328125 97.57421875 C-6.06361572 97.65317383 -6.79910645 97.73212891 -7.55688477 97.81347656 C-22.88863551 99.33365445 -37.26267026 99.54620795 -50.328125 90.38671875 C-55.78065608 85.44564787 -59.44147348 80.09156175 -62.328125 73.38671875 C-62.8382312 72.33484375 -62.8382312 72.33484375 -63.35864258 71.26171875 C-66.55947774 64.22240817 -66.91391197 57.98571208 -66.765625 50.32421875 C-66.7545874 49.14206787 -66.7435498 47.95991699 -66.73217773 46.74194336 C-66.55388642 37.36663204 -65.5039955 28.50733656 -63.328125 19.38671875 C-63.16828125 18.61972656 -63.0084375 17.85273438 -62.84375 17.0625 C-62.06128094 14.51947556 -60.2193761 13.2239341 -58.328125 11.38671875 C-57.73 10.43796875 -57.131875 9.48921875 -56.515625 8.51171875 C-51.3649971 1.15367889 -44.57524613 -3.3247765 -35.85595703 -5.18554688 C-23.85224366 -7.21669482 -10.24546853 -7.09962836 0 0 Z " fill="#0DB70D" transform="translate(699.328125,205.61328125)"/>
<path d="M0 0 C6.87770872 0.09029815 12.83375662 0.32869243 18.0703125 5.16015625 C20.36424284 7.71877086 22.45921648 10.16843297 24 13.25 C25.65 13.25 27.3 13.25 29 13.25 C29 12.59 29 11.93 29 11.25 C29.58265625 11.01925781 30.1653125 10.78851563 30.765625 10.55078125 C36.68222334 8.19716587 42.56518009 5.77209496 48.43359375 3.30078125 C53.76571493 1.11761443 58.18452155 1.03237826 63.875 1 C64.77347656 0.979375 65.67195313 0.95875 66.59765625 0.9375 C72.66985023 0.90162293 76.10180024 1.61223755 80.6953125 5.79296875 C81.40300781 6.60701172 81.40300781 6.60701172 82.125 7.4375 C82.84042969 8.23220703 82.84042969 8.23220703 83.5703125 9.04296875 C87.51532178 15.13294209 88.44008845 20.89319612 88.34057617 27.9609375 C88.34101425 28.79115921 88.34145233 29.62138092 88.34190369 30.47676086 C88.33983067 33.1930884 88.31657073 35.90878166 88.29296875 38.625 C88.28736749 40.51928368 88.2830999 42.41357173 88.28010559 44.30786133 C88.26869854 49.27272726 88.23926725 54.23732629 88.20599365 59.2020874 C88.17520322 64.2766153 88.16158113 69.35118669 88.14648438 74.42578125 C88.11439337 84.3673042 88.06324745 94.30862983 88 104.25 C84.04 104.25 80.08 104.25 76 104.25 C75.99857498 103.2655188 75.99714996 102.2810376 75.99568176 101.26672363 C75.97897952 91.96838785 75.93610759 82.6704879 75.86790943 73.37238312 C75.8336845 68.59259319 75.80853646 63.81312136 75.80444336 59.03320312 C75.80015075 54.41634789 75.77160854 49.80020968 75.72656822 45.18357849 C75.71362391 43.42626631 75.70927464 41.66886819 75.71384621 39.91151428 C75.73461885 29.49751787 75.69069054 22.17487534 68.1015625 14.2734375 C62.00494399 11.30445228 53.16166212 12.65402749 46.8125 14.4375 C40.28901044 16.70560068 33.75405006 19.41396663 28 23.25 C27.68380955 25.87925352 27.56258838 28.27858854 27.56762695 30.91259766 C27.5574353 31.70292892 27.54724365 32.49326019 27.53674316 33.30754089 C27.50648792 35.92645236 27.49732834 38.54499886 27.48828125 41.1640625 C27.47144381 42.97725655 27.45329485 44.79043886 27.43388367 46.60360718 C27.38627583 51.38098482 27.3565364 56.1583149 27.33044434 60.93585205 C27.30069303 65.80889283 27.25414418 70.68176947 27.20898438 75.5546875 C27.12282869 85.119706 27.05553815 94.68475817 27 104.25 C22.71 104.25 18.42 104.25 14 104.25 C13.99453156 102.72903214 13.99453156 102.72903214 13.98895264 101.17733765 C13.95198386 91.61352166 13.89419058 82.0500271 13.81609726 72.48645592 C13.77661696 67.56989599 13.74443117 62.65351531 13.72900391 57.73681641 C13.713841 52.99036952 13.67940189 48.24441542 13.63169098 43.49818802 C13.61687342 41.6889843 13.60895877 39.87971022 13.60811615 38.07044601 C13.60574583 35.53259727 13.57866233 32.99610966 13.54589844 30.45849609 C13.5509288 29.71330719 13.55595917 28.96811829 13.56114197 28.2003479 C13.45938493 23.09371358 12.20565979 20.19105413 9 16.25 C3.48986724 12.01143634 -3.37585506 12.63304532 -10 13.25 C-12.8865667 13.99063224 -15.25413633 15.0190956 -18 16.25 C-19.7015625 16.7140625 -19.7015625 16.7140625 -21.4375 17.1875 C-25.76391321 18.47783376 -29.874385 20.41639333 -34 22.25 C-34.33 49.31 -34.66 76.37 -35 104.25 C-39.29 104.25 -43.58 104.25 -48 104.25 C-48 70.59 -48 36.93 -48 2.25 C-44.7 2.25 -41.4 2.25 -38 2.25 C-36.34623289 3.90376711 -36.36528792 6.05948364 -35.9375 8.3125 C-35.76089844 9.23160156 -35.58429688 10.15070313 -35.40234375 11.09765625 C-35.26957031 11.80792969 -35.13679688 12.51820313 -35 13.25 C-34.40316406 12.80269531 -33.80632812 12.35539063 -33.19140625 11.89453125 C-25.91689434 6.82507198 -18.93775647 4.43723173 -10.4296875 2.1953125 C-2.59567267 0.03605101 -2.59567267 0.03605101 0 0 Z " fill="#0FB80F" transform="translate(1065,197.75)"/>
<path d="M0 0 C1.41249023 -0.01836914 1.41249023 -0.01836914 2.85351562 -0.03710938 C8.61315177 -0.04913367 13.39952263 0.63869518 18.9375 2.1875 C21.43189009 2.59816178 23.93212981 2.97523863 26.4375 3.3125 C28.27828125 3.56386719 28.27828125 3.56386719 30.15625 3.8203125 C31.53296875 4.00207031 31.53296875 4.00207031 32.9375 4.1875 C32.9375 7.8175 32.9375 11.4475 32.9375 15.1875 C31.2875 14.8575 29.6375 14.5275 27.9375 14.1875 C18.89492834 12.53816231 10.06312198 11.7683191 0.875 11.6875 C-0.30126953 11.64625 -1.47753906 11.605 -2.68945312 11.5625 C-11.59818228 11.48370527 -17.41336406 13.80030328 -25.0625 18.1875 C-26.0525 18.5175 -27.0425 18.8475 -28.0625 19.1875 C-29.12966704 20.98682579 -29.12966704 20.98682579 -30.0625 23.1875 C-30.5678125 23.88746094 -31.073125 24.58742187 -31.59375 25.30859375 C-33.49610916 29.03742008 -33.59653635 32.40354572 -33.5625 36.5 C-33.55895508 37.25821045 -33.55541016 38.0164209 -33.55175781 38.79760742 C-33.37609801 44.70194061 -32.24341913 48.84154459 -28.0625 53.1875 C-27.49144531 53.82816406 -26.92039062 54.46882813 -26.33203125 55.12890625 C-23.48413768 57.71210747 -20.37278601 59.51714268 -17 61.3125 C-16.33967773 61.66650879 -15.67935547 62.02051758 -14.99902344 62.38525391 C-10.16324271 64.86865073 -5.67560621 66.25883722 -0.234375 66.8359375 C1.9375 67.1875 1.9375 67.1875 4.9375 69.1875 C7.23851925 69.77813596 9.54300768 70.19540946 11.87890625 70.625 C13.9375 71.1875 13.9375 71.1875 15.9375 73.1875 C16.96875 73.6 18 74.0125 19.0625 74.4375 C22.86474223 75.99800358 25.88316137 78.1847165 29.0859375 80.73828125 C31.01934717 82.31626836 31.01934717 82.31626836 33.6875 83.8125 C41.06116966 91.59581798 40.40445485 102.94148986 40.17578125 112.96484375 C40.04585623 116.12681565 39.70336433 119.10536306 38.9375 122.1875 C38.2775 122.1875 37.6175 122.1875 36.9375 122.1875 C36.710625 122.88875 36.48375 123.59 36.25 124.3125 C34.61541204 127.89302601 32.5216965 130.21567402 29.9375 133.1875 C29.2775 134.1775 28.6175 135.1675 27.9375 136.1875 C25.50390625 137.46875 25.50390625 137.46875 22.5 138.6875 C21.53191406 139.0896875 20.56382812 139.491875 19.56640625 139.90625 C10.31580754 143.17233867 2.208764 144.66107661 -7.625 144.5 C-8.7588916 144.4894458 -9.8927832 144.4788916 -11.06103516 144.46801758 C-24.78818111 144.25337917 -37.80652538 142.92636464 -51.0625 139.1875 C-51.0625 135.2275 -51.0625 131.2675 -51.0625 127.1875 C-44.64754519 127.73114024 -38.61708571 128.90920145 -32.37109375 130.46875 C-24.32033835 132.21767443 -16.40143893 132.42959481 -8.1875 132.5 C-7.06730469 132.52900391 -5.94710937 132.55800781 -4.79296875 132.58789062 C2.8531677 132.64588349 10.47866293 131.97261725 16.55004883 126.81860352 C17.69597806 125.62410902 18.81898265 124.40770074 19.9375 123.1875 C20.9275 123.1875 21.9175 123.1875 22.9375 123.1875 C25.83807789 115.38356425 27.88801565 106.89252934 25.10546875 98.75390625 C22.53855487 93.51432547 20.00739346 90.17743717 14.9375 87.1875 C14.6075 86.5275 14.2775 85.8675 13.9375 85.1875 C6.59048091 81.36635532 -1.83546184 79.23221483 -9.68359375 76.640625 C-13.32111716 75.43728104 -16.94955762 74.21321615 -20.5625 72.9375 C-21.3978125 72.64359375 -22.233125 72.3496875 -23.09375 72.046875 C-25.0625 71.1875 -25.0625 71.1875 -27.0625 69.1875 C-28.78998207 68.47043197 -30.51755278 67.75357422 -32.24609375 67.0390625 C-34.8977582 65.79591659 -36.9381217 64.18691487 -39.0625 62.1875 C-39.5575 60.7025 -39.5575 60.7025 -40.0625 59.1875 C-40.866875 58.424375 -41.67125 57.66125 -42.5 56.875 C-47.7087238 51.41219212 -47.43061571 44.93674501 -47.34912109 37.79443359 C-47.05836474 25.99478242 -44.56604797 18.72422829 -36.33984375 10.171875 C-34.0625 8.1875 -34.0625 8.1875 -32.0625 8.1875 C-32.0625 7.5275 -32.0625 6.8675 -32.0625 6.1875 C-30.25698642 5.35959106 -28.44260418 4.55101657 -26.625 3.75 C-25.11099609 3.07130859 -25.11099609 3.07130859 -23.56640625 2.37890625 C-15.95827389 -0.20802839 -7.96377672 0.00547339 0 0 Z " fill="#0BB60B" transform="translate(421.0625,159.8125)"/>
<path d="M0 0 C5.07978613 3.30794456 9.20939792 8.03822928 11.484375 13.69921875 C12.49070451 18.50785379 12.62092352 23.19957143 12.59790039 28.09130859 C12.59804642 28.91148468 12.59819244 29.73166077 12.5983429 30.57669067 C12.59764962 33.27120667 12.58988472 35.96565242 12.58203125 38.66015625 C12.58016499 40.53488121 12.57874207 42.40960665 12.57774353 44.28433228 C12.57393473 49.20637368 12.56411846 54.12838534 12.55303955 59.05041504 C12.54279019 64.07787677 12.53823837 69.10534332 12.53320312 74.1328125 C12.52249468 83.98829428 12.50543797 93.84375404 12.484375 103.69921875 C8.194375 103.69921875 3.904375 103.69921875 -0.515625 103.69921875 C-0.515625 76.30921875 -0.515625 48.91921875 -0.515625 20.69921875 C-1.175625 20.69921875 -1.835625 20.69921875 -2.515625 20.69921875 C-2.680625 19.81234375 -2.845625 18.92546875 -3.015625 18.01171875 C-4.7753865 14.12557877 -6.25141373 12.6879005 -9.90234375 10.60546875 C-15.29414969 8.7356646 -20.9013593 9.32224168 -26.515625 9.69921875 C-27.7325 9.74046875 -28.949375 9.78171875 -30.203125 9.82421875 C-34.44772816 10.94543468 -37.86280049 12.95705715 -41.65625 15.13671875 C-45.17451746 17.05926928 -48.77594161 18.51793081 -52.51953125 19.9375 C-54.54532271 20.67284385 -54.54532271 20.67284385 -56.515625 21.69921875 C-56.845625 48.09921875 -57.175625 74.49921875 -57.515625 101.69921875 C-61.475625 101.69921875 -65.435625 101.69921875 -69.515625 101.69921875 C-69.515625 68.36921875 -69.515625 35.03921875 -69.515625 0.69921875 C-66.215625 0.69921875 -62.915625 0.69921875 -59.515625 0.69921875 C-58.3578744 4.17247056 -58.44695848 7.05989323 -58.515625 10.69921875 C-56.89096378 10.08997079 -55.26641365 9.48042542 -53.64233398 8.86962891 C-52.20096321 8.33054201 -50.75769192 7.79651436 -49.31274414 7.26708984 C-45.7153984 5.94152715 -42.17859797 4.57703837 -38.69921875 2.96484375 C-26.96736674 -2.29897621 -12.33121551 -4.56254974 0 0 Z " fill="#08B508" transform="translate(811.515625,200.30078125)"/>
<path d="M0 0 C3.96 0 7.92 0 12 0 C13.95365306 1.95365306 13.12022124 4.93399752 13.12442017 7.53401184 C13.11902725 8.94525581 13.11902725 8.94525581 13.11352539 10.38500977 C13.11367142 11.37026642 13.11381744 12.35552307 13.1139679 13.37063599 C13.11326832 16.64424807 13.10547385 19.91780404 13.09765625 23.19140625 C13.09579223 25.45442168 13.09436825 27.71743751 13.09336853 29.98045349 C13.0895421 35.94978948 13.07971075 41.91910132 13.06866455 47.88842773 C13.05845312 53.97444329 13.05387149 60.06046273 13.04882812 66.14648438 C13.03808859 78.09766689 13.02101068 90.04883144 13 102 C9.37 102 5.74 102 2 102 C2 98.04 2 94.08 2 90 C-8.71067762 94.10114797 -8.71067762 94.10114797 -19.0078125 99.1171875 C-21 100 -21 100 -25 100 C-25 100.66 -25 101.32 -25 102 C-36.37318519 104.64822607 -48.57118807 106.53065628 -59.03515625 100.3671875 C-61.34913375 98.75706399 -63.32409021 97.28533153 -65 95 C-65 94.01 -65 93.02 -65 92 C-65.66 92 -66.32 92 -67 92 C-68.61134389 86.3329859 -69.28356784 81.34674989 -69.22705078 75.47265625 C-69.22734283 74.66194168 -69.22763489 73.85122711 -69.22793579 73.01594543 C-69.22655431 70.36468399 -69.21104944 67.7137117 -69.1953125 65.0625 C-69.19157816 63.21305495 -69.18873318 61.3636079 -69.18673706 59.51416016 C-69.17913377 54.6677292 -69.15951392 49.82141984 -69.1373291 44.97503662 C-69.11679922 40.02113489 -69.10772012 35.06721334 -69.09765625 30.11328125 C-69.07626469 20.40880101 -69.04216898 10.70441065 -69 1 C-65.04 1 -61.08 1 -57 1 C-57 27.73 -57 54.46 -57 82 C-56.34 82 -55.68 82 -55 82 C-54.38151042 83.72526042 -53.76302083 85.45052083 -53.14453125 87.17578125 C-51.4916238 89.8102788 -49.8168922 90.70712876 -47 92 C-29.59898046 93.95446234 -16.59691581 87.27856071 -1 80 C-0.67 53.6 -0.34 27.2 0 0 Z " fill="#0EB70E" transform="translate(971,200)"/>
<path d="M0 0 C4.29 0 8.58 0 13 0 C13 50.49 13 100.98 13 153 C8.71 153 4.42 153 0 153 C0 102.51 0 52.02 0 0 Z " fill="#0FB80F" transform="translate(591,149)"/>
<path d="M0 0 C2.31004051 2.00721167 4.0282633 3.94129846 5.76171875 6.45703125 C6.20257812 7.04226562 6.6434375 7.6275 7.09765625 8.23046875 C12.76559742 16.79267775 11.76171875 26.51220344 11.76171875 36.45703125 C-7.04828125 36.45703125 -25.85828125 36.45703125 -45.23828125 36.45703125 C-45.23828125 25.20703125 -45.23828125 25.20703125 -43.23828125 19.45703125 C-42.57828125 19.45703125 -41.91828125 19.45703125 -41.23828125 19.45703125 C-41.12613281 18.75578125 -41.01398437 18.05453125 -40.8984375 17.33203125 C-39.23269691 9.3190569 -36.06177143 4.97957707 -29.23828125 0.45703125 C-21.59029016 -3.72850569 -7.75315787 -3.69420671 0 0 Z " fill="#FCFEFC" transform="translate(690.23828125,210.54296875)"/>
<path d="M0 0 C0.45246094 0.3609375 0.90492188 0.721875 1.37109375 1.09375 C1.37109375 2.41375 1.37109375 3.73375 1.37109375 5.09375 C2.03109375 5.09375 2.69109375 5.09375 3.37109375 5.09375 C7.70741086 15.2992219 8.37109375 21.48304135 8.37109375 33.09375 C-10.10890625 33.09375 -28.58890625 33.09375 -47.62890625 33.09375 C-46.50390625 20.71875 -46.50390625 20.71875 -45.06640625 16.40625 C-44.79699219 15.57738281 -44.52757812 14.74851563 -44.25 13.89453125 C-44.04503906 13.30027344 -43.84007812 12.70601562 -43.62890625 12.09375 C-42.96890625 12.09375 -42.30890625 12.09375 -41.62890625 12.09375 C-41.47421875 10.98386719 -41.47421875 10.98386719 -41.31640625 9.8515625 C-40.01891824 4.64686628 -36.24944147 0.74940196 -31.76171875 -2.0859375 C-22.13014131 -6.02101778 -8.6297582 -5.87280331 0 0 Z " fill="#F9FDF9" transform="translate(542.62890625,212.90625)"/>
<path d="M0 0 C3.96 0 7.92 0 12 0 C13.95365306 1.95365306 13.12022124 4.93399752 13.12442017 7.53401184 C13.12082489 8.47484116 13.11722961 9.41567047 13.11352539 10.38500977 C13.11367142 11.37026642 13.11381744 12.35552307 13.1139679 13.37063599 C13.11326832 16.64424807 13.10547385 19.91780404 13.09765625 23.19140625 C13.09579223 25.45442168 13.09436825 27.71743751 13.09336853 29.98045349 C13.0895421 35.94978948 13.07971075 41.91910132 13.06866455 47.88842773 C13.05845312 53.97444329 13.05387149 60.06046273 13.04882812 66.14648438 C13.03808859 78.09766689 13.02101068 90.04883144 13 102 C8.71 102 4.42 102 0 102 C0 68.34 0 34.68 0 0 Z " fill="#10B810" transform="translate(856,200)"/>
<path d="M0 0 C0.33 0 0.66 0 1 0 C1 88.77 1 177.54 1 269 C85.48 269 169.96 269 257 269 C256.505 155.645 256.505 155.645 256 40 C253.03 42.64 250.06 45.28 247 48 C247 45 247 45 248.64453125 42.95703125 C249.71767578 41.89548828 249.71767578 41.89548828 250.8125 40.8125 C251.52019531 40.09707031 252.22789062 39.38164062 252.95703125 38.64453125 C255 37 255 37 258 37 C258 113.89 258 190.78 258 270 C172.86 270 87.72 270 0 270 C0 180.9 0 91.8 0 0 Z " fill="#49C849" transform="translate(46,95)"/>
<path d="M0 0 C4.5620531 2.69134661 9.0576262 6.45636494 11.64453125 11.12890625 C12.13953125 14.59390625 12.13953125 14.59390625 12.64453125 18.12890625 C-0.88546875 18.12890625 -14.41546875 18.12890625 -28.35546875 18.12890625 C-28.35546875 11.74173525 -26.24243901 8.06639849 -21.79296875 3.5390625 C-15.77034395 -1.65545139 -7.52171611 -2.78166284 0 0 Z " fill="#13B913" transform="translate(224.35546875,265.87109375)"/>
<path d="M0 0 C2.24171334 1.75438435 2.9500037 2.78050612 3.59056091 5.59268188 C4.0647703 9.53901308 4.13219739 13.42483913 4.11352539 17.39208984 C4.11367142 18.21226593 4.11381744 19.03244202 4.1139679 19.87747192 C4.11327462 22.57198792 4.10550972 25.26643367 4.09765625 27.9609375 C4.09578999 29.83566246 4.09436707 31.7103879 4.09336853 33.58511353 C4.08955973 38.50715493 4.07974346 43.42916659 4.06866455 48.35119629 C4.05841519 53.37865802 4.05386337 58.40612457 4.04882812 63.43359375 C4.03811968 73.28907553 4.02106297 83.14453529 4 93 C-0.29 93 -4.58 93 -9 93 C-9 66.93 -9 40.86 -9 14 C-8.67 14 -8.34 14 -8 14 C-8 39.08 -8 64.16 -8 90 C-4.7 90 -1.4 90 2 90 C2 61.62 2 33.24 2 4 C1.34 4 0.68 4 0 4 C0 2.68 0 1.36 0 0 Z " fill="#50CA50" transform="translate(820,211)"/>
<path d="M0 0 C0 76.56 0 153.12 0 232 C-0.33 232 -0.66 232 -1 232 C-1.33 156.43 -1.66 80.86 -2 3 C-6.455 6.96 -6.455 6.96 -11 11 C-11 8 -11 8 -9.35546875 5.95703125 C-8.64003906 5.24933594 -7.92460937 4.54164063 -7.1875 3.8125 C-6.47980469 3.09707031 -5.77210938 2.38164062 -5.04296875 1.64453125 C-3 0 -3 0 0 0 Z " fill="#39C339" transform="translate(304,132)"/>
<path d="M0 0 C2.5 1.4375 2.5 1.4375 4 4 C4.53508036 7.08785958 4.76461657 9.94715592 4 13 C1.88380174 15.16440323 0.52092088 15.91606014 -2.47265625 16.3984375 C-3.32730469 16.39070313 -4.18195312 16.38296875 -5.0625 16.375 C-5.91972656 16.38273437 -6.77695312 16.39046875 -7.66015625 16.3984375 C-10 16 -10 16 -11.77734375 14.75390625 C-13.73702452 11.94273479 -13.5366306 9.49963288 -13.40625 6.1640625 C-13 4 -13 4 -11 1.4375 C-6.85472611 -0.54877707 -4.58321396 -0.58199542 0 0 Z " fill="#0BB60B" transform="translate(867,161)"/>
<path d="M0 0 C0.66 0.33 1.32 0.66 2 1 C1.38125 1.0825 0.7625 1.165 0.125 1.25 C-2.17381462 1.80607909 -2.17381462 1.80607909 -3.1875 4 C-3.455625 4.66 -3.72375 5.32 -4 6 C-4.33 6.33 -4.66 6.66 -5 7 C-5.12495027 9.463493 -5.18602203 11.90036767 -5.20532227 14.36547852 C-5.21522186 15.13615662 -5.22512146 15.90683472 -5.23532104 16.7008667 C-5.26702701 19.26018147 -5.2917292 21.81951483 -5.31640625 24.37890625 C-5.33696794 26.14868159 -5.35796419 27.91845194 -5.37937927 29.68821716 C-5.43468109 34.3554582 -5.48405446 39.02274414 -5.53222656 43.69006348 C-5.58238253 48.44901546 -5.63809934 53.20790191 -5.69335938 57.96679688 C-5.80104008 67.31114198 -5.90246288 76.6555439 -6 86 C-6.66 86 -7.32 86 -8 86 C-8.11580971 75.50811332 -8.20467261 65.01637847 -8.25906086 54.523983 C-8.28516364 49.65198962 -8.32057402 44.78043325 -8.37719727 39.90869141 C-8.43149292 35.20783438 -8.4614154 30.50739789 -8.47438622 25.80625153 C-8.48363053 24.01203031 -8.50168269 22.21783233 -8.52865028 20.42378998 C-8.56490935 17.91190217 -8.56994686 15.40175551 -8.56762695 12.88964844 C-8.59459152 11.77510536 -8.59459152 11.77510536 -8.62210083 10.63804626 C-8.58439114 6.86865167 -8.31327116 5.32429532 -5.65202332 2.56939697 C-3 1 -3 1 0 0 Z " fill="#D7F3D7" transform="translate(1100,216)"/>
<path d="M0 0 C0.33 0 0.66 0 1 0 C2 5 2 5 2 19 C-16.81 19 -35.62 19 -55 19 C-55 7.75 -55 7.75 -53 2 C-52.67 2 -52.34 2 -52 2 C-51.97284617 3.74991334 -51.95353449 5.49994945 -51.9375 7.25 C-51.92589844 8.22453125 -51.91429687 9.1990625 -51.90234375 10.203125 C-52 13 -52 13 -53 17 C-35.18 17 -17.36 17 1 17 C0.67 11.39 0.34 5.78 0 0 Z " fill="#B7E9B7" transform="translate(700,228)"/>
<path d="M0 0 C0.66829834 0.06582275 1.33659668 0.13164551 2.02514648 0.19946289 C18.03709894 1.73651143 33.04166127 2.39990441 49 0 C48 2 48 2 46.0859375 2.8515625 C31.39642648 7.04251809 14.11933341 7.07050035 0 1 C0 0.67 0 0.34 0 0 Z " fill="#9FE2A0" transform="translate(92,331)"/>
<path d="M0 0 C1.39702148 0.00966797 1.39702148 0.00966797 2.82226562 0.01953125 C3.78197266 0.03628906 4.74167969 0.05304688 5.73046875 0.0703125 C6.70951172 0.07933594 7.68855469 0.08835938 8.69726562 0.09765625 C11.10441936 0.12114068 13.51106618 0.1539841 15.91796875 0.1953125 C16.41296875 1.1853125 16.41296875 1.1853125 16.91796875 2.1953125 C16.34876709 2.17436523 15.77956543 2.15341797 15.19311523 2.13183594 C12.58075059 2.04800256 9.96866991 1.99644432 7.35546875 1.9453125 C6.46021484 1.91179687 5.56496094 1.87828125 4.64257812 1.84375 C-2.81582661 1.73446934 -6.83259424 3.25202079 -12.4453125 8.3359375 C-13.08855469 9.03203125 -13.73179687 9.728125 -14.39453125 10.4453125 C-15.58760814 11.72980393 -16.80921168 12.98979144 -18.08203125 14.1953125 C-18.74203125 14.1953125 -19.40203125 14.1953125 -20.08203125 14.1953125 C-18.73690089 8.64664978 -14.55589341 5.39553462 -10.08203125 2.1953125 C-6.57693889 0.55500016 -3.85940138 -0.04735462 0 0 Z " fill="#8EDD8E" transform="translate(671.08203125,208.8046875)"/>
<path d="M0 0 C-0.66 0.33 -1.32 0.66 -2 1 C-2.66 0.67 -3.32 0.34 -4 0 C-15.59766238 -0.73446168 -26.14902265 0.9811195 -37 5 C-35.03323882 1.06647764 -29.89626254 -0.33853069 -26 -2 C-17.89890365 -4.02527409 -6.99970904 -5.01865932 0 0 Z " fill="#8DDD8D" transform="translate(804,212)"/>
<path d="M0 0 C7.52592433 0.6377902 14.67098882 2.19889833 22 4 C22 4.33 22 4.66 22 5 C19.60325733 4.88543872 17.20818782 4.75871281 14.8125 4.625 C14.13896484 4.5940625 13.46542969 4.563125 12.77148438 4.53125 C8.80321025 4.29896078 5.59270121 3.71612524 2 2 C2 5.3 2 8.6 2 12 C1.34 12 0.68 12 0 12 C0 8.04 0 4.08 0 0 Z " fill="#62CF62" transform="translate(370,287)"/>
<path d="M0 0 C0.66 0.33 1.32 0.66 2 1 C1.38125 1.0825 0.7625 1.165 0.125 1.25 C-2.14204641 1.77067982 -2.14204641 1.77067982 -2.85546875 3.75390625 C-4.30144038 6.59156389 -6.18153348 8.44635099 -8.4375 10.6875 C-9.21996094 11.47511719 -10.00242188 12.26273437 -10.80859375 13.07421875 C-13 15 -13 15 -16 16 C-15.67 14.68 -15.34 13.36 -15 12 C-14.34 12 -13.68 12 -13 12 C-12.75121094 11.41605469 -12.50242188 10.83210938 -12.24609375 10.23046875 C-10.82504563 7.68683716 -9.26807085 6.20592302 -7.0625 4.3125 C-6.02802734 3.40951172 -6.02802734 3.40951172 -4.97265625 2.48828125 C-3 1 -3 1 0 0 Z " fill="#B5E9B5" transform="translate(196,252)"/>
<path d="M0 0 C4.92003285 0.61263567 9.52999048 1.57620567 14.3125 2.9375 C15.52550781 3.27652344 16.73851563 3.61554688 17.98828125 3.96484375 C21 5 21 5 23 7 C5.25423729 5.02824859 5.25423729 5.02824859 0 1 C0 0.67 0 0.34 0 0 Z " fill="#9AE09A" transform="translate(92,281)"/>
<path d="M0 0 C0 0.66 0 1.32 0 2 C-0.99 2 -1.98 2 -3 2 C-3.24492188 2.58265625 -3.48984375 3.1653125 -3.7421875 3.765625 C-5.20435874 6.36302236 -6.84740414 7.83975831 -9.125 9.75 C-10.21167969 10.67039063 -10.21167969 10.67039063 -11.3203125 11.609375 C-11.87460937 12.06828125 -12.42890625 12.5271875 -13 13 C-13.33 12.34 -13.66 11.68 -14 11 C-4.93349169 0 -4.93349169 0 0 0 Z " fill="#49C849" transform="translate(656,204)"/>
<path d="M0 0 C0.33 0.66 0.66 1.32 1 2 C-0.2375 2.0825 -1.475 2.165 -2.75 2.25 C-5.70588266 2.6319105 -6.92403793 2.94741088 -9.4375 4.6875 C-11.31457921 7.46557723 -11.69892456 9.6881702 -12 13 C-12.33 13 -12.66 13 -13 13 C-13.77046549 4.98715891 -13.77046549 4.98715891 -11 1.4375 C-7.02032585 -0.4694272 -4.37958988 -0.29692135 0 0 Z " fill="#5BCD5B" transform="translate(867,161)"/>
<path d="M0 0 C0 3.3 0 6.6 0 10 C-0.33 10 -0.66 10 -1 10 C-1 7.03 -1 4.06 -1 1 C-2.299375 1.495 -3.59875 1.99 -4.9375 2.5 C-9.80755827 4.14654351 -13.88763177 4.24344611 -19 4 C-19 3.67 -19 3.34 -19 3 C-12.49577707 0.99134292 -6.8218683 -0.38614349 0 0 Z " fill="#88DB88" transform="translate(710,288)"/>
<path d="M0 0 C0.66 0.33 1.32 0.66 2 1 C1.2575 1.70125 0.515 2.4025 -0.25 3.125 C-5.63419541 8.75393157 -7.59844578 12.75595612 -7.75 20.375 C-7.77964844 21.11105469 -7.80929687 21.84710938 -7.83984375 22.60546875 C-7.90988033 24.4030743 -7.95728119 26.2015379 -8 28 C-8.33 28 -8.66 28 -9 28 C-9.10861833 25.29057607 -9.18758577 22.585561 -9.25 19.875 C-9.28351563 19.11445313 -9.31703125 18.35390625 -9.3515625 17.5703125 C-9.47139344 10.62011777 -7.04965896 7.14282528 -2.25 2.125 C-1.5075 1.42375 -0.765 0.7225 0 0 Z " fill="#9AE09A" transform="translate(396,177)"/>
<path d="M0 0 C0.33 0 0.66 0 1 0 C1 3.96 1 7.92 1 12 C-5.58868105 11.50584892 -11.64564211 10.79840318 -18 9 C-18 8.67 -18 8.34 -18 8 C-11.19796625 7.62365797 -6.24309927 8.22528921 0 11 C0 7.37 0 3.74 0 0 Z " fill="#8BDC8B" transform="translate(454,164)"/>
<path d="M0 0 C2.1640625 0.3671875 2.1640625 0.3671875 4 1 C2.54782324 2.50596108 1.08807139 4.00462104 -0.375 5.5 C-1.18710937 6.3353125 -1.99921875 7.170625 -2.8359375 8.03125 C-5 10 -5 10 -7 10 C-5.61166236 5.58256205 -3.60286648 2.9166062 0 0 Z " fill="#B5E9B5" transform="translate(658,213)"/>
<path d="M0 0 C8.1427692 -0.61756957 14.30079244 -1.06313611 20.7421875 4.39453125 C22 6 22 6 22 9 C21.195625 8.1028125 21.195625 8.1028125 20.375 7.1875 C14.27137733 1.56574228 7.95810488 1.37343858 0 1 C0 0.67 0 0.34 0 0 Z " fill="#C3EDC3" transform="translate(210,264)"/>
<path d="M0 0 C0.66 0.33 1.32 0.66 2 1 C0.5484451 2.67257355 -0.91144409 4.33791758 -2.375 6 C-3.18710938 6.928125 -3.99921875 7.85625 -4.8359375 8.8125 C-5.55007812 9.534375 -6.26421875 10.25625 -7 11 C-7.66 11 -8.32 11 -9 11 C-9.33 11.99 -9.66 12.98 -10 14 C-10.33 13.34 -10.66 12.68 -11 12 C-3.70159453 3.55353075 -3.70159453 3.55353075 0 0 Z " fill="#B3E8B3" transform="translate(89,225)"/>
<path d="M0 0 C0.66 0.33 1.32 0.66 2 1 C0.75796305 2.46512126 -0.49397056 3.92185645 -1.75 5.375 C-2.44609375 6.18710938 -3.1421875 6.99921875 -3.859375 7.8359375 C-5.85949643 9.85795807 -7.39531129 10.93231229 -10 12 C-9.1875 9.5625 -9.1875 9.5625 -8 7 C-7.01 6.67 -6.02 6.34 -5 6 C-5 5.34 -5 4.68 -5 4 C-3.37373596 2.61767557 -1.7074998 1.28062485 0 0 Z " fill="#56CC56" transform="translate(501,205)"/>
<path d="M0 0 C2.4375 0.375 2.4375 0.375 5 1 C5.33 1.66 5.66 2.32 6 3 C4.8553125 3.1546875 4.8553125 3.1546875 3.6875 3.3125 C0.82940576 4.04364039 -0.15742885 4.76951913 -2 7 C-2.66 6.67 -3.32 6.34 -4 6 C-2.68 4.02 -1.36 2.04 0 0 Z " fill="#BFECBF" transform="translate(82,301)"/>
<path d="M0 0 C0.33 0 0.66 0 1 0 C1 2.64 1 5.28 1 8 C1.66 8 2.32 8 3 8 C3.33 11.3 3.66 14.6 4 18 C2 15 2 15 2 11 C1.34 11 0.68 11 0 11 C0 7.37 0 3.74 0 0 Z " fill="#A8E5A8" transform="translate(645,257)"/>
<path d="M0 0 C2.70269923 2.70269923 3.70570258 5.4252738 5 9 C4.6875 11.4375 4.6875 11.4375 4 13 C0.88303339 8.66335081 0.44033187 5.19591612 0 0 Z " fill="#77D677" transform="translate(557,215)"/>
<path d="M0 0 C4.12751449 0.60698743 7.3321148 2.03810791 11 4 C9 5 9 5 6.8359375 4.44140625 C6.02382813 4.15136719 5.21171875 3.86132812 4.375 3.5625 C3.55773437 3.27503906 2.74046875 2.98757812 1.8984375 2.69140625 C1.27195312 2.46324219 0.64546875 2.23507813 0 2 C0 1.34 0 0.68 0 0 Z " fill="#9AE09A" transform="translate(425,241)"/>
<path d="M0 0 C-6.4 3.07692308 -6.4 3.07692308 -9.4375 2.6875 C-9.953125 2.460625 -10.46875 2.23375 -11 2 C-3.57142857 -1.57142857 -3.57142857 -1.57142857 0 0 Z " fill="#61CF61" transform="translate(1049,204)"/>
<path d="M0 0 C2.31 0.33 4.62 0.66 7 1 C7 1.66 7 2.32 7 3 C7.99 3.33 8.98 3.66 10 4 C9.01 4.495 9.01 4.495 8 5 C6.0546875 4.22265625 6.0546875 4.22265625 3.875 3.0625 C3.15054688 2.68222656 2.42609375 2.30195313 1.6796875 1.91015625 C1.12539062 1.60980469 0.57109375 1.30945313 0 1 C0 0.67 0 0.34 0 0 Z " fill="#52CB52" transform="translate(231,250)"/>
</svg>
