<?xml version="1.0" encoding="UTF-8"?>
<svg version="1.1" xmlns="http://www.w3.org/2000/svg" width="900" height="420">
<path d="M0 0 C1.06460009 0.00013784 1.06460009 0.00013784 2.15070724 0.00027847 C23.27118842 0.0038151 43.99873472 0.34031155 64.8125 4.375 C65.85841309 4.56755371 66.90432617 4.76010742 67.98193359 4.95849609 C100.56228553 11.05489773 137.98010561 21.70973812 159.8125 48.375 C166.61699468 59.05823097 168.03407799 68.25458397 168.36450195 80.69750977 C168.38541669 81.44946471 168.40633142 82.20141966 168.42787993 82.97616112 C169.05451895 106.10702412 168.97733374 129.24837801 168.97975707 152.38580394 C168.98047635 156.25572965 168.9826265 160.125652 168.98525429 163.99557686 C168.99396475 176.84300019 168.99868184 189.69041391 168.99792381 202.53784006 C168.99786388 203.5653043 168.99786388 203.5653043 168.99780273 204.61352539 C168.99776185 205.29936081 168.99772097 205.98519624 168.99767885 206.69181455 C168.99727006 217.871821 169.00691504 229.05179416 169.0209411 240.23179095 C169.03532587 251.79072744 169.04202766 263.34964334 169.04134732 274.90858942 C169.0410933 281.36727157 169.04389396 287.82591557 169.05452538 294.28458977 C169.06422286 300.33669519 169.06427426 306.38872595 169.05700874 312.44083405 C169.05596619 314.65309064 169.05830613 316.86535195 169.0643692 319.07760048 C169.1116036 337.50957451 168.7734535 354.78941445 155.8125 369.375 C153.26298992 371.86393856 150.58567963 374.1399 147.8125 376.375 C147.1834375 376.890625 146.554375 377.40625 145.90625 377.9375 C95.46222933 417.63115561 11.94730796 417.68906792 -48.4140625 410.5625 C-84.8603712 405.88634129 -132.02248248 396.76466083 -156.6953125 366.4453125 C-165.16539462 354.69362789 -167.33999759 344.58016581 -167.32794189 330.37045288 C-167.33091302 329.27108513 -167.33388414 328.17171737 -167.3369453 327.03903544 C-167.34560815 323.35983749 -167.34713851 319.68067218 -167.34863281 316.00146484 C-167.3532627 313.36145882 -167.35826731 310.72145572 -167.36367798 308.08145142 C-167.37723064 300.91180191 -167.38328125 293.74215802 -167.38768864 286.57249784 C-167.39045629 282.09097011 -167.3946946 277.60944452 -167.39919281 273.12791824 C-167.41138154 260.70619785 -167.42168159 248.28447916 -167.4250679 235.86275291 C-167.42528747 235.06851403 -167.42550703 234.27427515 -167.42573325 233.45596842 C-167.42595153 232.65989013 -167.42616981 231.86381185 -167.4263947 231.04360998 C-167.42683816 229.43060326 -167.42728472 227.81759655 -167.42773438 226.20458984 C-167.4279558 225.4044924 -167.42817723 224.60439496 -167.42840537 223.78005214 C-167.43235102 210.82386795 -167.44979967 197.86774008 -167.4730939 184.91157763 C-167.49684741 171.59183484 -167.50927157 158.27212028 -167.51043582 144.95235598 C-167.51135034 137.48101711 -167.51704629 130.00975164 -167.53525543 122.53843307 C-167.55071053 116.17495572 -167.55574517 109.81157446 -167.54751733 103.4480819 C-167.54362982 100.20591339 -167.54610303 96.96397705 -167.55857468 93.72182465 C-167.67245575 62.26182577 -167.67245575 62.26182577 -160.8125 52.4375 C-160.19117188 51.54417969 -159.56984375 50.65085938 -158.9296875 49.73046875 C-158.35476562 48.95316406 -157.77984375 48.17585938 -157.1875 47.375 C-156.445 46.34375 -155.7025 45.3125 -154.9375 44.25 C-128.33417876 16.43743689 -86.86143155 7.43971065 -50.1875 2.375 C-49.53876923 2.28210693 -48.89003845 2.18921387 -48.22164917 2.09350586 C-32.21793079 -0.13281643 -16.12540091 -0.02250699 0 0 Z M-50.1875 34.375 C-51.27708008 34.55192383 -52.36666016 34.72884766 -53.48925781 34.91113281 C-80.37233291 39.39035597 -114.87746161 46.11843705 -133.1875 68.375 C-135.22068254 71.88807279 -135.67788365 74.28846955 -135.1875 78.375 C-130.34098969 88.06802061 -120.5960881 93.77642042 -111.1875 98.375 C-110.3934375 98.78234375 -109.599375 99.1896875 -108.78125 99.609375 C-75.67881827 115.74157274 -36.66823039 119.61659036 -0.3125 119.5625 C0.82635651 119.56159363 0.82635651 119.56159363 1.98822021 119.56066895 C43.33063936 119.47207419 99.21190192 116.02754267 131.18359375 86.125 C134.70262671 82.34436027 136.77938031 79.22970241 136.875 73.875 C133.84915771 63.90751951 125.97568246 59.13812772 117.16796875 54.3671875 C91.70400383 41.00575872 64.21230592 35.64618183 35.8125 32.375 C34.92264404 32.2704248 34.03278809 32.16584961 33.1159668 32.05810547 C22.53480071 30.9953309 11.87318333 31.13114364 1.25 31.125 C0.20204254 31.12432526 -0.84591492 31.12365051 -1.92562866 31.12295532 C-18.2074659 31.13958959 -34.09350728 31.69870723 -50.1875 34.375 Z M-135.1875 121.375 C-135.28912708 127.81610602 -135.35906052 134.2570044 -135.40722656 140.69873047 C-135.42731107 142.88891324 -135.45458417 145.07904259 -135.48925781 147.26904297 C-135.53791409 150.42168376 -135.56050078 153.57361404 -135.578125 156.7265625 C-135.59877014 157.70178864 -135.61941528 158.67701477 -135.64068604 159.68179321 C-135.64263145 165.60903178 -135.03312665 168.80809054 -131.1875 173.375 C-130.73890625 173.96925781 -130.2903125 174.56351563 -129.828125 175.17578125 C-111.51590368 195.08260611 -76.62682414 201.37253486 -51.1875 205.375 C-49.75688232 205.60364746 -49.75688232 205.60364746 -48.29736328 205.83691406 C4.45405078 213.83819325 74.21275237 212.90003094 120.8125 183.375 C122.07320313 182.60929687 122.07320313 182.60929687 123.359375 181.828125 C124.23078125 181.26609375 125.1021875 180.7040625 126 180.125 C126.77730469 179.62484375 127.55460937 179.1246875 128.35546875 178.609375 C133.3784427 174.04158311 137.09141143 169.06667777 137.49365234 162.13061523 C137.49271705 160.2313431 137.45968887 158.33187818 137.3984375 156.43359375 C137.38994781 155.42531021 137.38145813 154.41702667 137.37271118 153.37818909 C137.33938478 150.18849387 137.26414394 147.00141834 137.1875 143.8125 C137.1573736 141.63740655 137.13000252 139.46227309 137.10546875 137.28710938 C137.03966279 131.98219383 136.93952697 126.67878411 136.8125 121.375 C136.28308304 121.62865326 135.75366608 121.88230652 135.20820618 122.14364624 C132.76107075 123.31437957 130.31219179 124.48142215 127.86328125 125.6484375 C126.61472351 126.24676392 126.61472351 126.24676392 125.34094238 126.85717773 C92.14479253 142.6525754 53.36960158 149.4253392 16.7265625 149.578125 C15.59936798 149.58513931 14.47217346 149.59215363 13.31082153 149.59938049 C9.68634005 149.61681293 6.06202188 149.62323413 2.4375 149.625 C0.58203552 149.62601212 0.58203552 149.62601212 -1.31091309 149.62704468 C-19.47053186 149.61128368 -37.22246573 149.23141233 -55.1875 146.375 C-56.2919043 146.20871094 -57.39630859 146.04242188 -58.53417969 145.87109375 C-84.1253397 141.93287021 -108.27503594 134.84257719 -131.4230957 123.25878906 C-132.13158157 122.90431702 -132.84006744 122.54984497 -133.57002258 122.18463135 C-134.10379013 121.917453 -134.63755768 121.65027466 -135.1875 121.375 Z M-135.1875 211.375 C-135.31467281 217.79771695 -135.40200677 224.22010716 -135.4621582 230.64379883 C-135.4872435 232.82719049 -135.52131999 235.01049866 -135.56469727 237.19360352 C-135.62561124 240.33891439 -135.6537702 243.48311146 -135.67578125 246.62890625 C-135.70158768 247.5989711 -135.7273941 248.56903595 -135.75398254 249.5684967 C-135.7566713 256.12156256 -134.65605014 259.50362018 -130.1875 264.375 C-129.5275 264.375 -128.8675 264.375 -128.1875 264.375 C-128.1875 265.035 -128.1875 265.695 -128.1875 266.375 C-99.82350662 295.50766529 -40.13400207 297.75218897 -2.42163086 298.4440918 C39.26283624 298.6726398 98.51432123 295.48270908 130.8125 265.375 C136.3017978 259.02486123 137.67140136 253.91915422 137.3984375 245.65234375 C137.38994781 244.66625626 137.38145813 243.68016876 137.37271118 242.66419983 C137.33939413 239.54580713 137.26415631 236.43009755 137.1875 233.3125 C137.15737234 231.18558449 137.13000148 229.05862803 137.10546875 226.93164062 C137.03967396 221.74507586 136.9363042 216.56049118 136.8125 211.375 C132.27884809 212.84411769 128.03485249 214.61517933 123.75 216.6875 C95.13329642 230.16875926 64.09818716 235.36462048 32.8125 238.375 C32.0508252 238.44847656 31.28915039 238.52195313 30.50439453 238.59765625 C-22.5619205 243.39288203 -82.72531037 238.13657352 -130.265625 212.84375 C-132.94028038 211.22529209 -132.94028038 211.22529209 -135.1875 211.375 Z M-135.1875 300.375 C-135.28664961 305.96169908 -135.35910105 311.54788186 -135.40722656 317.13525391 C-135.42729629 319.03443325 -135.45455851 320.93355115 -135.48925781 322.83251953 C-135.53798109 325.56818839 -135.56051507 328.30303771 -135.578125 331.0390625 C-135.59877014 331.88304596 -135.61941528 332.72702942 -135.64068604 333.59658813 C-135.64274104 339.04063993 -134.74085309 342.0137222 -131.1875 346.375 C-130.73890625 346.96925781 -130.2903125 347.56351562 -129.828125 348.17578125 C-109.66978586 370.08948138 -71.02122051 375.44658774 -43.1875 379.375 C-41.9504834 379.55506592 -41.9504834 379.55506592 -40.68847656 379.73876953 C12.42825394 387.08749658 81.39430236 383.9395608 126.8125 352.375 C131.45942044 348.54610254 134.98502228 345.19945121 136.8125 339.375 C137.07936986 336.36583249 137.04548215 333.3743882 137.0078125 330.35546875 C137.0049826 329.49689774 137.00215271 328.63832672 136.99923706 327.7537384 C136.9880807 325.02318125 136.96298459 322.2929573 136.9375 319.5625 C136.92746432 317.70638496 136.9183395 315.85026476 136.91015625 313.99414062 C136.88815626 309.45429954 136.85365781 304.91470619 136.8125 300.375 C133.19971217 301.78989557 129.72770874 303.37597798 126.24609375 305.09033203 C75.70043458 329.74646734 10.99389409 333.58310746 -44.1875 326.375 C-45.42258301 326.21370605 -46.65766602 326.05241211 -47.93017578 325.88623047 C-65.0112898 323.60204603 -81.73807711 320.6443231 -98.1875 315.375 C-98.96641602 315.1260498 -99.74533203 314.87709961 -100.54785156 314.62060547 C-110.9693205 311.22998342 -121.54481206 307.44601875 -130.921875 301.69921875 C-133.03790964 300.20679625 -133.03790964 300.20679625 -135.1875 300.375 Z " fill="#DB7939" transform="translate(222.1875,-0.375)"/>
<path d="M0 0 C4.87504993 4.50479298 8.59087645 9.67555754 12.25 15.1875 C13.06984375 16.39212891 13.06984375 16.39212891 13.90625 17.62109375 C27.15014783 38.19643502 29.35845755 65.83541096 25.0625 89.5 C19.33723823 112.90465809 5.7455885 132.30799435 -14.5 145.375 C-21.68083611 149.54672383 -29.71964897 152.17991224 -37.75 154.1875 C-38.08 160.7875 -38.41 167.3875 -38.75 174.1875 C-49.64 174.1875 -60.53 174.1875 -71.75 174.1875 C-71.75 147.4575 -71.75 120.7275 -71.75 93.1875 C-64.04734924 89.33617462 -49.13202492 92.6467242 -40.75 93.1875 C-40.255 103.5825 -40.255 103.5825 -39.75 114.1875 C-26.63369092 108.3580293 -19.86509465 101.49170502 -14.68579102 88.12207031 C-9.37206957 73.28264331 -9.72984519 58.4355227 -16.2734375 44.06640625 C-23.57224425 29.83566399 -31.92358218 21.29874749 -46.75 15.1875 C-58.00269942 12.26888381 -69.75336236 14.54956263 -79.85546875 20.04296875 C-93.02914554 28.00149927 -101.37030885 40.25700045 -105.625 55 C-108.79609492 69.52627312 -106.55515814 82.45419117 -99.12109375 95.21484375 C-97.00543371 98.2587421 -94.42786979 100.63418229 -91.75 103.1875 C-91.75 103.8475 -91.75 104.5075 -91.75 105.1875 C-90.698125 105.55875 -90.698125 105.55875 -89.625 105.9375 C-86.17381622 107.43801469 -83.61991796 108.71047288 -80.75 111.1875 C-79.91506803 114.09379696 -80.04932466 116.8874414 -80.1640625 119.890625 C-80.17255219 120.72841492 -80.18104187 121.56620483 -80.18978882 122.42938232 C-80.22332427 125.10007431 -80.29859713 127.76772411 -80.375 130.4375 C-80.40509972 132.24995633 -80.43247552 134.06246008 -80.45703125 135.875 C-80.52311526 140.3136686 -80.62663258 144.75006895 -80.75 149.1875 C-84.07661207 150.32775969 -85.70918348 150.10547207 -88.875 148.6328125 C-90.05002075 148.08838501 -90.05002075 148.08838501 -91.2487793 147.53295898 C-92.07418213 147.13020752 -92.89958496 146.72745605 -93.75 146.3125 C-94.59925049 145.90265869 -95.44850098 145.49281738 -96.32348633 145.07055664 C-106.88160996 139.82407853 -115.85615429 132.97686602 -123.75 124.1875 C-124.40484375 123.46304688 -125.0596875 122.73859375 -125.734375 121.9921875 C-142.9992945 101.71594483 -146.55444016 77.69731873 -144.56396484 51.76367188 C-142.19473727 31.40086053 -129.84465983 10.79689034 -114.14941406 -2.13085938 C-80.12004948 -28.2450059 -32.82125754 -27.38838726 0 0 Z " fill="#DB7839" transform="translate(722.75,143.8125)"/>
<path d="M0 0 C1.41963662 0.00119426 2.83927404 0.00164444 4.25891113 0.00138855 C7.21399985 0.00294286 10.16896561 0.01115763 13.12402344 0.0246582 C16.91829419 0.04177167 20.71243191 0.04546844 24.50673676 0.04471302 C27.42856117 0.04498411 30.35035631 0.05045335 33.27217102 0.05771446 C34.67246784 0.0609012 36.07276798 0.06286855 37.47306824 0.06360817 C39.41890657 0.0657646 41.3647326 0.07529135 43.31054688 0.08520508 C44.41813354 0.08901688 45.52572021 0.09282867 46.66687012 0.09675598 C49.15625 0.23046875 49.15625 0.23046875 50.15625 1.23046875 C50.24415975 3.52198292 50.26319038 5.81619399 50.25390625 8.109375 C50.2524913 8.79603745 50.25107635 9.48269989 50.24961853 10.19017029 C50.24400479 12.39114676 50.23145007 14.59202284 50.21875 16.79296875 C50.21373676 18.28189958 50.20917355 19.77083199 50.20507812 21.25976562 C50.19403093 24.9166995 50.17675713 28.57357433 50.15625 32.23046875 C45.96275827 33.15626989 42.51321572 33.15797581 38.21875 32.79296875 C31.40535988 32.29129514 24.61268847 32.08407665 17.78125 32.04296875 C16.87898682 32.03015869 15.97672363 32.01734863 15.04711914 32.00415039 C6.64279128 31.99105834 -1.51221336 32.83154677 -8.84375 37.23046875 C-9.50375 37.89046875 -10.16375 38.55046875 -10.84375 39.23046875 C-10.51717446 42.98608742 -9.7268122 45.96649427 -7.84375 49.23046875 C-7.18375 49.23046875 -6.52375 49.23046875 -5.84375 49.23046875 C-5.84375 49.89046875 -5.84375 50.55046875 -5.84375 51.23046875 C-5.286875 51.47796875 -4.73 51.72546875 -4.15625 51.98046875 C-1.41964087 53.45971693 0.83275869 55.16514314 3.15625 57.23046875 C3.15625 57.89046875 3.15625 58.55046875 3.15625 59.23046875 C3.82398438 59.43542969 4.49171875 59.64039063 5.1796875 59.8515625 C9.24728745 61.73589686 12.36023978 64.4262776 15.78125 67.29296875 C17.21341397 68.47932083 18.64570604 69.6655183 20.078125 70.8515625 C20.77486328 71.43147949 21.47160156 72.01139648 22.18945312 72.60888672 C24.76868984 74.73541232 27.40462392 76.7879388 30.03125 78.85546875 C42.63828967 89.22882872 53.00365957 101.90455402 56.15625 118.23046875 C57.25156564 129.65660236 55.78311435 139.59399761 49 149.00390625 C40.52827987 159.23458522 29.38217366 166.08206062 16.15625 168.23046875 C11.30197051 168.49897442 6.45344237 168.46407326 1.59375 168.42578125 C0.1927104 168.42204466 -1.20833184 168.41920074 -2.609375 168.41720581 C-6.27214956 168.40962015 -9.93476202 168.39001612 -13.59747314 168.36779785 C-17.34490731 168.34722937 -21.09236881 168.33807062 -24.83984375 168.328125 C-32.17462169 168.30782954 -39.5089562 168.2686708 -46.84375 168.23046875 C-46.84375 157.01046875 -46.84375 145.79046875 -46.84375 134.23046875 C-43.30140625 134.26527344 -39.7590625 134.30007813 -36.109375 134.3359375 C-32.64405115 134.35939443 -29.17873645 134.37757606 -25.71337891 134.39526367 C-23.32173647 134.41026588 -20.93012115 134.43067422 -18.53857422 134.45678711 C-15.08293936 134.49354918 -11.62767108 134.51028139 -8.171875 134.5234375 C-6.59143402 134.54666328 -6.59143402 134.54666328 -4.97906494 134.57035828 C7.26656618 134.61289564 7.26656618 134.61289564 17.99481201 129.62614441 C18.37808655 129.16557144 18.76136108 128.70499847 19.15625 128.23046875 C17.94250034 123.25409513 15.82651507 120.38740103 12.3984375 116.74609375 C11.15625 115.23046875 11.15625 115.23046875 11.15625 113.23046875 C10.32480469 112.86308594 10.32480469 112.86308594 9.4765625 112.48828125 C6.69131049 110.97843083 4.46132573 109.13879742 2.03125 107.10546875 C-2.58786492 103.25724245 -7.27917256 99.52668311 -12.04296875 95.859375 C-12.63722656 95.32183594 -13.23148437 94.78429687 -13.84375 94.23046875 C-13.84375 93.57046875 -13.84375 92.91046875 -13.84375 92.23046875 C-14.38 92.00359375 -14.91625 91.77671875 -15.46875 91.54296875 C-21.80874415 88.03928777 -26.27636197 82.72732525 -30.84375 77.23046875 C-31.42253906 76.56273437 -32.00132812 75.895 -32.59765625 75.20703125 C-37.90683558 68.81701228 -41.48011207 61.7660607 -44.84375 54.23046875 C-45.39095703 53.03357422 -45.39095703 53.03357422 -45.94921875 51.8125 C-48.12721379 46.03518921 -48.14434745 40.14618227 -48.21875 34.04296875 C-48.23284912 33.18687012 -48.24694824 32.33077148 -48.26147461 31.44873047 C-48.19841465 23.23816392 -45.78356186 17.32534836 -40.19140625 11.22265625 C-28.50008599 1.30156918 -14.69541384 -0.08203503 0 0 Z " fill="#DB7939" transform="translate(507.84375,125.76953125)"/>
<path d="M0 0 C12.21 0 24.42 0 37 0 C37.0093457 3.44179687 37.01869141 6.88359375 37.02832031 10.4296875 C37.06210747 21.80920071 37.11746608 33.18855231 37.18390274 44.56791687 C37.22365276 51.4663429 37.25606562 58.36465551 37.27099609 65.26318359 C37.28542932 71.92232079 37.32058645 78.58105578 37.36830902 85.24005127 C37.38313105 87.77887921 37.39104148 90.31775735 37.39188385 92.85662842 C37.39425263 96.4165177 37.42132787 99.9754348 37.45410156 103.53515625 C37.4490712 104.58172897 37.44404083 105.6283017 37.43885803 106.70658875 C37.53065287 113.16342337 38.67030993 117.49582758 42 123 C42.48173864 124.06801598 42.48173864 124.06801598 42.97320938 125.15760803 C43.89407493 127.26427933 43.89407493 127.26427933 46.51953125 128.01171875 C55.08783095 129.77010054 63.41785053 130.44922932 72.15356445 130.7097168 C73.46393677 130.74899292 73.46393677 130.74899292 74.80078125 130.7890625 C75.58622314 130.80662598 76.37166504 130.82418945 77.1809082 130.84228516 C79 131 79 131 80 132 C80.08855161 134.6662603 80.11524673 137.30647114 80.09765625 139.97265625 C80.0962413 140.77029892 80.09482635 141.56794159 80.09336853 142.38975525 C80.08775316 144.94737435 80.07519812 147.50490718 80.0625 150.0625 C80.05748698 151.79231645 80.05292373 153.52213426 80.04882812 155.25195312 C80.03777875 159.50133553 80.02050386 163.75065312 80 168 C72.63521223 168.10193078 65.27060832 168.17168759 57.90527344 168.21972656 C55.40292564 168.23976603 52.90062422 168.26700522 50.3984375 168.30175781 C46.78894563 168.3506124 43.18007621 168.37304645 39.5703125 168.390625 C38.46261505 168.41127014 37.3549176 168.43191528 36.21365356 168.45318604 C26.90455498 168.45583848 18.5960936 166.40882448 11.66015625 159.8828125 C1.7162853 148.60529297 -0.46886736 136.9225862 -0.34057617 122.2668457 C-0.33972784 120.92533894 -0.34020906 119.58383079 -0.34190369 118.24232483 C-0.34275703 114.63552805 -0.32523984 111.02903655 -0.30418181 107.42231011 C-0.28530349 103.64005131 -0.28365585 99.85778388 -0.28010559 96.07548523 C-0.27081764 88.92884258 -0.24624839 81.78233921 -0.21605712 74.63575763 C-0.18241129 66.49299278 -0.16600162 58.35022094 -0.15097082 50.20740378 C-0.1196955 33.47150836 -0.06472466 16.73580457 0 0 Z " fill="#DC7B3C" transform="translate(764,126)"/>
<path d="M0 0 C16.5 0 33 0 50 0 C50 0.66 50 1.32 50 2 C50.99 2.33 51.98 2.66 53 3 C35.51 3 18.02 3 0 3 C0 2.01 0 1.02 0 0 Z " fill="#DA7432" transform="translate(462,290)"/>
<path d="M0 0 C1.485 0.99 1.485 0.99 3 2 C3.26653946 4.9795099 3.34767784 7.7488582 3.29296875 10.7265625 C3.28872391 11.58937836 3.28447906 12.45219421 3.28010559 13.34115601 C3.26328392 16.10275197 3.22562598 18.86362383 3.1875 21.625 C3.17245764 23.49478114 3.15876846 25.3645737 3.14648438 27.234375 C3.11336906 31.82319658 3.06156339 36.41147544 3 41 C2.67 41 2.34 41 2 41 C1.505 43.475 1.505 43.475 1 46 C0.67 46 0.34 46 0 46 C-0.73914434 40.05454897 -1.14923867 34.26887418 -1.1328125 28.28125 C-1.13376923 27.49729858 -1.13472595 26.71334717 -1.13571167 25.90563965 C-1.13638596 24.268798 -1.13458473 22.63195355 -1.13037109 20.99511719 C-1.12495362 18.47845602 -1.13037096 15.96196864 -1.13671875 13.4453125 C-1.13605897 11.84895794 -1.13477988 10.25260349 -1.1328125 8.65625 C-1.13584885 7.52515808 -1.13584885 7.52515808 -1.13894653 6.37121582 C-1.11499059 1.11499059 -1.11499059 1.11499059 0 0 Z " fill="#D97232" transform="translate(83,211)"/>
<path d="M0 0 C0.66 0.33 1.32 0.66 2 1 C2 13.54 2 26.08 2 39 C1.34 39 0.68 39 0 39 C0 38.34 0 37.68 0 37 C-0.66 37 -1.32 37 -2 37 C-2 25.78 -2 14.56 -2 3 C-1.34 3 -0.68 3 0 3 C0 2.01 0 1.02 0 0 Z " fill="#DA7433" transform="translate(84,301)"/>
<path d="M0 0 C0.10313358 11.39053108 0.05253638 22.64764338 -1 34 C-2.32 33.67 -3.64 33.34 -5 33 C-5 29.88742431 -4.82638376 27.89234315 -4 25 C-3.34 25 -2.68 25 -2 25 C-2.32355469 24.36449219 -2.64710937 23.72898438 -2.98046875 23.07421875 C-4.35270709 18.93647326 -4.32977733 15.14219834 -4.3125 10.8125 C-4.33666992 9.58370117 -4.33666992 9.58370117 -4.36132812 8.33007812 C-4.36328125 5.95703125 -4.36328125 5.95703125 -4 2 C-1 0 -1 0 0 0 Z " fill="#DA7332" transform="translate(86,140)"/>
<path d="M0 0 C0.66 0.33 1.32 0.66 2 1 C1.0925 1.4125 0.185 1.825 -0.75 2.25 C-3.82504364 3.90579273 -5.68373537 5.43556415 -8 8 C-8.66 8.66 -9.32 9.32 -10 10 C-10.33 10.99 -10.66 11.98 -11 13 C-11.99 12.67 -12.98 12.34 -14 12 C-13.67 11.67 -13.34 11.34 -13 11 C-13.66 10.67 -14.32 10.34 -15 10 C-15.103125 10.61875 -15.20625 11.2375 -15.3125 11.875 C-16 14 -16 14 -19 16 C-20.19232613 18.05003955 -20.19232613 18.05003955 -21 20 C-22.65 20 -24.3 20 -26 20 C-26.66 22.31 -27.32 24.62 -28 27 C-29.32 26.67 -30.64 26.34 -32 26 C-30.4479868 22.19051305 -27.96126426 19.74298926 -25 17 C-24.38253906 16.40058594 -23.76507813 15.80117188 -23.12890625 15.18359375 C-16.57469667 9.03827064 -8.606269 2.86875633 0 0 Z " fill="#E29664" transform="translate(97,23)"/>
<path d="M0 0 C7.59 0 15.18 0 23 0 C23 0.33 23 0.66 23 1 C4.1883036 3.54279864 -14.21972834 4.38910945 -33.1875 4.1875 C-35.71418453 4.17239155 -38.24087803 4.15871429 -40.76757812 4.14648438 C-46.84525422 4.11404602 -52.92258217 4.06435789 -59 4 C-59 3.67 -59 3.34 -59 3 C-39.53 2.67 -20.06 2.34 0 2 C0 1.34 0 0.68 0 0 Z " fill="#E8B493" transform="translate(255,146)"/>
<path d="M0 0 C1.65 0 3.3 0 5 0 C5 2 5 4 5 6 C4.42320496 5.83734146 3.84640991 5.67468292 3.25213623 5.50709534 C1.06462503 5.0145511 -0.79831319 4.8792153 -3.03417969 4.88647461 C-3.81468689 4.88655014 -4.59519409 4.88662567 -5.39935303 4.88670349 C-6.23178528 4.89186478 -7.06421753 4.89702606 -7.921875 4.90234375 C-8.78186096 4.9037587 -9.64184692 4.90517365 -10.52789307 4.90663147 C-13.26863109 4.91221903 -16.00928676 4.92476925 -18.75 4.9375 C-20.6106759 4.94251661 -22.47135309 4.94707923 -24.33203125 4.95117188 C-28.88805246 4.96218439 -33.44401228 4.97944049 -38 5 C-38 4.67 -38 4.34 -38 4 C-36.02 4 -34.04 4 -32 4 C-32 3.34 -32 2.68 -32 2 C-21.31563078 0.92580848 -10.72655709 0.89805806 0 1 C0 0.67 0 0.34 0 0 Z " fill="#D97232" transform="translate(238,209)"/>
<path d="M0 0 C0.99 0.33 1.98 0.66 3 1 C1.68 1.33 0.36 1.66 -1 2 C-1.07992188 2.62390625 -1.15984375 3.2478125 -1.2421875 3.890625 C-2 6 -2 6 -3.8203125 7.046875 C-10.00112264 8.93254589 -15.66242426 10.02802424 -22 8 C-22.33 8.66 -22.66 9.32 -23 10 C-24.65 9.67 -26.3 9.34 -28 9 C-25.01682443 7.3869686 -22.14270355 6.39243423 -18.8671875 5.52734375 C-17.41119141 5.13772461 -17.41119141 5.13772461 -15.92578125 4.74023438 C-14.91902344 4.47533203 -13.91226562 4.21042969 -12.875 3.9375 C-10.87189937 3.40681832 -8.8692698 2.8743544 -6.8671875 2.33984375 C-5.53856689 1.98974243 -5.53856689 1.98974243 -4.18310547 1.63256836 C-1.98087037 1.06569282 -1.98087037 1.06569282 0 0 Z " fill="#E29C6F" transform="translate(319,366)"/>
<path d="M0 0 C1.65 0 3.3 0 5 0 C5 0.66 5 1.32 5 2 C5.66 1.67 6.32 1.34 7 1 C9.49082076 0.90186801 11.94733789 0.86094452 14.4375 0.875 C15.11876953 0.87113281 15.80003906 0.86726563 16.50195312 0.86328125 C19.60648046 0.8693626 22.03329065 1.01109688 25 2 C25 2.66 25 3.32 25 4 C20.54172074 4.0578304 16.0835372 4.09353855 11.625 4.125 C10.35398437 4.14175781 9.08296875 4.15851563 7.7734375 4.17578125 C6.56171875 4.18222656 5.35 4.18867188 4.1015625 4.1953125 C2.98088379 4.20578613 1.86020508 4.21625977 0.70556641 4.22705078 C-2 4 -2 4 -4 2 C-2.68 2 -1.36 2 0 2 C0 1.34 0 0.68 0 0 Z " fill="#D97433" transform="translate(658,313)"/>
<path d="M0 0 C8.02770189 0.55363461 15.33854067 2.65687944 23 5 C19.58389775 5.94314127 16.54865136 6.08065117 13 6 C12.67 6.66 12.34 7.32 12 8 C11.43796875 7.68289062 10.8759375 7.36578125 10.296875 7.0390625 C7.84803683 5.93125475 5.91612145 5.61024601 3.25 5.375 C2.05117188 5.26285156 2.05117188 5.26285156 0.828125 5.1484375 C0.22484375 5.09945313 -0.3784375 5.05046875 -1 5 C-0.67 3.35 -0.34 1.7 0 0 Z " fill="#E09767" transform="translate(298,7)"/>
<path d="M0 0 C0.33 0.66 0.66 1.32 1 2 C-3.43716385 8.22779596 -7.91788125 14.2826164 -13 20 C-13.66 19.67 -14.32 19.34 -15 19 C-15.59355614 16.35139573 -15.74209269 13.70802678 -16 11 C-15.67 11.99 -15.34 12.98 -15 14 C-11.83884224 12.63016497 -11.0072908 12.0109362 -9 9 C-8.34 9 -7.68 9 -7 9 C-7 8.34 -7 7.68 -7 7 C-6.01 7 -5.02 7 -4 7 C-4.33 5.68 -4.66 4.36 -5 3 C-3.35 2.01 -1.7 1.02 0 0 Z " fill="#DF9462" transform="translate(736,258)"/>
<path d="M0 0 C5.45479185 0.56820748 9.91059256 1.94637945 15 4 C15 4.66 15 5.32 15 6 C14.34 6 13.68 6 13 6 C13.144375 6.59167969 13.28875 7.18335937 13.4375 7.79296875 C14.40822694 11.92529941 15.27593702 15.7229762 15 20 C14.7525 19.484375 14.505 18.96875 14.25 18.4375 C13.20144892 16.39282538 12.0935627 14.42172398 10.9375 12.4375 C9 9 9 9 8 6 C7.21625 5.690625 6.4325 5.38125 5.625 5.0625 C2.64896365 3.85791386 1.68999547 2.66841391 0 0 Z " fill="#DC7B39" transform="translate(345,57)"/>
<path d="M0 0 C2.64 0.33 5.28 0.66 8 1 C7.67 1.66 7.34 2.32 7 3 C8.051875 2.896875 9.10375 2.79375 10.1875 2.6875 C14 3 14 3 16.9375 5.375 C19 8 19 8 19 10 C18.21625 9.731875 17.4325 9.46375 16.625 9.1875 C15.42875 8.795625 14.2325 8.40375 13 8 C12.26136719 7.74734375 11.52273438 7.4946875 10.76171875 7.234375 C4.51737125 5.20272127 -1.45206824 4.36100764 -8 4 C-8 3.67 -8 3.34 -8 3 C-6.865625 2.87625 -5.73125 2.7525 -4.5625 2.625 C-3.386875 2.41875 -2.21125 2.2125 -1 2 C-0.67 1.34 -0.34 0.68 0 0 Z " fill="#E9AA82" transform="translate(668,153)"/>
<path d="M0 0 C-0.33 0.66 -0.66 1.32 -1 2 C2.96 2 6.92 2 11 2 C11 2.33 11 2.66 11 3 C-9.53191489 5.38297872 -9.53191489 5.38297872 -19 5 C-19 4.67 -19 4.34 -19 4 C-15.04 3.34 -11.08 2.68 -7 2 C-9.64 2 -12.28 2 -15 2 C-15 1.67 -15 1.34 -15 1 C-13.25215171 0.63536268 -11.50159498 0.2836922 -9.75 -0.0625 C-8.28820312 -0.35833984 -8.28820312 -0.35833984 -6.796875 -0.66015625 C-4.131881 -0.98397535 -2.51128277 -0.85503199 0 0 Z " fill="#E5A377" transform="translate(263,234)"/>
<path d="M0 0 C0 0.66 0 1.32 0 2 C-5.28 2 -10.56 2 -16 2 C-16 2.66 -16 3.32 -16 4 C-18.64 4 -21.28 4 -24 4 C-24 3.34 -24 2.68 -24 2 C-25.98 2 -27.96 2 -30 2 C-30 1.67 -30 1.34 -30 1 C-20.01321644 -0.25676377 -10.04368267 -0.09367165 0 0 Z " fill="#D87233" transform="translate(216,1)"/>
<path d="M0 0 C0 3 0 3 -1.3203125 4.68359375 C-5.00843576 8.26793865 -8.60556182 11.32046452 -13 14 C-15 13 -15 13 -17 10 C-12.25 8.875 -12.25 8.875 -10 10 C-9.9175 9.401875 -9.835 8.80375 -9.75 8.1875 C-8.79544128 5.4033704 -7.42867729 4.56688858 -5 3 C-5.33 2.34 -5.66 1.68 -6 1 C-4 0 -4 0 0 0 Z " fill="#E29A69" transform="translate(556,273)"/>
<path d="M0 0 C0.66 0.33 1.32 0.66 2 1 C1.375 2.9375 1.375 2.9375 0 5 C-2.875 5.625 -2.875 5.625 -6 6 C-8.67445739 7.02258665 -9.90518792 7.89211039 -11.8125 10.0625 C-14.78935279 12.69914105 -17.08557603 12.79029872 -21 13 C-22.34224959 12.70461056 -23.67905968 12.37948066 -25 12 C-24.49138428 11.77860352 -23.98276855 11.55720703 -23.45874023 11.32910156 C-21.11653067 10.30679504 -18.7770219 9.27844143 -16.4375 8.25 C-15.23770508 7.72792969 -15.23770508 7.72792969 -14.01367188 7.1953125 C-10.22352926 5.52455575 -6.58542967 3.81105971 -3.03515625 1.671875 C-2.03355469 1.12015625 -1.03195312 0.5684375 0 0 Z " fill="#EAC8B1" transform="translate(343,271)"/>
<path d="M0 0 C0.66 0 1.32 0 2 0 C2.33 1.32 2.66 2.64 3 4 C3.66 4 4.32 4 5 4 C5 3.34 5 2.68 5 2 C6.65 1.67 8.3 1.34 10 1 C9.01 1.495 9.01 1.495 8 2 C8 2.66 8 3.32 8 4 C8.99 4.33 9.98 4.66 11 5 C11 5.99 11 6.98 11 8 C11.66 8.66 12.32 9.32 13 10 C8.49272353 9.39733215 5.1412037 7.63400206 1.1875 5.4375 C0.59001953 5.10814453 -0.00746094 4.77878906 -0.62304688 4.43945312 C-2.08533998 3.63226733 -3.5431399 2.81695083 -5 2 C-4.34 1.67 -3.68 1.34 -3 1 C-0.875 1.9375 -0.875 1.9375 1 3 C0.67 2.01 0.34 1.02 0 0 Z " fill="#DF9260" transform="translate(93,120)"/>
<path d="M0 0 C2.97 0 5.94 0 9 0 C6.0120296 1.4939852 3.62477242 2.49942647 0.48046875 3.40234375 C-0.37740234 3.65306641 -1.23527344 3.90378906 -2.11914062 4.16210938 C-3.90285328 4.67562201 -5.68670569 5.18864947 -7.47070312 5.70117188 C-11.41899126 6.85583206 -15.21109454 8.02582202 -18.94921875 9.75390625 C-22 11 -22 11 -25 10 C-24.34 10 -23.68 10 -23 10 C-23 9.34 -23 8.68 -23 8 C-19.535 7.505 -19.535 7.505 -16 7 C-16 6.34 -16 5.68 -16 5 C-12.33552568 3.35199144 -9.18796534 2.66419027 -5.1875 2.375 C-4.21167969 2.30023438 -3.23585937 2.22546875 -2.23046875 2.1484375 C-1.49441406 2.09945312 -0.75835937 2.05046875 0 2 C0 1.34 0 0.68 0 0 Z " fill="#EBBC9E" transform="translate(141,38)"/>
<path d="M0 0 C0.33 0 0.66 0 1 0 C1.06058594 0.84304687 1.12117187 1.68609375 1.18359375 2.5546875 C1.26738281 3.65039062 1.35117187 4.74609375 1.4375 5.875 C1.51871094 6.96554688 1.59992187 8.05609375 1.68359375 9.1796875 C1.83001703 11.94728971 1.83001703 11.94728971 3 14 C0.54101345 14.08076963 -1.91533742 14.14037143 -4.375 14.1875 C-5.42300781 14.22520508 -5.42300781 14.22520508 -6.4921875 14.26367188 C-8.5234375 14.29296875 -8.5234375 14.29296875 -12 14 C-12.66 13.01 -13.32 12.02 -14 11 C-7.565 10.505 -7.565 10.505 -1 10 C-0.67 6.7 -0.34 3.4 0 0 Z " fill="#D97232" transform="translate(553,143)"/>
<path d="M0 0 C-0.66 0 -1.32 0 -2 0 C-2 0.66 -2 1.32 -2 2 C-2.56847656 2.04898438 -3.13695312 2.09796875 -3.72265625 2.1484375 C-8.71081129 2.63143081 -13.22599578 3.47638163 -18 5 C-18 6.32 -18 7.64 -18 9 C-19.65 9 -21.3 9 -23 9 C-22.01 8.01 -21.02 7.02 -20 6 C-24.62 6 -29.24 6 -34 6 C-34 5.67 -34 5.34 -34 5 C-33.06317383 4.83395264 -33.06317383 4.83395264 -32.10742188 4.66455078 C-29.23776272 4.15423575 -26.36888522 3.63964735 -23.5 3.125 C-22.51773437 2.95097656 -21.53546875 2.77695313 -20.5234375 2.59765625 C-16.14024 1.8086807 -11.82593755 0.98990971 -7.53125 -0.1953125 C-4.17655598 -0.95976711 -3.10947043 -0.96168309 0 0 Z " fill="#E8B897" transform="translate(306,110)"/>
<path d="M0 0 C6.00477279 0.64916463 11.400781 2.85795003 17 5 C17 5.33 17 5.66 17 6 C12.98195309 6.84098656 9.98196457 7.05404945 6 6 C6 6.99 6 7.98 6 9 C4.35 8.67 2.7 8.34 1 8 C1 4 1 4 2 1 C1.34 0.67 0.68 0.34 0 0 Z " fill="#E19869" transform="translate(119,102)"/>
<path d="M0 0 C0.33 1.32 0.66 2.64 1 4 C0.4946875 4.39832031 -0.010625 4.79664063 -0.53125 5.20703125 C-1.1809375 5.73683594 -1.830625 6.26664062 -2.5 6.8125 C-3.1496875 7.33457031 -3.799375 7.85664063 -4.46875 8.39453125 C-6.34509128 9.99204833 -6.34509128 9.99204833 -6 13 C-14.261959 17.59225513 -14.261959 17.59225513 -19 17 C-16.64225295 14.450254 -14.08358291 12.65402993 -11.1875 10.75 C-6.62144908 7.61460047 -3.38517635 4.36509582 0 0 Z " fill="#E9B492" transform="translate(357,342)"/>
<path d="M0 0 C-1.98 0.99 -1.98 0.99 -4 2 C-1.69 2.33 0.62 2.66 3 3 C3 3.33 3 3.66 3 4 C2.34773437 4.10957031 1.69546875 4.21914062 1.0234375 4.33203125 C-5.49557501 5.51468396 -10.44748975 7.2983265 -16 11 C-14.125 7.125 -14.125 7.125 -13 6 C-13.99 5.34 -14.98 4.68 -16 4 C-15.01 4 -14.02 4 -13 4 C-13 3.34 -13 2.68 -13 2 C-11.35 2.33 -9.7 2.66 -8 3 C-8 2.34 -8 1.68 -8 1 C-2.25 -1.125 -2.25 -1.125 0 0 Z " fill="#E7A77D" transform="translate(512,154)"/>
<path d="M0 0 C2.475 0.495 2.475 0.495 5 1 C0.68448969 3.87700687 -3.96512796 4.83371517 -8.9375 6.1875 C-9.93974609 6.47302734 -10.94199219 6.75855469 -11.97460938 7.05273438 C-12.94076172 7.31763672 -13.90691406 7.58253906 -14.90234375 7.85546875 C-15.78398193 8.09934326 -16.66562012 8.34321777 -17.57397461 8.59448242 C-20.09399642 9.01571179 -21.6037633 8.81451868 -24 8 C-23.67 7.34 -23.34 6.68 -23 6 C-20.69 6 -18.38 6 -16 6 C-15.67 5.34 -15.34 4.68 -15 4 C-12.03 4 -9.06 4 -6 4 C-5.67 3.01 -5.34 2.02 -5 1 C-2.525 1.495 -2.525 1.495 0 2 C0 1.34 0 0.68 0 0 Z " fill="#E3A982" transform="translate(322,396)"/>
<path d="M0 0 C8.46204771 -0.30221599 16.63745983 0.85079203 25 2 C25 2.33 25 2.66 25 3 C22.03 3 19.06 3 16 3 C16 3.66 16 4.32 16 5 C9.6 7.21538462 9.6 7.21538462 6.5625 6.125 C6.046875 5.75375 5.53125 5.3825 5 5 C5.99 4.67 6.98 4.34 8 4 C8 3.34 8 2.68 8 2 C5.36 1.67 2.72 1.34 0 1 C0 0.67 0 0.34 0 0 Z " fill="#E2A074" transform="translate(256,1)"/>
<path d="M0 0 C-3.00583118 2.00388745 -3.89795392 2.26410735 -7.3125 2.5 C-10.10655335 2.69504735 -12.1846117 3.06875194 -14.83203125 4.0546875 C-18.60093364 5.17931682 -21.47195491 4.9932118 -25.375 4.625 C-26.62023437 4.51414062 -27.86546875 4.40328125 -29.1484375 4.2890625 C-30.08945312 4.19367188 -31.03046875 4.09828125 -32 4 C-32 3.67 -32 3.34 -32 3 C-28.08705673 2.40208337 -24.17272335 1.81441413 -20.25683594 1.23608398 C-18.27197767 0.94076991 -16.28832023 0.63742126 -14.3046875 0.33398438 C-13.05429687 0.15029297 -11.80390625 -0.03339844 -10.515625 -0.22265625 C-9.36352539 -0.39547119 -8.21142578 -0.56828613 -7.02441406 -0.74633789 C-4.30270685 -0.97461153 -2.55197591 -0.87895308 0 0 Z " fill="#E2A47C" transform="translate(290,376)"/>
<path d="M0 0 C0.94875 0.845625 1.8975 1.69125 2.875 2.5625 C7.33372472 6.39865125 12.14105687 9.69552761 17 13 C14.10649156 14.44675422 12.14288032 13.60440006 9 13 C7 12.66666667 5 12.33333333 3 12 C3 11.34 3 10.68 3 10 C3.66 10 4.32 10 5 10 C3.79367548 6.56661484 2.61522816 4.49635415 0 2 C0 1.34 0 0.68 0 0 Z " fill="#E7AA83" transform="translate(89,171)"/>
<path d="M0 0 C5.63486889 0.22539476 10.27184895 1.73041801 15.4375 3.9375 C16.06479004 4.20256348 16.69208008 4.46762695 17.33837891 4.74072266 C21.87018977 6.74037955 21.87018977 6.74037955 23 9 C21.39482903 8.91266424 19.79078338 8.80447776 18.1875 8.6875 C16.84751953 8.60048828 16.84751953 8.60048828 15.48046875 8.51171875 C12.67328075 7.93259808 11.69302154 7.2779858 10 5 C10 4.34 10 3.68 10 3 C7.36 3.33 4.72 3.66 2 4 C2 3.34 2 2.68 2 2 C1.34 1.34 0.68 0.68 0 0 Z " fill="#E7B393" transform="translate(686,126)"/>
<path d="M0 0 C2.475 0.99 2.475 0.99 5 2 C5 2.66 5 3.32 5 4 C6.32 4.33 7.64 4.66 9 5 C8.01 5.495 8.01 5.495 7 6 C7.515625 6.886875 8.03125 7.77375 8.5625 8.6875 C10.12942982 12.29825134 10.38668801 13.39461116 9 17 C6.9375 19.8125 6.9375 19.8125 5 22 C3.02 21.67 1.04 21.34 -1 21 C2 19 2 19 4.625 17.5625 C7.29046993 16.15982726 7.29046993 16.15982726 8 13 C7.13300515 10.98517498 7.13300515 10.98517498 5.75 9 C5.31171875 8.319375 4.8734375 7.63875 4.421875 6.9375 C3.05732277 4.96589891 3.05732277 4.96589891 1.328125 3.375 C0 2 0 2 0 0 Z " fill="#F1CEB8" transform="translate(519,239)"/>
<path d="M0 0 C2.97 0.495 2.97 0.495 6 1 C6 1.66 6 2.32 6 3 C6.66 3.33 7.32 3.66 8 4 C7.62875 4.680625 7.2575 5.36125 6.875 6.0625 C5.72121467 9.93592219 6.67858773 12.25599857 8 16 C5.34154327 13.62999752 3.88838209 11.18015846 2.3125 8 C1.87550781 7.13375 1.43851563 6.2675 0.98828125 5.375 C0 3 0 3 0 0 Z " fill="#E09362" transform="translate(583,240)"/>
<path d="M0 0 C3.98285875 1.48199395 7.56166105 0.66516794 11.6875 0 C11.6875 1.32 11.6875 2.64 11.6875 4 C12.3475 4.33 13.0075 4.66 13.6875 5 C6.16157567 4.3622098 -0.98348882 2.80110167 -8.3125 1 C-8.3125 0.67 -8.3125 0.34 -8.3125 0 C-2.90701796 -1.25708885 -2.90701796 -1.25708885 0 0 Z " fill="#E5A275" transform="translate(140.3125,139)"/>
<path d="M0 0 C0 0.66 0 1.32 0 2 C-0.804375 2.12375 -1.60875 2.2475 -2.4375 2.375 C-3.283125 2.58125 -4.12875 2.7875 -5 3 C-5.33 3.66 -5.66 4.32 -6 5 C-8.24904075 5.60808476 -10.52650935 6.11283552 -12.8125 6.5625 C-14.05644531 6.81128906 -15.30039062 7.06007812 -16.58203125 7.31640625 C-18.27392578 7.65478516 -18.27392578 7.65478516 -20 8 C-21.33616664 8.32178814 -22.67131772 8.64858529 -24 9 C-21.87137029 6.63178069 -20.12590354 5.44702459 -17.12890625 4.39453125 C-16.38962891 4.13349609 -15.65035156 3.87246094 -14.88867188 3.60351562 C-14.12103516 3.34248047 -13.35339844 3.08144531 -12.5625 2.8125 C-11.4168457 2.40354492 -11.4168457 2.40354492 -10.24804688 1.98632812 C-6.52244772 0.6925822 -4.02986241 0 0 0 Z " fill="#E6AD88" transform="translate(646,125)"/>
<path d="M0 0 C1.32 0.33 2.64 0.66 4 1 C3.27683594 1.68835937 3.27683594 1.68835937 2.5390625 2.390625 C1.90742187 3.00421875 1.27578125 3.6178125 0.625 4.25 C-0.00148438 4.85328125 -0.62796875 5.4565625 -1.2734375 6.078125 C-3.89171986 8.99259315 -4.94249425 11.07990808 -5.1875 15 C-5.03110676 17.50229179 -4.73367959 19.61554133 -4 22 C-5.32 21.34 -6.64 20.68 -8 20 C-8.10807131 18.06372231 -8.1856225 16.12572244 -8.25 14.1875 C-8.29640625 13.10855469 -8.3428125 12.02960938 -8.390625 10.91796875 C-8 8 -8 8 -6.125 6.24609375 C-5.42375 5.83488281 -4.7225 5.42367187 -4 5 C-2.62913085 3.70529025 -1.28659163 2.37849103 0 1 C0 0.67 0 0.34 0 0 Z " fill="#E6B493" transform="translate(93,60)"/>
<path d="M0 0 C1.65 0 3.3 0 5 0 C4.01 0.495 4.01 0.495 3 1 C3.66 1.66 4.32 2.32 5 3 C5.99 2.67 6.98 2.34 8 2 C8 2.99 8 3.98 8 5 C10.64 4.67 13.28 4.34 16 4 C15.01 5.485 15.01 5.485 14 7 C6.64987044 6.42351925 -0.01424576 4.28953836 -7 2 C-3.98968256 1.06576355 -3.13349732 0.95550089 0 2 C0 1.34 0 0.68 0 0 Z " fill="#E4AA81" transform="translate(128,313)"/>
<path d="M0 0 C-1.65 0.66 -3.3 1.32 -5 2 C-4.67 3.32 -4.34 4.64 -4 6 C-6.31 6.33 -8.62 6.66 -11 7 C-11 6.01 -11 5.02 -11 4 C-14.3 4 -17.6 4 -21 4 C-21 3.67 -21 3.34 -21 3 C-18.25244513 2.30111323 -15.50268803 1.6156012 -12.75 0.9375 C-11.97269531 0.73833984 -11.19539063 0.53917969 -10.39453125 0.33398438 C-9.64042969 0.15029297 -8.88632812 -0.03339844 -8.109375 -0.22265625 C-7.07248535 -0.48187866 -7.07248535 -0.48187866 -6.01464844 -0.74633789 C-3.74929191 -1.03156637 -2.1631688 -0.68076195 0 0 Z " fill="#E8AA82" transform="translate(307,199)"/>
<path d="M0 0 C0.268125 0.5775 0.53625 1.155 0.8125 1.75 C1.95053246 4.05747896 1.95053246 4.05747896 3.625 6.125 C5 8 5 8 5 10 C5.66 10 6.32 10 7 10 C7 10.66 7 11.32 7 12 C7.61875 12.268125 8.2375 12.53625 8.875 12.8125 C11 14 11 14 13 17 C12.4225 16.690625 11.845 16.38125 11.25 16.0625 C9.15705816 15.07416636 7.25464725 14.4831387 5 14 C4.01 15.485 4.01 15.485 3 17 C2.67 16.67 2.34 16.34 2 16 C2.020625 15.0925 2.04125 14.185 2.0625 13.25 C1.9983188 9.91257776 1.24777967 8.04146294 0 5 C-0.125 2.1875 -0.125 2.1875 0 0 Z " fill="#E5A377" transform="translate(495,165)"/>
<path d="M0 0 C0 0.33 0 0.66 0 1 C-1.65 1 -3.3 1 -5 1 C-5 1.66 -5 2.32 -5 3 C-6.0725 2.979375 -7.145 2.95875 -8.25 2.9375 C-13.85856733 2.92741265 -19.42011337 3.47921058 -25 4 C-25 4.66 -25 5.32 -25 6 C-27.31 5.67 -29.62 5.34 -32 5 C-32 4.67 -32 4.34 -32 4 C-28.16852166 3.3223726 -24.33456759 2.65990233 -20.5 2 C-18.88351563 1.71382813 -18.88351563 1.71382813 -17.234375 1.421875 C-11.39841946 0.42549235 -5.91994598 -0.22990081 0 0 Z " fill="#EBC3A9" transform="translate(180,2)"/>
<path d="M0 0 C-0.33 0.33 -0.66 0.66 -1 1 C-0.34 1.66 0.32 2.32 1 3 C-8.15564771 3.34915606 -16.95960217 2.27041977 -26 1 C-26 0.67 -26 0.34 -26 0 C-25.40461426 0.00523682 -24.80922852 0.01047363 -24.19580078 0.01586914 C-21.50554453 0.03661999 -18.81530511 0.04965407 -16.125 0.0625 C-15.18785156 0.07087891 -14.25070313 0.07925781 -13.28515625 0.08789062 C-12.38925781 0.09111328 -11.49335938 0.09433594 -10.5703125 0.09765625 C-9.74289551 0.10289307 -8.91547852 0.10812988 -8.06298828 0.11352539 C-0.93 -0.279 -0.93 -0.279 0 0 Z " fill="#E6AB85" transform="translate(193,146)"/>
<path d="M0 0 C9.07692308 -0.15384615 9.07692308 -0.15384615 13 1 C13.66 1.66 14.32 2.32 15 3 C15.33 2.01 15.66 1.02 16 0 C17.33333333 1.33333333 18.66666667 2.66666667 20 4 C20 4.99 20 5.98 20 7 C13.33333333 5 6.66666667 3 0 1 C0 0.67 0 0.34 0 0 Z " fill="#E5B493" transform="translate(307,41)"/>
<path d="M0 0 C0.33 0 0.66 0 1 0 C1 1.98 1 3.96 1 6 C1.66 6 2.32 6 3 6 C3.02712153 7.916588 3.04645097 9.8332873 3.0625 11.75 C3.07410156 12.81734375 3.08570313 13.8846875 3.09765625 14.984375 C2.94533762 19.68797428 2.94533762 19.68797428 2 22 C1.01 22.33 0.02 22.66 -1 23 C-0.9278125 22.09378906 -0.855625 21.18757813 -0.78125 20.25390625 C-0.26514231 13.4799928 0.11712147 6.79304544 0 0 Z " fill="#E39E70" transform="translate(712,202)"/>
<path d="M0 0 C2.64 0 5.28 0 8 0 C7.67 0.66 7.34 1.32 7 2 C11.29 2.33 15.58 2.66 20 3 C20 3.33 20 3.66 20 4 C13.30386804 4.797837 6.74233419 5.12910853 0 5 C0.33 4.34 0.66 3.68 1 3 C0.67 2.01 0.34 1.02 0 0 Z " fill="#E5A376" transform="translate(248,323)"/>
<path d="M0 0 C0 0.66 0 1.32 0 2 C0.70125 2.226875 1.4025 2.45375 2.125 2.6875 C5.69343613 4.31656867 8.06514511 6.40640731 11 9 C7.07103605 9 3.80106772 7.99700137 0 7 C0.33 6.01 0.66 5.02 1 4 C-1.31 3.34 -3.62 2.68 -6 2 C-6 1.34 -6 0.68 -6 0 C-3 -1 -3 -1 0 0 Z " fill="#E9AE89" transform="translate(511,183)"/>
<path d="M0 0 C0.99 0.33 1.98 0.66 3 1 C4.89212737 1.22179785 6.78884472 1.40614015 8.6875 1.5625 C9.68136719 1.64628906 10.67523438 1.73007813 11.69921875 1.81640625 C12.83810547 1.90728516 12.83810547 1.90728516 14 2 C8.6636166 4.82863975 3.07589367 6.37974335 -3 6 C-2.01 4.02 -1.02 2.04 0 0 Z " fill="#E49D6F" transform="translate(299,137)"/>
<path d="M0 0 C-0.474375 0.61875 -0.94875 1.2375 -1.4375 1.875 C-3.02417441 3.90705546 -3.02417441 3.90705546 -4 6 C-10.625 6.25 -10.625 6.25 -14 4 C-13.01 4 -12.02 4 -11 4 C-11 3.34 -11 2.68 -11 2 C-7.17010894 0.19769832 -4.21878192 -0.19622241 0 0 Z " fill="#DE8850" transform="translate(267,295)"/>
<path d="M0 0 C0.94875 0.845625 1.8975 1.69125 2.875 2.5625 C7.33372472 6.39865125 12.14105687 9.69552761 17 13 C16.01 13.495 16.01 13.495 15 14 C12.875 13.0625 12.875 13.0625 11 12 C10.67 12.99 10.34 13.98 10 15 C8 13 8 13 6.6875 10.1875 C4.88414414 6.78116116 2.74323351 4.66909206 0 2 C0 1.34 0 0.68 0 0 Z " fill="#E9BA9C" transform="translate(89,344)"/>
<path d="M0 0 C0.66 0.33 1.32 0.66 2 1 C0.7260411 3.03833424 -0.61061923 5.03852126 -2 7 C-2.66 7 -3.32 7 -4 7 C-4.33 7.66 -4.66 8.32 -5 9 C-6.98 9 -8.96 9 -11 9 C-7.56638098 5.36440339 -4.2026393 2.63886654 0 0 Z " fill="#E9B48E" transform="translate(620,134)"/>
<path d="M0 0 C2.475 0.495 2.475 0.495 5 1 C5.33 2.32 5.66 3.64 6 5 C6.598125 5.103125 7.19625 5.20625 7.8125 5.3125 C12.18897586 6.68796384 13.8226451 10.16370804 16 14 C10.04750017 11.2097657 4.2868498 7.00132476 0 2 C0 1.34 0 0.68 0 0 Z " fill="#E6B493" transform="translate(67,366)"/>
<path d="M0 0 C6.74609618 0.66355044 13.34448534 1.71865793 20 3 C20 3.33 20 3.66 20 4 C17.69 4.33 15.38 4.66 13 5 C13 4.34 13 3.68 13 3 C12.01 3 11.02 3 10 3 C10 3.66 10 4.32 10 5 C8.35 5 6.7 5 5 5 C5 4.34 5 3.68 5 3 C2.03 2.505 2.03 2.505 -1 2 C-0.67 1.34 -0.34 0.68 0 0 Z " fill="#E4A882" transform="translate(149,290)"/>
<path d="M0 0 C0.66 0.99 1.32 1.98 2 3 C1.34 3 0.68 3 0 3 C0.33 4.65 0.66 6.3 1 8 C-1.49092811 9.24546405 -2.41080733 8.7767578 -5 8 C-4.01 9.32 -3.02 10.64 -2 12 C-2.99 12.33 -3.98 12.66 -5 13 C-7.1875 11.5625 -7.1875 11.5625 -9 10 C-7.625 8.5 -7.625 8.5 -6 7 C-5.34 7 -4.68 7 -4 7 C-3.71125 6.401875 -3.4225 5.80375 -3.125 5.1875 C-2 3 -2 3 0 0 Z " fill="#E7A880" transform="translate(357,258)"/>
<path d="M0 0 C0.66 0.33 1.32 0.66 2 1 C3.4465242 1.15067214 4.8987934 1.24861036 6.3515625 1.31640625 C7.62773437 1.37924805 7.62773437 1.37924805 8.9296875 1.44335938 C9.81914062 1.48267578 10.70859375 1.52199219 11.625 1.5625 C12.97078125 1.62727539 12.97078125 1.62727539 14.34375 1.69335938 C16.56234283 1.79956861 18.7810488 1.90161194 21 2 C21 2.33 21 2.66 21 3 C10.44 3 -0.12 3 -11 3 C-6.97030584 0.98515292 -5.32390204 0.90391329 -1 1 C-0.67 0.67 -0.34 0.34 0 0 Z " fill="#DD8044" transform="translate(223,236)"/>
<path d="M0 0 C2.97 0.495 2.97 0.495 6 1 C6 1.66 6 2.32 6 3 C8.31 3 10.62 3 13 3 C10.20261218 4.5067748 7.59677568 5.48224115 4.5 6.1875 C3.7471875 6.36667969 2.994375 6.54585937 2.21875 6.73046875 C-0.14833379 7.01801942 -1.74544015 6.72248395 -4 6 C-3.01 6 -2.02 6 -1 6 C-1.33 5.01 -1.66 4.02 -2 3 C-1.34 3 -0.68 3 0 3 C0 3.66 0 4.32 0 5 C0.66 5 1.32 5 2 5 C2 4.01 2 3.02 2 2 C1.34 1.34 0.68 0.68 0 0 Z " fill="#E6A77B" transform="translate(298,226)"/>
<path d="M0 0 C16.8929385 -0.18451025 16.8929385 -0.18451025 24 1 C24 1.33 24 1.66 24 2 C22.79601562 1.98839844 21.59203125 1.97679687 20.3515625 1.96484375 C18.77604321 1.95546566 17.20052225 1.94636548 15.625 1.9375 C14.8309375 1.92912109 14.036875 1.92074219 13.21875 1.91210938 C8.97607778 1.76959849 8.97607778 1.76959849 5 3 C3.32345271 2.72057545 1.65391846 2.39171753 0 2 C0 1.34 0 0.68 0 0 Z " fill="#D87032" transform="translate(216,235)"/>
<path d="M0 0 C-0.66 0 -1.32 0 -2 0 C-2.33 0.99 -2.66 1.98 -3 3 C-5.44609505 3.89192978 -7.73372081 4.57856991 -10.25 5.1875 C-11.25353516 5.45336914 -11.25353516 5.45336914 -12.27734375 5.72460938 C-15.91910207 6.6511471 -19.24279637 7.21116067 -23 7 C-19.11776299 4.92204024 -15.04290214 3.38297337 -10.9375 1.8125 C-10.21755859 1.52697266 -9.49761719 1.24144531 -8.75585938 0.94726562 C-3.34864042 -1.11621347 -3.34864042 -1.11621347 0 0 Z " fill="#E9BCA0" transform="translate(329,102)"/>
<path d="M0 0 C1.98 0.66 3.96 1.32 6 2 C-1.90322581 7.2688172 -1.90322581 7.2688172 -6.4375 6.6875 C-6.953125 6.460625 -7.46875 6.23375 -8 6 C-7.34 6 -6.68 6 -6 6 C-6.33 4.68 -6.66 3.36 -7 2 C-4.69 2 -2.38 2 0 2 C0 1.34 0 0.68 0 0 Z " fill="#E5A175" transform="translate(697,289)"/>
<path d="M0 0 C0.33 0 0.66 0 1 0 C1.66 3.3 2.32 6.6 3 10 C-1 11 -1 11 -3 11 C-3.99 11.66 -4.98 12.32 -6 13 C-5.71382812 12.43796875 -5.42765625 11.8759375 -5.1328125 11.296875 C-3.98584069 8.97129077 -2.92160206 6.62229799 -1.875 4.25 C-1.52179687 3.45078125 -1.16859375 2.6515625 -0.8046875 1.828125 C-0.53914062 1.22484375 -0.27359375 0.6215625 0 0 Z " fill="#E6A479" transform="translate(708,232)"/>
<path d="M0 0 C1.69141656 0.08963062 3.37959602 0.24577676 5.0625 0.4375 C6.44115234 0.59025391 6.44115234 0.59025391 7.84765625 0.74609375 C8.55792969 0.82988281 9.26820313 0.91367188 10 1 C6.50663182 3.32891212 5.13992135 3.23551143 1.01953125 3.1953125 C-0.72553711 3.18564453 -0.72553711 3.18564453 -2.50585938 3.17578125 C-3.72080078 3.15902344 -4.93574219 3.14226562 -6.1875 3.125 C-7.41404297 3.11597656 -8.64058594 3.10695312 -9.90429688 3.09765625 C-12.93639295 3.07406017 -15.96809938 3.04113841 -19 3 C-19 2.67 -19 2.34 -19 2 C-17.71222656 1.93941406 -16.42445313 1.87882813 -15.09765625 1.81640625 C-13.41925841 1.73201753 -11.74087364 1.6473687 -10.0625 1.5625 C-8.78729492 1.50352539 -8.78729492 1.50352539 -7.48632812 1.44335938 C-6.67744141 1.40146484 -5.86855469 1.35957031 -5.03515625 1.31640625 C-3.91185913 1.26141968 -3.91185913 1.26141968 -2.76586914 1.20532227 C-0.97538674 1.18228937 -0.97538674 1.18228937 0 0 Z " fill="#E29E70" transform="translate(534,154)"/>
<path d="M0 0 C-0.99 0.495 -0.99 0.495 -2 1 C-3.13350534 3.01669827 -3.13350534 3.01669827 -4 5 C-4.66 5 -5.32 5 -6 5 C-6 5.66 -6 6.32 -6 7 C-8.31 6.34 -10.62 5.68 -13 5 C-4.82022472 -1.60674157 -4.82022472 -1.60674157 0 0 Z " fill="#E6A77E" transform="translate(338,360)"/>
<path d="M0 0 C6.00477279 0.64916463 11.400781 2.85795003 17 5 C17 5.33 17 5.66 17 6 C13.7 6.33 10.4 6.66 7 7 C7 6.01 7 5.02 7 4 C6.01 4 5.02 4 4 4 C4 3.34 4 2.68 4 2 C2.68 1.34 1.36 0.68 0 0 Z " fill="#E4AE8B" transform="translate(118,191)"/>
<path d="M0 0 C3.18283344 1.43048694 5.57915658 3.19017243 8.1875 5.5 C8.88230469 6.1084375 9.57710938 6.716875 10.29296875 7.34375 C12 9 12 9 13 11 C10.03 10.505 10.03 10.505 7 10 C7 9.01 7 8.02 7 7 C6.01 7.33 5.02 7.66 4 8 C2.66666667 5.33333333 1.33333333 2.66666667 0 0 Z " fill="#E5AF8C" transform="translate(363,32)"/>
<path d="M0 0 C3.21043882 1.38188453 5.04936365 2.92421903 7.25 5.625 C8.03117188 6.57246094 8.03117188 6.57246094 8.828125 7.5390625 C9.40820312 8.26222656 9.40820312 8.26222656 10 9 C6.28125 10.1171875 6.28125 10.1171875 3.75 9.0625 C3.1725 8.711875 2.595 8.36125 2 8 C2.04125 7.236875 2.0825 6.47375 2.125 5.6875 C2.22080824 2.77281584 2.22080824 2.77281584 0 0 Z " fill="#E4AD89" transform="translate(719,142)"/>
<path d="M0 0 C2.97 0.33 5.94 0.66 9 1 C8.67 2.32 8.34 3.64 8 5 C5.36 4.67 2.72 4.34 0 4 C0 2.68 0 1.36 0 0 Z " fill="#DD8349" transform="translate(288,139)"/>
<path d="M0 0 C-4.10542266 2.29903669 -8.69099505 4.35523153 -13.4375 3.625 C-13.953125 3.41875 -14.46875 3.2125 -15 3 C-14.34 2.67 -13.68 2.34 -13 2 C-13.66 1.34 -14.32 0.68 -15 0 C-9.65370398 -1.0024305 -5.37625234 -0.84888195 0 0 Z " fill="#E9A97D" transform="translate(319,316)"/>
<path d="M0 0 C0 3.81433253 -0.5661396 6.44651988 -2 10 C-4.24340786 11.7822917 -6.37000291 12.78240876 -9 14 C-7.65070536 10.16336928 -5.92248975 7.34827431 -3.375 4.1875 C-2.42753906 3.00220703 -2.42753906 3.00220703 -1.4609375 1.79296875 C-0.97882812 1.20128906 -0.49671875 0.60960937 0 0 Z " fill="#E8B28F" transform="translate(598,153)"/>
<path d="M0 0 C-1 1 -1 1 -3.5625 1.0625 C-4.7690625 1.0315625 -4.7690625 1.0315625 -6 1 C-6 1.66 -6 2.32 -6 3 C-10.62 3 -15.24 3 -20 3 C-20 2.67 -20 2.34 -20 2 C-17.23062417 1.47007619 -14.45996921 0.9507542 -11.6875 0.4375 C-10.90181641 0.28603516 -10.11613281 0.13457031 -9.30664062 -0.02148438 C-8.54931641 -0.16005859 -7.79199219 -0.29863281 -7.01171875 -0.44140625 C-6.31522217 -0.57232666 -5.61872559 -0.70324707 -4.90112305 -0.83813477 C-3 -1 -3 -1 0 0 Z " fill="#EBBB9D" transform="translate(296,291)"/>
<path d="M0 0 C0.33 0.66 0.66 1.32 1 2 C-1.64 5.63 -4.28 9.26 -7 13 C-8.24546405 10.50907189 -7.7767578 9.58919267 -7 7 C-6.01 7 -5.02 7 -4 7 C-4.33 5.68 -4.66 4.36 -5 3 C-3.35 2.01 -1.7 1.02 0 0 Z " fill="#E6B392" transform="translate(736,258)"/>
<path d="M0 0 C0.495 0.268125 0.99 0.53625 1.5 0.8125 C4.9236946 2.43875493 8.44132285 3.69515171 12 5 C11.01 5.495 11.01 5.495 10 6 C10.66 7.32 11.32 8.64 12 10 C8.78727751 8.56006357 6.3793336 6.76981628 3.75 4.4375 C3.04359375 3.81746094 2.3371875 3.19742187 1.609375 2.55859375 C1.07828125 2.04425781 0.5471875 1.52992188 0 1 C0 0.67 0 0.34 0 0 Z " fill="#E7B593" transform="translate(603,271)"/>
<path d="M0 0 C0.66 0.33 1.32 0.66 2 1 C1.67 2.32 1.34 3.64 1 5 C1.66 5.33 2.32 5.66 3 6 C0.75 6.75 0.75 6.75 -2 7 C-4.3125 5.0625 -4.3125 5.0625 -6 3 C-4.03533587 1.93224776 -2.03144641 0.93446535 0 0 Z " fill="#DF9261" transform="translate(340,184)"/>
<path d="M0 0 C0.66 0.33 1.32 0.66 2 1 C2 2.66666667 2 4.33333333 2 6 C1.01 6 0.02 6 -1 6 C-3.33564933 6.31669821 -5.6693782 6.64820803 -8 7 C-5.4837822 4.39391727 -2.94865641 2.10618315 0 0 Z " fill="#E3AA83" transform="translate(349,88)"/>
<path d="M0 0 C10.55808656 -0.18451025 10.55808656 -0.18451025 15 1 C15 1.33 15 1.66 15 2 C9.61972975 3.19088986 4.54708616 4.2919519 -1 4 C0.32 3.67 1.64 3.34 3 3 C3 2.34 3 1.68 3 1 C2.01 0.67 1.02 0.34 0 0 Z " fill="#E8AE8B" transform="translate(282,404)"/>
<path d="M0 0 C0.66 0.33 1.32 0.66 2 1 C1.53411505 6.70709064 0.06242216 10.15939723 -3 15 C-3.33 15 -3.66 15 -4 15 C-4.20140476 11.37471432 -3.85776765 9.13498292 -2 6 C-1.34 6.33 -0.68 6.66 0 7 C0 4.69 0 2.38 0 0 Z " fill="#EBB28D" transform="translate(387,345)"/>
<path d="M0 0 C0 3 0 3 -1.53125 4.60546875 C-2.1809375 5.12753906 -2.830625 5.64960938 -3.5 6.1875 C-4.1496875 6.71730469 -4.799375 7.24710937 -5.46875 7.79296875 C-5.9740625 8.19128906 -6.479375 8.58960938 -7 9 C-6.835 8.236875 -6.67 7.47375 -6.5 6.6875 C-5.90854604 3.96403764 -5.90854604 3.96403764 -6 1 C-4 0 -4 0 0 0 Z " fill="#E4A37A" transform="translate(556,273)"/>
<path d="M0 0 C3.44703434 1.53201526 6.06586771 3.65269416 9 6 C10.31138904 6.70885894 11.63777017 7.39456452 13 8 C10.34889421 9.32555289 9.30451612 8.77065982 6.5 7.9375 C2.23091861 6.47107397 2.23091861 6.47107397 0.4375 2.8125 C0.293125 1.884375 0.14875 0.95625 0 0 Z " fill="#E7B28F" transform="translate(94,266)"/>
<path d="M0 0 C1.98 0.99 1.98 0.99 4 2 C4.33 1.34 4.66 0.68 5 0 C5.67354499 1.43429001 6.33859701 2.87257057 7 4.3125 C7.556875 5.51326172 7.556875 5.51326172 8.125 6.73828125 C9 9 9 9 9 12 C8.443125 11.278125 7.88625 10.55625 7.3125 9.8125 C5.0270024 6.92913577 5.0270024 6.92913577 2.25 4.3125 C0 2 0 2 0 0 Z " fill="#E9B392" transform="translate(593,259)"/>
<path d="M0 0 C6.27 0 12.54 0 19 0 C19 0.66 19 1.32 19 2 C20.65 2 22.3 2 24 2 C24 2.33 24 2.66 24 3 C21.3122562 2.85790331 18.62486698 2.7114277 15.9375 2.5625 C15.18533203 2.52318359 14.43316406 2.48386719 13.65820312 2.44335938 C9.05301259 2.18419281 4.55633276 1.7200579 0 1 C0 0.67 0 0.34 0 0 Z " fill="#E9C3A9" transform="translate(164,235)"/>
<path d="M0 0 C0.99 0.66 1.98 1.32 3 2 C2 4 2 4 0 5 C0.66 6.32 1.32 7.64 2 9 C-1.34998521 7.88333826 -1.79340222 7.25305075 -3.6875 4.4375 C-4.12449219 3.79683594 -4.56148438 3.15617188 -5.01171875 2.49609375 C-5.50091797 1.75552734 -5.50091797 1.75552734 -6 1 C-3 0 -3 0 0 0 Z " fill="#E6A276" transform="translate(485,203)"/>
<path d="M0 0 C0.33 0.66 0.66 1.32 1 2 C-3.56327794 5.53286034 -7.49633208 5.32374517 -13 5 C-8.58197723 2.05465149 -5.30525709 0.72344415 0 0 Z " fill="#E6A377" transform="translate(331,279)"/>
<path d="M0 0 C2.66666667 2.66666667 5.33333333 5.33333333 8 8 C7.67 8.66 7.34 9.32 7 10 C4.83125748 9.49396008 3.00032373 9.00016187 1 8 C1.33 6.68 1.66 5.36 2 4 C1.01 4 0.02 4 -1 4 C-0.67 2.68 -0.34 1.36 0 0 Z " fill="#E5A67B" transform="translate(86,256)"/>
<path d="M0 0 C-0.33 1.65 -0.66 3.3 -1 5 C-2.32 5 -3.64 5 -5 5 C-4.67 5.66 -4.34 6.32 -4 7 C-6.64 6.67 -9.28 6.34 -12 6 C-3 0 -3 0 0 0 Z " fill="#EAAF88" transform="translate(695,253)"/>
<path d="M0 0 C2.64 0.33 5.28 0.66 8 1 C7.01 2.485 7.01 2.485 6 4 C2.7421875 4.29296875 2.7421875 4.29296875 -1.125 4.1875 C-3.04699219 4.14689453 -3.04699219 4.14689453 -5.0078125 4.10546875 C-5.99523437 4.07066406 -6.98265625 4.03585938 -8 4 C-8 3.67 -8 3.34 -8 3 C-6.865625 2.87625 -5.73125 2.7525 -4.5625 2.625 C-3.386875 2.41875 -2.21125 2.2125 -1 2 C-0.67 1.34 -0.34 0.68 0 0 Z " fill="#E39460" transform="translate(668,153)"/>
<path d="M0 0 C1.23556641 0.01740234 1.23556641 0.01740234 2.49609375 0.03515625 C3.32238281 0.04417969 4.14867187 0.05320313 5 0.0625 C5.63808594 0.07410156 6.27617187 0.08570313 6.93359375 0.09765625 C4.89539529 2.13585471 3.63941577 2.77606684 0.99609375 3.78515625 C0.30644531 4.05714844 -0.38320313 4.32914063 -1.09375 4.609375 C-3.06640625 5.09765625 -3.06640625 5.09765625 -6.06640625 4.09765625 C-6.06640625 3.43765625 -6.06640625 2.77765625 -6.06640625 2.09765625 C-5.07640625 1.76765625 -4.08640625 1.43765625 -3.06640625 1.09765625 C-2.06640625 0.09765625 -2.06640625 0.09765625 0 0 Z " fill="#E8AC85" transform="translate(335.06640625,128.90234375)"/>
<path d="M0 0 C-0.33 0.99 -0.66 1.98 -1 3 C-0.67 3.99 -0.34 4.98 0 6 C-1.051875 5.814375 -2.10375 5.62875 -3.1875 5.4375 C-6.57119882 5.04920669 -8.76425888 5.11752515 -12 6 C-8.59780735 3.25207517 -4.51535412 0 0 0 Z " fill="#E9B18D" transform="translate(341,95)"/>
<path d="M0 0 C0.66 0.33 1.32 0.66 2 1 C0.63875 1.61875 0.63875 1.61875 -0.75 2.25 C-4.00658808 3.78259341 -4.00658808 3.78259341 -6 6.125 C-8.5636464 8.5284185 -10.56271218 8.68751929 -14 9 C-11.85343531 6.70585899 -9.67079882 5.02401594 -7 3.375 C-5.9790625 2.73691406 -5.9790625 2.73691406 -4.9375 2.0859375 C-3 1 -3 1 0 0 Z " fill="#E7BA9D" transform="translate(97,23)"/>
<path d="M0 0 C0.66 0.33 1.32 0.66 2 1 C1.67 2.32 1.34 3.64 1 5 C0.34 5 -0.32 5 -1 5 C-1.66 5.66 -2.32 6.32 -3 7 C-5.625 7.125 -5.625 7.125 -8 7 C-5.42215154 4.35247996 -3.08351902 2.05567935 0 0 Z " fill="#E6AB86" transform="translate(350,177)"/>
<path d="M0 0 C0.86625 0.556875 0.86625 0.556875 1.75 1.125 C-4 6.125 -4 6.125 -6.25 6.125 C-6.58 5.135 -6.91 4.145 -7.25 3.125 C-5.61609754 -0.14280491 -3.47460528 -1.35123539 0 0 Z " fill="#E3A57C" transform="translate(640.25,162.875)"/>
<path d="M0 0 C1.81612488 0.95144598 3.62781081 1.91136933 5.4375 2.875 C6.44683594 3.40867187 7.45617187 3.94234375 8.49609375 4.4921875 C11 6 11 6 12 8 C9.36 7.34 6.72 6.68 4 6 C4 5.34 4 4.68 4 4 C1.03 3.505 1.03 3.505 -2 3 C-1.34 2.67 -0.68 2.34 0 2 C0 1.34 0 0.68 0 0 Z " fill="#E5AF8D" transform="translate(96,89)"/>
<path d="M0 0 C5.23880078 0.55145271 9.97350697 1.42922093 15 3 C11.0186217 4.3271261 7.14954773 4.06915913 3 4 C2.67 3.01 2.34 2.02 2 1 C1.34 0.67 0.68 0.34 0 0 Z " fill="#E7B797" transform="translate(135,370)"/>
<path d="M0 0 C0.33 0.66 0.66 1.32 1 2 C1.99 2.33 2.98 2.66 4 3 C3.95875 3.86625 3.9175 4.7325 3.875 5.625 C4.00457721 9.12358468 4.76019656 11.74551597 6 15 C3.62317631 12.86285601 2.40068998 11.06221946 1.3125 8.0625 C1.06113281 7.39347656 0.80976562 6.72445313 0.55078125 6.03515625 C0 4 0 4 0 0 Z " fill="#E8C0A4" transform="translate(56,344)"/>
<path d="M0 0 C0.66 0.66 1.32 1.32 2 2 C-4.11485027 2.09706112 -9.93303301 1.77040851 -16 1 C-16 0.67 -16 0.34 -16 0 C-14.27185839 -0.19672365 -12.54240803 -0.38196799 -10.8125 -0.5625 C-9.84957031 -0.66691406 -8.88664063 -0.77132813 -7.89453125 -0.87890625 C-5.01842125 -0.99922934 -2.76079812 -0.79629238 0 0 Z " fill="#E5B697" transform="translate(194,326)"/>
<path d="M0 0 C6.75 0.75 6.75 0.75 9 3 C9 3.99 9 4.98 9 6 C9.66 6.33 10.32 6.66 11 7 C7.51669784 6.35494404 4.90567134 5.01782732 2 3 C2 2.34 2 1.68 2 1 C1.34 0.67 0.68 0.34 0 0 Z " fill="#E2A67F" transform="translate(87,298)"/>
<path d="M0 0 C0 1.65 0 3.3 0 5 C-3.55780196 4.39009109 -6.6828589 3.4216319 -10 2 C-9.401875 1.855625 -8.80375 1.71125 -8.1875 1.5625 C-2.11111111 0 -2.11111111 0 0 0 Z " fill="#E1A077" transform="translate(641,289)"/>
<path d="M0 0 C0.33 0 0.66 0 1 0 C1.33 6.27 1.66 12.54 2 19 C0.68 18.67 -0.64 18.34 -2 18 C-1.67 17.34 -1.34 16.68 -1 16 C-0.7677354 13.28737884 -0.58063765 10.59226874 -0.4375 7.875 C-0.39431641 7.12089844 -0.35113281 6.36679688 -0.30664062 5.58984375 C-0.2005168 3.72678112 -0.09974999 1.86341476 0 0 Z " fill="#E9B697" transform="translate(614,205)"/>
<path d="M0 0 C3.86379545 3.00517424 6.90983192 5.45081065 9 10 C8.67 10.66 8.34 11.32 8 12 C7.01 11.67 6.02 11.34 5 11 C4.33333333 9 3.66666667 7 3 5 C2.01 4.67 1.02 4.34 0 4 C0 2.68 0 1.36 0 0 Z " fill="#E8BCA0" transform="translate(376,43)"/>
<path d="M0 0 C2.94751667 2.74423966 5.22773678 5.36219655 7 9 C6.67 9.99 6.34 10.98 6 12 C5.67 10.68 5.34 9.36 5 8 C3.35 7.67 1.7 7.34 0 7 C0.2784375 6.1028125 0.2784375 6.1028125 0.5625 5.1875 C1.22093687 2.83591238 1.22093687 2.83591238 0 0 Z " fill="#EDBC9B" transform="translate(553,222)"/>
<path d="M0 0 C4.95 0 9.9 0 15 0 C15 0.66 15 1.32 15 2 C15.66 2.33 16.32 2.66 17 3 C5.47835991 2.03644647 5.47835991 2.03644647 0 1 C0 0.67 0 0.34 0 0 Z " fill="#EABFA5" transform="translate(153,406)"/>
<path d="M0 0 C2 1 2 1 4 3 C5.98821313 3.39764263 7.98944339 3.73775349 10 4 C10 4.33 10 4.66 10 5 C4.84828377 5.09038099 0.08086796 4.84681133 -5 4 C-3.35 2.68 -1.7 1.36 0 0 Z " fill="#E8AF8A" transform="translate(168,321)"/>
<path d="M0 0 C3.63 0.33 7.26 0.66 11 1 C11 1.33 11 1.66 11 2 C9.23225581 2.53122363 7.46065917 3.04964073 5.6875 3.5625 C4.70136719 3.85253906 3.71523438 4.14257812 2.69921875 4.44140625 C0 5 0 5 -3 4 C-2.34 3.67 -1.68 3.34 -1 3 C-0.67 2.01 -0.34 1.02 0 0 Z " fill="#E7BB9F" transform="translate(649,156)"/>
<path d="M0 0 C0.66 0 1.32 0 2 0 C2.28875 0.639375 2.5775 1.27875 2.875 1.9375 C3.82823451 4.15206079 3.82823451 4.15206079 6 5 C6 5.66 6 6.32 6 7 C1.94718288 5.77472971 -1.44360764 4.30119506 -5 2 C-4.34 1.67 -3.68 1.34 -3 1 C-0.875 1.9375 -0.875 1.9375 1 3 C0.67 2.01 0.34 1.02 0 0 Z " fill="#ECBE9F" transform="translate(93,120)"/>
<path d="M0 0 C1.65 0 3.3 0 5 0 C4.01 0.495 4.01 0.495 3 1 C3.33 1.99 3.66 2.98 4 4 C2.741875 3.87625 1.48375 3.7525 0.1875 3.625 C-0.87404297 3.52058594 -0.87404297 3.52058594 -1.95703125 3.4140625 C-4 3 -4 3 -7 1 C-4.69 1.33 -2.38 1.66 0 2 C0 1.34 0 0.68 0 0 Z " fill="#E2A175" transform="translate(128,313)"/>
<path d="M0 0 C-1.93356782 0.69848264 -3.87202298 1.38344814 -5.8125 2.0625 C-6.89144531 2.44535156 -7.97039062 2.82820312 -9.08203125 3.22265625 C-12 4 -12 4 -15 3 C-13.68 2.67 -12.36 2.34 -11 2 C-11 1.34 -11 0.68 -11 0 C-3.375 -1.125 -3.375 -1.125 0 0 Z " fill="#E9C0A8" transform="translate(327,225)"/>
<path d="M0 0 C2.64 0.99 5.28 1.98 8 3 C7.67 3.99 7.34 4.98 7 6 C5.68 6 4.36 6 3 6 C3 5.34 3 4.68 3 4 C1.68 3.67 0.36 3.34 -1 3 C-0.67 2.01 -0.34 1.02 0 0 Z " fill="#D86F30" transform="translate(95,209)"/>
<path d="M0 0 C0.66 0 1.32 0 2 0 C2.33 0.66 2.66 1.32 3 2 C3.99 2.33 4.98 2.66 6 3 C6.6875 5.0625 6.6875 5.0625 7 7 C3.22454612 5.90931332 0.52956528 5.0916909 -2 2 C-1.34 1.34 -0.68 0.68 0 0 Z " fill="#E8AA82" transform="translate(93,210)"/>
<path d="M0 0 C3.94139078 1.66751148 6.7892812 4.22710649 10 7 C7.16032769 7 4.76264289 6.59732819 2 6 C1.34 4.02 0.68 2.04 0 0 Z " fill="#E6BA9D" transform="translate(522,193)"/>
<path d="M0 0 C-0.66 0.66 -1.32 1.32 -2 2 C-2.33 2.99 -2.66 3.98 -3 5 C-3 4.34 -3 3.68 -3 3 C-6.3 3.33 -9.6 3.66 -13 4 C-10.96180154 1.96180154 -9.70582202 1.32158941 -7.0625 0.3125 C-6.37285156 0.04050781 -5.68320312 -0.23148438 -4.97265625 -0.51171875 C-3 -1 -3 -1 0 0 Z " fill="#E6B899" transform="translate(330,191)"/>
<path d="M0 0 C0.226875 0.61875 0.45375 1.2375 0.6875 1.875 C2.37929835 4.61410209 3.99244161 5.05024472 7 6 C6.01 6.495 6.01 6.495 5 7 C5.33 8.65 5.66 10.3 6 12 C3.02404533 9.44918171 1.55997434 6.56565563 0 3 C0 2.01 0 1.02 0 0 Z " fill="#EDC0A3" transform="translate(464,180)"/>
<path d="M0 0 C0.29648437 0.61617187 0.59296875 1.23234375 0.8984375 1.8671875 C1.96156895 4.0783294 1.96156895 4.0783294 3.625 6.125 C5 8 5 8 5 10 C5.66 10 6.32 10 7 10 C6.67 10.66 6.34 11.32 6 12 C3.5625 11.0625 3.5625 11.0625 1 9 C0.2475065 6.01122299 0.07090135 3.07454047 0 0 Z " fill="#EFC9B1" transform="translate(495,165)"/>
<path d="M0 0 C2.71843438 3.62457917 3.41789544 4.80884715 4 9 C2.68 8.67 1.36 8.34 0 8 C-0.33 8.66 -0.66 9.32 -1 10 C-0.67 6.7 -0.34 3.4 0 0 Z " fill="#E6AA83" transform="translate(738,165)"/>
<path d="M0 0 C0.66 0.66 1.32 1.32 2 2 C0.58249437 1.88490339 -0.83401169 1.75746342 -2.25 1.625 C-3.03890625 1.55539063 -3.8278125 1.48578125 -4.640625 1.4140625 C-7.085877 0.98492887 -8.84836903 0.21399362 -11 -1 C-6.60241521 -2.02269414 -4.02870334 -2.1262601 0 0 Z " fill="#E9B898" transform="translate(143,140)"/>
<path d="M0 0 C0 0.66 0 1.32 0 2 C-0.66 2 -1.32 2 -2 2 C-2 2.66 -2 3.32 -2 4 C-4.475 3.01 -4.475 3.01 -7 2 C-7.33 2.66 -7.66 3.32 -8 4 C-8.66 3.34 -9.32 2.68 -10 2 C-3.375 -1.125 -3.375 -1.125 0 0 Z " fill="#E4AA83" transform="translate(118,16)"/>
<path d="M0 0 C3.8063457 0.67170806 7.35206816 1.72746564 11 3 C11 3.33 11 3.66 11 4 C8.03 4 5.06 4 2 4 C1.34 2.68 0.68 1.36 0 0 Z " fill="#ECB591" transform="translate(123,282)"/>
<path d="M0 0 C1.65 0 3.3 0 5 0 C5.33 0.99 5.66 1.98 6 3 C8.01508358 3.73323796 8.01508358 3.73323796 10 4 C10 4.66 10 5.32 10 6 C5.56909529 4.79157144 3.01887244 3.48331435 0 0 Z " fill="#E9B391" transform="translate(615,281)"/>
<path d="M0 0 C2.88575819 0.39803561 3.82189513 0.79009069 5.75 3.0625 C6.1625 3.701875 6.575 4.34125 7 5 C6.34 5 5.68 5 5 5 C5.66 6.65 6.32 8.3 7 10 C3.60582235 6.87378374 1.3937282 4.43458973 0 0 Z " fill="#EDBE9E" transform="translate(470,192)"/>
<path d="M0 0 C0.144375 0.639375 0.28875 1.27875 0.4375 1.9375 C0.81007181 3.97545146 0.81007181 3.97545146 2 5 C2.04092937 7.33297433 2.04241723 9.66705225 2 12 C0.04417512 9.06626269 -1.56224304 6.21783702 -3 3 C-2.67 2.34 -2.34 1.68 -2 1 C-1.67 1.33 -1.34 1.66 -1 2 C-0.67 1.34 -0.34 0.68 0 0 Z " fill="#EEBE9D" transform="translate(708,182)"/>
<path d="M0 0 C2.375 0.625 2.375 0.625 5 2 C6.74051798 5.72968139 7.24058415 8.91006939 7 13 C6.7525 12.484375 6.505 11.96875 6.25 11.4375 C5.19473418 9.37973165 4.08843974 7.37972777 2.9375 5.375 C1.92096756 3.60426608 0.91310863 1.82621725 0 0 Z " fill="#F1C9AF" transform="translate(353,64)"/>
<path d="M0 0 C1.65 0.33 3.3 0.66 5 1 C2.11912454 3.40072955 -0.56404834 5.47291037 -4 7 C-3.67 5.68 -3.34 4.36 -3 3 C-2.01 3 -1.02 3 0 3 C0 2.01 0 1.02 0 0 Z " fill="#E6AD89" transform="translate(101,53)"/>
<path d="M0 0 C0.928125 0.20625 1.85625 0.4125 2.8125 0.625 C0.19051226 2.77877564 -1.83154172 4.02572174 -5.1875 4.625 C-5.5175 3.635 -5.8475 2.645 -6.1875 1.625 C-3.1875 -0.375 -3.1875 -0.375 0 0 Z " fill="#E3A378" transform="translate(111.1875,49.375)"/>
<path d="M0 0 C3.55780196 0.60990891 6.6828589 1.5783681 10 3 C10 3.33 10 3.66 10 4 C5.545 4.495 5.545 4.495 1 5 C1.66 4.67 2.32 4.34 3 4 C2.01 2.68 1.02 1.36 0 0 Z " fill="#EAB898" transform="translate(113,278)"/>
<path d="M0 0 C0.33 0.66 0.66 1.32 1 2 C0.67 2.99 0.34 3.98 0 5 C0.66 5.33 1.32 5.66 2 6 C-0.64 6.66 -3.28 7.32 -6 8 C-4.02 5.36 -2.04 2.72 0 0 Z " fill="#E8B391" transform="translate(701,245)"/>
<path d="M0 0 C1.39195915 4.17587745 -0.17676781 6.13474776 -2 10 C-3.4783226 7.04335481 -3.06032783 4.25770263 -3 1 C-2.01 0.67 -1.02 0.34 0 0 Z " fill="#E4AE8B" transform="translate(744,240)"/>
<path d="M0 0 C2.475 0.99 2.475 0.99 5 2 C5 2.66 5 3.32 5 4 C6.32 4.33 7.64 4.66 9 5 C7.02 5.99 7.02 5.99 5 7 C3.29115995 5.37660195 1.62553283 3.70680947 0 2 C0 1.34 0 0.68 0 0 Z " fill="#E8AC85" transform="translate(519,239)"/>
<path d="M0 0 C3.7952131 1.49097658 5.61042731 3.75700849 8 7 C2.25 5.25 2.25 5.25 0 3 C0 2.01 0 1.02 0 0 Z " fill="#EBB898" transform="translate(532,201)"/>
<path d="M0 0 C0.66 0 1.32 0 2 0 C1.67 4.95 1.34 9.9 1 15 C0.67 15 0.34 15 0 15 C-0.19390729 12.68802845 -0.37996367 10.3753971 -0.5625 8.0625 C-0.71912109 6.13083984 -0.71912109 6.13083984 -0.87890625 4.16015625 C-0.91886719 3.11730469 -0.95882812 2.07445312 -1 1 C-0.67 0.67 -0.34 0.34 0 0 Z " fill="#D66E31" transform="translate(715,203)"/>
<path d="M0 0 C4.72727273 4.36363636 4.72727273 4.36363636 5.9375 7.1875 C5.9684375 8.0846875 5.9684375 8.0846875 6 9 C5.34 9.66 4.68 10.32 4 11 C3.67 9.35 3.34 7.7 3 6 C2.01 5.67 1.02 5.34 0 5 C0 3.35 0 1.7 0 0 Z " fill="#E6B08A" transform="translate(729,152)"/>
<path d="M0 0 C0.66 0.33 1.32 0.66 2 1 C1.01 3.64 0.02 6.28 -1 9 C-2.32 8.67 -3.64 8.34 -5 8 C-3.62845496 5.04590299 -2.01136276 2.55991624 0 0 Z " fill="#E5AF8B" transform="translate(70,41)"/>
<path d="M0 0 C4.10801767 1.18676066 5.89448334 1.89448334 9 5 C6.03 4.67 3.06 4.34 0 4 C0 2.68 0 1.36 0 0 Z " fill="#E9B08D" transform="translate(349,24)"/>
<path d="M0 0 C-3.63195496 2.42130331 -5.38349348 2.21022785 -9.6875 2.125 C-10.86699219 2.10695313 -12.04648437 2.08890625 -13.26171875 2.0703125 C-14.16535156 2.04710937 -15.06898438 2.02390625 -16 2 C-16 1.67 -16 1.34 -16 1 C-14.0852312 0.63571223 -12.16807707 0.28394694 -10.25 -0.0625 C-9.18265625 -0.25972656 -8.1153125 -0.45695312 -7.015625 -0.66015625 C-4.25228095 -0.97156937 -2.59053383 -0.8991416 0 0 Z " fill="#EEC5A9" transform="translate(290,376)"/>
<path d="M0 0 C-1.32 0.33 -2.64 0.66 -4 1 C-4.33 2.32 -4.66 3.64 -5 5 C-8 4 -8 4 -11 2 C-9.73392393 1.46770674 -8.46189588 0.94955456 -7.1875 0.4375 C-6.47980469 0.14746094 -5.77210938 -0.14257812 -5.04296875 -0.44140625 C-3 -1 -3 -1 0 0 Z " fill="#E5B18E" transform="translate(322,367)"/>
<path d="M0 0 C2.40072955 2.88087546 4.47291037 5.56404834 6 9 C4.02 8.34 2.04 7.68 0 7 C0 4.69 0 2.38 0 0 Z " fill="#ECBFA2" transform="translate(802,244)"/>
<path d="M0 0 C0.66 0.99 1.32 1.98 2 3 C-2.51617599 3.07654536 -6.59085217 3.10228696 -11 2 C-11 1.67 -11 1.34 -11 1 C-3.52173913 -0.39130435 -3.52173913 -0.39130435 0 0 Z " fill="#E9AF87" transform="translate(286,203)"/>
<path d="M0 0 C0.33 1.32 0.66 2.64 1 4 C0.34 4 -0.32 4 -1 4 C-1 5.65 -1 7.3 -1 9 C-2.32 9 -3.64 9 -5 9 C-3.50163895 5.88801935 -1.80066242 2.9465385 0 0 Z " fill="#E6B493" transform="translate(358,167)"/>
<path d="M0 0 C0.66 0.33 1.32 0.66 2 1 C0.1875 4 0.1875 4 -2 7 C-2.99 7 -3.98 7 -5 7 C-3.75023244 3.34683329 -3.32901247 2.21934164 0 0 Z " fill="#E19868" transform="translate(620,134)"/>
<path d="M0 0 C2.64 0.99 5.28 1.98 8 3 C5 5 5 5 1 5 C0.67 3.35 0.34 1.7 0 0 Z " fill="#DF8A50" transform="translate(704,133)"/>
<path d="M0 0 C2.64 0.33 5.28 0.66 8 1 C7.67 1.99 7.34 2.98 7 4 C5.35 4 3.7 4 2 4 C2 3.34 2 2.68 2 2 C1.34 1.34 0.68 0.68 0 0 Z " fill="#E7A67C" transform="translate(686,126)"/>
<path d="M0 0 C3.875 2.875 3.875 2.875 5 4 C5 4.99 5 5.98 5 7 C3.35 6.67 1.7 6.34 0 6 C0 5.34 0 4.68 0 4 C-0.66 3.67 -1.32 3.34 -2 3 C-1.34 3 -0.68 3 0 3 C0 2.01 0 1.02 0 0 Z " fill="#E59865" transform="translate(322,41)"/>
<path d="M0 0 C4.29 0 8.58 0 13 0 C13 0.33 13 0.66 13 1 C10.02148438 1.34179688 10.02148438 1.34179688 7.04296875 1.68359375 C4.80603607 1.97170735 4.80603607 1.97170735 2 3 C1.34 2.67 0.68 2.34 0 2 C0 1.34 0 0.68 0 0 Z " fill="#E59B6D" transform="translate(166,378)"/>
<path d="M0 0 C0.8971875 0.7734375 0.8971875 0.7734375 1.8125 1.5625 C2.534375 2.036875 3.25625 2.51125 4 3 C4.99 2.67 5.98 2.34 7 2 C7 2.99 7 3.98 7 5 C6.01 5.66 5.02 6.32 4 7 C0 2.25 0 2.25 0 0 Z " fill="#E6AD86" transform="translate(62,359)"/>
<path d="M0 0 C1.91015625 0.70703125 1.91015625 0.70703125 4.0625 1.8125 C4.77535156 2.16957031 5.48820313 2.52664062 6.22265625 2.89453125 C8 4 8 4 9 6 C5.37 5.01 1.74 4.02 -2 3 C-2 2.34 -2 1.68 -2 1 C-1.34 0.67 -0.68 0.34 0 0 Z " fill="#E6A272" transform="translate(513,187)"/>
<path d="M0 0 C2.97 1.65 5.94 3.3 9 5 C5.79937313 6.60031344 3.27728194 5.03173691 0 4 C0 2.68 0 1.36 0 0 Z " fill="#EDBE9F" transform="translate(97,179)"/>
<path d="M0 0 C0 3.58912412 -0.66436554 4.10857029 -3 6.6875 C-3.556875 7.31011719 -4.11375 7.93273437 -4.6875 8.57421875 C-5.120625 9.04472656 -5.55375 9.51523438 -6 10 C-7 8 -7 8 -6.875 6.0625 C-5.63977691 3.15090271 -3.73809484 2.43749979 -1 1 C-0.67 0.67 -0.34 0.34 0 0 Z " fill="#EAC9B4" transform="translate(631,171)"/>
<path d="M0 0 C1.32 0.33 2.64 0.66 4 1 C3.67 1.33 3.34 1.66 3 2 C3.66 2.33 4.32 2.66 5 3 C2 5 2 5 -1 5 C-1.33 4.01 -1.66 3.02 -2 2 C-1.34 2 -0.68 2 0 2 C0 1.34 0 0.68 0 0 Z " fill="#E8A57A" transform="translate(352,298)"/>
<path d="M0 0 C1.32 0.33 2.64 0.66 4 1 C4.33 2.65 4.66 4.3 5 6 C3.68 5.67 2.36 5.34 1 5 C0.67 3.35 0.34 1.7 0 0 Z " fill="#DF8D57" transform="translate(624,283)"/>
<path d="M0 0 C0.99 0 1.98 0 3 0 C4 3 4 3 3 6 C3.66 6.33 4.32 6.66 5 7 C4.34 7.66 3.68 8.32 3 9 C0 3.375 0 3.375 0 0 Z " fill="#E2B393" transform="translate(583,240)"/>
<path d="M0 0 C2.875 0.6875 2.875 0.6875 6 2 C7.375 4.625 7.375 4.625 8 7 C5.05043472 5.63055898 2.47531189 4.12169591 0 2 C0 1.34 0 0.68 0 0 Z " fill="#ECC1A7" transform="translate(494,218)"/>
<path d="M0 0 C2.31 0.33 4.62 0.66 7 1 C7.33 2.65 7.66 4.3 8 6 C4.08597051 4.73058503 2.20927127 3.48832306 0 0 Z " fill="#E7B99B" transform="translate(345,57)"/>
<path d="M0 0 C0 0.33 0 0.66 0 1 C-1.65 1 -3.3 1 -5 1 C-5 1.66 -5 2.32 -5 3 C-6.98 3 -8.96 3 -11 3 C-8.21756596 -1.17365106 -4.53441502 -0.22300402 0 0 Z " fill="#E7AA83" transform="translate(180,2)"/>
<path d="M0 0 C3.63 0 7.26 0 11 0 C7.96474514 2.02350324 6.80573798 2.32124018 3.3125 2.625 C2.50425781 2.69976562 1.69601562 2.77453125 0.86328125 2.8515625 C0.24839844 2.90054687 -0.36648438 2.94953125 -1 3 C-0.67 2.01 -0.34 1.02 0 0 Z " fill="#E7C1A9" transform="translate(299,402)"/>
<path d="M0 0 C0.33 0.99 0.66 1.98 1 3 C-4.75 4.125 -4.75 4.125 -7 3 C-3.375 0 -3.375 0 0 0 Z " fill="#EBAF88" transform="translate(350,352)"/>
<path d="M0 0 C1.134375 0.020625 2.26875 0.04125 3.4375 0.0625 C3.4375 1.0525 3.4375 2.0425 3.4375 3.0625 C0.5625 3.1875 0.5625 3.1875 -2.5625 3.0625 C-3.2225 2.4025 -3.8825 1.7425 -4.5625 1.0625 C-3.5625 0.0625 -3.5625 0.0625 0 0 Z " fill="#E18245" transform="translate(244.5625,324.9375)"/>
<path d="M0 0 C-0.66 0 -1.32 0 -2 0 C-2 0.66 -2 1.32 -2 2 C-5.32534757 3.10844919 -7.62182575 2.84454356 -11 2 C-6.99642627 -0.14477164 -4.43233175 -1.47744392 0 0 Z " fill="#E8B898" transform="translate(308,288)"/>
<path d="M0 0 C2.64 0 5.28 0 8 0 C8.66 1.32 9.32 2.64 10 4 C6.7 3.01 3.4 2.02 0 1 C0 0.67 0 0.34 0 0 Z " fill="#E9B897" transform="translate(105,219)"/>
<path d="M0 0 C5.75 1.75 5.75 1.75 8 4 C5.39417629 4.93065133 4.35801776 5.14917407 1.75 4.0625 C1.1725 3.711875 0.595 3.36125 0 3 C0 2.01 0 1.02 0 0 Z " fill="#EAB798" transform="translate(108,186)"/>
<path d="M0 0 C4.16138263 -0.08159574 7.9472484 0.01751476 12 1 C10.5 2.125 10.5 2.125 8 3 C5.2226918 2.57598348 2.70360217 1.81108065 0 1 C0 0.67 0 0.34 0 0 Z " fill="#E8B798" transform="translate(674,124)"/>
<path d="M0 0 C0.33 0 0.66 0 1 0 C1.33 2.31 1.66 4.62 2 7 C0.35 7 -1.3 7 -3 7 C-1.125 2.25 -1.125 2.25 0 0 Z " fill="#E7B493" transform="translate(358,77)"/>
<path d="M0 0 C0.33 0 0.66 0 1 0 C1 1.98 1 3.96 1 6 C-0.98 6.99 -0.98 6.99 -3 8 C-2.45276317 4.62537285 -1.9451 2.91765 0 0 Z " fill="#E9BB9A" transform="translate(61,53)"/>
<path d="M0 0 C0.66 0.33 1.32 0.66 2 1 C2 1.66 2 2.32 2 3 C2.66 3 3.32 3 4 3 C4.33 3.99 4.66 4.98 5 6 C1.62496331 4.8141763 -0.64722731 3.72426311 -3 1 C-2.01 0.67 -1.02 0.34 0 0 Z " fill="#E3B392" transform="translate(86,379)"/>
<path d="M0 0 C1.65 1.65 3.3 3.3 5 5 C-0.75 4.25 -0.75 4.25 -3 2 C-2.01 2 -1.02 2 0 2 C0 1.34 0 0.68 0 0 Z " fill="#EAB290" transform="translate(110,307)"/>
<path d="M0 0 C0.33 0 0.66 0 1 0 C1.33 3.63 1.66 7.26 2 11 C1.01 11.33 0.02 11.66 -1 12 C-0.67 8.04 -0.34 4.08 0 0 Z " fill="#ECC5AB" transform="translate(712,213)"/>
<path d="M0 0 C2.76223278 2.76223278 2.57856291 5.20706617 3 9 C2.34 9 1.68 9 1 9 C0.29925156 5.846632 0 3.27275026 0 0 Z " fill="#E7B390" transform="translate(386,57)"/>
<path d="M0 0 C3.82097239 0.53069061 6.06171403 1.49701566 9 4 C7.1875 4.625 7.1875 4.625 5 5 C4.01 4.34 3.02 3.68 2 3 C2 2.34 2 1.68 2 1 C1.34 0.67 0.68 0.34 0 0 Z " fill="#EDBE9E" transform="translate(340,20)"/>
</svg>
