<?xml version="1.0" encoding="UTF-8"?>
<svg version="1.1" xmlns="http://www.w3.org/2000/svg" width="1024" height="1024">
<path d="M0 0 C2.09789401 1.9642201 4.17736452 3.94667907 6.25 5.9375 C7.59578125 7.22140625 7.59578125 7.22140625 8.96875 8.53125 C34.63065565 33.55952835 43.86577965 61.83108715 44.48486328 96.90185547 C44.95740693 181.91398196 12.80693254 266.22008818 -52.75 395.9375 C-42.51069687 395.7701414 -32.71769897 394.49808744 -22.63711548 392.72637939 C15.23595352 386.1125363 15.23595352 386.1125363 29.25 393.9375 C30.301875 394.494375 31.35375 395.05125 32.4375 395.625 C41.74885004 403.28099892 47.05387198 411.89786811 48.48828125 423.9375 C49.01993537 438.26417957 41.66209684 450.03985383 32.625 460.5 C8.54367636 485.99149124 -25.8880235 499.21757154 -59.75 504.9375 C-61.0184375 505.164375 -62.286875 505.39125 -63.59375 505.625 C-75.47863595 507.39299956 -87.44979379 507.08267012 -99.43603516 506.95214844 C-100.54128036 506.9419593 -100.54128036 506.9419593 -101.66885376 506.93156433 C-103.70767636 506.9112031 -105.74642342 506.88365275 -107.78515625 506.85571289 C-110.63606952 506.59445642 -110.63606952 506.59445642 -111.75 507.9375 C-112.70243355 514.11611874 -113.05006941 520.29245333 -113.36328125 526.53125 C-113.47489268 528.61901942 -113.58731028 530.70674586 -113.70043945 532.79443359 C-113.75898102 533.87907898 -113.81752258 534.96372437 -113.87783813 536.08123779 C-116.31097601 580.30395089 -119.84906041 626.453489 -141.75 665.9375 C-142.30171875 666.98808594 -142.8534375 668.03867187 -143.421875 669.12109375 C-147.88525112 677.29332288 -153.5382024 684.0646802 -159.75 690.9375 C-160.40742187 691.67871094 -161.06484375 692.41992188 -161.7421875 693.18359375 C-186.41874578 719.50172565 -226.92495929 728.85714268 -261.55859375 731.12109375 C-283.58574497 731.73597318 -304.24553975 724.39960229 -320.75 709.9375 C-321.43835938 709.34453125 -322.12671875 708.7515625 -322.8359375 708.140625 C-345.43365433 687.23996991 -354.95717378 650.19293132 -358.75 620.9375 C-358.88067871 619.95990723 -359.01135742 618.98231445 -359.14599609 617.97509766 C-362.94564878 588.1901203 -363.44060774 557.91322226 -364.75 527.9375 C-366.31935303 528.54694458 -366.31935303 528.54694458 -367.92041016 529.16870117 C-375.23535681 531.9804736 -382.4163159 534.71786168 -390.125 536.25 C-390.88627197 536.40823242 -391.64754395 536.56646484 -392.43188477 536.72949219 C-421.72929362 542.65727505 -458.65105314 539.36237033 -484.625 523.625 C-490.11593738 519.9088269 -494.96654207 515.51343264 -499.75 510.9375 C-502.8369756 512.34203634 -505.53313252 514.13650628 -508.31860352 516.06054688 C-523.79559408 526.61688148 -540.76289808 529.60644231 -559.2578125 527.546875 C-572.62933936 524.9328923 -584.69297367 517.94941797 -594.75 508.9375 C-595.57886719 508.23882813 -596.40773438 507.54015625 -597.26171875 506.8203125 C-661.31286854 451.69512692 -683.15193995 337.28576562 -718.28564453 161.64404297 C-721.72469522 108.42406007 -714.44888346 49.12134873 -679.21875 6.69140625 C-646.50929688 -29.79619572 -604.20709706 -46.09387163 -555.75 -49.0625 C-511.86467802 -50.78956787 -468.29948639 -43.50257263 -426.53833008 -30.15869141 C-419.79956528 -28.07959332 -415.88804757 -27.59210057 -409.33203125 -30.6640625 C-408.07344006 -31.3346509 -406.81704131 -32.00936529 -405.5625 -32.6875 C-393.10575191 -39.11618064 -380.27824597 -43.70280411 -366.625 -46.875 C-365.79210449 -47.06989014 -364.95920898 -47.26478027 -364.10107422 -47.46557617 C-349.34911465 -50.67479921 -334.60734825 -51.43491642 -319.5625 -51.375 C-318.70258453 -51.37450653 -317.84266907 -51.37401306 -316.95669556 -51.37350464 C-302.84036096 -51.3489103 -288.9976747 -50.48572528 -274.98046875 -48.81640625 C-273.92545166 -48.69104492 -272.87043457 -48.56568359 -271.78344727 -48.43652344 C-269.81013758 -48.19321475 -267.83894914 -47.93178703 -265.87084961 -47.64941406 C-258.95971265 -46.77935292 -253.58007894 -47.73820273 -246.9375 -49.6875 C-162.73654753 -72.38231395 -65.77289862 -60.64257373 0 0 Z " fill="#FCFCFD" transform="translate(832.75,92.0625)"/>
<path d="M0 0 C0.97066406 0.22429687 1.94132813 0.44859375 2.94140625 0.6796875 C5.66098201 1.36915741 8.32316303 2.1585105 11 3 C11.6698291 3.20931152 12.3396582 3.41862305 13.02978516 3.63427734 C38.64823251 11.76982814 62.21050927 23.95461779 83 41 C83.56428711 41.46132324 84.12857422 41.92264648 84.70996094 42.39794922 C97.36874017 52.82220329 108.9328666 64.02569111 119 77 C120.01789143 78.2776129 121.03614582 79.55493668 122.0546875 80.83203125 C160 128.88179323 160 128.88179323 160 151 C158.71706055 150.98428955 158.71706055 150.98428955 157.40820312 150.96826172 C115.69857304 150.34190434 115.69857304 150.34190434 80.2578125 170.58984375 C67.48861188 184.22063403 66.26547404 202.23347368 66.80761719 219.92431641 C67.29798948 227.76405005 69.05242135 235.40851377 71 243 C71.33161133 244.29768311 71.33161133 244.29768311 71.66992188 245.62158203 C81.11018734 281.3915367 98.65921116 314.70967481 116.66015625 346.796875 C119.05897018 351.08496721 121.38680158 355.40858012 123.6875 359.75 C124.06036133 360.45286133 124.43322266 361.15572266 124.81738281 361.87988281 C126.53256155 365.13522205 128.20999007 368.40068751 129.80078125 371.71875 C136.70713569 386.07126589 146.41533139 398.36640128 156 411 C152.22068087 413.51954608 148.18498473 415.39649805 144.09375 417.34570312 C140.89049285 418.91000561 138.42363592 420.39299689 136 423 C135.34 423 134.68 423 134 423 C133.731875 423.54140625 133.46375 424.0828125 133.1875 424.640625 C132.32875309 426.34681952 131.45133359 428.04365892 130.5625 429.734375 C130.046875 430.72953125 129.53125 431.7246875 129 432.75 C128.484375 433.73484375 127.96875 434.7196875 127.4375 435.734375 C124.42705318 442.57332485 123.73859108 448.83120517 123.5625 456.1875 C122.55475749 482.72941763 118.54776461 509.15149423 115.1973877 535.47651672 C114.27324385 542.76575376 113.38921826 550.05909238 112.5234375 557.35546875 C110.22671703 576.61342229 107.74492653 595.81374353 104.5 614.9375 C104.368284 615.7409082 104.23656799 616.54431641 104.1008606 617.37207031 C100.53480401 638.91865954 93.77170395 661.96953038 75.46508789 675.51928711 C65.70000636 682.42221445 55.31228923 686.76488121 43.9375 690.25 C43.13497803 690.49645264 42.33245605 690.74290527 41.50561523 690.99682617 C30.54372546 694.20175261 19.83832535 695.36208122 8.4375 695.375 C7.29603516 695.39949219 6.15457031 695.42398438 4.97851562 695.44921875 C-8.39035604 695.4950287 -20.22196528 690.60152223 -30.0625 681.5 C-44.93831612 665.72261926 -52.26431701 644.95591386 -54.03515625 623.69921875 C-54.11873886 622.7421553 -54.20232147 621.78509186 -54.28843689 620.79902649 C-54.4633101 618.78153378 -54.63543599 616.76380122 -54.80493164 614.74584961 C-55.05867756 611.73288737 -55.32255764 608.72094574 -55.58789062 605.70898438 C-55.75842596 603.72661518 -55.92836527 601.7441946 -56.09765625 599.76171875 C-56.21174583 598.46206429 -56.21174583 598.46206429 -56.32814026 597.13615417 C-57.82171805 579.12252421 -58.14817666 561.11449067 -58.19923019 543.04700661 C-58.21123431 539.17376122 -58.23072762 535.30061701 -58.25234985 531.42741394 C-58.31347469 520.432684 -58.36841224 509.4379691 -58.40136719 498.44311523 C-58.42173652 491.6755422 -58.45763079 484.90817859 -58.50212479 478.14072227 C-58.51623145 475.57842059 -58.52499509 473.01608342 -58.52817917 470.45374489 C-58.53310221 466.8775578 -58.55628782 463.30190749 -58.58349609 459.72583008 C-58.58048996 458.6820369 -58.57748383 457.63824371 -58.5743866 456.56282043 C-58.71486598 444.09299545 -62.65191211 433.91570889 -71.140625 424.66796875 C-79.32292428 416.9577252 -87.70711417 414.07418812 -98.75 413.4375 C-99.44738281 413.39431641 -100.14476562 413.35113281 -100.86328125 413.30664062 C-102.57531922 413.20110404 -104.28763561 413.1001009 -106 413 C-104.75132911 405.62651303 -102.74872078 398.76871357 -100.1875 391.75 C-99.80150635 390.68152832 -99.4155127 389.61305664 -99.01782227 388.51220703 C-95.81082757 379.81724344 -92.17938222 371.34786414 -88.4375 362.875 C-75.30633437 333.0775006 -68.77372608 305.91113439 -68.75 273.375 C-68.74899292 272.41768982 -68.74798584 271.46037964 -68.74694824 270.47406006 C-68.75763696 255.43472147 -69.42561879 240.84784473 -72 226 C-72.1551709 225.07123047 -72.3103418 224.14246094 -72.47021484 223.18554688 C-73.5031761 217.09097019 -74.67727862 211.03817853 -76 205 C-76.23372314 203.92903076 -76.23372314 203.92903076 -76.47216797 202.83642578 C-80.09966367 186.71038403 -86.41046332 173.2479014 -100.21484375 163.75390625 C-117.98597051 152.56283203 -140.01446156 152.89575596 -159.94702148 157.23364258 C-176.12250594 161.0334696 -191.22280449 167.48300639 -206 175 C-205.56399614 163.12265333 -204.28163419 151.66345871 -202 140 C-201.82452637 139.09942871 -201.64905273 138.19885742 -201.46826172 137.27099609 C-193.9635297 99.43652741 -180.35656003 62.11252714 -153 34 C-152.16082031 33.09894531 -151.32164062 32.19789062 -150.45703125 31.26953125 C-111.68577814 -9.29202503 -51.50269882 -12.00280026 0 0 Z " fill="#336791" transform="translate(564,87)"/>
<path d="M0 0 C0.99322266 0.14985352 1.98644531 0.29970703 3.00976562 0.45410156 C24.58869419 3.79083018 45.30037225 9.08613852 66 16 C64.53556177 19.07745412 63.15950143 20.96146285 60.625 23.25 C23.44091332 59.76168005 5.5512912 122.69880991 3.91770649 173.56230068 C3.89930684 176.11816396 3.90985382 178.67197171 3.93408203 181.2277832 C3.93875488 182.18581848 3.94342773 183.14385376 3.94824219 184.13092041 C3.95866926 186.19437652 3.97130583 188.25782245 3.98596573 190.32125282 C4.00827708 193.61945907 4.02217296 196.91760526 4.03366089 200.21586609 C4.06694467 209.58889887 4.10797472 218.96183548 4.17138672 228.3347168 C4.33171253 252.819089 4.32487154 276.8685878 1.31182861 301.19009399 C0.60039758 307.60084092 0.56051602 313.99268403 0.625 320.4375 C0.60759766 322.2637793 0.60759766 322.2637793 0.58984375 324.12695312 C0.62964213 336.63027856 2.83171893 348.52806732 7.6875 360.0625 C8.03562744 360.90611084 8.38375488 361.74972168 8.74243164 362.61889648 C15.81457766 379.35063659 25.95483055 392.44504569 39 405 C37.59837957 408.14612093 35.93203803 410.34989679 33.55078125 412.828125 C32.86693359 413.54613281 32.18308594 414.26414062 31.47851562 415.00390625 C30.40633789 416.11572266 30.40633789 416.11572266 29.3125 417.25 C24.61211647 422.15512684 19.98613906 427.09031624 15.53881836 432.22705078 C13.60413836 434.45609189 11.61642586 436.63413953 9.625 438.8125 C5.67628555 443.18285684 1.9537279 447.70303079 -1.75 452.28125 C-4.64302158 455.77698441 -7.69142783 459.11422041 -10.75 462.46484375 C-13.08889421 465.10016031 -15.29715883 467.81277292 -17.5 470.5625 C-25.23190536 480.01705785 -33.18615751 489.4297852 -45.9296875 491.46875 C-57.57761281 491.85593865 -64.52642445 486.65012661 -72.99609375 479.2578125 C-83.491564 469.41698929 -90.93010877 456.40510135 -98 444 C-98.64453125 442.87722656 -99.2890625 441.75445313 -99.953125 440.59765625 C-114.86743709 413.64882811 -124.93636798 384.16321263 -134.9375 355.125 C-135.21285583 354.32929596 -135.48821167 353.53359192 -135.77191162 352.71377563 C-138.90001658 343.65062602 -141.77382621 334.59409162 -144.14892578 325.30322266 C-145.01739899 321.93247037 -145.96449734 318.59192952 -146.9375 315.25 C-149.17478551 307.47153063 -151.22830007 299.64992816 -153.26416016 291.81689453 C-154.06814285 288.73913993 -154.88347472 285.6645011 -155.69921875 282.58984375 C-163.74216777 252.14137973 -169.84178155 221.25699215 -175.3125 190.25 C-175.45953369 189.42628906 -175.60656738 188.60257813 -175.75805664 187.75390625 C-178.09306999 174.19417941 -179.38243262 160.93989246 -179.3125 147.1875 C-179.31067719 146.43531189 -179.30885437 145.68312378 -179.30697632 144.90814209 C-179.13722047 102.89384705 -170.98356252 61.15196688 -141.25 29.8125 C-126.6576037 15.83094819 -108.65114944 6.54201096 -89 2 C-87.88625 1.72671875 -86.7725 1.4534375 -85.625 1.171875 C-57.59966024 -5.32490831 -28.27960734 -4.30658541 0 0 Z " fill="#336791" transform="translate(334,86)"/>
<path d="M0 0 C2.09789401 1.9642201 4.17736452 3.94667907 6.25 5.9375 C7.59578125 7.22140625 7.59578125 7.22140625 8.96875 8.53125 C34.63065565 33.55952835 43.86577965 61.83108715 44.48486328 96.90185547 C44.95740693 181.91398196 12.80693254 266.22008818 -52.75 395.9375 C-42.51069687 395.7701414 -32.71769897 394.49808744 -22.63711548 392.72637939 C15.23595352 386.1125363 15.23595352 386.1125363 29.25 393.9375 C30.301875 394.494375 31.35375 395.05125 32.4375 395.625 C41.74885004 403.28099892 47.05387198 411.89786811 48.48828125 423.9375 C49.01993537 438.26417957 41.66209684 450.03985383 32.625 460.5 C8.54367636 485.99149124 -25.8880235 499.21757154 -59.75 504.9375 C-61.0184375 505.164375 -62.286875 505.39125 -63.59375 505.625 C-75.47863595 507.39299956 -87.44979379 507.08267012 -99.43603516 506.95214844 C-100.54128036 506.9419593 -100.54128036 506.9419593 -101.66885376 506.93156433 C-103.70767636 506.9112031 -105.74642342 506.88365275 -107.78515625 506.85571289 C-110.63606952 506.59445642 -110.63606952 506.59445642 -111.75 507.9375 C-112.70243355 514.11611874 -113.05006941 520.29245333 -113.36328125 526.53125 C-113.47489268 528.61901942 -113.58731028 530.70674586 -113.70043945 532.79443359 C-113.75898102 533.87907898 -113.81752258 534.96372437 -113.87783813 536.08123779 C-116.31097601 580.30395089 -119.84906041 626.453489 -141.75 665.9375 C-142.30171875 666.98808594 -142.8534375 668.03867187 -143.421875 669.12109375 C-147.88525112 677.29332288 -153.5382024 684.0646802 -159.75 690.9375 C-160.40742187 691.67871094 -161.06484375 692.41992188 -161.7421875 693.18359375 C-186.41874578 719.50172565 -226.92495929 728.85714268 -261.55859375 731.12109375 C-283.58574497 731.73597318 -304.24553975 724.39960229 -320.75 709.9375 C-321.43835938 709.34453125 -322.12671875 708.7515625 -322.8359375 708.140625 C-345.43365433 687.23996991 -354.95717378 650.19293132 -358.75 620.9375 C-358.88067871 619.95990723 -359.01135742 618.98231445 -359.14599609 617.97509766 C-362.94564878 588.1901203 -363.44060774 557.91322226 -364.75 527.9375 C-366.31935303 528.54694458 -366.31935303 528.54694458 -367.92041016 529.16870117 C-375.23535681 531.9804736 -382.4163159 534.71786168 -390.125 536.25 C-390.88627197 536.40823242 -391.64754395 536.56646484 -392.43188477 536.72949219 C-421.72929362 542.65727505 -458.65105314 539.36237033 -484.625 523.625 C-490.11593738 519.9088269 -494.96654207 515.51343264 -499.75 510.9375 C-502.8369756 512.34203634 -505.53313252 514.13650628 -508.31860352 516.06054688 C-523.79559408 526.61688148 -540.76289808 529.60644231 -559.2578125 527.546875 C-572.62933936 524.9328923 -584.69297367 517.94941797 -594.75 508.9375 C-595.57886719 508.23882813 -596.40773438 507.54015625 -597.26171875 506.8203125 C-661.31286854 451.69512692 -683.15193995 337.28576562 -718.28564453 161.64404297 C-721.72469522 108.42406007 -714.44888346 49.12134873 -679.21875 6.69140625 C-646.50929688 -29.79619572 -604.20709706 -46.09387163 -555.75 -49.0625 C-511.86467802 -50.78956787 -468.29948639 -43.50257263 -426.53833008 -30.15869141 C-419.79956528 -28.07959332 -415.88804757 -27.59210057 -409.33203125 -30.6640625 C-408.07344006 -31.3346509 -406.81704131 -32.00936529 -405.5625 -32.6875 C-393.10575191 -39.11618064 -380.27824597 -43.70280411 -366.625 -46.875 C-365.79210449 -47.06989014 -364.95920898 -47.26478027 -364.10107422 -47.46557617 C-349.34911465 -50.67479921 -334.60734825 -51.43491642 -319.5625 -51.375 C-318.70258453 -51.37450653 -317.84266907 -51.37401306 -316.95669556 -51.37350464 C-302.84036096 -51.3489103 -288.9976747 -50.48572528 -274.98046875 -48.81640625 C-273.92545166 -48.69104492 -272.87043457 -48.56568359 -271.78344727 -48.43652344 C-269.81013758 -48.19321475 -267.83894914 -47.93178703 -265.87084961 -47.64941406 C-258.95971265 -46.77935292 -253.58007894 -47.73820273 -246.9375 -49.6875 C-162.73654753 -72.38231395 -65.77289862 -60.64257373 0 0 Z M-255.25390625 -27.078125 C-260.84510431 -25.45386635 -264.7226646 -24.75848865 -270.375 -26.3125 C-286.36783596 -30.31811144 -302.24182385 -31.58703511 -318.6875 -31.4375 C-319.60510101 -31.43284729 -320.52270203 -31.42819458 -321.46810913 -31.42340088 C-334.72138259 -31.34470196 -347.79448587 -31.13696845 -360.75 -28.0625 C-361.61238281 -27.85850586 -362.47476562 -27.65451172 -363.36328125 -27.44433594 C-379.26433104 -23.53731834 -394.11223864 -18.05659442 -407.70458984 -8.8190918 C-410.44643643 -7.03669924 -412.27633457 -6.05400669 -415.58203125 -6.11328125 C-419.86257679 -7.39586148 -424.09117188 -8.78480374 -428.3125 -10.25 C-446.29574938 -16.33543116 -464.22010821 -21.06656419 -482.89526367 -24.53173828 C-484.73591659 -24.87395837 -486.57482202 -25.22578465 -488.41137695 -25.58935547 C-537.28210803 -35.04529882 -593.86841594 -33.53756286 -636.515625 -5.2265625 C-643.0261726 -0.62553305 -648.95472462 4.4722738 -654.75 9.9375 C-655.42675781 10.54980469 -656.10351562 11.16210938 -656.80078125 11.79296875 C-678.81104967 32.47997454 -689.28743065 63.02767261 -694.75 91.9375 C-694.91661133 92.81067871 -695.08322266 93.68385742 -695.25488281 94.58349609 C-697.8280318 108.85301898 -698.01050806 123.10906002 -698 137.5625 C-697.99940582 138.46673706 -697.99881165 139.37097412 -697.99819946 140.3026123 C-697.95506193 157.49906886 -696.63017672 173.95739226 -693.5625 190.875 C-693.24518384 192.64944917 -692.92813039 194.42394534 -692.61132812 196.19848633 C-691.81780121 200.62540834 -691.01286332 205.05015103 -690.20172119 209.47387695 C-689.78177716 211.76419187 -689.36412061 214.0549132 -688.94677734 216.34570312 C-685.73876757 233.88748921 -681.90878374 251.21113702 -677.59375 268.51220703 C-676.77782322 271.82454868 -675.99188441 275.1422785 -675.21875 278.46484375 C-672.04846321 292.07731519 -668.46169224 305.49510194 -664.38208008 318.86291504 C-663.66791549 321.20691411 -662.95799678 323.55218197 -662.24804688 325.89746094 C-634.67918215 426.75237457 -634.67918215 426.75237457 -567.60546875 501.49609375 C-557.62672212 506.53324492 -547.1305329 507.77243912 -536.21484375 505.05859375 C-519.0513643 498.86010236 -507.24014143 486.88280676 -496.125 472.88671875 C-488.99284896 464.03018251 -481.35992467 455.55336232 -473.7265625 447.12890625 C-471.88043439 445.08211204 -470.06006716 443.01618443 -468.25 440.9375 C-464.13686225 436.22198052 -459.95295124 431.57301304 -455.75 426.9375 C-455.24678223 426.37708008 -454.74356445 425.81666016 -454.22509766 425.23925781 C-452.61395741 423.44606507 -450.99515835 421.66004498 -449.375 419.875 C-448.86300049 419.30241455 -448.35100098 418.7298291 -447.82348633 418.13989258 C-445.49714957 415.59130172 -444.07891436 414.04713812 -440.75 412.9375 C-438.08287823 413.94396105 -435.53061872 415.01652473 -432.9375 416.1875 C-421.4837086 421.12080375 -410.19684193 423.276404 -397.75 423.9375 C-399.07375044 427.77436042 -400.67969584 430.28630869 -403.4375 433.25 C-406.70267999 436.79269077 -409.84596895 440.39886343 -412.9140625 444.11328125 C-418.27414148 449.43914696 -424.36919071 451.36778378 -431.4375 453.4375 C-432.45046143 453.74155762 -433.46342285 454.04561523 -434.50708008 454.35888672 C-440.93541922 456.24445233 -447.36375375 457.78501628 -453.9375 459.0625 C-466.60319396 461.54365273 -479.19370876 465.75418896 -486.75 476.9375 C-488.32118358 481.65105075 -488.77006837 486.34919568 -486.9140625 491.05859375 C-479.35412578 504.07284724 -465.55763811 509.58295065 -451.66870117 513.3137207 C-422.21638526 520.73295941 -391.13892455 517.51653888 -364.5 502.625 C-360.36315398 500.08904262 -356.62232523 497.3063841 -352.890625 494.20703125 C-351.4370459 493.00397339 -351.4370459 493.00397339 -349.95410156 491.77661133 C-349.22674805 491.16970459 -348.49939453 490.56279785 -347.75 489.9375 C-347.74635437 490.91863266 -347.74270874 491.89976532 -347.73895264 492.91062927 C-347.86733092 549.32217327 -347.86733092 549.32217327 -344.9375 605.625 C-344.86067993 606.55738495 -344.78385986 607.4897699 -344.70471191 608.45040894 C-342.31500954 636.55150368 -336.42959549 665.50691535 -316.75 686.9375 C-316.05261719 687.71480469 -315.35523438 688.49210938 -314.63671875 689.29296875 C-301.09270238 703.65491862 -283.24353839 710.75464407 -263.73217773 711.34277344 C-233.76644856 711.67352653 -200.98384651 703.56609447 -177.75 683.9375 C-177.09773437 683.44121094 -176.44546875 682.94492187 -175.7734375 682.43359375 C-152.87155633 664.23070414 -147.12696124 632.07465971 -142.75 604.9375 C-142.59853516 604.03193359 -142.44707031 603.12636719 -142.29101562 602.19335938 C-137.2319021 571.90271764 -133.80978376 541.31241914 -130.20846558 510.82125854 C-129.98824275 508.95808111 -129.7666906 507.09506025 -129.54373169 505.23220825 C-129.23519263 502.64623826 -128.93301607 500.05960552 -128.6328125 497.47265625 C-128.54250259 496.72262329 -128.45219269 495.97259033 -128.35914612 495.1998291 C-127.81375259 490.41504465 -127.67334236 485.75370275 -127.75 480.9375 C-126.94949219 481.24494141 -126.94949219 481.24494141 -126.1328125 481.55859375 C-125.38773438 481.82800781 -124.64265625 482.09742188 -123.875 482.375 C-123.15570312 482.64183594 -122.43640625 482.90867187 -121.6953125 483.18359375 C-96.04931823 489.74815196 -62.45342965 485.70721753 -37.75 476.9375 C-36.5125 476.53015625 -35.275 476.1228125 -34 475.703125 C-18.53267384 470.43242408 -4.34578252 462.32672208 8.25 451.9375 C9.58998047 450.86048828 9.58998047 450.86048828 10.95703125 449.76171875 C19.1428906 442.85221528 25.55525578 435.00073293 26.625 424.125 C26.55756395 420.10880873 25.30978145 417.71584341 23.02734375 414.48046875 C17.53054656 409.70852394 11.5681125 409.44991615 4.625 409.5625 C3.2961377 409.57337646 3.2961377 409.57337646 1.94042969 409.58447266 C-4.07417588 409.71036993 -9.55624232 410.49877022 -15.36865234 412.10546875 C-27.05170582 414.98025909 -39.1325798 415.31055853 -51.10595703 415.30810547 C-53.51274204 415.31252339 -55.91774979 415.34915578 -58.32421875 415.38671875 C-78.64571649 415.53519916 -78.64571649 415.53519916 -85.56542969 409.30224609 C-85.95633789 408.85187988 -86.34724609 408.40151367 -86.75 407.9375 C-86.11835937 406.98875 -85.48671875 406.04 -84.8359375 405.0625 C-45.50186187 345.44071578 -11.88437083 275.83650168 5.375 206.25 C5.87572298 204.27329072 6.37702415 202.2967278 6.87890625 200.3203125 C7.11367676 199.38993164 7.34844727 198.45955078 7.59033203 197.50097656 C8.1457408 195.34265234 8.72741242 193.19733459 9.33984375 191.0546875 C14.05773563 174.41890811 16.8153997 157.2494323 19.5 140.1875 C19.66306641 139.16615967 19.82613281 138.14481934 19.99414062 137.0925293 C23.735696 112.51966533 25.7935184 82.95132665 18.25 58.9375 C17.95246826 57.97626221 17.95246826 57.97626221 17.64892578 56.99560547 C13.56729292 44.52990255 5.0837585 34.22470438 -4.34375 25.30859375 C-5.75 23.9375 -5.75 23.9375 -7.6875 21.4375 C-10.67170051 17.82028726 -14.17357638 14.95602503 -17.75 11.9375 C-18.62785156 11.17179687 -19.50570312 10.40609375 -20.41015625 9.6171875 C-84.28579505 -45.23161136 -177.37308688 -51.47898241 -255.25390625 -27.078125 Z " fill="#010101" transform="translate(832.75,92.0625)"/>
<path d="M0 0 C0.892565 -0.00349457 1.78513 -0.00698914 2.70474243 -0.0105896 C14.49224738 -0.03617018 25.9597293 0.61072715 37.625 2.3125 C39.28668213 2.55383667 39.28668213 2.55383667 40.98193359 2.80004883 C79.1143715 8.74459254 115.73105761 25.13789369 142.625 53.3125 C143.45 54.1375 144.275 54.9625 145.125 55.8125 C145.95 56.6375 146.775 57.4625 147.625 58.3125 C148.14707031 58.79976562 148.66914062 59.28703125 149.20703125 59.7890625 C161.36240181 71.36821911 168.23514474 84.64769102 168.81591797 101.50244141 C168.91966293 106.37685442 168.90627467 111.24985114 168.875 116.125 C168.87156586 116.99443237 168.86813171 117.86386475 168.86459351 118.75964355 C168.68248169 158.05060615 161.22046309 197.32239271 148.55761719 234.53955078 C147.63433243 237.28475189 146.7377505 240.03791519 145.84690857 242.79379272 C127.97999537 298.04009751 103.78641856 350.70078878 73.625 400.3125 C72.87863281 401.57489502 72.87863281 401.57489502 72.1171875 402.86279297 C71.00732301 404.71297277 69.82479385 406.51932985 68.625 408.3125 C67.965 408.3125 67.305 408.3125 66.625 408.3125 C64.9375 406.625 64.9375 406.625 63.625 404.3125 C64.03851654 399.50866951 66.34327335 395.4172889 68.375 391.125 C71.2539002 384.84247395 73.66621514 378.6032649 75.5 371.9375 C75.69045898 371.25018799 75.88091797 370.56287598 76.07714844 369.85473633 C79.03822305 358.52849205 79.92140945 347.63093578 79.8125 335.9375 C79.81185547 334.63039063 79.81121094 333.32328125 79.81054688 331.9765625 C79.75463877 319.45314741 78.86772618 307.14690045 77.125 294.75 C73.75280411 269.63414489 74.10280214 245.69368158 78.16503906 220.67382812 C81.72410729 198.70739208 84.74557197 172.19795001 75.625 151.3125 C75.30321777 150.53729004 74.98143555 149.76208008 74.64990234 148.96337891 C62.28955555 119.30201374 45.53939859 91.87917467 23.625 68.3125 C22.4957788 67.00362998 21.3706406 65.6912241 20.25 64.375 C12.44964084 55.46030382 3.93797928 47.61704831 -5.375 40.3125 C-6.78265625 39.16201172 -6.78265625 39.16201172 -8.21875 37.98828125 C-21.80234861 27.11790144 -36.70110396 18.08425573 -52.59814453 11.02709961 C-58.28459651 8.49330698 -58.28459651 8.49330698 -59.375 6.3125 C-54.39328122 5.20282804 -49.39405806 4.23424156 -44.375 3.3125 C-43.24094727 3.0964209 -43.24094727 3.0964209 -42.08398438 2.87597656 C-28.09979778 0.31279024 -14.17277228 0.01784378 0 0 Z " fill="#336791" transform="translate(665.375,72.6875)"/>
<path d="M0 0 C1.04945801 -0.02247803 2.09891602 -0.04495605 3.18017578 -0.06811523 C14.49481404 -0.03346227 23.06692709 3.04154328 31.21484375 10.95703125 C37.39958742 18.05886169 39.4752262 26.4061146 41.375 35.4375 C41.6965584 36.86980428 42.01817702 38.30209504 42.33984375 39.734375 C53.19675555 89.4535691 49.53966602 135.81474549 29.08496094 182.22680664 C21.72265232 198.96200943 15.89589115 216.01938453 10.375 233.4375 C-12.31518283 233.92432826 -30.45719092 224.88179267 -46.625 209.4375 C-47.23988281 208.89738281 -47.85476563 208.35726562 -48.48828125 207.80078125 C-62.79992815 194.73934718 -72.03431302 172.42632579 -73.625 153.4375 C-74.07608041 142.7988491 -74.26035289 132.19201149 -72.203125 121.71484375 C-69.27357045 105.10743655 -69.43951035 88.17870392 -69.4375 71.375 C-69.43514343 69.86185715 -69.43514343 69.86185715 -69.43273926 68.31814575 C-69.42565618 57.95342188 -69.56274441 47.70703361 -70.49902344 37.38134766 C-71.42490146 26.75176353 -71.42490146 26.75176353 -69.02734375 22.8125 C-66.33147937 20.72421774 -63.805568 19.66461818 -60.625 18.4375 C-59.42866597 17.81753878 -58.24145287 17.17975248 -57.0625 16.52734375 C-47.03335342 11.04917354 -36.45452334 7.02648463 -25.625 3.4375 C-24.56410156 3.07398438 -23.50320313 2.71046875 -22.41015625 2.3359375 C-15.04337014 0.21984055 -7.61413708 0.10604493 0 0 Z " fill="#336791" transform="translate(427.625,261.5625)"/>
<path d="M0 0 C1.19818359 0.00064453 2.39636719 0.00128906 3.63085938 0.00195312 C10.82573649 0.03724135 17.91117237 0.39392272 25.0625 1.1875 C25.50554453 11.45325841 24.129014 21.25924308 22.625 31.375 C22.39176959 32.97839822 22.15934309 34.5819136 21.92773438 36.18554688 C21.81539963 36.9630278 21.70306488 37.74050873 21.58732605 38.54154968 C21.07605105 42.08977619 20.56847152 45.63851288 20.0625 49.1875 C19.93963623 50.01918701 19.81677246 50.85087402 19.69018555 51.70776367 C18.66823445 59.45655208 18.77786265 67.32176722 18.75 75.125 C18.74605225 75.93639435 18.74210449 76.7477887 18.73803711 77.58377075 C18.71185135 89.25336876 19.47253108 100.57145403 21.0625 112.125 C25.06325094 141.63238755 25.59839549 170.32476624 14.0625 198.1875 C13.4025 198.1875 12.7425 198.1875 12.0625 198.1875 C11.75135254 197.52443848 11.44020508 196.86137695 11.11962891 196.17822266 C5.35882093 183.93994105 -0.51492099 171.85309067 -7.1796875 160.08203125 C-22.12348554 133.68206541 -35.22515519 106.99294555 -44.9375 78.1875 C-45.18113281 77.47432617 -45.42476562 76.76115234 -45.67578125 76.02636719 C-49.58184651 64.50587104 -51.11496983 53.69785422 -51.25 41.5625 C-51.26772461 40.59650879 -51.28544922 39.63051758 -51.30371094 38.63525391 C-51.29321537 28.38283807 -49.12030034 19.74491351 -41.9375 12.1875 C-30.19780809 1.28094751 -15.33743954 -0.15625274 0 0 Z " fill="#346891" transform="translate(701.9375,257.8125)"/>
<path d="M0 0 C13.7921978 11.679187 22.26921487 28.83365512 23.9921875 46.8125 C24.58219326 60.24107873 25.14402143 73.89012532 20.9921875 86.8125 C20.64027344 87.92496094 20.28835938 89.03742188 19.92578125 90.18359375 C17.32441957 97.60992329 13.8286809 103.63441519 8.9921875 109.8125 C8.2290625 110.864375 7.4659375 111.91625 6.6796875 113 C1.46768441 118.45442183 -5.0546945 122.85742485 -12.0078125 125.8125 C-12.6678125 125.8125 -13.3278125 125.8125 -14.0078125 125.8125 C-14.0078125 126.4725 -14.0078125 127.1325 -14.0078125 127.8125 C-12.22697266 127.9671875 -12.22697266 127.9671875 -10.41015625 128.125 C-3.70314012 128.87124587 2.84344902 130.37377506 9.4296875 131.8125 C10.70779297 132.08578125 11.98589844 132.3590625 13.30273438 132.640625 C22.72135417 134.67708333 22.72135417 134.67708333 24.9921875 135.8125 C23.89520583 141.50389902 22.45165673 146.55817937 19.9921875 151.8125 C12.23717878 150.43980685 4.77725372 148.39800593 -2.7578125 146.125 C-4.52801758 145.59869995 -4.52801758 145.59869995 -6.33398438 145.06176758 C-11.91239248 143.39267603 -17.46939416 141.68121336 -22.9921875 139.8359375 C-32.48083694 136.6708466 -41.52063704 134.21533894 -51.43920898 132.86499023 C-62.85576235 131.23823191 -71.96229494 126.89016273 -81.0078125 119.8125 C-82.5546875 118.69875 -82.5546875 118.69875 -84.1328125 117.5625 C-98.07293385 104.22847088 -104.22753494 85.80283227 -105.2109375 66.91015625 C-105.66630662 43.37308358 -99.88649172 21.647435 -83.44921875 4.09765625 C-60.92665988 -16.98345885 -24.5137012 -17.82814633 0 0 Z M-72.27734375 19.36328125 C-84.23155804 36.28267709 -86.27391416 56.05600042 -83.69873047 76.234375 C-81.2074076 90.18323766 -74.00272988 102.50084201 -63.00390625 111.44140625 C-53.52002407 117.85979116 -42.4757383 119.28305151 -31.30859375 117.34375 C-20.63272908 114.52813734 -11.71100719 108.60482828 -5.98339844 99.11523438 C4.12123926 81.47105287 7.27482463 61.152386 2.3671875 41.25 C-1.68227922 26.57388394 -9.10366715 14.69974916 -22.453125 6.96875 C-40.60760352 -1.24795587 -59.87460845 4.46296996 -72.27734375 19.36328125 Z " fill="#326691" transform="translate(876.0078125,833.1875)"/>
<path d="M0 0 C8.01190476 6.02380952 8.01190476 6.02380952 10 10 C10.66 6.04 11.32 2.08 12 -2 C17.61 -2 23.22 -2 29 -2 C28.93849244 10.63180574 28.86117592 23.26340992 28.76428509 35.89499664 C28.71976699 41.76185198 28.68047101 47.62864083 28.65356445 53.49560547 C28.62734502 59.16919212 28.58681398 64.84252031 28.53681374 70.51594543 C28.52027007 72.66857155 28.5086787 74.82124224 28.50238609 76.97392273 C28.39996819 108.82236433 28.39996819 108.82236433 21 122 C20.443125 123.010625 19.88625 124.02125 19.3125 125.0625 C11.25856596 135.29317297 0.95327347 140.79503174 -11.90234375 142.71875 C-27.6215842 144.14596981 -43.12569938 143.25928954 -57 135 C-56.43179252 129.54520815 -55.05362055 125.08940744 -53 120 C-52.46632813 120.18175781 -51.93265625 120.36351562 -51.3828125 120.55078125 C-36.22416291 125.66485854 -22.67676392 129.62593544 -7 124 C-0.11224165 120.20949662 4.04332082 115.05914698 6.75 107.6875 C8.8417158 100.32692168 8.23724504 92.57426765 8 85 C7.25105469 85.93457031 6.50210938 86.86914062 5.73046875 87.83203125 C-0.46062318 95.24175639 -9.09031515 98.46689312 -18.55078125 99.3203125 C-32.20020022 99.73857866 -42.83606158 96.26475904 -53 87 C-64.48749151 74.29644133 -66.67690411 58.63542452 -66.13183594 42.23291016 C-65.27542895 27.72791328 -58.72034082 14.70017936 -48 5 C-44.81089739 2.62823029 -41.5720689 0.73451422 -38 -1 C-37.01 -1.50853516 -37.01 -1.50853516 -36 -2.02734375 C-25.52309986 -6.46774869 -9.74513437 -5.71756668 0 0 Z M-39.37109375 21.74609375 C-46.41376793 32.13247081 -48.02805832 44.92338158 -46.375 57.1875 C-44.56201663 66.2884364 -40.59900085 74.41554908 -33 80 C-26.3289276 83.84299384 -19.62069903 85.10299591 -12 84 C-4.25382796 81.72243055 1.72111293 77.52879318 5.8125 70.5 C9.8762899 63.02999137 9.25083947 55.04539638 9.3125 46.75 C9.34150391 45.46480469 9.37050781 44.17960938 9.40039062 42.85546875 C9.4717047 32.15835817 7.43138475 24.6103697 0.0390625 16.73046875 C-5.8374059 11.74335093 -12.76127056 10.30333947 -20.328125 10.61328125 C-27.93566302 11.71437228 -34.61770193 15.69262895 -39.37109375 21.74609375 Z " fill="#000000" transform="translate(450,865)"/>
<path d="M0 0 C8.77182366 8.8934133 11.37073982 18.28865226 11.5 30.5 C11.37498766 43.36500872 8.20190016 52.5652798 -0.8125 61.87109375 C-11.30968241 71.71220226 -24.0995498 74.89450573 -38.125 75.75 C-38.85267578 75.79479492 -39.58035156 75.83958984 -40.33007812 75.88574219 C-46.09409825 76.14680319 -51.12090162 75.58790984 -57 75 C-57 93.15 -57 111.3 -57 130 C-63.27 130 -69.54 130 -76 130 C-76 84.13 -76 38.26 -76 -9 C-51.88877506 -13.01853749 -20.24603365 -17.14597935 0 0 Z M-57 5 C-57 22.82 -57 40.64 -57 59 C-44.27567035 61.54486593 -30.53481376 61.14951568 -19.1875 54.375 C-13.73455098 50.45905815 -9.14150596 44.75188632 -8 38 C-7.24397971 28.81975363 -7.14228177 20.59228528 -13 13 C-19.32712103 6.53533287 -27.08785258 3.88680823 -36.0234375 3.671875 C-38.14075914 3.68236978 -40.25805628 3.70864335 -42.375 3.75 C-43.99341797 3.75773438 -43.99341797 3.75773438 -45.64453125 3.765625 C-51.41627855 3.7605277 -51.41627855 3.7605277 -57 5 Z " fill="#000000" transform="translate(98,834)"/>
<path d="M0 0 C-1.09698167 5.69139902 -2.54053077 10.74567937 -5 16 C-5.94101562 15.65066406 -6.88203125 15.30132813 -7.8515625 14.94140625 C-9.10927474 14.48149655 -10.36709293 14.02187653 -11.625 13.5625 C-13.46964844 12.88380859 -13.46964844 12.88380859 -15.3515625 12.19140625 C-25.56415037 8.85646053 -36.60434711 8.54799691 -46.6171875 12.6640625 C-51.26695489 15.27098126 -53.80408941 18.87997668 -56.375 23.4375 C-57.90711562 29.71917403 -57.46236271 34.53769997 -54.30859375 40.125 C-48.1934352 48.88701822 -37.48818967 52.53536915 -28.00561523 56.55639648 C-14.961384 62.1137841 -2.35413632 68.41167932 3.4375 82.1875 C4.69302915 85.78815849 5.68203607 89.18443289 6 93 C6.06316406 93.70253906 6.12632812 94.40507813 6.19140625 95.12890625 C6.68087106 104.96557 3.71068118 114.97176994 -2.1171875 122.9375 C-12.74473564 134.57929548 -26.79251128 138.23835007 -42 139 C-55.25292021 139.12158642 -68.40929675 136.623259 -80 130 C-78.98408579 124.53135543 -77.92908943 119.23609987 -76 114 C-72.04935896 114.64633649 -68.6828066 115.88611772 -65 117.4375 C-52.83063741 122.1707921 -40.15441127 123.72002753 -27.625 119.375 C-21.9818302 116.88002943 -18.5187538 113.16319756 -15.8671875 107.640625 C-13.88356261 101.60039785 -13.94158125 94.46301216 -16.5625 88.625 C-23.05478526 77.84158099 -36.11203238 73.9290484 -47.25 69.5 C-59.22821403 64.53185485 -70.3222179 57.14365333 -75.5625 44.8125 C-78.47422615 35.32590834 -78.32771147 24.74388479 -74.45703125 15.56640625 C-67.78471348 3.81382509 -57.62611389 -2.28857747 -45 -6 C-30.16136443 -9.10671158 -13.18432968 -7.64691121 0 0 Z " fill="#326691" transform="translate(750,828)"/>
<path d="M0 0 C11.30564457 8.20373487 17.9314559 19.19325694 20.7421875 32.890625 C22.9951067 49.57013206 21.29762943 66.25742242 11.1875 80.1875 C10.74792969 80.82042969 10.30835938 81.45335937 9.85546875 82.10546875 C1.89694462 92.49512705 -11.21977235 97.4265117 -23.8125 99.1875 C-37.29706418 100.26792733 -50.77922621 96.91497543 -61.5 88.5 C-71.71433051 79.10474316 -77.52453969 66.00162704 -78.1484375 52.2421875 C-78.45587172 34.58836882 -75.64380933 19.94735609 -63.8125 6.1875 C-46.16084118 -8.95457793 -20.20977339 -12.56374245 0 0 Z M-49.875 17.125 C-55.19801479 23.61067328 -58.34170577 32.87013533 -58.8125 41.1875 C-58.86277344 41.90808594 -58.91304687 42.62867188 -58.96484375 43.37109375 C-59.45313535 55.57838365 -56.240372 67.14744972 -47.92578125 76.25390625 C-42.24659817 81.59836341 -36.74062394 84.2348438 -28.9375 84.625 C-21.15643535 84.37322441 -14.56814616 81.34263733 -8.8125 76.1875 C0.81301649 63.89041159 2.62700179 51.3870432 1.1875 36.1875 C-0.6940687 26.45011621 -5.032091 17.55005482 -13.25 11.75 C-25.95974115 4.06454513 -39.66608206 6.6310615 -49.875 17.125 Z " fill="#000000" transform="translate(197.8125,867.8125)"/>
<path d="M0 0 C10.56397964 8.92554853 16.39609952 19.40308821 17.83203125 33.26171875 C18.30193556 39.07078755 18.48314753 44.29129359 17.33203125 50.046875 C-6.09796875 50.046875 -29.52796875 50.046875 -53.66796875 50.046875 C-49.49644526 68.29010874 -49.49644526 68.29010874 -37.109375 79.85546875 C-30.62243021 83.02109781 -24.49099269 83.40057093 -17.41796875 83.359375 C-16.02288086 83.35635376 -16.02288086 83.35635376 -14.59960938 83.35327148 C-7.86374212 83.25487314 -2.03339524 82.27246796 4.33203125 80.046875 C5.98203125 79.716875 7.63203125 79.386875 9.33203125 79.046875 C10.32203125 83.666875 11.31203125 88.286875 12.33203125 93.046875 C-2.95389189 100.44328942 -22.14667209 102.35232149 -38.66796875 98.046875 C-47.29728746 94.86648695 -56.12943101 90.60941095 -61.66796875 83.046875 C-62.19519531 82.34304688 -62.72242188 81.63921875 -63.265625 80.9140625 C-72.38490751 67.33596618 -73.92368563 49.63977392 -70.97265625 33.82421875 C-67.6373814 20.0486928 -60.99348674 7.45496406 -48.79296875 -0.328125 C-34.47982166 -8.08826499 -13.70744506 -10.03473284 0 0 Z M-44.98046875 16.109375 C-49.32116185 21.72383274 -52.66796875 28.94140134 -52.66796875 36.046875 C-35.50796875 36.046875 -18.34796875 36.046875 -0.66796875 36.046875 C-1.648897 26.23759246 -2.73033566 19.23749691 -10.16796875 12.546875 C-15.75444944 8.01444727 -21.30508974 7.54511475 -28.30859375 7.671875 C-34.96153375 8.41452877 -40.34210295 11.30619418 -44.98046875 16.109375 Z " fill="#000000" transform="translate(636.66796875,866.953125)"/>
<path d="M0 0 C6.27 0 12.54 0 19 0 C19 41.25 19 82.5 19 125 C38.8 125 58.6 125 79 125 C79 130.28 79 135.56 79 141 C52.93 141 26.86 141 0 141 C0 94.47 0 47.94 0 0 Z " fill="#326790" transform="translate(923,823)"/>
<path d="M0 0 C6.20566324 3.50548916 9.90678887 8.47325641 13.359375 14.59375 C14.85562137 20.72836011 14.70871913 26.36288814 11.56640625 31.92578125 C-2.36894828 51.57291073 -21.6816978 61.96571728 -44.83984375 66.73828125 C-63.65665105 69.21478602 -87.7808557 67.97942953 -104.015625 57.15625 C-104.015625 56.49625 -104.015625 55.83625 -104.015625 55.15625 C-96.07100756 51.99118311 -88.19619704 49.97748886 -79.828125 48.28125 C-54.71718205 42.90997097 -39.33120712 33.79099734 -23.62890625 13.51171875 C-9.92722821 -4.1555839 -9.92722821 -4.1555839 0 0 Z " fill="#356892" transform="translate(472.015625,520.84375)"/>
<path d="M0 0 C0 9.57 0 19.14 0 29 C8.58 29 17.16 29 26 29 C26 33.95 26 38.9 26 44 C17.42 44 8.84 44 0 44 C0.04044108 51.94597546 0.09768664 59.89129865 0.18390274 67.83689117 C0.22328476 71.52702013 0.25551814 75.21691378 0.27099609 78.90722656 C0.28622464 82.47369583 0.32077753 86.03951781 0.36830902 89.60569763 C0.3902009 91.61728038 0.3924684 93.62904608 0.39434814 95.64074707 C0.50882821 102.84375296 0.95161694 107.94360415 5 114 C9.34248022 116.34566106 13.0447187 116.11788585 17.875 115.625 C20.906875 115.315625 20.906875 115.315625 24 115 C24.495 122.425 24.495 122.425 25 130 C15.1016709 133.95933164 3.6383764 134.23814931 -6.28515625 130.03125 C-12.62934587 126.52119369 -15.82047134 121.58764164 -18.05078125 114.80395508 C-19.64177667 108.25266989 -19.24560643 101.4776502 -19.1953125 94.78125 C-19.19157633 93.31294956 -19.18873222 91.84464661 -19.18673706 90.37634277 C-19.17914807 86.53602051 -19.15954103 82.69585263 -19.1373291 78.85559082 C-19.11676793 74.92718595 -19.10771351 70.99875582 -19.09765625 67.0703125 C-19.07629 59.38013023 -19.04114726 51.69010653 -19 44 C-24.28 44 -29.56 44 -35 44 C-35 39.05 -35 34.1 -35 29 C-29.72 29 -24.44 29 -19 29 C-19 21.08 -19 13.16 -19 5 C-5.66666667 0 -5.66666667 0 0 0 Z " fill="#000000" transform="translate(347,834)"/>
<path d="M0 0 C0.87906006 0.00088623 1.75812012 0.00177246 2.66381836 0.00268555 C11.12139021 0.15580949 19.13519974 1.19769974 25.3125 7.375 C23.6625 11.665 22.0125 15.955 20.3125 20.375 C18.3325 19.715 16.3525 19.055 14.3125 18.375 C5.8375516 15.74692212 -1.4014319 13.83480238 -9.88671875 17.41015625 C-12.83174691 18.98807806 -14.13949063 20.40798205 -15.6875 23.375 C-16.47624227 27.8938359 -16.54075519 31.06967612 -13.984375 34.98046875 C-11.5558174 37.51228135 -9.60696693 38.72228554 -6.4375 40.1875 C-5.38691406 40.68894531 -4.33632813 41.19039062 -3.25390625 41.70703125 C-2.07699219 42.25746094 -0.90007812 42.80789063 0.3125 43.375 C22.81140577 54.0254667 22.81140577 54.0254667 27.3125 65.375 C29.68177239 72.48281717 29.17545691 81.36502535 26.3984375 88.3203125 C21.9810601 96.6783719 15.1849863 101.39804736 6.3125 104.375 C-9.31560297 107.99343861 -24.23259256 106.42748743 -38.6875 99.375 C-38.23455135 97.62359857 -37.77491252 95.87392656 -37.3125 94.125 C-37.05726563 93.15046875 -36.80203125 92.1759375 -36.5390625 91.171875 C-35.79151491 88.71662697 -34.91626183 86.61882595 -33.6875 84.375 C-30.73242056 85.34259238 -27.80184556 86.33111949 -24.8984375 87.4453125 C-16.3543592 90.62286228 -8.07134075 91.99741001 0.8125 89.25 C4.93053593 87.04390933 6.41646596 85.64107659 8.3125 81.375 C8.95077717 77.21519361 8.76231244 73.66446233 7.375 69.6875 C2.25949058 63.95192883 -4.09371314 61.0970085 -11.1875 58.4375 C-21.43249374 54.57369559 -29.05668451 48.76022725 -34.5 39.1875 C-36.93681745 31.36403346 -36.38960346 24.18551956 -33.01171875 16.73046875 C-28.30719141 8.3622387 -22.42754981 4.34301708 -13.54296875 1.296875 C-8.94756019 0.19807417 -4.70773291 -0.00850337 0 0 Z " fill="#000000" transform="translate(272.6875,860.625)"/>
<path d="M0 0 C12.55158618 6.46552448 25.02120906 6.79442225 38.9375 6.8125 C39.95896622 6.81500763 39.95896622 6.81500763 41.00106812 6.81756592 C55.66920995 6.81971425 69.63928474 4.97942446 83.96899414 1.95507812 C86.73275857 1.46601318 89.38862572 1.41519083 92.1875 1.5625 C72.33840043 22.02068746 41.36132749 33.99950971 12.96557617 34.72363281 C11.47060622 34.74345259 9.97554642 34.75721376 8.48046875 34.765625 C7.27140617 34.77417511 7.27140617 34.77417511 6.03791809 34.78289795 C4.34291877 34.79228336 2.64790173 34.79885598 0.95288086 34.80273438 C-1.60791575 34.81243528 -4.16790676 34.84351811 -6.72851562 34.875 C-23.98327209 34.9866093 -23.98327209 34.9866093 -31.8125 31.5625 C-34.60418721 28.77081279 -34.14510616 26.96273373 -34.1875 23.0625 C-34.04609178 14.94400476 -32.76685942 8.00186896 -26.75 2.1875 C-17.44560205 -4.86615806 -9.99503873 -5.33411879 0 0 Z " fill="#356892" transform="translate(740.8125,521.4375)"/>
<path d="M0 0 C0 5.94 0 11.88 0 18 C-2.660625 18.0928125 -2.660625 18.0928125 -5.375 18.1875 C-12.6534759 18.83123313 -18.89650427 20.50373821 -23.8828125 26.12109375 C-31.0738387 36.42128346 -31.14891442 47.01900134 -31.31640625 59.15234375 C-31.33718735 60.40761368 -31.35796844 61.66288361 -31.37937927 62.95619202 C-31.43348743 66.27199117 -31.48379613 69.58780275 -31.53222656 72.90368652 C-31.5827194 76.29586878 -31.63825952 79.68796812 -31.69335938 83.08007812 C-31.8001979 89.7199877 -31.90155636 96.35996087 -32 103 C-38.27 103 -44.54 103 -51 103 C-51.33 69.67 -51.66 36.34 -52 2 C-46.39 2 -40.78 2 -35 2 C-34.34 7.28 -33.68 12.56 -33 18 C-32.34 16.824375 -31.68 15.64875 -31 14.4375 C-23.33095531 2.21902202 -13.87972373 -0.42926981 0 0 Z " fill="#000000" transform="translate(557,861)"/>
<path d="M0 0 C3.03650956 1.65110208 5.54680368 3.54680368 8 6 C8.58246089 10.32685235 8.34777613 12.42785218 6.0625 16.1875 C1.44003556 21.0307001 -4.4534847 23.19496852 -11.0625 23.5 C-17.20642931 23.19565675 -21.61832466 21.33551884 -26.015625 17.0234375 C-31.83080841 10.52272434 -31.83080841 10.52272434 -32.375 5.625 C-32 2 -32 2 -29.6875 -0.375 C-21.13065464 -5.5489065 -8.86594274 -3.86255226 0 0 Z " fill="#427299" transform="translate(448,278)"/>
<path d="M0 0 C1.3125 3.1875 1.3125 3.1875 1 7 C-1.77831537 12.35675193 -5.70116826 16.12020014 -11 19 C-16.01621363 20.50486409 -21.30623511 21.14094436 -26.22265625 19.05859375 C-30.21788364 16.67639275 -33.69172683 14.11474783 -36 10 C-36.25 7 -36.25 7 -35 4 C-26.45227758 -3.68239743 -9.79876794 -6.75026236 0 0 Z " fill="#FAFBFC" transform="translate(704,272)"/>
<path d="M0 0 C3.03650956 1.65110208 5.54680368 3.54680368 8 6 C8.58246089 10.32685235 8.34777613 12.42785218 6.0625 16.1875 C1.44003556 21.0307001 -4.4534847 23.19496852 -11.0625 23.5 C-17.20642931 23.19565675 -21.61832466 21.33551884 -26.015625 17.0234375 C-31.83080841 10.52272434 -31.83080841 10.52272434 -32.375 5.625 C-32 2 -32 2 -29.6875 -0.375 C-21.13065464 -5.5489065 -8.86594274 -3.86255226 0 0 Z M-29 4 C-28.21174777 9.87606208 -25.1882444 13.01037338 -21 17 C-16.57418858 19.95054094 -13.27988815 20.62642741 -8 20 C-2.50520859 18.26774373 2.11761855 16.24069355 5 11 C5.23901711 8.87092681 5.23901711 8.87092681 4 7 C-1.93275552 1.23675178 -8.25498704 0.6554037 -16.125 0.6875 C-17.32189453 0.66333008 -17.32189453 0.66333008 -18.54296875 0.63867188 C-22.93292808 0.63500747 -25.75972009 0.68090247 -29 4 Z " fill="#EFF3F6" transform="translate(448,278)"/>
<path d="M0 0 C-0.59862354 3.20162702 -0.91264558 3.91936515 -3.4375 6.25 C-8.15438896 8.56706826 -11.85329675 9.30013879 -17 8 C-20.49063023 5.76744034 -23.42477869 3.25323851 -26 0 C-26 -0.99 -26 -1.98 -26 -3 C-17.01346801 -5.99551066 -8.38288479 -3.69639015 0 0 Z " fill="#FAFBFC" transform="translate(449,286)"/>
</svg>
